<svg xmlns="http://www.w3.org/2000/svg" viewBox="0 0 1080 1080" xmlns:v="https://vecta.io/nano"><path d="M290.59 763.7c-7.17 0-13.25-2.57-18.25-7.72-5-5.14-7.5-11.45-7.5-18.91s2.65-14.3 7.96-19.68c5.31-5.39 11.79-8.08 19.44-8.08s13.96 2.6 18.92 7.81 7.45 11.91 7.45 20.11v25.23h-15.72v-24.71c0-3.93-1-7.05-3-9.36s-4.69-3.46-8.07-3.46c-3.1 0-5.72 1.07-7.86 3.22s-3.21 4.81-3.21 8 1.17 6.01 3.52 8.26c2.34 2.25 5.27 3.38 8.79 3.38 1.52 0 3.41-.48 5.69-1.45v15.92c-3.24.97-5.96 1.46-8.17 1.46zm134.84-17.89l-5.86-7.75 16.05-11.65c-2.06-1.82-4.44-2.73-7.12-2.73-3.44 0-6.43 1.27-8.98 3.79-2.54 2.53-3.82 5.5-3.82 8.92s1.15 6.12 3.46 8.51 5.14 3.59 8.52 3.59c3.92 0 7.64-2.03 11.15-6.1l12.51 6.93c-1.52 2.43-2.83 4.25-3.93 5.47-1.1 1.21-3.21 2.95-6.31 5.21s-7.54 3.38-13.33 3.38c-7.44 0-13.74-2.58-18.91-7.74s-7.75-11.49-7.75-18.99 2.6-14.04 7.81-19.2c5.2-5.16 11.7-7.74 19.49-7.74 5.58 0 9.94 1.06 13.08 3.19 3.14 2.12 5.43 4.11 6.88 5.96 1.17 1.58 2.55 4.08 4.14 7.5l-27.09 19.44zm133.09 16.96c-7.72 0-13.86-2.26-18.41-6.77s-6.83-10.6-6.83-18.25c0-8.07 2.62-14.84 7.86-20.32s11.82-8.22 19.75-8.22 14.01 2.6 18.87 7.8 7.29 11.93 7.29 20.19v21.17c0 7.98-2.81 14.51-8.43 19.57s-12.91 7.59-21.87 7.59h-2.28c-.83 0-1.64-.05-2.43-.15a46.4 46.4 0 0 1-2.69-.46c-1-.21-2.29-.55-3.88-1.03v-15.31l5.07 1.37 4.34.39c10.89 0 16.34-4.3 16.34-12.9V736.6c0-3.37-1.05-6.21-3.15-8.51s-4.77-3.46-8.01-3.46-5.69 1.05-7.76 3.15-3.1 4.84-3.1 8.22 1.1 6.38 3.31 8.58c2.28 2.07 5.27 3.1 9 3.1.83 0 1.72-.1 2.69-.31.96-.21 2.1-.58 3.41-1.14v15.2c-3.58.9-6.62 1.34-9.1 1.34zm120.05-75.79c2.55 0 4.76.9 6.62 2.69s2.79 4 2.79 6.62-.9 4.93-2.69 6.72-4.03 2.69-6.72 2.69-4.76-.9-6.62-2.69-2.79-4-2.79-6.62.89-4.93 2.69-6.72c1.79-1.79 4.03-2.69 6.72-2.69zm7.96 23.67v51.81h-15.82v-51.81h15.82zm126.35 36.82c0 4.71-1.72 8.54-5.17 11.49s-8.58 4.42-15.38 4.42c-3.8 0-7.19-.35-10.15-1.04s-6.19-1.67-9.69-2.95v-12.93c3.06 1.75 5.72 3.08 7.98 3.99 2.25.91 4.73 1.36 7.42 1.36 4.54 0 6.82-1.25 6.82-3.74 0-.84-.33-1.59-.98-2.25s-1.8-1.4-3.43-2.22-3.81-1.81-6.54-2.95c-3.37-1.48-6.23-3.47-8.58-5.96-2.36-2.49-3.53-5.54-3.53-9.14 0-2.56.78-5.01 2.35-7.37s3.93-4.28 7.09-5.78 6.98-2.25 11.46-2.25c1.08 0 2.45.08 4.12.23s3.77.55 6.31 1.19a33.82 33.82 0 0 1 7.25 2.73v12.57l-2.7-1.62c-.72-.44-1.69-.93-2.9-1.46-1.21-.54-2.63-1.02-4.27-1.44s-3.31-.63-5.02-.63c-2.09 0-3.52.4-4.29 1.21s-1.16 1.62-1.16 2.42.4 1.62 1.21 2.35c.81.72 2.61 1.62 5.4 2.7 4.04 1.55 7.27 3.14 9.69 4.77s4.15 3.43 5.18 5.38 1.54 4.26 1.54 6.92z" fill="#01acf1"/><path d="M516.65 666.94c-52.16 0-96.42-18.71-132.77-56.15-36.37-37.42-54.54-83.28-54.54-137.54s19.3-104.01 57.92-143.2c38.61-39.19 85.76-58.79 141.42-58.79s101.55 18.94 137.66 56.8c36.11 37.87 54.16 86.64 54.16 146.31v183.55H606.16V478.13c0-28.59-7.28-51.27-21.82-68.08-14.55-16.8-34.11-25.2-58.67-25.2-22.57 0-41.63 7.82-57.17 23.43-15.55 15.62-23.32 35.01-23.32 58.18s8.52 43.71 25.58 60.09c17.04 16.37 38.36 24.55 63.94 24.55 11.02 0 24.82-3.5 41.37-10.53v115.79c-23.58 7.05-43.38 10.59-59.43 10.59z" fill="#00adef"/></svg>