<svg xmlns="http://www.w3.org/2000/svg" viewBox="0 0 1080 1080" xmlns:v="https://vecta.io/nano"><path d="M539.79 373.39c-29.67.88-56.9 17.39-70.42 44.91-9.08 18.49-9.81 47.33-1.62 65.16 10.99 23.94 34.9 42.5 60.05 46.61 60.46 9.87 110.04-48.6 89.12-105.04-7.42-20.03-28.11-40.73-47.07-47.07-10-3.34-20.18-4.86-30.07-4.56h0zm-.62 8.97c4.58.17 5.35 1.94.39 4.72-9.36 5.24-21.95 17.99-28.21 28.67-3.59 6.12-7.79 16.87-9.35 23.81l-2.86 12.6-3.94-6.18c-5.56-8.57-10.13-28.3-8.27-35.71 2.12-8.44 23.9-22.77 40.27-26.44 5.06-1.13 9.23-1.57 11.98-1.47h0zm42.82 15.07c3.45.15 6.14 2.14 10.82 7.11 4.2 4.47 10.33 13.91 13.6 21.02 3.39 7.35 5.62 16.23 5.18 20.56l-.77 7.65-9.66-11.59c-11.92-14.3-27.62-24.5-43.75-28.37-18.36-4.4-12.39-9.02 20.79-16 1.42-.3 2.64-.44 3.79-.39zm-40.73 19.86c17.22-.58 36.17 17.09 36.17 34.94 0 11.22-7.94 24.01-18.78 30.22-11.78 6.75-21.8 7.04-33.16 1-31.37-16.67-23.38-59.23 12.37-65.78 1.12-.21 2.26-.34 3.4-.39h0zm-12.76 11.52l-.93 3.48h5.64l-9.35 30.69-1.46 1.7-2.86.49-2.64 5.6 44.52.09 8.04-19.4-5.41.08-1.78 5.64s-1.87 5.37-3.62 6.53c-2.27 1.5-10.04 1.04-10.04 1.04l-8.31-.15 8.98-31.77 6.03-.08.93-3.86-27.75-.08zm-57.43 21.8l12.76 13.91c13.37 14.63 29.5 24.47 44.91 27.36 5.03.94 9.12 2.57 9.12 3.63s-4.4 3.71-9.81 5.87c-17.63 7.05-27.75 7.53-35.17 1.7-8.69-6.84-21.8-33.33-21.8-44.06v-8.42zm112.78 5.18c3.27-.38 10.94 15.8 12.6 29.83 1.31 11.09 1.04 11.71-8.58 19.32-5.48 4.34-13.7 9.49-18.24 11.36s-13.1 4.13-19.01 5.1l-10.74 1.78 17.16-16.93c16.65-16.44 25.35-32.2 25.35-45.83 0-3.1.55-4.53 1.47-4.64h0zM225.12 566.47l-6.26 1.47s-3.76 1.12-5.1 2.63c-1.33 1.49-2.78 5.49-2.78 5.49s-1.81 4.5-1.62 6.49c.17 1.88 2.2 6.49 3.02 8.19 1.06 2.21 4.2 4.91 6.34 4.95l33.01.47s1.24.87 1.62 1.39c.45.61.93 1.55 1 2.24.11.92-.3 2.36-.62 2.94-.45.82-2.01 1.7-2.01 1.7h-41.74v2.01c0 1.09.68 3.65 2.47 5.1 0 0 2.15 2.8 3.48 2.78l46.69-.08c1.18-.02 2.03-1.29 2.88-2.36.78-.99 1.43-2.81 1.92-3.97.66-5.29.96-11.12-.31-16.31-.53-.97-1.16-3.42-2.09-4.02s-2.76-1.76-3.71-1.78l-35.63-.15c-1.29 0-.96-2.91-.92-4.19.05-1.35-.05-4.28 1.3-4.31 11.87-.24 40.81-.08 40.81-.08v-3.71s-.96-2.45-1.93-3.4c-1.03-1.01-3.46-2.15-4.79-2.71-1.88-.79-5.95-.77-5.95-.77h-29.06zm51.64 0v47.85h14.53v-18.09h29.76v18.09h15.07v-47.84s-3.65.52-6.15 1.03c-2.01.41-5.02 1.4-6.51 2.81-1.64 1.55-2.36 5.84-2.36 5.84l-.05 8.62h-29.76v-8.04s.2-5.61-1.47-7.42c-1.33-1.44-3.83-1.7-5.87-1.93s-7.19-.93-7.19-.93zm227.55 0v47.85h47v-12.37h-33.39c.16-10.36.21-20.72 0-31.07-1.72-2.42-3.09-2.02-5.13-3.09-2-1.06-8.48-1.31-8.48-1.31zm180.56 1.08v46.76h47v-12.37h-31.92l-.77-30.23c-.05-2.3-5.21-3.69-7.5-3.94-2.04-.22-6.8-.23-6.8-.23h0zm-331.67-1.08c-1.64 0-5.36 3.15-6.42 4.17-.99.96-2.99 4.23-3.01 5.87-.23 9.58-.25 19.17-.23 28.75 0 1.83 1.71 3.98 2.94 5.34s3.43 3.69 5.26 3.71h47.07c1.83-.08 4.05-1.79 5.41-3.02s3.52-4.09 3.54-4.81c.12-4.91.09-15.83.09-15.83s.07-7.06-.16-13.84c-.06-1.74-1.18-5.82-2.32-6.96s-3.88-3.4-5.49-3.4c-15.56-.03-31.12-.03-46.69 0h0zm455.34.77v47.07h15.54v-34.24l27.36 34.24h21.41v-47h-14.84v32.23c-8.33-10.55-17.64-20.18-26.98-29.81-2.26-2.32-11.33-2.39-11.33-2.39l-11.16-.11zm-48.54 0l-25.89 47.07h17l4.95-7.58 27.13.16 5.02 7.65 15.77-.23-.77-2.16c-7.36-15.14-15.39-29.95-23.11-44.91H760zm-344.73-.77v47.85h14.84v-17.31h2.63c1.44 0 7.76 3.9 13.99 8.66l11.28 8.66h20.25l-9.74-8.04-14.76-12.06-4.95-4.1 12.29-11.28 12.1-12.37h-18.61l-9.96 9.51c-5.27 4.76-10.7 8.66-12.06 8.66h-2.47v-18.16h-14.84zm465 .85v47h52.79c1.94-.04 4.37-1.48 5.8-2.78 1.39-1.27 3.22-3.53 3.25-5.41v-29.76c-.03-1.86-1.69-4.03-2.94-5.41-1.27-1.41-3.32-3.26-5.22-3.33l-53.68-.3zm-200.42.23h-15.23l-16.85 16.85-8.5-8.73-7.65-8.12h-16.54l12.83 15.77 12.44 14.69v16.31h14.84v-16.31l12.45-15.84 12.21-14.61zm-69.19.47l-44.83.31c-1.08 0-3.68.75-4.48 1.47-.94.84-2.56 2.99-2.55 4.25l-.08 40.27h51.94v-12.37h-37.1v-6.12h37.1v-10.08h-37.1v-6.29h37.1v-11.44zm-447.99-1.55l-24.81 47.85 15.84.07 4.17-7.49 28.75-.08c1.75 3.19 2.56 4.7 4.25 7.5h17.62l-24.58-47.85h-21.25zm606.92 12.37l7.19 15.69H761.4l8.19-15.69zm-596.24-.47l7.41 16.16-16.15-.08c3.24-5.75 4.48-9.37 8.75-16.08h0zm750.28 1.01s1.36.8 1.78 1.31c.5.6 1.08 2.32 1.08 2.32v16.62s-.63 1.07-1 1.47c-.37.39-1.39 1.08-1.39 1.08h-28.99v-22.72l28.52-.08zm-557.37 1.31h21.57c2.32.09 3.07.46 3.48 1.13.45.75.57 3.11.54 5.44l-.12 11.37s.05 1.99-.44 2.49c-.47.48-3.16.74-3.16.74h-23.38c-5.02.3-5.3-1.58-5.58-4.02l.06-9.72c.13-4.87-.56-6.97 3.24-7.39 1.29-.14 1.78-.04 3.8-.03h0z" fill="#016fb6"/></svg>