<svg xmlns="http://www.w3.org/2000/svg" viewBox="0 0 1080 1080" xmlns:v="https://vecta.io/nano"><path d="M116.68 610.93H46.09v-133.6h987.82v98.48l-.15.44h-28.43c-4.19-.24-8.33-3.42-10.5-6.9-.65-1.04-1.96-3.43-.99-4.32l-.45-.16V511.5l.45-.28c-.48.33-.58.19-.33-.33l-.21.44h-16.11l-.27-.44.45.21v77.76l-.45.28.21-.44h56.52l.28.44v21.79H124.25c-.15-.53.14-.6.6-.68 1.06.29 2.12.36 3.18.24l.43-.45c13.35-2.29 4.85-20.45-5.74-11.83-.45.78-.98 1.31-1.59 1.61-1 1.49-3.25 2.14-4.97 2.52-1.53.34-4.17.82-5.27-.3l-.28-.5 1.37-3.17c.36-.53.81-2.29-.19-2.3l-20.66-.04c-1.73-.01-3.46-.23-5.18-.44l-.26.44h-3.88l-.32-.44c-.89-.58-.47-2.37-.24-3.34 1.12-4.61 5.65-8.15 10.37-8.23 2.55.2 5.04.11 7.46-.27l5.97-13.73c.3-.33-.33-1.17-.55-1.18l-29.65-.16c-2.81-.31-5.65-.45-8.5-.43-1.05.17-2.17.17-3.34 0-.29.95-1.17.39-.81-.79.9-2.89 5.83-7.91 8.69-8.89l.8.12c.7-1.15 3.12-1.67 4.48-1.76 10.68-.36 21.37-.3 32.08.17 2.75.16 5.33 0 7.74-.47l6.4-14.77c.35-1.05-.03-1.63-1.14-1.64a610.22 610.22 0 0 1-33.96-.43c-.07.59-.28.56-.45 0l.41-.98c2.26-2.24 4.47-4.52 6.62-6.84l.54-.18a2.35 2.35 0 0 1 1.78-2.22c1.16-.92 3.36-1.31 4.68-.67.93-.14 1.87-.18 2.84-.13l.2-.35 30.86-.3c2.48-5.4 4.96-11.09 7.28-16.65.37-.89-.69-1.45-1.47-1.46h-31.55l-.16-.33c-.62.05-1.21.02-1.76-.11-.05-.2-.1-.39-.11-.59-.04-.6 1.82-7.35 2.16-7.84a3.39 3.39 0 0 1 .4-.45l.68-.69c2.48-.81 5.02-1.51 7.63-1.76l36.99-.05c.84-1.33 1.56-2.85 2.14-4.58 1.99-4.27 3.99-8.58 5.65-12.94.51-1.34.73-2.35-.91-2.66a1260.58 1260.58 0 0 1-51.08-.44c-5.26.61-10.55.6-15.81 0l-.51.3-13.83.08-1.03-.38c-.23.36-.67.61-1.3.73-18.17 12.5-30.31 33.07-31.26 55.72-.34 8.06.87 14.26 2.52 22.03.11.51.05 1.04-.02 1.55.98 1.62 1.72 3.41 2.23 5.37.86 1.81 1.46 3.65 1.78 5.53l.94.94c3 6.55 7.34 12.3 11.99 17.74l.21.66.81.2c1.95 2.05 4.08 3.9 6.27 5.69l.27.78c.27-.26.55-.15.84.32l10.73 7.46c.69-.33 1.93.39 2.23 1.11h.68c7.19 3.57 14.43 5.06 22.21 6.53.43.08.81.34 1.16.58 1.27-.56 3.74-.31 4.9.44z" fill="#fcfcfc"/><path d="M1033.91 575.8v13.34H976.9v-78.25h16.59l.33.33v53.8c0 4.77 6.84 10.9 11.68 10.79h28.4z" fill="#da353a"/><path d="M128.04 610.48c-.92.51-2.23.09-3.25.21l-.54.23c-2.51-.08-5.06.11-7.57 0l-4.9-.44c-2.01-.82-2.29-3.61-2.25-5.56.02-.85.4-2.87 1.36-2.89 3.49.7 7.27-.4 10.24-2.22l.25.57c-1.71 4.48 1.48 9.33 6.25 9.64l.41.46z" fill="#fae236"/><path d="M191.73 510.56c.08-.24.51-.37.77-.34 13.06.42 26.42-.51 39.44 0 9.12.36 20.2 2.34 25.22 10.84 4.35 7.37 2.81 17.52-3.63 23.18-1.73 1.52-3.82 2.46-5.67 3.78 8.25 2.05 14.46 7.68 15.56 16.37 2.15 17.01-12.26 23.39-26.8 24.1h-44.88v-77.93zm558.7 78.58h-16.7v-78.25c11.26.31 22.73-.4 33.97 0 16.81.59 32.6 7.19 33.73 26.13 1.06 17.9-11.28 28.29-28.17 29.9-6.57.62-11.72-.79-17.26 3.89s-5.79 11.3-5.56 18.34zm-22.49 0h-17.59l-7.23-17.13c-9.07.44-18.61-.53-27.63 0-4.83.29-9.14 2.05-12.12 5.91-2.59 3.35-3.49 7.57-5.46 11.22h-17.04l34.85-78.03.66-.23 16.6.12 34.96 78.14zm-323.78-.67l34.77-78.22 17.01-.05 35.29 78.27h-17.48l-7.03-16.77-.75-.36c-9 .44-18.47-.54-27.41 0-3.65.22-7.09 1.3-9.9 3.67-4.05 3.42-5.4 8.73-7.35 13.45h-17.15zm-55.44 0h-17.59l-7.23-17.13h-27.85c-5.19.32-9.77 2.56-12.66 6.93-2.07 3.12-2.87 6.98-4.7 10.21h-17.04l34.85-78.03c.16-.25.41-.2.66-.23 4.89-.61 11.03.49 16.06 0l.66.23 34.85 78.03zm622.39.67h-17.59l-7.23-17.13h-27.41c-6.96.41-11.56 3.49-14.55 9.72-1.16 2.43-1.88 5.11-3.26 7.42h-16.81l35.06-78.27 16.94.24 34.85 78.03zm-364.13-79.52c12.64-.53 25.23 3.55 33.67 13.16-2.18 2.15-4.6 4.22-7.62 5.06-7.9 2.2-12.53-3.26-20.13-4.03-18.3-1.85-31.46 11.69-29.45 29.84s18.82 26.78 35.05 21.49c4.47-1.46 8.11-4.45 11.54-7.55l10.6 9.65c-5.22 5.85-12.02 10.03-19.67 11.92-23.57 5.83-49.03-5.77-53.96-30.66-5.28-26.62 13.58-47.77 39.97-48.89zm-59.63.6v53.25c-.62 12.9-5.94 22.86-19.33 25.6-11.97 2.45-25.55-.31-33.65-9.86l8.9-10.97c.4-.27 2.36 2.28 2.77 2.67 4.64 4.38 10.51 6.72 16.92 4.87 5.66-1.63 7.4-7.21 7.7-12.54.41-7.28.5-17.9-.01-25.13-.34-4.78-2.75-9.25-6.7-11.99-6.2-4.3-14.46-2.36-21.58-2.8v-12.78s.31-.33.33-.33h44.65zm-142.52 0v54.36c-.81 13.09-6.92 22.25-20.26 24.67-10.34 1.88-22.14-.18-30.07-7.34-.64-.58-2.73-2.37-2.34-3.22l8.92-10.45c3.14 3.3 6.57 6.7 11.2 7.71 9.22 2.01 15.26-2.45 15.86-11.82.56-8.68-.43-17.94-.01-26.68-.59-5.61-4.07-10.53-9.27-12.75-5.62-2.4-12.78-.96-18.78-1.37v-13.12h44.76zm495.69.67v13.23l-.33.33h-12.25c-5.52 0-13.03 7.72-13.03 13.23v51.46h-16.92v-64.69h-25.61v-13.56h68.14z" fill="#da353a"/><path d="M79.49,477.54c.46.08.76.13.82.65-.82,21.12-1.23,42.03-1.23,62.74l-.27,4.27c-.2.45-.49.87-.87,1.25-.04.16-.09.31-.16.46-.25.48-6.15,3.83-7.24,4.4l-.84.04c-2.33,1.47-4.83,2.46-7.41,3.4s-10.02,3.46-12.19,3.03c-.23-.04-.45-.12-.67-.21-8.17-27.69.63-56.28,22.39-74.91,1.31-1.12,5.08-4.34,6.44-4.91.56-.24.71-.16,1.24-.21Z" fill="#f9ed35"/><path d="M826.15,510.89v78.25h-16.7v-66.36c0-5.63,7.3-11.89,12.8-11.89h3.9Z" fill="#da353a"/><path d="M109.56 500.66c-.11-.49-.22-.99-.16-1.49.94-7.06 1.8-13.73 1.06-20.89l.21-.74h51.11c2.41.48 1.71 2.08 1.1 3.78-2 5.55-5.13 11.04-7.18 16.62l-.7.63-37.1.09c-2.87.28-5.62 1.11-8.34 2.01z" fill="#e43539"/><path d="M94.86 477.54c.7.01.7.87.69 1.45l-1.35 50.43.22 2.36c-2.26 2.72-4.94 5.64-7.57 8-.08.23-.17.45-.29.66-.67 1.16-6.59 5.56-7.9 5.9-.23.06-.47.09-.71.11.1-.52.39-.88.45-1.44.55-5.13.08-11.82.21-17.13l1.11-47.35c.02-1.04.62-1.96-.21-2.99 4.78-.37 10.47.01 15.37 0z" fill="#fcd735"/><path d="M71.7 558.68c-.9-.47.18-2.05.63-2.72.36-.53.77-1.04 1.18-1.54 4.37-5.2 9.58-9.67 14.63-13.94-.51-.1-.79-.34-.85-.7l33.97-.01c1.41-.01 2.01.91 1.55 2.24l-6.47 14.88c-.33.38-.83.47-1.31.47-12.51.72-26.16-.99-38.54-.02-1.62.13-3.31.7-4.78 1.34z" fill="#e43539"/><path d="M110.67 477.54c.92 7.58.46 15.65-1.11 23.12a77.94 77.94 0 0 1-2.45 8.89c.19.07.19.15 0 .22.04.22.08.44.08.67.01 1.84-3.15 7.61-4.23 9.59-1.69 3.07-3.6 6.02-5.68 8.84l-1.08.69c-.57.75-1.18 1.5-1.78 2.22-.58.2-.62-1.2-.64-1.47-.11-1.48.19-2.65.2-3.96l1.12-47.36c.02-.5-.1-.97-.24-1.44h15.81z" fill="#fdc430"/><path d="M107.11,509.56h33.51c1.2.14,2.2.7,1.85,2.06-2.34,4.82-4.1,9.92-6.37,14.76-.24.5-.76,1.96-1.2,2.15l-34.02.37c-.35-1.02,2.1-.78,2.61-.47.75-3.79,1.81-7.53,3.18-11.21.7-2.3,1.35-4.64,1.75-6.99-.69.14-1.13-.01-1.3-.44.02-.07-.02-.16,0-.22Z" fill="#e43539"/><path d="M81.5 595.59l.48.18c.62 2.26 1.98 4.33 3.62 5.98l-.09.51c-3.94-1.9-7.58-4.42-11.02-7.12-.27-.21-.41-.55-.56-.66l-.44-.81.21-24.79c-1.94.22-3.8.08-5.56-.41-.57.61-1.21.61-1.78 0-.19-.06-.19-.14 0-.22l38.24.17c.72.41 1.22.97.84 1.83l-6.02 13.77c-.91.89-6.95.28-8.65.47-5.35.62-9.96 5.63-9.27 11.09z" fill="#e73539"/><path d="M87.29,539.79l1.34.22c.02.33-.03.67-.21.95-.39.62-3.65,2.83-4.47,3.59-2.77,2.55-10.2,9.51-11.75,12.5-.27.51-.47,1.04-.49,1.63-4.14,1.81-7.61,5.41-9.35,9.56.21.04.48-.04.67,0,1.14.05,2.25.13,3.34.22.59.01,1.19,0,1.78,0,.09,1.14-.07,2.33-.47,3.59-.27,4.97-.34,9.95-.21,14.94-.06.59-.21,1.13-.88.81-5.62-5.95-9.7-11.88-13.14-19.34.05-2.77.47-5.66,2.53-7.73,3.99-3.75,8.86-6.77,13.73-9.39,2.4-1.72,5.61-3.17,8.24-4.89,3.09-2.02,6.16-4.2,8.91-6.67h.45Z" fill="#ad2e30"/><path d="M110.89 602.03c-.27.74-.7 1.26-.83 2.17-.34 2.35.16 4.5 1.72 6.28-8.08-.86-16.83-3.4-24.05-7.11l-.6-.63-1.54-6.73.36-.42 25.89.05c.66.15 1.07.7 1.04 1.38-.03.74-1.61 3.97-1.99 5.02z" fill="#e73539"/><path d="M128.04,610.48c-5.46-.07-9.14-5.65-6.9-10.67,2.4-5.38,10.56-5.81,13.54-.74s-.66,11.48-6.64,11.41Z" fill="#ea3539"/><path d="M68.14 568.47h6.01l-.22 26.01c-2.85-2.3-4.78-3.95-7.35-6.67.45-.29.43-.75.46-1.21.37-6.06-1.05-12.35 1.1-18.13z" fill="#ce3134"/><path d="M69.7,551.35c-3.58,2.57-7.64,4.98-11.12,7.68s-4.34,4.25-4.69,8.66c-.03.42.25.89-.44.77-1.63-3.54-2.91-7.16-4.01-10.89,7.07-.93,13.75-3.48,20.26-6.22Z" fill="#892c2d"/><path d="M107.11,509.78h1.78c.28.28-1.41,6.2-1.67,7.11-1.12,3.92-2.75,7.76-3.45,11.78-.77.06-1.6-.08-2.35,0-.29.03-.49.23-.54.23-1.57.18-3.13.28-4.68.67,4.45-5.85,8.48-12.82,10.91-19.78Z" fill="#a42f30"/><path d="M85.95,595.59l1.78,7.78c-.75-.39-1.48-.51-2.23-1.11-1.53-1.25-3.76-4.71-4.01-6.67h4.45Z" fill="#932d30"/><path d="M66.36,568.24v.22c-1.26-.02-2.11.08-3.34-.22h3.34Z" fill="#ce3134"/><path d="M221.96 554.97c4.44-.48 13.18-.37 17.37.98 3.82 1.23 6.71 4.07 7.15 8.2 1.85 17.54-25.9 10.68-35.95 12.1-.94.04-1.72-.52-1.87-1.47-.21-1.35-.14-4.99 0-6.43.6-6.68 6.67-12.68 13.31-13.39zm1.34-32.46c7.39-.58 19.27.31 19.4 10.07.11 8.68-8.09 10.24-15 10.54-4.76.21-12.09.43-16.72 0-.87-.08-2.13-.45-2.32-1.46s-.1-4.57.02-5.75c.76-7.56 7.31-12.83 14.62-13.41zm527.13 31.28v-29.34c6.28.34 13.03-.46 19.26 0 10.4.77 16.42 8.02 14.26 18.46-3 14.51-22.91 10.22-33.52 10.88zm-78.27 6.01c-.55-.11-1.13-.92-1.16-1.48l13.19-31.87 13.92 33.35h-25.94zm-210.77-.67h-27.83l13.92-33.57 13.91 33.57zm-142.51 0h-27.62l14.03-33.57 13.59 33.57zm622.39.67h-27.61l14.03-33.57 13.58 33.57z" fill="#fefefe"/></svg>