<svg xmlns="http://www.w3.org/2000/svg" viewBox="0 0 1080 1080" xmlns:v="https://vecta.io/nano"><g fill="#47464b"><path d="M285.11 603.57c-13.89 0-26.53-10.36-26.53-21.73v-23.42c0-12.69 12.98-24.69 26.71-24.69 8.71 0 14.52 4 16.8 11.55 1.41 4.77 1.8 9.25 1.8 20.89v8.48c0 7.88-1.08 15.95-2.68 20.05-2.19 5.56-8.21 8.87-16.1 8.87m-.37-75.03c-11.17 0-19.95 4.91-26.16 14.61v-71.74s-2.3 8.45-12.56 8.45h-18.64v5.39h14.2v115.56h-14.2v5.39h31.2v-10.41c5.39 8.4 13.78 12.8 24.5 12.8 21.32 0 40.03-18.62 40.03-39.84 0-20.67-18.65-40.21-38.37-40.21m73.41-4.4s-3.89 8.45-12.56 8.45h-18.64v5.39h14.01v62.83h-14.2v5.39h43.95v-5.39h-12.56v-76.67"/><path d="M349.83 497.97c5.3 0 9.61-4.39 9.61-9.79s-4.4-9.61-9.61-9.61c-5.5 0-9.8 4.23-9.8 9.61s4.4 9.79 9.8 9.79m93.49 43.13c0-6.96-5.42-11.63-13.48-11.63-9.28 0-16.96 5.7-21.37 15.55v-19.15s-4.11 6.73-12.01 6.73h-17.7v5.39h12.52v62.83h-12.52v5.39h45.74v-5.39h-16.04v-30.58c0-8.71.34-11.51 1.97-16.61 2.06-6.19 4.3-9.65 7.25-12.99 2.09-2.37 6.49-6.16 8.28-6.16l2.38.37c-1.85 1.91-2.78 4.07-2.78 6.44 0 5.25 3.81 9.06 9.05 9.06 5.03 0 8.69-3.89 8.69-9.24m28.79-69.46s-1.86 8.21-12.74 8.21h-18.83v5.39h14.2v115.56h-14.2v5.39h45.58v-5.39h-14.01V471.65m51.6 129.9c-10.33 0-13.99-4.19-13.99-16.02 0-6.54 1.38-10.4 4.49-12.54 4.83-3.4 16.52-5.51 30.52-5.51h.16v22.59c-3.22 6.87-11.7 11.47-21.18 11.47m50.49-7.74l-.56.91c-2.72 4.42-5.17 6.47-7.71 6.47-2.01 0-3.05-.89-3.5-2.93q-.35-2.13-.72-15.48v-31.71c0-7.69-2.11-11.36-9.01-15.7-7.06-4.46-15.8-6.82-25.31-6.82-16.68 0-30.26 9.52-30.26 21.23 0 5.58 3.97 9.79 9.24 9.79s8.87-3.81 8.87-9.05c0-3.22-1.01-5.01-4.14-7.36-1.46-1.1-1.57-1.54-1.57-2.05 0-4.19 7.84-7.36 18.23-7.36 3.42 0 6.91.33 9.34.9 6.11 1.35 7.78 3.81 7.78 11.44v16.39c-13 0-28.04 2.4-37.41 5.97-9.36 3.25-16.43 12.03-16.43 20.42 0 11.55 10.94 19.01 27.86 19.01 12.01 0 21.73-3.83 27.14-10.62 2.08 6.55 7.58 10.25 15.45 10.25 7.3 0 12.85-3.49 16.48-10.37l.52-.99-4.32-2.32"/></g><path d="M622.69 557.85h-11.8c-11.35 0-17.86-4.23-17.86-11.59 0-7.83 7.23-12.89 18.42-12.89 13.01 0 20.72 6.29 22.3 18.19l.13.98h4.92l-.82-23.65H633v2.42c0 .85 0 2.83-.08 3.09 0 0-.07.02-.12.04-.08-.02-.18-.07-.29-.1-.17-.07-.37-.15-.45-.16-7.95-4.07-13.72-5.65-20.61-5.65-15.92 0-26.2 9.78-26.2 24.91 0 12.19 8.38 21.04 19.93 21.04h12.72c10.87 0 16.39 4.4 16.39 13.07 0 9.77-7.27 15.83-18.97 15.83-13.65 0-23.68-9.32-26.18-24.32l-.16-.94h-4.47v28.81h4.65v-2.6c0-3.48.92-3.48 1.27-3.48.56 0 1.89.22 4.44 1.7 8.66 4.71 12.46 5.85 19.34 5.85 17.88 0 29.89-11.27 29.89-28.04 0-13.89-8.21-22.51-21.41-22.51m93.73 23.81c0 7.44-1.01 12.24-3.3 15.58-2.72 3.91-9.42 6.34-17.51 6.34-6.75 0-14.04-1.94-16.96-4.51-3.94-3.43-5.7-8.91-5.7-17.77v-25.63c0-15.29 6.99-22.1 22.66-22.1 6.97 0 13.06 2.1 16.72 5.76 3.41 3.4 4.09 6.22 4.09 16.71v25.63h0zm4.43-43.09c-7.77-6.44-16.37-9.84-24.87-9.84-21.42 0-42.43 19.92-42.43 40.21s20.26 39.47 41.69 39.47 40.4-18.7 40.4-40.02c0-11.67-4.98-21.7-14.79-29.81m50.01-34.18c0-10.52.51-14.58 2.28-18.12 1.65-3.28 4.69-5.09 8.58-5.09s7.18 1.45 7.18 3.3c0 .6 0 .96-1.33 1.11-4.9 1.06-7.72 4.15-7.72 8.47 0 5.14 3.66 8.87 8.69 8.87 5.44 0 9.23-4.1 9.23-9.97 0-9.89-6.53-16.8-15.88-16.8-15.93 0-28.41 19.77-28.41 45.01v11.41h-14.2v5.39h14.2v62.83h-14.2v5.39h47.79v-5.39h-16.22v-62.83h21.23v-5.39h-21.23V504.4m76.61 87.36l-.38.87c-3.01 6.89-6.5 9.84-11.69 9.84-3.44 0-6.62-1.14-6.62-9.39v-55.1h23.42v-5.39h-23.42v-24.7h-4.84v2.41c0 3.88-3.01 11.08-6.6 15.75-3.27 4.46-8.07 6.54-15.13 6.54h-1.78v5.39h10.98v52.34c0 6.75 1.51 10.13 6 13.45 4.14 2.95 9.01 4.45 14.48 4.45 9.95 0 15.99-4.17 20.22-13.95l.53-1.22-5.16-1.29" fill="#ea1f28"/></svg>