<svg width="25" height="25" viewBox="0 0 25 25" fill="none" xmlns="http://www.w3.org/2000/svg">
<g clip-path="url(#clip0_37_823)">
<path d="M24.5 12.7197C24.5 6.09231 19.1274 0.719727 12.5 0.719727C5.87258 0.719727 0.5 6.09231 0.5 12.7197C0.5 18.7092 4.8882 23.6737 10.625 24.5739V16.1885H7.57812V12.7197H10.625V10.076C10.625 7.06848 12.4166 5.40723 15.1576 5.40723C16.4701 5.40723 17.8438 5.6416 17.8438 5.6416V8.59473H16.3306C14.84 8.59473 14.375 9.51981 14.375 10.4697V12.7197H17.7031L17.1711 16.1885H14.375V24.5739C20.1118 23.6737 24.5 18.7092 24.5 12.7197Z" fill="#C4C4C4"/>
</g>
<defs>
<clipPath id="clip0_37_823">
<rect width="24" height="24" fill="white" transform="translate(0.5 0.719727)"/>
</clipPath>
</defs>
</svg>
