<svg xmlns="http://www.w3.org/2000/svg" viewBox="0 0 1080 1080" xmlns:v="https://vecta.io/nano"><path d="M430.66 510.73v32.79h-37.14v-32.77h-20.48v86.05h20.48v-34.61h37.16v34.61h20.5v-86.07h-20.52zm95.56 0l-21.43 34.08-21.4-34.08h-24.18l35.37 56.24v29.81h20.46v-29.81l35.37-56.24h-24.19zm90.05 0v63.06c0 2.4-1.79 4.32-4.34 4.32h-32.82v-67.36h-20.48v86.05h60.51c5.38 0 9.72-1.61 12.88-4.75 3.14-3.16 4.73-7.48 4.73-12.84v-68.48h-20.48zm99.99 0h-60.53v86.05h20.45v-67.44h32.89c2.64 0 4.3 2.08 4.3 4.3v63.13h20.48v-68.46c0-5.38-1.61-9.72-4.72-12.86-3.19-3.16-7.5-4.73-12.88-4.73m97.11.01h-60.53v86.05h60.53c5.38 0 9.68-1.61 12.82-4.75 3.17-3.16 4.75-7.48 4.75-12.84v-50.86c0-5.38-1.58-9.72-4.75-12.86-3.14-3.16-7.46-4.73-12.82-4.73m-2.89 23.07v39.85c.08 2.38-1.78 4.37-4.16 4.45h-.2-32.84v-48.75h32.7c2.69 0 4.48 1.87 4.48 4.45m56.18-23.08c-5.38 0-9.72 1.58-12.86 4.73-3.16 3.17-4.72 7.5-4.72 12.86v68.46h20.41v-26.62h37.2v26.62h20.46v-86.05h-60.49zm40.03 18.64v22.17h-37.2v-17.83c0-2.12 1.65-4.36 4.38-4.36l32.82.02zm40.39 67.41h20.48v-86.05h-20.48v86.05zM212.93 613.7c64.66 0 117.08-26.85 117.08-59.94s-52.42-59.96-117.08-59.96-117.04 26.81-117.04 59.96 52.41 59.92 117.04 59.92m22.06-29.42c-1.97 4.54-5.33 14.2-13.04 18.06a19.94 19.94 0 0 1-7.82 1.79h-1.18c-21.59 0-41.72-3.01-58.54-8.12l-.65-.25c-1.56-.52-2.35-1.24-2.35-2.13 0-.75.41-1.35.97-1.9l1.06-.93c3.91-3.23 15.6-11.71 37.65-20.18 7.73-2.94 17.41-6.62 27.55-8.77 5.94-1.24 27.98-4.61 16.34 22.45m59.15-60.44c.41-.72.97-1.33 1.97-1.38.54-.05 1.29.07 2.42.79 13.74 8.45 21.9 19.03 21.9 30.49 0 20.64-26.56 38.42-64.57 46.18-2.44.48-4.07.47-4.61-.14-.39-.36-.5-1.04 0-1.87.28-.5.62-.97 1-1.4 20.7-24.39 36.46-60.39 40.93-70.75.36-.72.68-1.43.95-1.92m-102.87-.75c1.97-4.52 5.33-14.19 13.04-18.02 2.33-1.17 5.24-1.72 7.8-1.79h1.17c21.63 0 41.72 2.98 58.58 8.12.13.05.52.18.65.25 1.54.52 2.33 1.24 2.33 2.12 0 .77-.41 1.35-.95 1.88-.25.25-.59.54-1.08.93-3.87 3.26-15.59 11.73-37.63 20.18-7.77 2.96-17.43 6.64-27.53 8.77-5.95 1.26-28.01 4.63-16.37-22.44m-21.21-15.57c2.44-.47 4.05-.47 4.65.14.36.39.45 1.04-.02 1.85-.29.5-.64.97-1.02 1.4-20.7 24.41-36.46 60.39-40.96 70.79-.32.72-.66 1.43-.95 1.9-.39.72-.95 1.35-1.94 1.4-.54.05-1.31-.11-2.46-.81-13.74-8.43-21.86-19.01-21.86-30.47 0-20.66 26.54-38.43 64.57-46.18" fill="#002e6b"/></svg>