<svg width="430" height="593" viewBox="0 0 430 593" fill="none" xmlns="http://www.w3.org/2000/svg">
<g clip-path="url(#clip0_5099_22968)">
<rect width="84.7059" height="84.7059" stroke="white" stroke-opacity="0.03" stroke-width="1.14467"/>
<rect x="84.7061" width="84.7059" height="84.7059" stroke="white" stroke-opacity="0.03" stroke-width="1.14467"/>
<rect x="169.412" width="84.7059" height="84.7059" stroke="white" stroke-opacity="0.03" stroke-width="1.14467"/>
<rect x="254.118" width="84.7059" height="84.7059" stroke="white" stroke-opacity="0.03" stroke-width="1.14467"/>
<rect x="338.824" width="84.7059" height="84.7059" stroke="white" stroke-opacity="0.03" stroke-width="1.14467"/>
<rect x="423.529" width="84.7059" height="84.7059" stroke="white" stroke-opacity="0.03" stroke-width="1.14467"/>
<rect y="84.7061" width="84.7059" height="84.7059" stroke="white" stroke-opacity="0.03" stroke-width="1.14467"/>
<rect x="84.7061" y="84.7061" width="84.7059" height="84.7059" stroke="white" stroke-opacity="0.03" stroke-width="1.14467"/>
<rect x="169.412" y="84.7061" width="84.7059" height="84.7059" stroke="white" stroke-opacity="0.03" stroke-width="1.14467"/>
<rect x="254.118" y="84.7061" width="84.7059" height="84.7059" stroke="white" stroke-opacity="0.03" stroke-width="1.14467"/>
<rect x="338.824" y="84.7061" width="84.7059" height="84.7059" stroke="white" stroke-opacity="0.03" stroke-width="1.14467"/>
<rect x="423.529" y="84.7061" width="84.7059" height="84.7059" stroke="white" stroke-opacity="0.03" stroke-width="1.14467"/>
<rect y="169.412" width="84.7059" height="84.7059" stroke="white" stroke-opacity="0.03" stroke-width="1.14467"/>
<rect x="84.7061" y="169.412" width="84.7059" height="84.7059" stroke="white" stroke-opacity="0.03" stroke-width="1.14467"/>
<rect x="169.412" y="169.412" width="84.7059" height="84.7059" stroke="white" stroke-opacity="0.03" stroke-width="1.14467"/>
<rect x="254.118" y="169.412" width="84.7059" height="84.7059" stroke="white" stroke-opacity="0.03" stroke-width="1.14467"/>
<rect x="338.824" y="169.412" width="84.7059" height="84.7059" stroke="white" stroke-opacity="0.03" stroke-width="1.14467"/>
<rect x="423.529" y="169.412" width="84.7059" height="84.7059" stroke="white" stroke-opacity="0.03" stroke-width="1.14467"/>
<rect y="254.118" width="84.7059" height="84.7059" stroke="white" stroke-opacity="0.03" stroke-width="1.14467"/>
<rect x="84.7061" y="254.118" width="84.7059" height="84.7059" stroke="white" stroke-opacity="0.03" stroke-width="1.14467"/>
<rect x="169.412" y="254.118" width="84.7059" height="84.7059" stroke="white" stroke-opacity="0.03" stroke-width="1.14467"/>
<rect x="254.118" y="254.118" width="84.7059" height="84.7059" stroke="white" stroke-opacity="0.03" stroke-width="1.14467"/>
<rect x="338.824" y="254.118" width="84.7059" height="84.7059" stroke="white" stroke-opacity="0.03" stroke-width="1.14467"/>
<rect x="423.529" y="254.118" width="84.7059" height="84.7059" stroke="white" stroke-opacity="0.03" stroke-width="1.14467"/>
<rect y="338.824" width="84.7059" height="84.7059" stroke="white" stroke-opacity="0.03" stroke-width="1.14467"/>
<rect x="84.7061" y="338.824" width="84.7059" height="84.7059" stroke="white" stroke-opacity="0.03" stroke-width="1.14467"/>
<rect x="169.412" y="338.824" width="84.7059" height="84.7059" stroke="white" stroke-opacity="0.03" stroke-width="1.14467"/>
<rect x="254.118" y="338.824" width="84.7059" height="84.7059" stroke="white" stroke-opacity="0.03" stroke-width="1.14467"/>
<rect x="338.824" y="338.824" width="84.7059" height="84.7059" stroke="white" stroke-opacity="0.03" stroke-width="1.14467"/>
<rect x="423.529" y="338.824" width="84.7059" height="84.7059" stroke="white" stroke-opacity="0.03" stroke-width="1.14467"/>
<rect y="423.529" width="84.7059" height="84.7059" stroke="white" stroke-opacity="0.03" stroke-width="1.14467"/>
<rect x="84.7061" y="423.529" width="84.7059" height="84.7059" stroke="white" stroke-opacity="0.03" stroke-width="1.14467"/>
<rect x="169.412" y="423.529" width="84.7059" height="84.7059" stroke="white" stroke-opacity="0.03" stroke-width="1.14467"/>
<rect x="254.118" y="423.529" width="84.7059" height="84.7059" stroke="white" stroke-opacity="0.03" stroke-width="1.14467"/>
<rect x="338.824" y="423.529" width="84.7059" height="84.7059" stroke="white" stroke-opacity="0.03" stroke-width="1.14467"/>
<rect x="423.529" y="423.529" width="84.7059" height="84.7059" stroke="white" stroke-opacity="0.03" stroke-width="1.14467"/>
<path d="M254 387.529V607.029" stroke="url(#paint0_linear_5099_22968)"/>
<rect y="508.235" width="84.7059" height="84.7059" stroke="white" stroke-opacity="0.03" stroke-width="1.14467"/>
<rect x="84.7061" y="508.235" width="84.7059" height="84.7059" stroke="white" stroke-opacity="0.03" stroke-width="1.14467"/>
<rect x="169.412" y="508.235" width="84.7059" height="84.7059" stroke="white" stroke-opacity="0.03" stroke-width="1.14467"/>
<rect x="254.118" y="508.235" width="84.7059" height="84.7059" stroke="white" stroke-opacity="0.03" stroke-width="1.14467"/>
<rect x="338.824" y="508.235" width="84.7059" height="84.7059" stroke="white" stroke-opacity="0.03" stroke-width="1.14467"/>
<rect x="423.529" y="508.235" width="84.7059" height="84.7059" stroke="white" stroke-opacity="0.03" stroke-width="1.14467"/>
<path d="M339 142V291.5" stroke="url(#paint1_linear_5099_22968)"/>
<path d="M85 133.529V263.029" stroke="url(#paint2_linear_5099_22968)"/>
</g>
<defs>
<linearGradient id="paint0_linear_5099_22968" x1="254.5" y1="387.529" x2="254.5" y2="607.029" gradientUnits="userSpaceOnUse">
<stop stop-color="white" stop-opacity="0"/>
<stop offset="0.51" stop-color="#A6DBFF" stop-opacity="0.6"/>
<stop offset="1" stop-color="white" stop-opacity="0"/>
</linearGradient>
<linearGradient id="paint1_linear_5099_22968" x1="339.5" y1="142" x2="339.5" y2="291.5" gradientUnits="userSpaceOnUse">
<stop stop-color="white" stop-opacity="0"/>
<stop offset="0.51" stop-color="#A6DBFF" stop-opacity="0.6"/>
<stop offset="1" stop-color="white" stop-opacity="0"/>
</linearGradient>
<linearGradient id="paint2_linear_5099_22968" x1="85.5" y1="133.529" x2="85.5" y2="263.029" gradientUnits="userSpaceOnUse">
<stop stop-color="white" stop-opacity="0"/>
<stop offset="0.51" stop-color="#A6DBFF" stop-opacity="0.6"/>
<stop offset="1" stop-color="white" stop-opacity="0"/>
</linearGradient>
<clipPath id="clip0_5099_22968">
<rect width="430" height="592.941" fill="white"/>
</clipPath>
</defs>
</svg>
