<svg width="1442" height="609" viewBox="0 0 1442 609" fill="none" xmlns="http://www.w3.org/2000/svg">
<rect x="1" y="1" width="84.7059" height="84.7059" stroke="white" stroke-opacity="0.03" stroke-width="1.14467"/>
<rect x="85.7061" y="1" width="84.7059" height="84.7059" stroke="white" stroke-opacity="0.03" stroke-width="1.14467"/>
<rect x="170.412" y="1" width="84.7059" height="84.7059" stroke="white" stroke-opacity="0.03" stroke-width="1.14467"/>
<rect x="255.118" y="1" width="84.7059" height="84.7059" stroke="white" stroke-opacity="0.03" stroke-width="1.14467"/>
<rect x="339.824" y="1" width="84.7059" height="84.7059" stroke="white" stroke-opacity="0.03" stroke-width="1.14467"/>
<rect x="424.529" y="1" width="84.7059" height="84.7059" stroke="white" stroke-opacity="0.03" stroke-width="1.14467"/>
<rect x="509.235" y="1" width="84.7059" height="84.7059" stroke="white" stroke-opacity="0.03" stroke-width="1.14467"/>
<rect x="593.941" y="1" width="84.7059" height="84.7059" stroke="white" stroke-opacity="0.03" stroke-width="1.14467"/>
<rect x="678.647" y="1" width="84.7059" height="84.7059" stroke="white" stroke-opacity="0.03" stroke-width="1.14467"/>
<rect x="763.353" y="1" width="84.7059" height="84.7059" stroke="white" stroke-opacity="0.03" stroke-width="1.14467"/>
<rect x="848.059" y="1" width="84.7059" height="84.7059" stroke="white" stroke-opacity="0.03" stroke-width="1.14467"/>
<rect x="932.765" y="1" width="84.7059" height="84.7059" stroke="white" stroke-opacity="0.03" stroke-width="1.14467"/>
<rect x="1017.47" y="1" width="84.7059" height="84.7059" stroke="white" stroke-opacity="0.03" stroke-width="1.14467"/>
<rect x="1102.18" y="1" width="84.7059" height="84.7059" stroke="white" stroke-opacity="0.03" stroke-width="1.14467"/>
<rect x="1186.88" y="1" width="84.7059" height="84.7059" stroke="white" stroke-opacity="0.03" stroke-width="1.14467"/>
<rect x="1271.59" y="1" width="84.7059" height="84.7059" stroke="white" stroke-opacity="0.03" stroke-width="1.14467"/>
<rect x="1356.29" y="1" width="84.7059" height="84.7059" stroke="white" stroke-opacity="0.03" stroke-width="1.14467"/>
<rect x="1" y="85.7061" width="84.7059" height="84.7059" stroke="white" stroke-opacity="0.03" stroke-width="1.14467"/>
<rect x="85.7061" y="85.7061" width="84.7059" height="84.7059" stroke="white" stroke-opacity="0.03" stroke-width="1.14467"/>
<rect x="170.412" y="85.7061" width="84.7059" height="84.7059" stroke="white" stroke-opacity="0.03" stroke-width="1.14467"/>
<rect x="255.118" y="85.7061" width="84.7059" height="84.7059" stroke="white" stroke-opacity="0.03" stroke-width="1.14467"/>
<rect x="339.824" y="85.7061" width="84.7059" height="84.7059" stroke="white" stroke-opacity="0.03" stroke-width="1.14467"/>
<rect x="424.529" y="85.7061" width="84.7059" height="84.7059" stroke="white" stroke-opacity="0.03" stroke-width="1.14467"/>
<rect x="509.235" y="85.7061" width="84.7059" height="84.7059" stroke="white" stroke-opacity="0.03" stroke-width="1.14467"/>
<rect x="593.941" y="85.7061" width="84.7059" height="84.7059" stroke="white" stroke-opacity="0.03" stroke-width="1.14467"/>
<rect x="678.647" y="85.7061" width="84.7059" height="84.7059" stroke="white" stroke-opacity="0.03" stroke-width="1.14467"/>
<rect x="763.353" y="85.7061" width="84.7059" height="84.7059" stroke="white" stroke-opacity="0.03" stroke-width="1.14467"/>
<rect x="848.059" y="85.7061" width="84.7059" height="84.7059" stroke="white" stroke-opacity="0.03" stroke-width="1.14467"/>
<rect x="932.765" y="85.7061" width="84.7059" height="84.7059" stroke="white" stroke-opacity="0.03" stroke-width="1.14467"/>
<rect x="1017.47" y="85.7061" width="84.7059" height="84.7059" stroke="white" stroke-opacity="0.03" stroke-width="1.14467"/>
<rect x="1102.18" y="85.7061" width="84.7059" height="84.7059" stroke="white" stroke-opacity="0.03" stroke-width="1.14467"/>
<rect x="1186.88" y="85.7061" width="84.7059" height="84.7059" stroke="white" stroke-opacity="0.03" stroke-width="1.14467"/>
<rect x="1271.59" y="85.7061" width="84.7059" height="84.7059" stroke="white" stroke-opacity="0.03" stroke-width="1.14467"/>
<rect x="1356.29" y="85.7061" width="84.7059" height="84.7059" stroke="white" stroke-opacity="0.03" stroke-width="1.14467"/>
<rect x="1" y="170.412" width="84.7059" height="84.7059" stroke="white" stroke-opacity="0.03" stroke-width="1.14467"/>
<rect x="85.7061" y="170.412" width="84.7059" height="84.7059" stroke="white" stroke-opacity="0.03" stroke-width="1.14467"/>
<rect x="170.412" y="170.412" width="84.7059" height="84.7059" stroke="white" stroke-opacity="0.03" stroke-width="1.14467"/>
<rect x="255.118" y="170.412" width="84.7059" height="84.7059" stroke="white" stroke-opacity="0.03" stroke-width="1.14467"/>
<rect x="339.824" y="170.412" width="84.7059" height="84.7059" stroke="white" stroke-opacity="0.03" stroke-width="1.14467"/>
<rect x="424.529" y="170.412" width="84.7059" height="84.7059" stroke="white" stroke-opacity="0.03" stroke-width="1.14467"/>
<rect x="509.235" y="170.412" width="84.7059" height="84.7059" stroke="white" stroke-opacity="0.03" stroke-width="1.14467"/>
<rect x="593.941" y="170.412" width="84.7059" height="84.7059" stroke="white" stroke-opacity="0.03" stroke-width="1.14467"/>
<rect x="678.647" y="170.412" width="84.7059" height="84.7059" stroke="white" stroke-opacity="0.03" stroke-width="1.14467"/>
<rect x="763.353" y="170.412" width="84.7059" height="84.7059" stroke="white" stroke-opacity="0.03" stroke-width="1.14467"/>
<rect x="848.059" y="170.412" width="84.7059" height="84.7059" stroke="white" stroke-opacity="0.03" stroke-width="1.14467"/>
<rect x="932.765" y="170.412" width="84.7059" height="84.7059" stroke="white" stroke-opacity="0.03" stroke-width="1.14467"/>
<rect x="1017.47" y="170.412" width="84.7059" height="84.7059" stroke="white" stroke-opacity="0.03" stroke-width="1.14467"/>
<rect x="1102.18" y="170.412" width="84.7059" height="84.7059" stroke="white" stroke-opacity="0.03" stroke-width="1.14467"/>
<rect x="1186.88" y="170.412" width="84.7059" height="84.7059" stroke="white" stroke-opacity="0.03" stroke-width="1.14467"/>
<rect x="1271.59" y="170.412" width="84.7059" height="84.7059" stroke="white" stroke-opacity="0.03" stroke-width="1.14467"/>
<rect x="1356.29" y="170.412" width="84.7059" height="84.7059" stroke="white" stroke-opacity="0.03" stroke-width="1.14467"/>
<rect x="1" y="255.118" width="84.7059" height="84.7059" stroke="white" stroke-opacity="0.03" stroke-width="1.14467"/>
<rect x="85.7061" y="255.118" width="84.7059" height="84.7059" stroke="white" stroke-opacity="0.03" stroke-width="1.14467"/>
<rect x="170.412" y="255.118" width="84.7059" height="84.7059" stroke="white" stroke-opacity="0.03" stroke-width="1.14467"/>
<rect x="255.118" y="255.118" width="84.7059" height="84.7059" stroke="white" stroke-opacity="0.03" stroke-width="1.14467"/>
<rect x="339.824" y="255.118" width="84.7059" height="84.7059" stroke="white" stroke-opacity="0.03" stroke-width="1.14467"/>
<rect x="424.529" y="255.118" width="84.7059" height="84.7059" stroke="white" stroke-opacity="0.03" stroke-width="1.14467"/>
<rect x="509.235" y="255.118" width="84.7059" height="84.7059" stroke="white" stroke-opacity="0.03" stroke-width="1.14467"/>
<rect x="593.941" y="255.118" width="84.7059" height="84.7059" stroke="white" stroke-opacity="0.03" stroke-width="1.14467"/>
<rect x="678.647" y="255.118" width="84.7059" height="84.7059" stroke="white" stroke-opacity="0.03" stroke-width="1.14467"/>
<rect x="763.353" y="255.118" width="84.7059" height="84.7059" stroke="white" stroke-opacity="0.03" stroke-width="1.14467"/>
<rect x="848.059" y="255.118" width="84.7059" height="84.7059" stroke="white" stroke-opacity="0.03" stroke-width="1.14467"/>
<rect x="932.765" y="255.118" width="84.7059" height="84.7059" stroke="white" stroke-opacity="0.03" stroke-width="1.14467"/>
<rect x="1017.47" y="255.118" width="84.7059" height="84.7059" stroke="white" stroke-opacity="0.03" stroke-width="1.14467"/>
<rect x="1102.18" y="255.118" width="84.7059" height="84.7059" stroke="white" stroke-opacity="0.03" stroke-width="1.14467"/>
<rect x="1186.88" y="255.118" width="84.7059" height="84.7059" stroke="white" stroke-opacity="0.03" stroke-width="1.14467"/>
<rect x="1271.59" y="255.118" width="84.7059" height="84.7059" stroke="white" stroke-opacity="0.03" stroke-width="1.14467"/>
<rect x="1356.29" y="255.118" width="84.7059" height="84.7059" stroke="white" stroke-opacity="0.03" stroke-width="1.14467"/>
<rect x="1" y="339.824" width="84.7059" height="84.7059" stroke="white" stroke-opacity="0.03" stroke-width="1.14467"/>
<rect x="85.7061" y="339.824" width="84.7059" height="84.7059" stroke="white" stroke-opacity="0.03" stroke-width="1.14467"/>
<rect x="170.412" y="339.824" width="84.7059" height="84.7059" stroke="white" stroke-opacity="0.03" stroke-width="1.14467"/>
<rect x="255.118" y="339.824" width="84.7059" height="84.7059" stroke="white" stroke-opacity="0.03" stroke-width="1.14467"/>
<rect x="339.824" y="339.824" width="84.7059" height="84.7059" stroke="white" stroke-opacity="0.03" stroke-width="1.14467"/>
<rect x="424.529" y="339.824" width="84.7059" height="84.7059" stroke="white" stroke-opacity="0.03" stroke-width="1.14467"/>
<rect x="509.235" y="339.824" width="84.7059" height="84.7059" stroke="white" stroke-opacity="0.03" stroke-width="1.14467"/>
<rect x="593.941" y="339.824" width="84.7059" height="84.7059" stroke="white" stroke-opacity="0.03" stroke-width="1.14467"/>
<rect x="678.647" y="339.824" width="84.7059" height="84.7059" stroke="white" stroke-opacity="0.03" stroke-width="1.14467"/>
<rect x="763.353" y="339.824" width="84.7059" height="84.7059" stroke="white" stroke-opacity="0.03" stroke-width="1.14467"/>
<rect x="848.059" y="339.824" width="84.7059" height="84.7059" stroke="white" stroke-opacity="0.03" stroke-width="1.14467"/>
<rect x="932.765" y="339.824" width="84.7059" height="84.7059" stroke="white" stroke-opacity="0.03" stroke-width="1.14467"/>
<rect x="1017.47" y="339.824" width="84.7059" height="84.7059" stroke="white" stroke-opacity="0.03" stroke-width="1.14467"/>
<rect x="1102.18" y="339.824" width="84.7059" height="84.7059" stroke="white" stroke-opacity="0.03" stroke-width="1.14467"/>
<rect x="1186.88" y="339.824" width="84.7059" height="84.7059" stroke="white" stroke-opacity="0.03" stroke-width="1.14467"/>
<rect x="1271.59" y="339.824" width="84.7059" height="84.7059" stroke="white" stroke-opacity="0.03" stroke-width="1.14467"/>
<rect x="1356.29" y="339.824" width="84.7059" height="84.7059" stroke="white" stroke-opacity="0.03" stroke-width="1.14467"/>
<rect x="1" y="424.529" width="84.7059" height="84.7059" stroke="white" stroke-opacity="0.03" stroke-width="1.14467"/>
<rect x="85.7061" y="424.529" width="84.7059" height="84.7059" stroke="white" stroke-opacity="0.03" stroke-width="1.14467"/>
<rect x="170.412" y="424.529" width="84.7059" height="84.7059" stroke="white" stroke-opacity="0.03" stroke-width="1.14467"/>
<rect x="255.118" y="424.529" width="84.7059" height="84.7059" stroke="white" stroke-opacity="0.03" stroke-width="1.14467"/>
<rect x="339.824" y="424.529" width="84.7059" height="84.7059" stroke="white" stroke-opacity="0.03" stroke-width="1.14467"/>
<rect x="424.529" y="424.529" width="84.7059" height="84.7059" stroke="white" stroke-opacity="0.03" stroke-width="1.14467"/>
<rect x="509.235" y="424.529" width="84.7059" height="84.7059" stroke="white" stroke-opacity="0.03" stroke-width="1.14467"/>
<rect x="593.941" y="424.529" width="84.7059" height="84.7059" stroke="white" stroke-opacity="0.03" stroke-width="1.14467"/>
<rect x="678.647" y="424.529" width="84.7059" height="84.7059" stroke="white" stroke-opacity="0.03" stroke-width="1.14467"/>
<rect x="763.353" y="424.529" width="84.7059" height="84.7059" stroke="white" stroke-opacity="0.03" stroke-width="1.14467"/>
<rect x="848.059" y="424.529" width="84.7059" height="84.7059" stroke="white" stroke-opacity="0.03" stroke-width="1.14467"/>
<rect x="932.765" y="424.529" width="84.7059" height="84.7059" stroke="white" stroke-opacity="0.03" stroke-width="1.14467"/>
<rect x="1017.47" y="424.529" width="84.7059" height="84.7059" stroke="white" stroke-opacity="0.03" stroke-width="1.14467"/>
<rect x="1102.18" y="424.529" width="84.7059" height="84.7059" stroke="white" stroke-opacity="0.03" stroke-width="1.14467"/>
<rect x="1186.88" y="424.529" width="84.7059" height="84.7059" stroke="white" stroke-opacity="0.03" stroke-width="1.14467"/>
<rect x="1271.59" y="424.529" width="84.7059" height="84.7059" stroke="white" stroke-opacity="0.03" stroke-width="1.14467"/>
<rect x="1356.29" y="424.529" width="84.7059" height="84.7059" stroke="white" stroke-opacity="0.03" stroke-width="1.14467"/>
<path d="M170 388.529V608.029" stroke="url(#paint0_linear_2594_53778)"/>
<rect x="1" y="509.235" width="84.7059" height="84.7059" stroke="white" stroke-opacity="0.03" stroke-width="1.14467"/>
<rect x="85.7061" y="509.235" width="84.7059" height="84.7059" stroke="white" stroke-opacity="0.03" stroke-width="1.14467"/>
<rect x="170.412" y="509.235" width="84.7059" height="84.7059" stroke="white" stroke-opacity="0.03" stroke-width="1.14467"/>
<rect x="255.118" y="509.235" width="84.7059" height="84.7059" stroke="white" stroke-opacity="0.03" stroke-width="1.14467"/>
<rect x="339.824" y="509.235" width="84.7059" height="84.7059" stroke="white" stroke-opacity="0.03" stroke-width="1.14467"/>
<rect x="424.529" y="509.235" width="84.7059" height="84.7059" stroke="white" stroke-opacity="0.03" stroke-width="1.14467"/>
<rect x="509.235" y="509.235" width="84.7059" height="84.7059" stroke="white" stroke-opacity="0.03" stroke-width="1.14467"/>
<rect x="593.941" y="509.235" width="84.7059" height="84.7059" stroke="white" stroke-opacity="0.03" stroke-width="1.14467"/>
<rect x="678.647" y="509.235" width="84.7059" height="84.7059" stroke="white" stroke-opacity="0.03" stroke-width="1.14467"/>
<rect x="763.353" y="509.235" width="84.7059" height="84.7059" stroke="white" stroke-opacity="0.03" stroke-width="1.14467"/>
<rect x="848.059" y="509.235" width="84.7059" height="84.7059" stroke="white" stroke-opacity="0.03" stroke-width="1.14467"/>
<rect x="932.765" y="509.235" width="84.7059" height="84.7059" stroke="white" stroke-opacity="0.03" stroke-width="1.14467"/>
<rect x="1017.47" y="509.235" width="84.7059" height="84.7059" stroke="white" stroke-opacity="0.03" stroke-width="1.14467"/>
<rect x="1102.18" y="509.235" width="84.7059" height="84.7059" stroke="white" stroke-opacity="0.03" stroke-width="1.14467"/>
<rect x="1186.88" y="509.235" width="84.7059" height="84.7059" stroke="white" stroke-opacity="0.03" stroke-width="1.14467"/>
<rect x="1271.59" y="509.235" width="84.7059" height="84.7059" stroke="white" stroke-opacity="0.03" stroke-width="1.14467"/>
<rect x="1356.29" y="509.235" width="84.7059" height="84.7059" stroke="white" stroke-opacity="0.03" stroke-width="1.14467"/>
<path d="M1356 294.529V514.029" stroke="url(#paint1_linear_2594_53778)"/>
<path d="M255 110.529V330.029" stroke="url(#paint2_linear_2594_53778)"/>
<path d="M1187 114.529V334.029" stroke="url(#paint3_linear_2594_53778)"/>
<defs>
<linearGradient id="paint0_linear_2594_53778" x1="170.5" y1="388.529" x2="170.5" y2="608.029" gradientUnits="userSpaceOnUse">
<stop stop-color="white" stop-opacity="0"/>
<stop offset="0.51" stop-color="#A6DBFF" stop-opacity="0.6"/>
<stop offset="1" stop-color="white" stop-opacity="0"/>
</linearGradient>
<linearGradient id="paint1_linear_2594_53778" x1="1356.5" y1="294.529" x2="1356.5" y2="514.029" gradientUnits="userSpaceOnUse">
<stop stop-color="white" stop-opacity="0"/>
<stop offset="0.51" stop-color="#A6DBFF" stop-opacity="0.6"/>
<stop offset="1" stop-color="white" stop-opacity="0"/>
</linearGradient>
<linearGradient id="paint2_linear_2594_53778" x1="255.5" y1="110.529" x2="255.5" y2="330.029" gradientUnits="userSpaceOnUse">
<stop stop-color="white" stop-opacity="0"/>
<stop offset="0.51" stop-color="#A6DBFF" stop-opacity="0.6"/>
<stop offset="1" stop-color="white" stop-opacity="0"/>
</linearGradient>
<linearGradient id="paint3_linear_2594_53778" x1="1187.5" y1="114.529" x2="1187.5" y2="334.029" gradientUnits="userSpaceOnUse">
<stop stop-color="white" stop-opacity="0"/>
<stop offset="0.51" stop-color="#A6DBFF" stop-opacity="0.6"/>
<stop offset="1" stop-color="white" stop-opacity="0"/>
</linearGradient>
</defs>
</svg>
