<svg width="523" height="600" viewBox="0 0 523 600" fill="none" xmlns="http://www.w3.org/2000/svg">
<g clip-path="url(#clip0_2504_10506)">
<rect width="523" height="600" fill="#D3EDFF"/>
<circle opacity="0.1" cx="261.5" cy="300.5" r="195" stroke="#0D0E16"/>
<g clip-path="url(#clip1_2504_10506)">
<path d="M262 406C261.369 406 260.738 405.904 260.13 405.712C235.883 398.055 215.123 383.168 200.092 362.659C185.062 342.15 177.117 317.871 177.117 292.444V229.195C177.117 225.765 179.898 222.984 183.328 222.984C201.267 222.984 217.577 213.148 225.929 197.313C226.457 196.313 227.247 195.476 228.215 194.893C229.183 194.309 230.292 194 231.423 194H292.577C293.707 194 294.817 194.309 295.785 194.892C296.753 195.476 297.543 196.313 298.071 197.313C306.423 213.148 322.733 222.984 340.635 222.984C344.065 222.984 346.883 225.765 346.883 229.195V292.444C346.883 317.871 338.938 342.15 323.908 362.659C308.877 383.167 288.117 398.055 263.87 405.711C263.262 405.904 262.631 406 262 406Z" fill="#0783FF"/>
<path d="M340.635 222.984C322.733 222.984 306.423 213.148 298.071 197.313C297.543 196.313 296.753 195.476 295.785 194.892C294.817 194.309 293.708 194 292.577 194H262V406C262.631 406 263.262 405.904 263.87 405.712C288.117 398.055 308.877 383.168 323.908 362.659C338.938 342.15 346.883 317.871 346.883 292.444V229.195C346.883 225.765 344.065 222.984 340.635 222.984Z" fill="#76CBFF"/>
<path d="M262 379.575C261.179 379.575 260.367 379.413 259.61 379.097C224.589 364.494 201.961 330.481 201.961 292.444V250.074C201.961 248.766 202.374 247.492 203.141 246.432C203.908 245.373 204.989 244.583 206.232 244.174C219.395 239.854 231.046 231.856 239.807 221.124C240.39 220.412 241.124 219.837 241.955 219.443C242.787 219.048 243.696 218.844 244.616 218.844H279.383C281.247 218.844 283.013 219.681 284.193 221.124C292.954 231.857 304.605 239.857 317.768 244.178C319.01 244.587 320.092 245.377 320.859 246.437C321.626 247.496 322.039 248.771 322.039 250.079V292.444C322.039 330.481 299.411 364.494 264.39 379.097C263.633 379.413 262.82 379.575 262 379.575Z" fill="#F5F5FF"/>
<path d="M317.768 244.178C304.605 239.857 292.954 231.857 284.193 221.124C283.61 220.412 282.877 219.837 282.045 219.443C281.213 219.048 280.304 218.844 279.383 218.844H262V379.575C262.821 379.575 263.633 379.413 264.39 379.097C299.411 364.494 322.039 330.481 322.039 292.444V250.079C322.039 248.771 321.626 247.496 320.859 246.437C320.093 245.377 319.011 244.587 317.768 244.178Z" fill="#E2E7FA"/>
<path d="M252.339 325.157C251.523 325.158 250.715 324.998 249.961 324.686C249.208 324.374 248.523 323.915 247.947 323.338L228.624 304.015C226.199 301.59 226.199 297.657 228.624 295.231C231.049 292.806 234.982 292.806 237.408 295.231L252.339 310.162L286.593 275.909C289.018 273.483 292.951 273.483 295.377 275.909C297.802 278.334 297.802 282.266 295.377 284.692L256.731 323.338C256.155 323.915 255.47 324.374 254.716 324.686C253.963 324.998 253.155 325.158 252.339 325.157Z" fill="#7986B7"/>
<path d="M286.593 275.909L262 300.502V318.069L295.376 284.693C297.801 282.267 297.801 278.335 295.376 275.909C292.951 273.483 289.018 273.483 286.593 275.909Z" fill="#32385A"/>
</g>
<circle opacity="0.1" cx="262" cy="300" r="275.5" stroke="#0D0E16"/>
<circle opacity="0.1" cx="263" cy="300" r="352.5" stroke="#0D0E16"/>
<g filter="url(#filter0_d_2504_10506)">
<rect x="359" y="301" width="195" height="80" rx="20" fill="#F5F6FA" shape-rendering="crispEdges"/>
<path d="M380.636 341.799L380.73 324.345L384.42 324.325L384.381 331.526L391.873 331.485L391.911 324.284L395.593 324.264L395.499 341.718L391.817 341.738L391.856 334.528L384.365 334.569L384.326 341.779L380.636 341.799ZM404.438 341.924C403.091 341.932 401.934 341.665 400.965 341.125C400.002 340.579 399.262 339.805 398.745 338.802C398.227 337.794 397.973 336.599 397.98 335.219C397.987 333.872 398.255 332.689 398.783 331.669C399.311 330.649 400.051 329.852 401.003 329.279C401.961 328.706 403.082 328.415 404.366 328.408C405.229 328.404 406.033 328.538 406.775 328.813C407.524 329.081 408.175 329.49 408.729 330.038C409.289 330.586 409.722 331.276 410.03 332.11C410.338 332.938 410.489 333.909 410.483 335.022L410.478 336.019L399.424 336.08L399.436 333.83L407.072 333.788C407.075 333.265 406.964 332.803 406.739 332.401C406.514 331.999 406.2 331.685 405.798 331.46C405.402 331.229 404.939 331.115 404.411 331.118C403.86 331.121 403.37 331.252 402.943 331.51C402.521 331.762 402.19 332.102 401.949 332.529C401.708 332.951 401.583 333.421 401.575 333.938L401.563 336.077C401.56 336.724 401.676 337.283 401.912 337.754C402.154 338.224 402.496 338.586 402.937 338.839C403.379 339.092 403.904 339.217 404.512 339.214C404.916 339.212 405.285 339.153 405.621 339.037C405.957 338.922 406.245 338.75 406.485 338.521C406.724 338.293 406.908 338.013 407.034 337.683L410.391 337.886C410.216 338.694 409.863 339.4 409.331 340.006C408.806 340.605 408.127 341.075 407.296 341.414C406.47 341.748 405.517 341.918 404.438 341.924ZM416.548 341.849C415.713 341.854 414.97 341.713 414.318 341.427C413.666 341.135 413.151 340.703 412.774 340.131C412.402 339.554 412.218 338.833 412.223 337.97C412.227 337.243 412.364 336.631 412.633 336.135C412.903 335.64 413.269 335.24 413.731 334.936C414.193 334.632 414.717 334.402 415.303 334.246C415.894 334.089 416.514 333.978 417.162 333.912C417.924 333.828 418.538 333.751 419.004 333.68C419.471 333.604 419.809 333.494 420.02 333.351C420.231 333.207 420.338 332.997 420.339 332.718L420.339 332.667C420.342 332.127 420.174 331.711 419.835 331.417C419.501 331.123 419.025 330.978 418.405 330.982C417.752 330.985 417.231 331.133 416.843 331.425C416.455 331.711 416.198 332.07 416.07 332.503L412.714 332.249C412.889 331.452 413.228 330.763 413.731 330.181C414.234 329.593 414.881 329.14 415.673 328.823C416.47 328.501 417.391 328.337 418.437 328.331C419.164 328.327 419.859 328.408 420.523 328.575C421.193 328.742 421.785 329.003 422.3 329.358C422.821 329.713 423.23 330.171 423.529 330.732C423.827 331.287 423.974 331.954 423.969 332.732L423.922 341.562L420.479 341.581L420.489 339.765L420.386 339.766C420.174 340.176 419.891 340.538 419.537 340.853C419.183 341.162 418.758 341.405 418.263 341.584C417.768 341.757 417.196 341.846 416.548 341.849ZM417.602 339.338C418.136 339.335 418.608 339.227 419.018 339.015C419.428 338.797 419.751 338.505 419.986 338.14C420.221 337.775 420.34 337.363 420.342 336.903L420.35 335.513C420.235 335.588 420.079 335.657 419.88 335.72C419.686 335.778 419.467 335.834 419.223 335.886C418.978 335.933 418.733 335.977 418.489 336.018C418.244 336.053 418.023 336.086 417.824 336.115C417.397 336.18 417.025 336.282 416.706 336.42C416.387 336.558 416.139 336.744 415.961 336.978C415.784 337.206 415.694 337.491 415.692 337.831C415.69 338.326 415.867 338.703 416.223 338.962C416.585 339.216 417.045 339.341 417.602 339.338ZM430.463 324.072L430.369 341.526L426.739 341.546L426.833 324.092L430.463 324.072ZM440.311 328.381L440.296 331.109L432.413 331.152L432.428 328.425L440.311 328.381ZM434.234 325.278L437.865 325.259L437.799 337.463C437.797 337.798 437.847 338.059 437.948 338.246C438.05 338.427 438.191 338.554 438.372 338.627C438.56 338.7 438.775 338.736 439.02 338.735C439.19 338.734 439.361 338.718 439.531 338.689C439.702 338.654 439.833 338.628 439.924 338.61L440.48 341.309C440.298 341.367 440.042 341.433 439.712 341.509C439.382 341.59 438.981 341.641 438.509 341.661C437.634 341.699 436.868 341.587 436.21 341.324C435.558 341.06 435.052 340.648 434.691 340.088C434.331 339.527 434.156 338.818 434.166 337.96L434.234 325.278ZM446.558 333.869L446.517 341.438L442.887 341.457L442.981 324.003L446.509 323.984L446.473 330.657L446.627 330.656C446.926 329.882 447.407 329.274 448.068 328.833C448.73 328.386 449.558 328.16 450.552 328.155C451.461 328.15 452.253 328.344 452.926 328.738C453.606 329.126 454.132 329.689 454.503 330.425C454.879 331.156 455.062 332.033 455.051 333.056L455.006 341.391L451.375 341.411L451.417 333.723C451.427 332.917 451.226 332.29 450.813 331.843C450.407 331.397 449.834 331.175 449.095 331.18C448.601 331.182 448.163 331.29 447.781 331.502C447.405 331.714 447.108 332.023 446.89 332.427C446.677 332.826 446.567 333.307 446.558 333.869Z" fill="#39416B"/>
<path d="M382.318 352.153L382.256 363.79L380.148 363.801L380.21 352.165L382.318 352.153ZM386.532 358.653L386.504 363.766L384.447 363.778L384.494 355.05L386.46 355.04L386.452 356.523L386.555 356.522C386.758 356.032 387.08 355.642 387.521 355.352C387.966 355.062 388.514 354.915 389.165 354.911C389.768 354.908 390.292 355.034 390.737 355.289C391.187 355.544 391.533 355.915 391.777 356.402C392.024 356.89 392.144 357.482 392.136 358.179L392.106 363.735L390.05 363.747L390.078 358.508C390.081 357.925 389.932 357.469 389.631 357.141C389.333 356.813 388.919 356.651 388.389 356.654C388.029 356.656 387.709 356.737 387.427 356.898C387.15 357.055 386.931 357.281 386.77 357.578C386.614 357.874 386.534 358.232 386.532 358.653ZM401.129 357.266L399.253 357.481C399.201 357.291 399.11 357.114 398.978 356.948C398.85 356.782 398.676 356.649 398.457 356.547C398.238 356.446 397.969 356.397 397.651 356.399C397.223 356.401 396.863 356.496 396.57 356.683C396.281 356.87 396.138 357.111 396.14 357.407C396.135 357.661 396.227 357.866 396.415 358.025C396.608 358.183 396.925 358.312 397.368 358.411L398.855 358.721C399.679 358.895 400.292 359.174 400.691 359.558C401.094 359.942 401.296 360.446 401.296 361.071C401.29 361.621 401.126 362.106 400.806 362.529C400.489 362.947 400.05 363.275 399.488 363.513C398.926 363.751 398.281 363.872 397.554 363.876C396.486 363.882 395.627 363.663 394.978 363.22C394.329 362.773 393.944 362.148 393.824 361.345L395.83 361.141C395.919 361.535 396.111 361.831 396.405 362.03C396.699 362.229 397.083 362.327 397.557 362.325C398.045 362.322 398.438 362.22 398.735 362.017C399.035 361.815 399.186 361.566 399.187 361.271C399.189 361.021 399.093 360.815 398.901 360.653C398.713 360.491 398.418 360.368 398.017 360.283L396.53 359.978C395.694 359.809 395.076 359.519 394.677 359.108C394.277 358.693 394.081 358.168 394.089 357.532C394.088 356.994 394.236 356.527 394.534 356.132C394.835 355.732 395.251 355.423 395.783 355.204C396.318 354.982 396.934 354.868 397.631 354.865C398.654 354.859 399.458 355.072 400.042 355.505C400.631 355.937 400.993 356.524 401.129 357.266ZM408.561 359.975L408.588 354.918L410.645 354.907L410.598 363.634L408.603 363.645L408.612 362.094L408.521 362.094C408.321 362.584 407.995 362.985 407.543 363.298C407.094 363.611 406.542 363.77 405.887 363.773C405.315 363.777 404.81 363.652 404.372 363.401C403.938 363.146 403.599 362.775 403.355 362.287C403.112 361.796 402.992 361.202 402.995 360.505L403.025 354.949L405.082 354.937L405.054 360.176C405.051 360.729 405.2 361.167 405.501 361.492C405.803 361.816 406.199 361.976 406.692 361.974C406.995 361.972 407.289 361.896 407.574 361.747C407.859 361.598 408.093 361.377 408.276 361.084C408.463 360.788 408.558 360.418 408.561 359.975ZM412.713 363.622L412.76 354.895L414.754 354.884L414.746 356.339L414.837 356.338C414.999 355.834 415.274 355.444 415.661 355.169C416.053 354.89 416.499 354.75 416.999 354.747C417.112 354.746 417.239 354.751 417.379 354.762C417.523 354.769 417.643 354.781 417.737 354.8L417.727 356.692C417.64 356.662 417.502 356.636 417.313 356.614C417.127 356.589 416.947 356.577 416.773 356.578C416.398 356.58 416.061 356.663 415.76 356.827C415.464 356.988 415.23 357.211 415.058 357.496C414.886 357.781 414.799 358.109 414.797 358.48L414.769 363.611L412.713 363.622ZM421.41 363.751C420.857 363.754 420.36 363.658 419.918 363.463C419.479 363.265 419.132 362.972 418.877 362.583C418.625 362.194 418.501 361.714 418.504 361.142C418.507 360.649 418.6 360.242 418.783 359.919C418.967 359.596 419.216 359.337 419.532 359.142C419.847 358.947 420.202 358.799 420.597 358.698C420.995 358.594 421.406 358.518 421.831 358.47C422.342 358.414 422.757 358.365 423.076 358.321C423.394 358.274 423.626 358.205 423.77 358.113C423.918 358.017 423.993 357.871 423.994 357.674L423.994 357.64C423.997 357.212 423.871 356.881 423.619 356.648C423.366 356.414 423.002 356.299 422.524 356.302C422.021 356.304 421.62 356.416 421.324 356.638C421.031 356.859 420.832 357.12 420.729 357.419L418.81 357.157C418.964 356.626 419.216 356.182 419.567 355.824C419.917 355.462 420.345 355.191 420.85 355.01C421.354 354.825 421.912 354.731 422.521 354.728C422.942 354.726 423.36 354.773 423.776 354.869C424.192 354.965 424.572 355.126 424.916 355.351C425.259 355.573 425.534 355.876 425.74 356.261C425.95 356.646 426.054 357.129 426.051 357.708L426.019 363.549L424.042 363.56L424.048 362.361L423.98 362.362C423.854 362.605 423.677 362.833 423.448 363.046C423.224 363.256 422.94 363.426 422.599 363.557C422.261 363.683 421.865 363.748 421.41 363.751ZM421.953 362.236C422.365 362.234 422.724 362.151 423.028 361.986C423.332 361.818 423.566 361.597 423.73 361.323C423.898 361.05 423.983 360.752 423.985 360.43L423.99 359.401C423.926 359.455 423.816 359.505 423.66 359.551C423.508 359.597 423.338 359.638 423.148 359.673C422.959 359.708 422.771 359.74 422.585 359.767C422.399 359.795 422.238 359.818 422.102 359.838C421.795 359.881 421.52 359.951 421.277 360.047C421.034 360.143 420.842 360.277 420.701 360.448C420.56 360.615 420.489 360.832 420.487 361.097C420.485 361.476 420.622 361.761 420.897 361.952C421.173 362.144 421.525 362.239 421.953 362.236ZM430.172 358.413L430.144 363.527L428.087 363.538L428.134 354.811L430.1 354.8L430.092 356.283L430.195 356.282C430.398 355.793 430.72 355.403 431.161 355.112C431.606 354.822 432.154 354.675 432.805 354.671C433.408 354.668 433.932 354.794 434.377 355.049C434.826 355.304 435.173 355.675 435.417 356.163C435.664 356.65 435.784 357.242 435.776 357.939L435.746 363.496L433.69 363.507L433.718 358.268C433.721 357.685 433.572 357.23 433.271 356.902C432.973 356.574 432.559 356.411 432.029 356.414C431.669 356.416 431.349 356.497 431.067 356.658C430.79 356.815 430.571 357.042 430.41 357.338C430.254 357.634 430.174 357.993 430.172 358.413ZM441.643 363.634C440.772 363.639 440.025 363.451 439.402 363.072C438.783 362.693 438.306 362.167 437.973 361.495C437.643 360.819 437.481 360.039 437.486 359.157C437.49 358.27 437.665 357.487 438.01 356.807C438.354 356.124 438.838 355.591 439.461 355.209C440.088 354.823 440.828 354.627 441.68 354.623C442.389 354.619 443.015 354.746 443.559 355.004C444.107 355.259 444.542 355.622 444.865 356.094C445.189 356.562 445.371 357.11 445.413 357.738L443.447 357.749C443.37 357.329 443.183 356.98 442.885 356.701C442.591 356.419 442.196 356.279 441.7 356.282C441.279 356.284 440.909 356.4 440.59 356.629C440.271 356.854 440.021 357.177 439.84 357.599C439.664 358.02 439.574 358.524 439.571 359.111C439.568 359.706 439.652 360.217 439.824 360.644C439.996 361.067 440.238 361.394 440.552 361.623C440.869 361.848 441.241 361.96 441.669 361.958C441.972 361.956 442.243 361.898 442.482 361.783C442.726 361.664 442.929 361.494 443.093 361.274C443.257 361.053 443.37 360.785 443.433 360.471L445.399 360.46C445.346 361.078 445.161 361.626 444.844 362.105C444.527 362.58 444.097 362.954 443.554 363.226C443.011 363.494 442.374 363.63 441.643 363.634ZM450.934 363.583C450.059 363.588 449.304 363.41 448.67 363.05C448.039 362.686 447.555 362.17 447.218 361.501C446.881 360.829 446.715 360.036 446.72 359.123C446.724 358.225 446.899 357.437 447.244 356.757C447.592 356.073 448.076 355.54 448.695 355.158C449.315 354.772 450.041 354.577 450.875 354.572C451.413 354.569 451.92 354.654 452.396 354.825C452.876 354.993 453.299 355.256 453.664 355.614C454.034 355.971 454.323 356.428 454.532 356.984C454.741 357.536 454.844 358.194 454.839 358.959L454.836 359.59L447.683 359.629L447.69 358.243L452.872 358.214C452.87 357.82 452.787 357.471 452.622 357.165C452.457 356.855 452.225 356.612 451.927 356.436C451.633 356.259 451.288 356.172 450.894 356.174C450.474 356.177 450.104 356.281 449.785 356.487C449.466 356.69 449.216 356.956 449.036 357.287C448.86 357.613 448.769 357.972 448.763 358.362L448.757 359.572C448.754 360.08 448.845 360.515 449.028 360.877C449.212 361.236 449.47 361.511 449.802 361.703C450.135 361.89 450.524 361.983 450.971 361.98C451.27 361.979 451.541 361.936 451.784 361.851C452.027 361.762 452.238 361.634 452.417 361.467C452.596 361.299 452.732 361.092 452.824 360.845L454.743 361.051C454.619 361.559 454.386 362.003 454.043 362.384C453.704 362.761 453.27 363.055 452.743 363.266C452.215 363.473 451.612 363.579 450.934 363.583Z" fill="#7986B7"/>
<g clip-path="url(#clip2_2504_10506)">
<g clip-path="url(#clip3_2504_10506)">
<path d="M500 370C500 370 512.04 359.69 515.74 355.94C517.73 353.92 520.27 351.9 522.18 349C524.109 346.051 525.093 342.583 525 339.06C525 329.69 519.44 325 512.04 325C509.539 325.028 507.093 325.742 504.97 327.065C502.847 328.387 501.128 330.267 500 332.5C498.872 330.267 497.153 328.387 495.03 327.065C492.907 325.742 490.461 325.028 487.96 325C480.56 325 475 329.69 475 339.06C474.907 342.583 475.89 346.05 477.82 349C479.73 351.9 482.27 353.92 484.26 355.94C487.96 359.69 500 370 500 370Z" fill="#DF4D60"/>
<path d="M500 370C500 370 510.6 359.69 513.851 355.94C515.6 353.92 517.838 351.9 519.518 349C521.237 345.975 522.095 342.538 522 339.06C522 329.69 517.107 325 510.6 325C504.093 325 500.818 330.63 500 332.5C499.182 330.63 495.926 325 489.405 325C482.884 325 478 329.69 478 339.06C477.905 342.538 478.763 345.975 480.482 349C482.162 351.9 484.398 353.92 486.149 355.94C489.405 359.69 500 370 500 370Z" fill="#FF5364"/>
<path fill-rule="evenodd" clip-rule="evenodd" d="M516.967 342.999C516.879 342.999 516.791 342.955 516.703 342.955C507.597 339.921 505.177 333.982 505.045 333.719C505.001 333.587 505.001 333.499 505.001 333.367L505 320.742C505 320.522 505.088 320.258 505.264 320.126C505.484 319.95 505.704 319.862 505.968 319.862C506.1 319.906 506.276 319.906 506.452 319.906C510.807 319.906 516.349 315.243 516.393 315.199C516.745 314.935 517.229 314.935 517.537 315.199C517.581 315.243 523.168 319.905 527.522 319.905C527.654 319.905 527.83 319.905 528.006 319.861C528.226 319.861 528.49 319.949 528.666 320.125C528.842 320.257 528.93 320.521 528.93 320.74L528.931 333.365C528.931 333.497 528.931 333.585 528.887 333.717C528.799 333.981 526.336 339.92 517.231 342.955C517.143 342.955 517.055 342.999 516.967 342.999Z" fill="#0E9F6E"/>
<path fill-rule="evenodd" clip-rule="evenodd" d="M514.671 333.629C514.451 333.629 514.231 333.542 514.055 333.366L511.108 330.419C510.756 330.067 510.756 329.495 511.108 329.187C511.46 328.835 511.988 328.835 512.34 329.187L514.671 331.518L521.577 324.611C521.929 324.259 522.501 324.259 522.809 324.611C523.161 324.963 523.161 325.491 522.809 325.843L515.287 333.366C515.111 333.541 514.891 333.629 514.671 333.629Z" fill="white"/>
<path d="M516.515 348.143C516.288 348.006 516.015 347.966 515.758 348.03C515.501 348.094 515.28 348.258 515.143 348.485L513.614 351.033L512.361 341.618C512.328 341.372 512.203 341.148 512.012 340.99C511.821 340.832 511.577 340.751 511.329 340.765C511.285 340.608 511.202 340.464 511.089 340.346C510.975 340.229 510.834 340.141 510.678 340.092C510.552 340.054 510.42 340.041 510.289 340.055C510.159 340.068 510.032 340.107 509.916 340.169C509.8 340.231 509.698 340.315 509.615 340.417C509.532 340.519 509.47 340.636 509.432 340.762L507.257 348H504C503.814 348 503.632 348.052 503.474 348.149C503.316 348.247 503.188 348.387 503.105 348.553L501.583 351.6L499.992 338.876C499.963 338.648 499.858 338.438 499.692 338.279C499.527 338.12 499.312 338.023 499.083 338.004C498.855 337.985 498.626 338.045 498.437 338.174C498.247 338.303 498.108 338.493 498.042 338.713L495.256 348H492C491.845 348 491.692 348.036 491.553 348.106C491.414 348.175 491.293 348.276 491.2 348.4L489.627 350.5L487.988 339.85C487.953 339.629 487.846 339.425 487.682 339.273C487.518 339.12 487.308 339.027 487.084 339.008C486.861 338.989 486.638 339.046 486.451 339.168C486.264 339.291 486.123 339.474 486.052 339.686L483.279 348H475C474.735 348 474.48 348.105 474.293 348.293C474.105 348.48 474 348.735 474 349C474 349.265 474.105 349.52 474.293 349.707C474.48 349.895 474.735 350 475 350H484C484.21 350 484.414 349.934 484.584 349.811C484.754 349.688 484.882 349.515 484.948 349.316L486.641 344.24L488.012 353.152C488.042 353.346 488.129 353.528 488.261 353.673C488.394 353.819 488.566 353.922 488.757 353.97C488.948 354.017 489.149 354.008 489.334 353.942C489.52 353.876 489.682 353.757 489.8 353.6L492.5 350H496C496.215 350 496.425 349.931 496.597 349.802C496.77 349.674 496.896 349.493 496.958 349.287L498.6 343.828L500.012 355.128C500.039 355.341 500.133 355.54 500.281 355.695C500.429 355.85 500.623 355.954 500.835 355.99C500.89 355.998 500.945 356 501 356C501.186 356 501.368 355.948 501.526 355.851C501.684 355.753 501.812 355.613 501.895 355.447L504.618 350H508C508.215 350 508.424 349.931 508.597 349.803C508.769 349.674 508.896 349.494 508.958 349.288L510.626 343.739L512.009 354.132C512.036 354.337 512.127 354.529 512.268 354.681C512.409 354.832 512.594 354.937 512.797 354.979C513 355.021 513.211 354.999 513.401 354.916C513.591 354.833 513.75 354.693 513.857 354.515L516.857 349.515C516.994 349.288 517.034 349.015 516.97 348.758C516.906 348.501 516.742 348.28 516.515 348.143Z" fill="#F3D55B"/>
</g>
</g>
</g>
<g filter="url(#filter1_d_2504_10506)">
<rect x="-15" y="399" width="192" height="80" rx="20" fill="#F5F6FA" shape-rendering="crispEdges"/>
<path d="M6.72968 422.345L11.2808 422.32L16.0243 434.021L16.2288 434.02L21.0988 422.266L25.6499 422.241L25.5558 439.696L21.9763 439.715L22.0375 428.355L21.8926 428.355L17.3149 439.656L14.8774 439.669L10.4214 428.376L10.2766 428.377L10.2151 439.78L6.6356 439.799L6.72968 422.345ZM34.4413 439.902C33.1175 439.91 31.9741 439.635 31.0113 439.078C30.0541 438.515 29.3169 437.729 28.7996 436.72C28.2824 435.706 28.0274 434.529 28.0346 433.188C28.0419 431.836 28.3096 430.652 28.8378 429.638C29.366 428.618 30.1117 427.824 31.075 427.257C32.0439 426.683 33.1903 426.393 34.5142 426.386C35.838 426.378 36.9785 426.656 37.9357 427.219C38.8985 427.776 39.6386 428.562 40.1558 429.576C40.6731 430.584 40.9281 431.765 40.9208 433.117C40.9136 434.458 40.6459 435.638 40.1177 436.658C39.5895 437.672 38.8409 438.466 37.872 439.04C36.9087 439.608 35.7652 439.895 34.4413 439.902ZM34.4735 437.09C35.0758 437.087 35.5796 436.913 35.9848 436.57C36.3901 436.221 36.6966 435.748 36.9043 435.15C37.1178 434.553 37.2265 433.873 37.2307 433.112C37.2348 432.35 37.1333 431.672 36.9263 431.077C36.725 430.481 36.4235 430.011 36.022 429.667C35.6205 429.323 35.1186 429.152 34.5163 429.155C33.9084 429.159 33.3961 429.335 32.9794 429.684C32.5685 430.032 32.2563 430.506 32.0428 431.103C31.8351 431.701 31.7292 432.381 31.7251 433.142C31.7209 433.903 31.8196 434.582 32.0209 435.177C32.2279 435.773 32.535 436.243 32.9422 436.587C33.3552 436.926 33.8656 437.093 34.4735 437.09ZM50.2801 426.469L50.2654 429.197L42.382 429.24L42.3967 426.513L50.2801 426.469ZM44.2033 423.367L47.834 423.347L47.7682 435.551C47.7664 435.886 47.8161 436.147 47.9173 436.334C48.0186 436.515 48.16 436.643 48.3414 436.715C48.5285 436.788 48.7442 436.824 48.9885 436.823C49.159 436.822 49.3295 436.807 49.5001 436.777C49.6708 436.742 49.8016 436.716 49.8926 436.698L50.449 439.397C50.2669 439.455 50.0109 439.521 49.6809 439.597C49.351 439.678 48.9501 439.729 48.4785 439.749C47.6033 439.787 46.8369 439.675 46.1792 439.412C45.5273 439.148 45.021 438.736 44.6604 438.176C44.2998 437.615 44.1247 436.906 44.135 436.048L44.2033 423.367ZM58.3472 439.771C57.0234 439.778 55.88 439.503 54.9172 438.946C53.96 438.383 53.2228 437.598 52.7055 436.589C52.1883 435.575 51.9333 434.397 51.9405 433.057C51.9478 431.704 52.2155 430.521 52.7437 429.507C53.2719 428.487 54.0176 427.693 54.9809 427.125C55.9498 426.552 57.0962 426.261 58.4201 426.254C59.7439 426.247 60.8844 426.525 61.8416 427.088C62.8044 427.645 63.5445 428.431 64.0617 429.445C64.579 430.453 64.834 431.634 64.8267 432.986C64.8195 434.327 64.5517 435.507 64.0235 436.527C63.4954 437.541 62.7468 438.335 61.7779 438.909C60.8146 439.476 59.6711 439.764 58.3472 439.771ZM58.3794 436.959C58.9817 436.955 59.4854 436.782 59.8907 436.439C60.296 436.09 60.6025 435.617 60.8102 435.019C61.0237 434.421 61.1324 433.742 61.1365 432.98C61.1406 432.219 61.0392 431.541 60.8322 430.945C60.6309 430.35 60.3294 429.88 59.9279 429.536C59.5264 429.191 59.0245 429.021 58.4222 429.024C57.8142 429.027 57.302 429.203 56.8853 429.552C56.4744 429.901 56.1622 430.374 55.9487 430.972C55.741 431.57 55.635 432.249 55.6309 433.011C55.6268 433.772 55.7254 434.45 55.9268 435.046C56.1338 435.641 56.4409 436.111 56.8481 436.456C57.261 436.794 57.7715 436.962 58.3794 436.959ZM67.1524 439.467L67.223 426.376L70.7428 426.357L70.7305 428.641L70.8669 428.64C71.1099 427.826 71.5138 427.211 72.0785 426.793C72.6433 426.369 73.2921 426.155 74.025 426.151C74.2069 426.15 74.4028 426.161 74.6129 426.182C74.823 426.204 75.0075 426.234 75.1664 426.273L75.149 429.495C74.9788 429.444 74.7433 429.4 74.4424 429.362C74.1415 429.324 73.866 429.306 73.616 429.307C73.0819 429.31 72.604 429.429 72.1823 429.664C71.7663 429.894 71.4351 430.214 71.1886 430.624C70.9477 431.035 70.8259 431.507 70.823 432.041L70.7831 439.447L67.1524 439.467Z" fill="#39416B"/>
<path d="M8.31835 450.153L8.25563 461.79L6.1477 461.801L6.21043 450.165L8.31835 450.153ZM12.5317 456.653L12.5041 461.766L10.4474 461.778L10.4944 453.05L12.4603 453.04L12.4523 454.523L12.5546 454.522C12.7579 454.032 13.0801 453.642 13.521 453.352C13.9658 453.062 14.5139 452.915 15.1654 452.911C15.7677 452.908 16.2916 453.034 16.7371 453.289C17.1865 453.544 17.533 453.915 17.7766 454.402C18.0239 454.89 18.1438 455.482 18.1363 456.179L18.1063 461.735L16.0495 461.747L16.0778 456.508C16.0809 455.925 15.9319 455.469 15.6306 455.141C15.3332 454.813 14.9193 454.651 14.389 454.654C14.0291 454.656 13.7086 454.737 13.4275 454.898C13.1501 455.055 12.9311 455.281 12.7704 455.578C12.6136 455.874 12.534 456.232 12.5317 456.653ZM27.1294 455.266L25.2534 455.481C25.2014 455.291 25.1095 455.114 24.9778 454.948C24.8499 454.782 24.6764 454.649 24.4573 454.547C24.2381 454.446 23.9695 454.397 23.6513 454.399C23.2233 454.401 22.8629 454.496 22.5703 454.683C22.2814 454.87 22.1381 455.111 22.1403 455.407C22.1351 455.661 22.2268 455.866 22.4153 456.025C22.6077 456.183 22.9251 456.312 23.3677 456.411L24.8546 456.721C25.6794 456.895 26.2915 457.174 26.691 457.558C27.0942 457.942 27.296 458.446 27.2964 459.071C27.2897 459.621 27.1261 460.106 26.8056 460.529C26.489 460.947 26.0497 461.275 25.4879 461.513C24.926 461.751 24.2815 461.872 23.5542 461.876C22.486 461.882 21.6274 461.663 20.9783 461.22C20.3292 460.773 19.9443 460.148 19.8237 459.345L21.8304 459.141C21.9192 459.535 22.1107 459.831 22.4051 460.03C22.6995 460.229 23.0834 460.327 23.5569 460.325C24.0455 460.322 24.4381 460.22 24.7346 460.017C25.0349 459.815 25.1859 459.566 25.1875 459.271C25.1888 459.021 25.0934 458.815 24.9011 458.653C24.7125 458.491 24.4178 458.368 24.0167 458.283L22.5298 457.978C21.6936 457.809 21.0759 457.519 20.6766 457.108C20.2773 456.693 20.0813 456.168 20.0885 455.532C20.0877 454.994 20.236 454.527 20.5336 454.132C20.835 453.732 21.2514 453.423 21.7828 453.204C22.3181 452.982 22.9342 452.868 23.6312 452.865C24.6539 452.859 25.4576 453.072 26.0424 453.505C26.6309 453.937 26.9933 454.524 27.1294 455.266ZM34.5605 457.975L34.5878 452.918L36.6446 452.907L36.5975 461.634L34.6032 461.645L34.6116 460.094L34.5207 460.094C34.3211 460.584 33.9951 460.985 33.5427 461.298C33.094 461.611 32.5421 461.77 31.8868 461.773C31.3148 461.777 30.8098 461.652 30.3718 461.401C29.9376 461.146 29.5987 460.775 29.3551 460.287C29.1116 459.796 28.9917 459.202 28.9954 458.505L29.0254 452.949L31.0822 452.937L31.0539 458.176C31.0509 458.729 31.2001 459.167 31.5013 459.492C31.8026 459.816 32.1995 459.976 32.6919 459.974C32.9949 459.972 33.2889 459.896 33.5737 459.747C33.8586 459.598 34.0928 459.377 34.2761 459.084C34.4633 458.788 34.5581 458.418 34.5605 457.975ZM38.7126 461.622L38.7596 452.895L40.7539 452.884L40.746 454.339L40.8369 454.338C40.9988 453.834 41.2736 453.444 41.6614 453.169C42.053 452.89 42.4988 452.75 42.9988 452.747C43.1125 452.746 43.2393 452.751 43.3794 452.762C43.5233 452.769 43.6426 452.781 43.7372 452.8L43.727 454.692C43.64 454.662 43.5019 454.636 43.3126 454.614C43.1272 454.589 42.9473 454.577 42.7731 454.578C42.3981 454.58 42.0605 454.663 41.7604 454.827C41.4641 454.988 41.23 455.211 41.058 455.496C40.886 455.781 40.799 456.109 40.797 456.48L40.7693 461.611L38.7126 461.622ZM47.4103 461.751C46.8573 461.754 46.3597 461.658 45.9176 461.463C45.4793 461.265 45.1324 460.972 44.877 460.583C44.6253 460.194 44.501 459.714 44.5041 459.142C44.5067 458.649 44.5998 458.242 44.7834 457.919C44.9669 457.596 45.2164 457.337 45.5319 457.142C45.8473 456.947 46.2022 456.799 46.5967 456.698C46.995 456.594 47.4063 456.518 47.8308 456.47C48.3425 456.414 48.7575 456.365 49.0759 456.321C49.3943 456.274 49.6257 456.205 49.7702 456.113C49.9184 456.017 49.993 455.871 49.9941 455.674L49.9943 455.64C49.9966 455.212 49.8715 454.881 49.619 454.648C49.3665 454.414 49.0016 454.299 48.5243 454.302C48.0205 454.304 47.6203 454.416 47.3237 454.638C47.0308 454.859 46.8325 455.12 46.7286 455.419L44.8096 455.157C44.964 454.626 45.2164 454.182 45.5668 453.824C45.9172 453.462 46.3448 453.191 46.8495 453.01C47.3543 452.825 47.9116 452.731 48.5214 452.728C48.9419 452.726 49.3602 452.773 49.7763 452.869C50.1924 452.965 50.5722 453.126 50.9157 453.351C51.2592 453.573 51.534 453.876 51.7403 454.261C51.9503 454.646 52.0538 455.129 52.0507 455.708L52.0192 461.549L50.0419 461.56L50.0484 460.361L49.9802 460.362C49.8539 460.605 49.6765 460.833 49.4481 461.046C49.2235 461.256 48.9404 461.426 48.5988 461.557C48.261 461.683 47.8649 461.748 47.4103 461.751ZM47.9526 460.236C48.3654 460.234 48.7238 460.151 49.0277 459.986C49.3317 459.818 49.5658 459.597 49.7301 459.323C49.8983 459.05 49.9832 458.752 49.9849 458.43L49.9905 457.401C49.9258 457.455 49.8157 457.505 49.6601 457.551C49.5084 457.597 49.3377 457.638 49.1481 457.673C48.9586 457.708 48.7709 457.74 48.5852 457.767C48.3994 457.795 48.2383 457.818 48.1018 457.838C47.7948 457.881 47.5198 457.951 47.2769 458.047C47.034 458.143 46.842 458.277 46.7009 458.448C46.5598 458.615 46.4886 458.832 46.4872 459.097C46.4851 459.476 46.6219 459.761 46.8973 459.952C47.1728 460.144 47.5245 460.239 47.9526 460.236ZM56.1717 456.413L56.1441 461.527L54.0873 461.538L54.1344 452.811L56.1002 452.8L56.0922 454.283L56.1945 454.282C56.3979 453.793 56.7201 453.403 57.161 453.112C57.6057 452.822 58.1539 452.675 58.8054 452.671C59.4076 452.668 59.9315 452.794 60.3771 453.049C60.8265 453.304 61.1729 453.675 61.4165 454.163C61.6639 454.65 61.7838 455.242 61.7762 455.939L61.7463 461.496L59.6895 461.507L59.7177 456.268C59.7209 455.685 59.5718 455.23 59.2706 454.902C58.9731 454.574 58.5592 454.411 58.029 454.414C57.6691 454.416 57.3486 454.497 57.0675 454.658C56.7901 454.815 56.5711 455.042 56.4104 455.338C56.2535 455.634 56.1739 455.993 56.1717 456.413ZM67.643 461.634C66.7718 461.639 66.0247 461.451 65.4018 461.072C64.7827 460.693 64.3064 460.167 63.9729 459.495C63.6432 458.819 63.4808 458.039 63.4855 457.157C63.4903 456.27 63.665 455.487 64.0095 454.807C64.3541 454.124 64.838 453.591 65.4613 453.209C66.0883 452.823 66.828 452.627 67.6802 452.623C68.3885 452.619 69.0147 452.746 69.5588 453.004C70.1066 453.259 70.5421 453.622 70.8653 454.094C71.1886 454.562 71.3712 455.11 71.4133 455.738L69.4474 455.749C69.3701 455.329 69.1826 454.98 68.8849 454.701C68.591 454.419 68.1959 454.279 67.6997 454.282C67.2792 454.284 66.9093 454.4 66.5899 454.629C66.2705 454.854 66.0207 455.177 65.8404 455.599C65.6639 456.02 65.5741 456.524 65.5709 457.111C65.5677 457.706 65.6521 458.217 65.824 458.644C65.9959 459.067 66.2385 459.394 66.5516 459.623C66.8686 459.848 67.2411 459.96 67.6691 459.958C67.9721 459.956 68.2433 459.898 68.4825 459.783C68.7256 459.664 68.9291 459.494 69.0932 459.274C69.2572 459.053 69.3704 458.785 69.4327 458.471L71.3986 458.46C71.346 459.078 71.1613 459.626 70.8443 460.105C70.5274 460.58 70.0973 460.954 69.5542 461.226C69.0111 461.494 68.3741 461.63 67.643 461.634ZM76.9341 461.583C76.0591 461.588 75.3044 461.41 74.67 461.05C74.0394 460.686 73.5555 460.17 73.2182 459.501C72.8809 458.829 72.7147 458.036 72.7197 457.123C72.7245 456.225 72.8992 455.437 73.2438 454.757C73.5921 454.073 74.076 453.54 74.6955 453.158C75.315 452.772 76.0414 452.577 76.8747 452.572C77.4126 452.569 77.9197 452.654 78.396 452.825C78.8761 452.993 79.2989 453.256 79.6644 453.614C80.0337 453.971 80.3229 454.428 80.532 454.984C80.7411 455.536 80.8436 456.194 80.8395 456.959L80.8361 457.59L73.6828 457.629L73.6903 456.243L78.872 456.214C78.8703 455.82 78.787 455.471 78.622 455.165C78.457 454.855 78.2254 454.612 77.9271 454.436C77.6326 454.259 77.2884 454.172 76.8945 454.174C76.474 454.177 76.1041 454.281 75.7849 454.487C75.4656 454.69 75.2161 454.956 75.0363 455.287C74.8603 455.613 74.7693 455.972 74.7634 456.362L74.7569 457.572C74.7542 458.08 74.8446 458.515 75.0283 458.877C75.2119 459.236 75.4699 459.511 75.8022 459.703C76.1345 459.89 76.5241 459.983 76.9711 459.98C77.2703 459.979 77.5414 459.936 77.7843 459.851C78.0272 459.762 78.2381 459.634 78.417 459.467C78.5959 459.299 78.7315 459.092 78.8237 458.845L80.743 459.051C80.6191 459.559 80.3856 460.003 80.0427 460.384C79.7035 460.761 79.2701 461.055 78.7425 461.266C78.2149 461.473 77.6121 461.579 76.9341 461.583Z" fill="#7986B7"/>
<g clip-path="url(#clip4_2504_10506)">
<path fill-rule="evenodd" clip-rule="evenodd" d="M153.667 454.977L148.978 454.977C148.607 454.977 148.303 454.674 148.303 454.303C148.303 451.705 146.212 449.614 143.648 449.614C141.051 449.614 138.96 451.706 138.96 454.303C138.96 454.674 138.657 454.978 138.286 454.978L116.698 454.979C116.327 454.979 116.023 454.676 116.023 454.305C116.023 451.707 113.932 449.616 111.368 449.616C108.771 449.616 106.68 451.708 106.68 454.305C106.68 454.676 106.376 454.98 106.005 454.98L100.237 454.98C98.7533 454.98 97.5389 453.766 97.5388 452.282L97.5383 443.31C97.5382 441.825 98.7524 440.611 100.237 440.611L145.57 440.608C150.394 440.608 154.341 444.554 154.341 449.378L154.341 454.302C154.341 454.673 154.038 454.977 153.667 454.977Z" fill="#76CBFF"/>
<path fill-rule="evenodd" clip-rule="evenodd" d="M105.431 441.96C105.296 441.96 105.161 441.926 105.026 441.825C104.723 441.622 104.655 441.184 104.891 440.88L112.581 430.221C112.716 430.052 112.919 429.951 113.121 429.951L130.29 429.95C130.458 429.95 130.627 430.018 130.762 430.119L141.995 440.811C142.265 441.047 142.299 441.485 142.029 441.755C141.759 442.025 141.354 442.025 141.084 441.789L140.814 441.519L106.106 441.521L105.971 441.69C105.836 441.858 105.633 441.96 105.431 441.96Z" fill="#76CBFF"/>
<path fill-rule="evenodd" clip-rule="evenodd" d="M106.645 440.745L139.87 440.676L130.02 431.299L113.458 431.3L106.645 440.745Z" fill="#39416B"/>
<path fill-rule="evenodd" clip-rule="evenodd" d="M121.048 429.951L122.397 429.951L122.398 441.52L121.048 441.52L121.048 429.951Z" fill="#FFB103"/>
<path fill-rule="evenodd" clip-rule="evenodd" d="M111.369 460.309C108.03 460.309 105.331 457.611 105.331 454.305C105.33 450.966 108.029 448.267 111.368 448.267C114.674 448.267 117.372 450.965 117.373 454.304C117.373 457.61 114.674 460.309 111.369 460.309Z" fill="#7A8C98"/>
<path fill-rule="evenodd" clip-rule="evenodd" d="M111.369 456.7C110.019 456.7 108.94 455.621 108.94 454.305C108.94 452.956 110.019 451.876 111.368 451.876C112.684 451.876 113.797 452.956 113.797 454.305C113.797 455.62 112.684 456.7 111.369 456.7Z" fill="white"/>
<path fill-rule="evenodd" clip-rule="evenodd" d="M143.649 460.307C140.31 460.307 137.611 457.609 137.611 454.303C137.611 450.964 140.309 448.265 143.648 448.265C146.954 448.265 149.652 450.963 149.653 454.302C149.653 457.608 146.955 460.307 143.649 460.307Z" fill="#7A8C98"/>
<path fill-rule="evenodd" clip-rule="evenodd" d="M143.649 456.698C142.3 456.698 141.22 455.619 141.22 454.303C141.22 452.954 142.299 451.874 143.648 451.874C144.964 451.874 146.077 452.954 146.077 454.303C146.077 455.618 144.964 456.698 143.649 456.698Z" fill="white"/>
<path fill-rule="evenodd" clip-rule="evenodd" d="M145.908 438.955C145.84 438.955 145.773 438.922 145.705 438.922C138.723 436.595 136.867 432.041 136.766 431.839C136.732 431.738 136.732 431.67 136.732 431.569L136.732 421.888C136.732 421.72 136.799 421.517 136.934 421.416C137.103 421.281 137.271 421.214 137.474 421.214C137.575 421.247 137.71 421.247 137.845 421.247C141.184 421.247 145.434 417.671 145.468 417.638C145.738 417.435 146.109 417.435 146.345 417.638C146.379 417.671 150.663 421.246 154.002 421.246C154.103 421.246 154.238 421.246 154.373 421.212C154.542 421.212 154.744 421.28 154.879 421.415C155.014 421.516 155.081 421.718 155.081 421.887L155.082 431.568C155.082 431.669 155.082 431.736 155.048 431.838C154.981 432.04 153.092 436.594 146.11 438.922C146.043 438.922 145.975 438.955 145.908 438.955Z" fill="#0E9F6E"/>
<path fill-rule="evenodd" clip-rule="evenodd" d="M144.153 431.771C143.984 431.771 143.816 431.703 143.681 431.568L141.421 429.309C141.151 429.039 141.151 428.6 141.421 428.364C141.691 428.094 142.095 428.094 142.365 428.364L144.153 430.152L149.448 424.856C149.718 424.586 150.157 424.586 150.393 424.856C150.663 425.125 150.663 425.53 150.393 425.8L144.625 431.568C144.49 431.703 144.322 431.771 144.153 431.771Z" fill="white"/>
</g>
</g>
<g filter="url(#filter2_d_2504_10506)">
<rect x="109" y="85" width="197" height="66.3796" rx="20" fill="#F5F6FA" shape-rendering="crispEdges"/>
<path d="M130.636 118.989L130.73 101.535L134.42 101.515L134.342 115.927L141.825 115.885L141.809 118.928L130.636 118.989ZM144.184 118.915L144.255 105.824L147.886 105.804L147.815 118.895L144.184 118.915ZM146.088 104.127C145.548 104.13 145.086 103.953 144.702 103.597C144.323 103.236 144.135 102.802 144.138 102.297C144.14 101.797 144.333 101.367 144.716 101.007C145.104 100.641 145.568 100.456 146.108 100.454C146.647 100.451 147.107 100.63 147.485 100.991C147.87 101.347 148.061 101.775 148.058 102.275C148.055 102.781 147.86 103.216 147.471 103.582C147.089 103.942 146.628 104.124 146.088 104.127ZM157.834 105.75L157.819 108.477L149.739 108.521L149.754 105.794L157.834 105.75ZM151.533 118.875L151.609 104.838C151.614 103.889 151.803 103.101 152.175 102.474C152.554 101.847 153.068 101.375 153.717 101.059C154.366 100.743 155.103 100.583 155.927 100.579C156.484 100.575 156.992 100.615 157.452 100.698C157.917 100.781 158.263 100.855 158.49 100.922L157.828 103.653C157.686 103.609 157.51 103.567 157.3 103.528C157.096 103.49 156.886 103.471 156.67 103.472C156.136 103.475 155.763 103.602 155.551 103.853C155.34 104.099 155.233 104.443 155.23 104.886L155.155 118.855L151.533 118.875ZM165.477 119.054C164.13 119.061 162.973 118.795 162.004 118.255C161.041 117.709 160.301 116.934 159.784 115.932C159.266 114.923 159.011 113.729 159.019 112.348C159.026 111.001 159.294 109.818 159.822 108.798C160.35 107.778 161.09 106.982 162.042 106.408C163 105.835 164.121 105.545 165.405 105.538C166.268 105.533 167.072 105.668 167.814 105.942C168.563 106.211 169.214 106.619 169.768 107.167C170.327 107.715 170.761 108.406 171.069 109.239C171.377 110.067 171.528 111.038 171.522 112.151L171.517 113.149L160.463 113.209L160.475 110.959L168.111 110.917C168.114 110.395 168.003 109.932 167.778 109.53C167.553 109.128 167.239 108.814 166.837 108.589C166.441 108.359 165.978 108.245 165.45 108.247C164.899 108.251 164.409 108.381 163.982 108.639C163.56 108.891 163.229 109.231 162.988 109.659C162.747 110.08 162.622 110.55 162.614 111.067L162.602 113.206C162.599 113.854 162.715 114.413 162.951 114.883C163.193 115.353 163.535 115.715 163.976 115.968C164.418 116.222 164.943 116.346 165.551 116.343C165.954 116.341 166.324 116.282 166.66 116.167C166.996 116.051 167.284 115.879 167.523 115.651C167.763 115.422 167.947 115.143 168.073 114.812L171.43 115.015C171.255 115.823 170.902 116.53 170.37 117.135C169.844 117.734 169.166 118.204 168.334 118.544C167.509 118.878 166.556 119.048 165.477 119.054Z" fill="#39416B"/>
<path d="M132.318 129.343L132.256 140.98L130.148 140.991L130.21 129.355L132.318 129.343ZM136.532 135.843L136.504 140.956L134.447 140.967L134.494 132.24L136.46 132.23L136.452 133.712L136.555 133.712C136.758 133.222 137.08 132.832 137.521 132.542C137.966 132.252 138.514 132.105 139.165 132.101C139.768 132.098 140.292 132.224 140.737 132.479C141.187 132.734 141.533 133.105 141.777 133.592C142.024 134.08 142.144 134.672 142.136 135.369L142.106 140.925L140.05 140.937L140.078 135.698C140.081 135.115 139.932 134.659 139.631 134.331C139.333 134.003 138.919 133.841 138.389 133.844C138.029 133.846 137.709 133.927 137.427 134.088C137.15 134.245 136.931 134.471 136.77 134.767C136.614 135.064 136.534 135.422 136.532 135.843ZM151.129 134.456L149.253 134.671C149.201 134.481 149.11 134.304 148.978 134.138C148.85 133.972 148.676 133.838 148.457 133.737C148.238 133.636 147.969 133.587 147.651 133.588C147.223 133.591 146.863 133.686 146.57 133.873C146.281 134.06 146.138 134.301 146.14 134.597C146.135 134.851 146.227 135.056 146.415 135.214C146.608 135.373 146.925 135.501 147.368 135.601L148.855 135.911C149.679 136.085 150.292 136.364 150.691 136.748C151.094 137.132 151.296 137.636 151.296 138.261C151.29 138.811 151.126 139.296 150.806 139.719C150.489 140.137 150.05 140.465 149.488 140.703C148.926 140.941 148.281 141.062 147.554 141.066C146.486 141.072 145.627 140.853 144.978 140.41C144.329 139.962 143.944 139.338 143.824 138.535L145.83 138.331C145.919 138.725 146.111 139.021 146.405 139.22C146.699 139.419 147.083 139.517 147.557 139.515C148.045 139.512 148.438 139.41 148.735 139.207C149.035 139.005 149.186 138.756 149.187 138.46C149.189 138.21 149.093 138.005 148.901 137.843C148.713 137.681 148.418 137.558 148.017 137.473L146.53 137.168C145.694 136.999 145.076 136.709 144.677 136.298C144.277 135.883 144.081 135.358 144.089 134.722C144.088 134.184 144.236 133.717 144.534 133.321C144.835 132.922 145.251 132.613 145.783 132.394C146.318 132.172 146.934 132.058 147.631 132.055C148.654 132.049 149.458 132.262 150.042 132.695C150.631 133.127 150.993 133.714 151.129 134.456ZM158.561 137.165L158.588 132.108L160.645 132.097L160.598 140.824L158.603 140.835L158.612 139.284L158.521 139.284C158.321 139.774 157.995 140.175 157.543 140.488C157.094 140.801 156.542 140.96 155.887 140.963C155.315 140.966 154.81 140.842 154.372 140.591C153.938 140.336 153.599 139.965 153.355 139.477C153.112 138.986 152.992 138.392 152.995 137.695L153.025 132.139L155.082 132.127L155.054 137.366C155.051 137.919 155.2 138.357 155.501 138.681C155.803 139.006 156.199 139.166 156.692 139.164C156.995 139.162 157.289 139.086 157.574 138.937C157.859 138.788 158.093 138.567 158.276 138.274C158.463 137.978 158.558 137.608 158.561 137.165ZM162.713 140.812L162.76 132.085L164.754 132.074L164.746 133.529L164.837 133.528C164.999 133.023 165.274 132.634 165.661 132.359C166.053 132.08 166.499 131.94 166.999 131.937C167.112 131.936 167.239 131.941 167.379 131.952C167.523 131.959 167.643 131.971 167.737 131.99L167.727 133.882C167.64 133.852 167.502 133.826 167.313 133.804C167.127 133.779 166.947 133.767 166.773 133.767C166.398 133.77 166.061 133.853 165.76 134.017C165.464 134.178 165.23 134.401 165.058 134.686C164.886 134.971 164.799 135.299 164.797 135.67L164.769 140.801L162.713 140.812ZM171.41 140.941C170.857 140.944 170.36 140.848 169.918 140.653C169.479 140.455 169.132 140.161 168.877 139.773C168.625 139.384 168.501 138.904 168.504 138.332C168.507 137.839 168.6 137.432 168.783 137.109C168.967 136.786 169.216 136.527 169.532 136.332C169.847 136.137 170.202 135.989 170.597 135.888C170.995 135.784 171.406 135.708 171.831 135.66C172.342 135.604 172.757 135.555 173.076 135.511C173.394 135.464 173.626 135.395 173.77 135.303C173.918 135.207 173.993 135.061 173.994 134.864L173.994 134.83C173.997 134.402 173.871 134.071 173.619 133.838C173.366 133.604 173.002 133.489 172.524 133.492C172.021 133.494 171.62 133.606 171.324 133.828C171.031 134.049 170.832 134.31 170.729 134.609L168.81 134.347C168.964 133.816 169.216 133.372 169.567 133.014C169.917 132.652 170.345 132.381 170.85 132.2C171.354 132.015 171.912 131.921 172.521 131.918C172.942 131.916 173.36 131.962 173.776 132.059C174.192 132.155 174.572 132.316 174.916 132.541C175.259 132.763 175.534 133.066 175.74 133.451C175.95 133.836 176.054 134.319 176.051 134.898L176.019 140.739L174.042 140.75L174.048 139.551L173.98 139.552C173.854 139.795 173.677 140.023 173.448 140.236C173.224 140.446 172.94 140.616 172.599 140.747C172.261 140.873 171.865 140.938 171.41 140.941ZM171.953 139.426C172.365 139.424 172.724 139.341 173.028 139.176C173.332 139.008 173.566 138.787 173.73 138.513C173.898 138.24 173.983 137.942 173.985 137.62L173.99 136.591C173.926 136.645 173.816 136.695 173.66 136.741C173.508 136.787 173.338 136.828 173.148 136.863C172.959 136.898 172.771 136.929 172.585 136.957C172.399 136.985 172.238 137.008 172.102 137.028C171.795 137.071 171.52 137.141 171.277 137.237C171.034 137.333 170.842 137.467 170.701 137.638C170.56 137.805 170.489 138.022 170.487 138.287C170.485 138.665 170.622 138.951 170.897 139.142C171.173 139.334 171.525 139.429 171.953 139.426ZM180.172 135.603L180.144 140.716L178.087 140.728L178.134 132.001L180.1 131.99L180.092 133.473L180.195 133.472C180.398 132.982 180.72 132.592 181.161 132.302C181.606 132.012 182.154 131.865 182.805 131.861C183.408 131.858 183.932 131.984 184.377 132.239C184.826 132.494 185.173 132.865 185.417 133.353C185.664 133.84 185.784 134.432 185.776 135.129L185.746 140.686L183.69 140.697L183.718 135.458C183.721 134.875 183.572 134.42 183.271 134.092C182.973 133.764 182.559 133.601 182.029 133.604C181.669 133.606 181.349 133.687 181.067 133.848C180.79 134.005 180.571 134.231 180.41 134.528C180.254 134.824 180.174 135.182 180.172 135.603ZM191.643 140.824C190.772 140.829 190.025 140.641 189.402 140.262C188.783 139.883 188.306 139.357 187.973 138.685C187.643 138.009 187.481 137.229 187.486 136.347C187.49 135.46 187.665 134.677 188.01 133.997C188.354 133.314 188.838 132.781 189.461 132.399C190.088 132.013 190.828 131.817 191.68 131.813C192.389 131.809 193.015 131.936 193.559 132.194C194.107 132.449 194.542 132.812 194.865 133.284C195.189 133.752 195.371 134.3 195.413 134.928L193.447 134.939C193.37 134.519 193.183 134.17 192.885 133.891C192.591 133.609 192.196 133.469 191.7 133.471C191.279 133.474 190.909 133.589 190.59 133.818C190.271 134.044 190.021 134.367 189.84 134.788C189.664 135.21 189.574 135.714 189.571 136.301C189.568 136.896 189.652 137.407 189.824 137.834C189.996 138.257 190.238 138.583 190.552 138.813C190.869 139.038 191.241 139.15 191.669 139.148C191.972 139.146 192.243 139.088 192.482 138.973C192.726 138.854 192.929 138.684 193.093 138.464C193.257 138.243 193.37 137.975 193.433 137.661L195.399 137.65C195.346 138.268 195.161 138.816 194.844 139.295C194.527 139.77 194.097 140.144 193.554 140.416C193.011 140.684 192.374 140.82 191.643 140.824ZM200.934 140.773C200.059 140.778 199.304 140.6 198.67 140.24C198.039 139.876 197.555 139.36 197.218 138.691C196.881 138.019 196.715 137.226 196.72 136.313C196.724 135.415 196.899 134.627 197.244 133.947C197.592 133.263 198.076 132.73 198.695 132.348C199.315 131.962 200.041 131.767 200.875 131.762C201.413 131.759 201.92 131.843 202.396 132.015C202.876 132.183 203.299 132.446 203.664 132.804C204.034 133.161 204.323 133.618 204.532 134.174C204.741 134.726 204.844 135.384 204.839 136.149L204.836 136.78L197.683 136.819L197.69 135.433L202.872 135.404C202.87 135.01 202.787 134.661 202.622 134.355C202.457 134.045 202.225 133.802 201.927 133.626C201.633 133.449 201.288 133.362 200.894 133.364C200.474 133.366 200.104 133.471 199.785 133.677C199.466 133.88 199.216 134.146 199.036 134.477C198.86 134.803 198.769 135.162 198.763 135.552L198.757 136.762C198.754 137.27 198.845 137.705 199.028 138.067C199.212 138.426 199.47 138.701 199.802 138.893C200.135 139.08 200.524 139.173 200.971 139.17C201.27 139.169 201.541 139.126 201.784 139.041C202.027 138.952 202.238 138.824 202.417 138.657C202.596 138.489 202.732 138.282 202.824 138.035L204.743 138.241C204.619 138.749 204.386 139.193 204.043 139.574C203.704 139.951 203.27 140.245 202.743 140.456C202.215 140.663 201.612 140.769 200.934 140.773Z" fill="#7986B7"/>
<g clip-path="url(#clip5_2504_10506)">
<path d="M261.453 96.6466L261.45 134.406C261.45 135.845 260.28 137.015 258.841 137.015C257.402 137.015 256.231 135.844 256.231 134.405L256.232 132.431L253.514 132.43L253.514 134.405C253.514 137.342 255.903 139.732 258.84 139.732C261.778 139.733 264.167 137.343 264.168 134.406L264.171 96.6468L261.453 96.6466Z" fill="#666666"/>
<path d="M262.812 98.8956C251.102 98.8947 241.396 107.466 239.622 118.677C244.599 116.77 250.105 116.77 255.081 118.678C260.057 116.771 265.563 116.771 270.539 118.679C275.516 116.772 281.022 116.773 285.998 118.681C284.227 107.47 274.521 98.8966 262.812 98.8956Z" fill="#0044FF"/>
<path d="M262.812 98.8956C258.006 103.273 255.025 110.9 255.081 118.678C260.057 116.771 265.563 116.771 270.54 118.679C270.596 110.901 267.617 103.273 262.812 98.8956Z" fill="#35ADFF"/>
<path d="M262.812 98.8955C267.617 103.273 270.596 110.901 270.539 118.679C275.516 116.772 281.022 116.772 285.998 118.68C284.226 107.469 274.521 98.8964 262.812 98.8955Z" fill="#005DFF"/>
<path d="M255.795 111.904C251.29 110.177 246.307 110.172 241.799 111.89C240.73 114.028 239.996 116.317 239.622 118.677C244.599 116.77 250.105 116.77 255.081 118.678C255.064 116.38 255.315 114.095 255.797 111.903L255.795 111.904Z" fill="#35ADFF"/>
<path d="M255.797 111.904C255.315 114.095 255.064 116.38 255.081 118.678C260.057 116.771 265.563 116.771 270.54 118.679C270.556 116.381 270.306 114.097 269.824 111.905C265.309 110.174 260.313 110.174 255.797 111.904Z" fill="#005DFF"/>
<path d="M269.826 111.905L269.824 111.905C270.306 114.097 270.556 116.381 270.539 118.679C275.516 116.772 281.022 116.772 285.998 118.68C285.625 116.32 284.891 114.031 283.823 111.894C279.315 110.175 274.331 110.179 269.826 111.905Z" fill="#76CBFF"/>
</g>
</g>
</g>
<defs>
<filter id="filter0_d_2504_10506" x="343.233" y="285.233" width="230.039" height="115.039" filterUnits="userSpaceOnUse" color-interpolation-filters="sRGB">
<feFlood flood-opacity="0" result="BackgroundImageFix"/>
<feColorMatrix in="SourceAlpha" type="matrix" values="0 0 0 0 0 0 0 0 0 0 0 0 0 0 0 0 0 0 127 0" result="hardAlpha"/>
<feOffset dx="1.75194" dy="1.75194"/>
<feGaussianBlur stdDeviation="8.75968"/>
<feComposite in2="hardAlpha" operator="out"/>
<feColorMatrix type="matrix" values="0 0 0 0 0.541176 0 0 0 0 0.541176 0 0 0 0 0.541176 0 0 0 0.15 0"/>
<feBlend mode="normal" in2="BackgroundImageFix" result="effect1_dropShadow_2504_10506"/>
<feBlend mode="normal" in="SourceGraphic" in2="effect1_dropShadow_2504_10506" result="shape"/>
</filter>
<filter id="filter1_d_2504_10506" x="-30.7674" y="383.233" width="227.039" height="115.039" filterUnits="userSpaceOnUse" color-interpolation-filters="sRGB">
<feFlood flood-opacity="0" result="BackgroundImageFix"/>
<feColorMatrix in="SourceAlpha" type="matrix" values="0 0 0 0 0 0 0 0 0 0 0 0 0 0 0 0 0 0 127 0" result="hardAlpha"/>
<feOffset dx="1.75194" dy="1.75194"/>
<feGaussianBlur stdDeviation="8.75968"/>
<feComposite in2="hardAlpha" operator="out"/>
<feColorMatrix type="matrix" values="0 0 0 0 0.541176 0 0 0 0 0.541176 0 0 0 0 0.541176 0 0 0 0.15 0"/>
<feBlend mode="normal" in2="BackgroundImageFix" result="effect1_dropShadow_2504_10506"/>
<feBlend mode="normal" in="SourceGraphic" in2="effect1_dropShadow_2504_10506" result="shape"/>
</filter>
<filter id="filter2_d_2504_10506" x="93.2326" y="69.2326" width="232.039" height="101.418" filterUnits="userSpaceOnUse" color-interpolation-filters="sRGB">
<feFlood flood-opacity="0" result="BackgroundImageFix"/>
<feColorMatrix in="SourceAlpha" type="matrix" values="0 0 0 0 0 0 0 0 0 0 0 0 0 0 0 0 0 0 127 0" result="hardAlpha"/>
<feOffset dx="1.75194" dy="1.75194"/>
<feGaussianBlur stdDeviation="8.75968"/>
<feComposite in2="hardAlpha" operator="out"/>
<feColorMatrix type="matrix" values="0 0 0 0 0.541176 0 0 0 0 0.541176 0 0 0 0 0.541176 0 0 0 0.15 0"/>
<feBlend mode="normal" in2="BackgroundImageFix" result="effect1_dropShadow_2504_10506"/>
<feBlend mode="normal" in="SourceGraphic" in2="effect1_dropShadow_2504_10506" result="shape"/>
</filter>
<clipPath id="clip0_2504_10506">
<rect width="523" height="600" fill="white"/>
</clipPath>
<clipPath id="clip1_2504_10506">
<rect width="212" height="212" fill="white" transform="translate(156 194)"/>
</clipPath>
<clipPath id="clip2_2504_10506">
<rect width="60" height="60" fill="white" transform="translate(474 311)"/>
</clipPath>
<clipPath id="clip3_2504_10506">
<rect width="59" height="58" fill="white" transform="translate(474 312)"/>
</clipPath>
<clipPath id="clip4_2504_10506">
<rect width="57.5781" height="57.5781" fill="white" transform="translate(97.5361 410.119)"/>
</clipPath>
<clipPath id="clip5_2504_10506">
<rect width="46.376" height="46.376" fill="white" transform="translate(239.624 95)"/>
</clipPath>
</defs>
</svg>
