<svg width="545" height="647" viewBox="0 0 545 647" fill="none" xmlns="http://www.w3.org/2000/svg">
<g filter="url(#filter0_f_4011_15653)">
<path opacity="0.6" d="M259.201 274.801V284.891H269.291H392.737C411.168 284.891 425.833 269.497 425.833 251.22V154.023C425.833 132.583 408.643 114.601 387.126 114.601H292.297C273.866 114.601 259.201 129.995 259.201 148.271V274.801Z" stroke="url(#paint0_linear_4011_15653)" stroke-width="20.18"/>
<path opacity="0.6" d="M281.376 274.822V262.732H269.286H141.07C121.489 262.732 105.974 279.068 105.974 298.403V494.235C105.974 515.295 122.611 532.781 143.876 532.781H246.28C265.862 532.781 281.376 516.446 281.376 497.111V274.822Z" stroke="url(#paint1_linear_4011_15653)" stroke-width="24.18"/>
</g>
<g filter="url(#filter1_dd_4011_15653)">
<path d="M278.278 148.58C278.278 137.252 287.363 128.049 298.233 128.049H393.063C407.019 128.049 418.63 139.841 418.63 154.331V251.529C418.63 262.856 409.544 272.059 398.674 272.059H278.278V148.58Z" stroke="url(#paint2_linear_4011_15653)" stroke-width="6.1" shape-rendering="crispEdges"/>
</g>
<g filter="url(#filter2_dd_4011_15653)">
<path d="M133.05 292.58C133.05 281.253 142.136 272.05 153.006 272.05H278.172V491.289C278.172 502.616 269.086 511.819 258.216 511.819H155.812C143.258 511.819 133.05 501.466 133.05 488.413V292.58Z" stroke="url(#paint3_linear_4011_15653)" stroke-width="6.1" shape-rendering="crispEdges"/>
</g>
<defs>
<filter id="filter0_f_4011_15653" x="7.02477" y="17.651" width="515.758" height="614.08" filterUnits="userSpaceOnUse" color-interpolation-filters="sRGB">
<feFlood flood-opacity="0" result="BackgroundImageFix"/>
<feBlend mode="normal" in="SourceGraphic" in2="BackgroundImageFix" result="shape"/>
<feGaussianBlur stdDeviation="43.43" result="effect1_foregroundBlur_4011_15653"/>
</filter>
<filter id="filter1_dd_4011_15653" x="163.255" y="18.489" width="370.397" height="374.054" filterUnits="userSpaceOnUse" color-interpolation-filters="sRGB">
<feFlood flood-opacity="0" result="BackgroundImageFix"/>
<feColorMatrix in="SourceAlpha" type="matrix" values="0 0 0 0 0 0 0 0 0 0 0 0 0 0 0 0 0 0 127 0" result="hardAlpha"/>
<feOffset/>
<feGaussianBlur stdDeviation="6.82759"/>
<feComposite in2="hardAlpha" operator="out"/>
<feColorMatrix type="matrix" values="0 0 0 0 0 0 0 0 0 0.189027 0 0 0 0 0.525537 0 0 0 1 0"/>
<feBlend mode="normal" in2="BackgroundImageFix" result="effect1_dropShadow_4011_15653"/>
<feColorMatrix in="SourceAlpha" type="matrix" values="0 0 0 0 0 0 0 0 0 0 0 0 0 0 0 0 0 0 127 0" result="hardAlpha"/>
<feOffset dy="5.46207"/>
<feGaussianBlur stdDeviation="55.9862"/>
<feComposite in2="hardAlpha" operator="out"/>
<feColorMatrix type="matrix" values="0 0 0 0 0.346436 0 0 0 0 0.670274 0 0 0 0 1 0 0 0 1 0"/>
<feBlend mode="normal" in2="effect1_dropShadow_4011_15653" result="effect2_dropShadow_4011_15653"/>
<feBlend mode="normal" in="SourceGraphic" in2="effect2_dropShadow_4011_15653" result="shape"/>
</filter>
<filter id="filter2_dd_4011_15653" x="18.0276" y="162.49" width="375.167" height="469.814" filterUnits="userSpaceOnUse" color-interpolation-filters="sRGB">
<feFlood flood-opacity="0" result="BackgroundImageFix"/>
<feColorMatrix in="SourceAlpha" type="matrix" values="0 0 0 0 0 0 0 0 0 0 0 0 0 0 0 0 0 0 127 0" result="hardAlpha"/>
<feOffset/>
<feGaussianBlur stdDeviation="6.82759"/>
<feComposite in2="hardAlpha" operator="out"/>
<feColorMatrix type="matrix" values="0 0 0 0 0 0 0 0 0 0.189027 0 0 0 0 0.525537 0 0 0 1 0"/>
<feBlend mode="normal" in2="BackgroundImageFix" result="effect1_dropShadow_4011_15653"/>
<feColorMatrix in="SourceAlpha" type="matrix" values="0 0 0 0 0 0 0 0 0 0 0 0 0 0 0 0 0 0 127 0" result="hardAlpha"/>
<feOffset dy="5.46207"/>
<feGaussianBlur stdDeviation="55.9862"/>
<feComposite in2="hardAlpha" operator="out"/>
<feColorMatrix type="matrix" values="0 0 0 0 0.346436 0 0 0 0 0.670274 0 0 0 0 1 0 0 0 1 0"/>
<feBlend mode="normal" in2="effect1_dropShadow_4011_15653" result="effect2_dropShadow_4011_15653"/>
<feBlend mode="normal" in="SourceGraphic" in2="effect2_dropShadow_4011_15653" result="shape"/>
</filter>
<linearGradient id="paint0_linear_4011_15653" x1="405.545" y1="134.546" x2="268.467" y2="275.154" gradientUnits="userSpaceOnUse">
<stop stop-color="#0037D7"/>
<stop offset="0.865" stop-color="#005DFF"/>
<stop offset="1" stop-color="#35ADFF"/>
</linearGradient>
<linearGradient id="paint1_linear_4011_15653" x1="125.229" y1="520.692" x2="268.605" y2="275.256" gradientUnits="userSpaceOnUse">
<stop stop-color="#0037D7"/>
<stop offset="0.505406" stop-color="#005DFF"/>
<stop offset="1" stop-color="#35ADFF"/>
</linearGradient>
<linearGradient id="paint2_linear_4011_15653" x1="411.482" y1="134.855" x2="274.403" y2="275.462" gradientUnits="userSpaceOnUse">
<stop stop-color="#35ADFF"/>
<stop offset="0.5" stop-color="#005DFF"/>
<stop offset="1" stop-color="#9ED8FF"/>
</linearGradient>
<linearGradient id="paint3_linear_4011_15653" x1="270.692" y1="285.142" x2="65.8694" y2="417.589" gradientUnits="userSpaceOnUse">
<stop stop-color="#9ED8FF"/>
<stop offset="0.5" stop-color="#005DFF"/>
<stop offset="1" stop-color="#35ADFF"/>
</linearGradient>
</defs>
</svg>
