<svg width="1440" height="1068" viewBox="0 0 1440 1068" fill="none" xmlns="http://www.w3.org/2000/svg">
<g clip-path="url(#clip0_2594_53935)">
<rect width="1440" height="1068" fill="#F5F6FA"/>
<g clip-path="url(#clip1_2594_53935)">
<rect width="1440" height="1068" transform="matrix(-1 0 0 -1 1440 1068)" fill="#005DFF"/>
<g clip-path="url(#clip2_2594_53935)">
<rect width="1440" height="1098" transform="matrix(-1 0 0 -1 1440 1098)" fill="#040314"/>
<g filter="url(#filter0_f_2594_53935)">
<ellipse cx="1169.83" cy="936.562" rx="325.576" ry="294.249" transform="rotate(-151.697 1169.83 936.562)" fill="#0037D7"/>
</g>
</g>
<g filter="url(#filter1_f_2594_53935)">
<path d="M159.625 1276.29L1561.09 436.863L1432.19 1512L159.625 1276.29Z" fill="url(#paint0_linear_2594_53935)"/>
<path d="M159.625 1276.29L1561.09 436.863L1432.19 1512L159.625 1276.29Z" stroke="#35ADFF" stroke-width="23"/>
</g>
<g filter="url(#filter2_f_2594_53935)">
<path d="M1476.7 743.957L1539 1181H-48L51.0137 716.158L269.622 849.523L439.281 612L879.836 890.694L952.706 716.158L1340.97 849.523L1476.7 743.957Z" fill="#062165"/>
<path d="M1476.7 743.957L1539 1181H-48L51.0137 716.158L269.622 849.523L439.281 612L879.836 890.694L952.706 716.158L1340.97 849.523L1476.7 743.957Z" stroke="#0044FF" stroke-width="67"/>
</g>
<g opacity="0.4">
<g opacity="0.4" clip-path="url(#clip3_2594_53935)">
<path d="M1049.22 1845L1049.22 479.343" stroke="url(#paint1_linear_2594_53935)" stroke-opacity="0.2" stroke-width="2"/>
<path d="M961.377 1845L961.377 479.343" stroke="url(#paint2_linear_2594_53935)" stroke-opacity="0.2" stroke-width="2"/>
<path d="M873.539 1845L873.539 479.342" stroke="url(#paint3_linear_2594_53935)" stroke-opacity="0.2" stroke-width="2"/>
<path d="M785.695 1845L785.695 479.342" stroke="url(#paint4_linear_2594_53935)" stroke-opacity="0.2" stroke-width="2"/>
<path d="M697.852 1845L697.852 479.343" stroke="url(#paint5_linear_2594_53935)" stroke-opacity="0.2" stroke-width="2"/>
<path d="M610.014 1845L610.014 479.343" stroke="url(#paint6_linear_2594_53935)" stroke-opacity="0.2" stroke-width="2"/>
<path d="M522.17 1845L522.17 479.342" stroke="url(#paint7_linear_2594_53935)" stroke-opacity="0.2" stroke-width="2"/>
<path d="M434.328 1845L434.328 479.343" stroke="url(#paint8_linear_2594_53935)" stroke-opacity="0.2" stroke-width="2"/>
<path d="M346.488 1845L346.488 479.343" stroke="url(#paint9_linear_2594_53935)" stroke-opacity="0.2" stroke-width="2"/>
<path d="M1438 1025.61H0.00231731" stroke="url(#paint10_linear_2594_53935)" stroke-opacity="0.2" stroke-width="2"/>
<path d="M1438 924.889L0.00231731 924.889" stroke="url(#paint11_linear_2594_53935)" stroke-opacity="0.2" stroke-width="2"/>
<path d="M1438 824.171L0.00427043 824.171" stroke="url(#paint12_linear_2594_53935)" stroke-opacity="0.2" stroke-width="2"/>
</g>
</g>
<g opacity="0.2" filter="url(#filter3_f_2594_53935)">
<ellipse cx="59.1571" cy="179.5" rx="455.511" ry="634.032" transform="rotate(-120 59.1571 179.5)" fill="url(#paint13_linear_2594_53935)"/>
<path d="M-133.349 -153.93C6.94168 -234.926 155.062 -265.852 279.377 -253.455C403.831 -241.044 498.544 -186.522 547.19 -102.266C595.835 -18.0093 595.695 91.2757 544.217 205.261C492.795 319.119 391.953 431.933 251.663 512.929C111.372 593.926 -36.7481 624.851 -161.063 612.454C-285.517 600.044 -380.23 545.522 -428.876 461.266C-477.521 377.009 -477.381 267.724 -425.903 153.739C-374.481 39.8804 -273.639 -72.933 -133.349 -153.93Z" stroke="#0783FF" stroke-width="141"/>
</g>
</g>
<rect y="475" width="84.7059" height="84.7059" stroke="white" stroke-opacity="0.03" stroke-width="1.14467"/>
<rect x="84.7061" y="475" width="84.7059" height="84.7059" stroke="white" stroke-opacity="0.03" stroke-width="1.14467"/>
<rect x="169.412" y="475" width="84.7059" height="84.7059" stroke="white" stroke-opacity="0.03" stroke-width="1.14467"/>
<rect x="254.118" y="475" width="84.7059" height="84.7059" stroke="white" stroke-opacity="0.03" stroke-width="1.14467"/>
<rect x="338.824" y="475" width="84.7059" height="84.7059" stroke="white" stroke-opacity="0.03" stroke-width="1.14467"/>
<rect x="423.529" y="475" width="84.7059" height="84.7059" stroke="white" stroke-opacity="0.03" stroke-width="1.14467"/>
<rect x="508.235" y="475" width="84.7059" height="84.7059" stroke="white" stroke-opacity="0.03" stroke-width="1.14467"/>
<rect x="592.941" y="475" width="84.7059" height="84.7059" stroke="white" stroke-opacity="0.03" stroke-width="1.14467"/>
<rect x="677.647" y="475" width="84.7059" height="84.7059" stroke="white" stroke-opacity="0.03" stroke-width="1.14467"/>
<rect x="762.353" y="475" width="84.7059" height="84.7059" stroke="white" stroke-opacity="0.03" stroke-width="1.14467"/>
<rect x="847.059" y="475" width="84.7059" height="84.7059" stroke="white" stroke-opacity="0.03" stroke-width="1.14467"/>
<rect x="931.765" y="475" width="84.7059" height="84.7059" stroke="white" stroke-opacity="0.03" stroke-width="1.14467"/>
<rect x="1016.47" y="475" width="84.7059" height="84.7059" stroke="white" stroke-opacity="0.03" stroke-width="1.14467"/>
<rect x="1101.18" y="475" width="84.7059" height="84.7059" stroke="white" stroke-opacity="0.03" stroke-width="1.14467"/>
<rect x="1185.88" y="475" width="84.7059" height="84.7059" stroke="white" stroke-opacity="0.03" stroke-width="1.14467"/>
<rect x="1270.59" y="475" width="84.7059" height="84.7059" stroke="white" stroke-opacity="0.03" stroke-width="1.14467"/>
<rect x="1355.29" y="475" width="84.7059" height="84.7059" stroke="white" stroke-opacity="0.03" stroke-width="1.14467"/>
<rect y="559.706" width="84.7059" height="84.7059" stroke="white" stroke-opacity="0.03" stroke-width="1.14467"/>
<rect x="84.7061" y="559.706" width="84.7059" height="84.7059" stroke="white" stroke-opacity="0.03" stroke-width="1.14467"/>
<rect x="169.412" y="559.706" width="84.7059" height="84.7059" stroke="white" stroke-opacity="0.03" stroke-width="1.14467"/>
<rect x="254.118" y="559.706" width="84.7059" height="84.7059" stroke="white" stroke-opacity="0.03" stroke-width="1.14467"/>
<rect x="338.824" y="559.706" width="84.7059" height="84.7059" stroke="white" stroke-opacity="0.03" stroke-width="1.14467"/>
<rect x="423.529" y="559.706" width="84.7059" height="84.7059" stroke="white" stroke-opacity="0.03" stroke-width="1.14467"/>
<rect x="508.235" y="559.706" width="84.7059" height="84.7059" stroke="white" stroke-opacity="0.03" stroke-width="1.14467"/>
<rect x="592.941" y="559.706" width="84.7059" height="84.7059" stroke="white" stroke-opacity="0.03" stroke-width="1.14467"/>
<rect x="677.647" y="559.706" width="84.7059" height="84.7059" stroke="white" stroke-opacity="0.03" stroke-width="1.14467"/>
<rect x="762.353" y="559.706" width="84.7059" height="84.7059" stroke="white" stroke-opacity="0.03" stroke-width="1.14467"/>
<rect x="847.059" y="559.706" width="84.7059" height="84.7059" stroke="white" stroke-opacity="0.03" stroke-width="1.14467"/>
<rect x="931.765" y="559.706" width="84.7059" height="84.7059" stroke="white" stroke-opacity="0.03" stroke-width="1.14467"/>
<rect x="1016.47" y="559.706" width="84.7059" height="84.7059" stroke="white" stroke-opacity="0.03" stroke-width="1.14467"/>
<rect x="1101.18" y="559.706" width="84.7059" height="84.7059" stroke="white" stroke-opacity="0.03" stroke-width="1.14467"/>
<rect x="1185.88" y="559.706" width="84.7059" height="84.7059" stroke="white" stroke-opacity="0.03" stroke-width="1.14467"/>
<rect x="1270.59" y="559.706" width="84.7059" height="84.7059" stroke="white" stroke-opacity="0.03" stroke-width="1.14467"/>
<rect x="1355.29" y="559.706" width="84.7059" height="84.7059" stroke="white" stroke-opacity="0.03" stroke-width="1.14467"/>
<rect y="644.412" width="84.7059" height="84.7059" stroke="white" stroke-opacity="0.03" stroke-width="1.14467"/>
<rect x="84.7061" y="644.412" width="84.7059" height="84.7059" stroke="white" stroke-opacity="0.03" stroke-width="1.14467"/>
<rect x="169.412" y="644.412" width="84.7059" height="84.7059" stroke="white" stroke-opacity="0.03" stroke-width="1.14467"/>
<rect x="254.118" y="644.412" width="84.7059" height="84.7059" stroke="white" stroke-opacity="0.03" stroke-width="1.14467"/>
<rect x="338.824" y="644.412" width="84.7059" height="84.7059" stroke="white" stroke-opacity="0.03" stroke-width="1.14467"/>
<rect x="423.529" y="644.412" width="84.7059" height="84.7059" stroke="white" stroke-opacity="0.03" stroke-width="1.14467"/>
<rect x="508.235" y="644.412" width="84.7059" height="84.7059" stroke="white" stroke-opacity="0.03" stroke-width="1.14467"/>
<rect x="592.941" y="644.412" width="84.7059" height="84.7059" stroke="white" stroke-opacity="0.03" stroke-width="1.14467"/>
<rect x="677.647" y="644.412" width="84.7059" height="84.7059" stroke="white" stroke-opacity="0.03" stroke-width="1.14467"/>
<rect x="762.353" y="644.412" width="84.7059" height="84.7059" stroke="white" stroke-opacity="0.03" stroke-width="1.14467"/>
<rect x="847.059" y="644.412" width="84.7059" height="84.7059" stroke="white" stroke-opacity="0.03" stroke-width="1.14467"/>
<rect x="931.765" y="644.412" width="84.7059" height="84.7059" stroke="white" stroke-opacity="0.03" stroke-width="1.14467"/>
<rect x="1016.47" y="644.412" width="84.7059" height="84.7059" stroke="white" stroke-opacity="0.03" stroke-width="1.14467"/>
<rect x="1101.18" y="644.412" width="84.7059" height="84.7059" stroke="white" stroke-opacity="0.03" stroke-width="1.14467"/>
<rect x="1185.88" y="644.412" width="84.7059" height="84.7059" stroke="white" stroke-opacity="0.03" stroke-width="1.14467"/>
<rect x="1270.59" y="644.412" width="84.7059" height="84.7059" stroke="white" stroke-opacity="0.03" stroke-width="1.14467"/>
<rect x="1355.29" y="644.412" width="84.7059" height="84.7059" stroke="white" stroke-opacity="0.03" stroke-width="1.14467"/>
<rect y="729.118" width="84.7059" height="84.7059" stroke="white" stroke-opacity="0.03" stroke-width="1.14467"/>
<rect x="84.7061" y="729.118" width="84.7059" height="84.7059" stroke="white" stroke-opacity="0.03" stroke-width="1.14467"/>
<rect x="169.412" y="729.118" width="84.7059" height="84.7059" stroke="white" stroke-opacity="0.03" stroke-width="1.14467"/>
<rect x="254.118" y="729.118" width="84.7059" height="84.7059" stroke="white" stroke-opacity="0.03" stroke-width="1.14467"/>
<rect x="338.824" y="729.118" width="84.7059" height="84.7059" stroke="white" stroke-opacity="0.03" stroke-width="1.14467"/>
<rect x="423.529" y="729.118" width="84.7059" height="84.7059" stroke="white" stroke-opacity="0.03" stroke-width="1.14467"/>
<rect x="508.235" y="729.118" width="84.7059" height="84.7059" stroke="white" stroke-opacity="0.03" stroke-width="1.14467"/>
<rect x="592.941" y="729.118" width="84.7059" height="84.7059" stroke="white" stroke-opacity="0.03" stroke-width="1.14467"/>
<rect x="677.647" y="729.118" width="84.7059" height="84.7059" stroke="white" stroke-opacity="0.03" stroke-width="1.14467"/>
<rect x="762.353" y="729.118" width="84.7059" height="84.7059" stroke="white" stroke-opacity="0.03" stroke-width="1.14467"/>
<rect x="847.059" y="729.118" width="84.7059" height="84.7059" stroke="white" stroke-opacity="0.03" stroke-width="1.14467"/>
<rect x="931.765" y="729.118" width="84.7059" height="84.7059" stroke="white" stroke-opacity="0.03" stroke-width="1.14467"/>
<rect x="1016.47" y="729.118" width="84.7059" height="84.7059" stroke="white" stroke-opacity="0.03" stroke-width="1.14467"/>
<rect x="1101.18" y="729.118" width="84.7059" height="84.7059" stroke="white" stroke-opacity="0.03" stroke-width="1.14467"/>
<rect x="1185.88" y="729.118" width="84.7059" height="84.7059" stroke="white" stroke-opacity="0.03" stroke-width="1.14467"/>
<rect x="1270.59" y="729.118" width="84.7059" height="84.7059" stroke="white" stroke-opacity="0.03" stroke-width="1.14467"/>
<rect x="1355.29" y="729.118" width="84.7059" height="84.7059" stroke="white" stroke-opacity="0.03" stroke-width="1.14467"/>
<rect y="813.823" width="84.7059" height="84.7059" stroke="white" stroke-opacity="0.03" stroke-width="1.14467"/>
<rect x="84.7061" y="813.824" width="84.7059" height="84.7059" stroke="white" stroke-opacity="0.03" stroke-width="1.14467"/>
<rect x="169.412" y="813.824" width="84.7059" height="84.7059" stroke="white" stroke-opacity="0.03" stroke-width="1.14467"/>
<rect x="254.118" y="813.823" width="84.7059" height="84.7059" stroke="white" stroke-opacity="0.03" stroke-width="1.14467"/>
<rect x="338.824" y="813.824" width="84.7059" height="84.7059" stroke="white" stroke-opacity="0.03" stroke-width="1.14467"/>
<rect x="423.529" y="813.824" width="84.7059" height="84.7059" stroke="white" stroke-opacity="0.03" stroke-width="1.14467"/>
<rect x="508.235" y="813.823" width="84.7059" height="84.7059" stroke="white" stroke-opacity="0.03" stroke-width="1.14467"/>
<rect x="592.941" y="813.824" width="84.7059" height="84.7059" stroke="white" stroke-opacity="0.03" stroke-width="1.14467"/>
<rect x="677.647" y="813.824" width="84.7059" height="84.7059" stroke="white" stroke-opacity="0.03" stroke-width="1.14467"/>
<rect x="762.353" y="813.823" width="84.7059" height="84.7059" stroke="white" stroke-opacity="0.03" stroke-width="1.14467"/>
<rect x="847.059" y="813.824" width="84.7059" height="84.7059" stroke="white" stroke-opacity="0.03" stroke-width="1.14467"/>
<rect x="931.765" y="813.824" width="84.7059" height="84.7059" stroke="white" stroke-opacity="0.03" stroke-width="1.14467"/>
<rect x="1016.47" y="813.824" width="84.7059" height="84.7059" stroke="white" stroke-opacity="0.03" stroke-width="1.14467"/>
<rect x="1101.18" y="813.824" width="84.7059" height="84.7059" stroke="white" stroke-opacity="0.03" stroke-width="1.14467"/>
<rect x="1185.88" y="813.824" width="84.7059" height="84.7059" stroke="white" stroke-opacity="0.03" stroke-width="1.14467"/>
<rect x="1270.59" y="813.824" width="84.7059" height="84.7059" stroke="white" stroke-opacity="0.03" stroke-width="1.14467"/>
<rect x="1355.29" y="813.824" width="84.7059" height="84.7059" stroke="white" stroke-opacity="0.03" stroke-width="1.14467"/>
<rect y="898.529" width="84.7059" height="84.7059" stroke="white" stroke-opacity="0.03" stroke-width="1.14467"/>
<rect x="84.7061" y="898.529" width="84.7059" height="84.7059" stroke="white" stroke-opacity="0.03" stroke-width="1.14467"/>
<rect x="169.412" y="898.529" width="84.7059" height="84.7059" stroke="white" stroke-opacity="0.03" stroke-width="1.14467"/>
<rect x="254.118" y="898.529" width="84.7059" height="84.7059" stroke="white" stroke-opacity="0.03" stroke-width="1.14467"/>
<rect x="338.824" y="898.529" width="84.7059" height="84.7059" stroke="white" stroke-opacity="0.03" stroke-width="1.14467"/>
<rect x="423.529" y="898.529" width="84.7059" height="84.7059" stroke="white" stroke-opacity="0.03" stroke-width="1.14467"/>
<rect x="508.235" y="898.529" width="84.7059" height="84.7059" stroke="white" stroke-opacity="0.03" stroke-width="1.14467"/>
<rect x="592.941" y="898.529" width="84.7059" height="84.7059" stroke="white" stroke-opacity="0.03" stroke-width="1.14467"/>
<rect x="677.647" y="898.529" width="84.7059" height="84.7059" stroke="white" stroke-opacity="0.03" stroke-width="1.14467"/>
<rect x="762.353" y="898.529" width="84.7059" height="84.7059" stroke="white" stroke-opacity="0.03" stroke-width="1.14467"/>
<rect x="847.059" y="898.529" width="84.7059" height="84.7059" stroke="white" stroke-opacity="0.03" stroke-width="1.14467"/>
<rect x="931.765" y="898.529" width="84.7059" height="84.7059" stroke="white" stroke-opacity="0.03" stroke-width="1.14467"/>
<rect x="1016.47" y="898.529" width="84.7059" height="84.7059" stroke="white" stroke-opacity="0.03" stroke-width="1.14467"/>
<rect x="1101.18" y="898.529" width="84.7059" height="84.7059" stroke="white" stroke-opacity="0.03" stroke-width="1.14467"/>
<rect x="1185.88" y="898.529" width="84.7059" height="84.7059" stroke="white" stroke-opacity="0.03" stroke-width="1.14467"/>
<rect x="1270.59" y="898.529" width="84.7059" height="84.7059" stroke="white" stroke-opacity="0.03" stroke-width="1.14467"/>
<rect x="1355.29" y="898.529" width="84.7059" height="84.7059" stroke="white" stroke-opacity="0.03" stroke-width="1.14467"/>
<path d="M169 862.529V1082.03" stroke="url(#paint14_linear_2594_53935)"/>
<rect y="983.235" width="84.7059" height="84.7059" stroke="white" stroke-opacity="0.03" stroke-width="1.14467"/>
<rect x="84.7061" y="983.235" width="84.7059" height="84.7059" stroke="white" stroke-opacity="0.03" stroke-width="1.14467"/>
<rect x="169.412" y="983.235" width="84.7059" height="84.7059" stroke="white" stroke-opacity="0.03" stroke-width="1.14467"/>
<rect x="254.118" y="983.235" width="84.7059" height="84.7059" stroke="white" stroke-opacity="0.03" stroke-width="1.14467"/>
<rect x="338.824" y="983.235" width="84.7059" height="84.7059" stroke="white" stroke-opacity="0.03" stroke-width="1.14467"/>
<rect x="423.529" y="983.235" width="84.7059" height="84.7059" stroke="white" stroke-opacity="0.03" stroke-width="1.14467"/>
<rect x="508.235" y="983.235" width="84.7059" height="84.7059" stroke="white" stroke-opacity="0.03" stroke-width="1.14467"/>
<rect x="592.941" y="983.235" width="84.7059" height="84.7059" stroke="white" stroke-opacity="0.03" stroke-width="1.14467"/>
<rect x="677.647" y="983.235" width="84.7059" height="84.7059" stroke="white" stroke-opacity="0.03" stroke-width="1.14467"/>
<rect x="762.353" y="983.235" width="84.7059" height="84.7059" stroke="white" stroke-opacity="0.03" stroke-width="1.14467"/>
<rect x="847.059" y="983.235" width="84.7059" height="84.7059" stroke="white" stroke-opacity="0.03" stroke-width="1.14467"/>
<rect x="931.765" y="983.235" width="84.7059" height="84.7059" stroke="white" stroke-opacity="0.03" stroke-width="1.14467"/>
<rect x="1016.47" y="983.235" width="84.7059" height="84.7059" stroke="white" stroke-opacity="0.03" stroke-width="1.14467"/>
<rect x="1101.18" y="983.235" width="84.7059" height="84.7059" stroke="white" stroke-opacity="0.03" stroke-width="1.14467"/>
<rect x="1185.88" y="983.235" width="84.7059" height="84.7059" stroke="white" stroke-opacity="0.03" stroke-width="1.14467"/>
<rect x="1270.59" y="983.235" width="84.7059" height="84.7059" stroke="white" stroke-opacity="0.03" stroke-width="1.14467"/>
<rect x="1355.29" y="983.235" width="84.7059" height="84.7059" stroke="white" stroke-opacity="0.03" stroke-width="1.14467"/>
<path d="M1355 768.529V988.029" stroke="url(#paint15_linear_2594_53935)"/>
<path d="M254 584.529V804.029" stroke="url(#paint16_linear_2594_53935)"/>
<path d="M1186 588.529V808.029" stroke="url(#paint17_linear_2594_53935)"/>
<path d="M-1 0H1457L1454.5 1703H-1V0Z" fill="url(#paint18_linear_2594_53935)"/>
<path d="M-9 0H1449L1446.5 1086H-9V0Z" fill="url(#paint19_linear_2594_53935)"/>
</g>
<defs>
<filter id="filter0_f_2594_53935" x="230.958" y="14.9412" width="1877.75" height="1843.24" filterUnits="userSpaceOnUse" color-interpolation-filters="sRGB">
<feFlood flood-opacity="0" result="BackgroundImageFix"/>
<feBlend mode="normal" in="SourceGraphic" in2="BackgroundImageFix" result="shape"/>
<feGaussianBlur stdDeviation="310" result="effect1_foregroundBlur_2594_53935"/>
</filter>
<filter id="filter1_f_2594_53935" x="43.6167" y="330.947" width="1615.68" height="1278.59" filterUnits="userSpaceOnUse" color-interpolation-filters="sRGB">
<feFlood flood-opacity="0" result="BackgroundImageFix"/>
<feBlend mode="normal" in="SourceGraphic" in2="BackgroundImageFix" result="shape"/>
<feGaussianBlur stdDeviation="42" result="effect1_foregroundBlur_2594_53935"/>
</filter>
<filter id="filter2_f_2594_53935" x="-509.387" y="146.759" width="2507" height="1487.74" filterUnits="userSpaceOnUse" color-interpolation-filters="sRGB">
<feFlood flood-opacity="0" result="BackgroundImageFix"/>
<feBlend mode="normal" in="SourceGraphic" in2="BackgroundImageFix" result="shape"/>
<feGaussianBlur stdDeviation="210" result="effect1_foregroundBlur_2594_53935"/>
</filter>
<filter id="filter3_f_2594_53935" x="-635.447" y="-426.598" width="1389.21" height="1212.2" filterUnits="userSpaceOnUse" color-interpolation-filters="sRGB">
<feFlood flood-opacity="0" result="BackgroundImageFix"/>
<feBlend mode="normal" in="SourceGraphic" in2="BackgroundImageFix" result="shape"/>
<feGaussianBlur stdDeviation="50" result="effect1_foregroundBlur_2594_53935"/>
</filter>
<linearGradient id="paint0_linear_2594_53935" x1="1385.37" y1="1502.25" x2="956.677" y2="742.038" gradientUnits="userSpaceOnUse">
<stop stop-color="#005DFF"/>
<stop offset="1" stop-color="#80AEFF"/>
</linearGradient>
<linearGradient id="paint1_linear_2594_53935" x1="1048.72" y1="1845" x2="1048.72" y2="479.343" gradientUnits="userSpaceOnUse">
<stop stop-color="#0D0E16" stop-opacity="0"/>
<stop offset="0.54" stop-color="#0D0E16"/>
<stop offset="1" stop-color="#0D0E16" stop-opacity="0"/>
</linearGradient>
<linearGradient id="paint2_linear_2594_53935" x1="960.877" y1="1845" x2="960.877" y2="479.343" gradientUnits="userSpaceOnUse">
<stop stop-color="#0D0E16" stop-opacity="0"/>
<stop offset="0.54" stop-color="#0D0E16"/>
<stop offset="1" stop-color="#0D0E16" stop-opacity="0"/>
</linearGradient>
<linearGradient id="paint3_linear_2594_53935" x1="873.039" y1="1845" x2="873.039" y2="479.342" gradientUnits="userSpaceOnUse">
<stop stop-color="#0D0E16" stop-opacity="0"/>
<stop offset="0.54" stop-color="#0D0E16"/>
<stop offset="1" stop-color="#0D0E16" stop-opacity="0"/>
</linearGradient>
<linearGradient id="paint4_linear_2594_53935" x1="785.195" y1="1845" x2="785.195" y2="479.342" gradientUnits="userSpaceOnUse">
<stop stop-color="#0D0E16" stop-opacity="0"/>
<stop offset="0.54" stop-color="#0D0E16"/>
<stop offset="1" stop-color="#0D0E16" stop-opacity="0"/>
</linearGradient>
<linearGradient id="paint5_linear_2594_53935" x1="697.352" y1="1845" x2="697.352" y2="479.343" gradientUnits="userSpaceOnUse">
<stop stop-color="#0D0E16" stop-opacity="0"/>
<stop offset="0.54" stop-color="#0D0E16"/>
<stop offset="1" stop-color="#0D0E16" stop-opacity="0"/>
</linearGradient>
<linearGradient id="paint6_linear_2594_53935" x1="609.514" y1="1845" x2="609.514" y2="479.343" gradientUnits="userSpaceOnUse">
<stop stop-color="#0D0E16" stop-opacity="0"/>
<stop offset="0.54" stop-color="#0D0E16"/>
<stop offset="1" stop-color="#0D0E16" stop-opacity="0"/>
</linearGradient>
<linearGradient id="paint7_linear_2594_53935" x1="521.67" y1="1845" x2="521.67" y2="479.342" gradientUnits="userSpaceOnUse">
<stop stop-color="#0D0E16" stop-opacity="0"/>
<stop offset="0.54" stop-color="#0D0E16"/>
<stop offset="1" stop-color="#0D0E16" stop-opacity="0"/>
</linearGradient>
<linearGradient id="paint8_linear_2594_53935" x1="433.828" y1="1845" x2="433.828" y2="479.343" gradientUnits="userSpaceOnUse">
<stop stop-color="#0D0E16" stop-opacity="0"/>
<stop offset="0.54" stop-color="#0D0E16"/>
<stop offset="1" stop-color="#0D0E16" stop-opacity="0"/>
</linearGradient>
<linearGradient id="paint9_linear_2594_53935" x1="345.988" y1="1845" x2="345.988" y2="479.343" gradientUnits="userSpaceOnUse">
<stop stop-color="#0D0E16" stop-opacity="0"/>
<stop offset="0.54" stop-color="#0D0E16"/>
<stop offset="1" stop-color="#0D0E16" stop-opacity="0"/>
</linearGradient>
<linearGradient id="paint10_linear_2594_53935" x1="1438" y1="1026.11" x2="0.00228298" y2="1026.11" gradientUnits="userSpaceOnUse">
<stop stop-color="#0D0E16" stop-opacity="0"/>
<stop offset="0.54" stop-color="#0D0E16"/>
<stop offset="1" stop-color="#0D0E16" stop-opacity="0"/>
</linearGradient>
<linearGradient id="paint11_linear_2594_53935" x1="1438" y1="925.389" x2="0.00228298" y2="925.389" gradientUnits="userSpaceOnUse">
<stop stop-color="#0D0E16" stop-opacity="0"/>
<stop offset="0.54" stop-color="#0D0E16"/>
<stop offset="1" stop-color="#0D0E16" stop-opacity="0"/>
</linearGradient>
<linearGradient id="paint12_linear_2594_53935" x1="1438" y1="824.671" x2="0.0042361" y2="824.671" gradientUnits="userSpaceOnUse">
<stop stop-color="#0D0E16" stop-opacity="0"/>
<stop offset="0.54" stop-color="#0D0E16"/>
<stop offset="1" stop-color="#0D0E16" stop-opacity="0"/>
</linearGradient>
<linearGradient id="paint13_linear_2594_53935" x1="-396.354" y1="554.266" x2="512.135" y2="490.883" gradientUnits="userSpaceOnUse">
<stop stop-color="#0066FF"/>
<stop offset="1" stop-color="#132D78"/>
</linearGradient>
<linearGradient id="paint14_linear_2594_53935" x1="169.5" y1="862.529" x2="169.5" y2="1082.03" gradientUnits="userSpaceOnUse">
<stop stop-color="white" stop-opacity="0"/>
<stop offset="0.51" stop-color="#A6DBFF" stop-opacity="0.6"/>
<stop offset="1" stop-color="white" stop-opacity="0"/>
</linearGradient>
<linearGradient id="paint15_linear_2594_53935" x1="1355.5" y1="768.529" x2="1355.5" y2="988.029" gradientUnits="userSpaceOnUse">
<stop stop-color="white" stop-opacity="0"/>
<stop offset="0.51" stop-color="#A6DBFF" stop-opacity="0.6"/>
<stop offset="1" stop-color="white" stop-opacity="0"/>
</linearGradient>
<linearGradient id="paint16_linear_2594_53935" x1="254.5" y1="584.529" x2="254.5" y2="804.029" gradientUnits="userSpaceOnUse">
<stop stop-color="white" stop-opacity="0"/>
<stop offset="0.51" stop-color="#A6DBFF" stop-opacity="0.6"/>
<stop offset="1" stop-color="white" stop-opacity="0"/>
</linearGradient>
<linearGradient id="paint17_linear_2594_53935" x1="1186.5" y1="588.529" x2="1186.5" y2="808.029" gradientUnits="userSpaceOnUse">
<stop stop-color="white" stop-opacity="0"/>
<stop offset="0.51" stop-color="#A6DBFF" stop-opacity="0.6"/>
<stop offset="1" stop-color="white" stop-opacity="0"/>
</linearGradient>
<linearGradient id="paint18_linear_2594_53935" x1="364.547" y1="-968.326" x2="397.867" y2="470.897" gradientUnits="userSpaceOnUse">
<stop stop-color="#0A0A17"/>
<stop offset="1" stop-color="#0A0A17" stop-opacity="0"/>
</linearGradient>
<linearGradient id="paint19_linear_2594_53935" x1="355.125" y1="3.64417e-07" x2="368.679" y2="918.082" gradientUnits="userSpaceOnUse">
<stop stop-color="#0A0A17"/>
<stop offset="1" stop-color="#0A0A17" stop-opacity="0"/>
</linearGradient>
<clipPath id="clip0_2594_53935">
<rect width="1440" height="1068" fill="white"/>
</clipPath>
<clipPath id="clip1_2594_53935">
<rect width="1440" height="1068" fill="white" transform="matrix(-1 0 0 -1 1440 1068)"/>
</clipPath>
<clipPath id="clip2_2594_53935">
<rect width="1440" height="1098" fill="white" transform="matrix(-1 0 0 -1 1440 1098)"/>
</clipPath>
<clipPath id="clip3_2594_53935">
<rect width="1438" height="991" fill="white" transform="matrix(-1 0 0 -1 1438 1658)"/>
</clipPath>
</defs>
</svg>
