<svg width="393" height="442" viewBox="0 0 393 442" fill="none" xmlns="http://www.w3.org/2000/svg">
<g clip-path="url(#clip0_4084_12593)">
<g clip-path="url(#clip1_4084_12593)">
<path d="M35.265 52.6496C35.265 26.4798 56.4798 5.26496 82.6496 5.26496H314.404C340.574 5.26496 361.789 26.4798 361.789 52.6496V575.197C361.789 601.366 340.574 622.581 314.404 622.581H82.6496C56.4798 622.581 35.265 601.366 35.265 575.197V52.6496Z" fill="white" stroke="#39416B" stroke-width="10.5299"/>
<g clip-path="url(#clip2_4084_12593)">
<path d="M329 77H69V337H329V77Z" fill="white"/>
<path d="M78.6296 86.6294H88.2593V96.259H78.6296V86.6294ZM88.2593 86.6294H97.8889V96.259H88.2593V86.6294ZM97.8889 86.6294H107.519V96.259H97.8889V86.6294ZM107.519 86.6294H117.148V96.259H107.519V86.6294ZM117.148 86.6294H126.778V96.259H117.148V86.6294ZM126.778 86.6294H136.407V96.259H126.778V86.6294ZM136.407 86.6294H146.037V96.259H136.407V86.6294ZM165.296 86.6294H174.926V96.259H165.296V86.6294ZM194.185 86.6294H203.815V96.259H194.185V86.6294ZM203.815 86.6294H213.444V96.259H203.815V86.6294ZM213.444 86.6294H223.074V96.259H213.444V86.6294ZM223.074 86.6294H232.704V96.259H223.074V86.6294ZM251.963 86.6294H261.593V96.259H251.963V86.6294ZM261.593 86.6294H271.222V96.259H261.593V86.6294ZM271.222 86.6294H280.852V96.259H271.222V86.6294ZM280.852 86.6294H290.481V96.259H280.852V86.6294ZM290.481 86.6294H300.111V96.259H290.481V86.6294ZM300.111 86.6294H309.741V96.259H300.111V86.6294ZM309.741 86.6294H319.37V96.259H309.741V86.6294ZM78.6296 96.259H88.2593V105.889H78.6296V96.259ZM136.407 96.259H146.037V105.889H136.407V96.259ZM174.926 96.259H184.556V105.889H174.926V96.259ZM184.556 96.259H194.185V105.889H184.556V96.259ZM194.185 96.259H203.815V105.889H194.185V96.259ZM213.444 96.259H223.074V105.889H213.444V96.259ZM223.074 96.259H232.704V105.889H223.074V96.259ZM251.963 96.259H261.593V105.889H251.963V96.259ZM309.741 96.259H319.37V105.889H309.741V96.259ZM78.6296 105.889H88.2593V115.518H78.6296V105.889ZM97.8889 105.889H107.519V115.518H97.8889V105.889ZM107.519 105.889H117.148V115.518H107.519V105.889ZM117.148 105.889H126.778V115.518H117.148V105.889ZM136.407 105.889H146.037V115.518H136.407V105.889ZM155.667 105.889H165.296V115.518H155.667V105.889ZM165.296 105.889H174.926V115.518H165.296V105.889ZM174.926 105.889H184.556V115.518H174.926V105.889ZM194.185 105.889H203.815V115.518H194.185V105.889ZM251.963 105.889H261.593V115.518H251.963V105.889ZM271.222 105.889H280.852V115.518H271.222V105.889ZM280.852 105.889H290.481V115.518H280.852V105.889ZM290.481 105.889H300.111V115.518H290.481V105.889ZM309.741 105.889H319.37V115.518H309.741V105.889ZM78.6296 115.518H88.2593V125.148H78.6296V115.518ZM97.8889 115.518H107.519V125.148H97.8889V115.518ZM107.519 115.518H117.148V125.148H107.519V115.518ZM117.148 115.518H126.778V125.148H117.148V115.518ZM136.407 115.518H146.037V125.148H136.407V115.518ZM165.296 115.518H174.926V125.148H165.296V115.518ZM174.926 115.518H184.556V125.148H174.926V115.518ZM184.556 115.518H194.185V125.148H184.556V115.518ZM223.074 115.518H232.704V125.148H223.074V115.518ZM232.704 115.518H242.333V125.148H232.704V115.518ZM251.963 115.518H261.593V125.148H251.963V115.518ZM271.222 115.518H280.852V125.148H271.222V115.518ZM280.852 115.518H290.481V125.148H280.852V115.518ZM290.481 115.518H300.111V125.148H290.481V115.518ZM309.741 115.518H319.37V125.148H309.741V115.518ZM78.6296 125.148H88.2593V134.778H78.6296V125.148ZM97.8889 125.148H107.519V134.778H97.8889V125.148ZM107.519 125.148H117.148V134.778H107.519V125.148ZM117.148 125.148H126.778V134.778H117.148V125.148ZM136.407 125.148H146.037V134.778H136.407V125.148ZM174.926 125.148H184.556V134.778H174.926V125.148ZM203.815 125.148H213.444V134.778H203.815V125.148ZM213.444 125.148H223.074V134.778H213.444V125.148ZM223.074 125.148H232.704V134.778H223.074V125.148ZM251.963 125.148H261.593V134.778H251.963V125.148ZM271.222 125.148H280.852V134.778H271.222V125.148ZM280.852 125.148H290.481V134.778H280.852V125.148ZM290.481 125.148H300.111V134.778H290.481V125.148ZM309.741 125.148H319.37V134.778H309.741V125.148ZM78.6296 134.778H88.2593V144.407H78.6296V134.778ZM136.407 134.778H146.037V144.407H136.407V134.778ZM165.296 134.778H174.926V144.407H165.296V134.778ZM213.444 134.778H223.074V144.407H213.444V134.778ZM223.074 134.778H232.704V144.407H223.074V134.778ZM251.963 134.778H261.593V144.407H251.963V134.778ZM309.741 134.778H319.37V144.407H309.741V134.778ZM78.6296 144.407H88.2593V154.037H78.6296V144.407ZM88.2593 144.407H97.8889V154.037H88.2593V144.407ZM97.8889 144.407H107.519V154.037H97.8889V144.407ZM107.519 144.407H117.148V154.037H107.519V144.407ZM117.148 144.407H126.778V154.037H117.148V144.407ZM126.778 144.407H136.407V154.037H126.778V144.407ZM136.407 144.407H146.037V154.037H136.407V144.407ZM155.667 144.407H165.296V154.037H155.667V144.407ZM174.926 144.407H184.556V154.037H174.926V144.407ZM194.185 144.407H203.815V154.037H194.185V144.407ZM213.444 144.407H223.074V154.037H213.444V144.407ZM232.704 144.407H242.333V154.037H232.704V144.407ZM251.963 144.407H261.593V154.037H251.963V144.407ZM261.593 144.407H271.222V154.037H261.593V144.407ZM271.222 144.407H280.852V154.037H271.222V144.407ZM280.852 144.407H290.481V154.037H280.852V144.407ZM290.481 144.407H300.111V154.037H290.481V144.407ZM300.111 144.407H309.741V154.037H300.111V144.407ZM309.741 144.407H319.37V154.037H309.741V144.407ZM155.667 154.037H165.296V163.666H155.667V154.037ZM165.296 154.037H174.926V163.666H165.296V154.037ZM174.926 154.037H184.556V163.666H174.926V154.037ZM194.185 154.037H203.815V163.666H194.185V154.037ZM203.815 154.037H213.444V163.666H203.815V154.037ZM213.444 154.037H223.074V163.666H213.444V154.037ZM232.704 154.037H242.333V163.666H232.704V154.037ZM78.6296 163.666H88.2593V173.296H78.6296V163.666ZM88.2593 163.666H97.8889V173.296H88.2593V163.666ZM97.8889 163.666H107.519V173.296H97.8889V163.666ZM117.148 163.666H126.778V173.296H117.148V163.666ZM126.778 163.666H136.407V173.296H126.778V163.666ZM136.407 163.666H146.037V173.296H136.407V163.666ZM146.037 163.666H155.667V173.296H146.037V163.666ZM155.667 163.666H165.296V173.296H155.667V163.666ZM174.926 163.666H184.556V173.296H174.926V163.666ZM184.556 163.666H194.185V173.296H184.556V163.666ZM203.815 163.666H213.444V173.296H203.815V163.666ZM223.074 163.666H232.704V173.296H223.074V163.666ZM232.704 163.666H242.333V173.296H232.704V163.666ZM242.333 163.666H251.963V173.296H242.333V163.666ZM251.963 163.666H261.593V173.296H251.963V163.666ZM290.481 163.666H300.111V173.296H290.481V163.666ZM107.519 173.296H117.148V182.926H107.519V173.296ZM155.667 173.296H165.296V182.926H155.667V173.296ZM174.926 173.296H184.556V182.926H174.926V173.296ZM184.556 173.296H194.185V182.926H184.556V173.296ZM203.815 173.296H213.444V182.926H203.815V173.296ZM242.333 173.296H251.963V182.926H242.333V173.296ZM251.963 173.296H261.593V182.926H251.963V173.296ZM309.741 173.296H319.37V182.926H309.741V173.296ZM88.2593 182.926H97.8889V192.555H88.2593V182.926ZM107.519 182.926H117.148V192.555H107.519V182.926ZM136.407 182.926H146.037V192.555H136.407V182.926ZM146.037 182.926H155.667V192.555H146.037V182.926ZM165.296 182.926H174.926V192.555H165.296V182.926ZM213.444 182.926H223.074V192.555H213.444V182.926ZM242.333 182.926H251.963V192.555H242.333V182.926ZM261.593 182.926H271.222V192.555H261.593V182.926ZM290.481 182.926H300.111V192.555H290.481V182.926ZM300.111 182.926H309.741V192.555H300.111V182.926ZM309.741 182.926H319.37V192.555H309.741V182.926ZM117.148 192.555H126.778V202.185H117.148V192.555ZM155.667 192.555H165.296V202.185H155.667V192.555ZM184.556 192.555H194.185V202.185H184.556V192.555ZM203.815 192.555H213.444V202.185H203.815V192.555ZM213.444 192.555H223.074V202.185H213.444V192.555ZM242.333 192.555H251.963V202.185H242.333V192.555ZM251.963 192.555H261.593V202.185H251.963V192.555ZM271.222 192.555H280.852V202.185H271.222V192.555ZM300.111 192.555H309.741V202.185H300.111V192.555ZM88.2593 202.185H97.8889V211.815H88.2593V202.185ZM136.407 202.185H146.037V211.815H136.407V202.185ZM194.185 202.185H203.815V211.815H194.185V202.185ZM203.815 202.185H213.444V211.815H203.815V202.185ZM223.074 202.185H232.704V211.815H223.074V202.185ZM232.704 202.185H242.333V211.815H232.704V202.185ZM242.333 202.185H251.963V211.815H242.333V202.185ZM251.963 202.185H261.593V211.815H251.963V202.185ZM280.852 202.185H290.481V211.815H280.852V202.185ZM300.111 202.185H309.741V211.815H300.111V202.185ZM309.741 202.185H319.37V211.815H309.741V202.185ZM107.519 211.815H117.148V221.444H107.519V211.815ZM117.148 211.815H126.778V221.444H117.148V211.815ZM146.037 211.815H155.667V221.444H146.037V211.815ZM155.667 211.815H165.296V221.444H155.667V211.815ZM184.556 211.815H194.185V221.444H184.556V211.815ZM194.185 211.815H203.815V221.444H194.185V211.815ZM232.704 211.815H242.333V221.444H232.704V211.815ZM242.333 211.815H251.963V221.444H242.333V211.815ZM251.963 211.815H261.593V221.444H251.963V211.815ZM280.852 211.815H290.481V221.444H280.852V211.815ZM309.741 211.815H319.37V221.444H309.741V211.815ZM78.6296 221.444H88.2593V231.074H78.6296V221.444ZM97.8889 221.444H107.519V231.074H97.8889V221.444ZM136.407 221.444H146.037V231.074H136.407V221.444ZM146.037 221.444H155.667V231.074H146.037V221.444ZM165.296 221.444H174.926V231.074H165.296V221.444ZM184.556 221.444H194.185V231.074H184.556V221.444ZM194.185 221.444H203.815V231.074H194.185V221.444ZM203.815 221.444H213.444V231.074H203.815V221.444ZM232.704 221.444H242.333V231.074H232.704V221.444ZM242.333 221.444H251.963V231.074H242.333V221.444ZM251.963 221.444H261.593V231.074H251.963V221.444ZM261.593 221.444H271.222V231.074H261.593V221.444ZM290.481 221.444H300.111V231.074H290.481V221.444ZM300.111 221.444H309.741V231.074H300.111V221.444ZM309.741 221.444H319.37V231.074H309.741V221.444ZM88.2593 231.074H97.8889V240.703H88.2593V231.074ZM117.148 231.074H126.778V240.703H117.148V231.074ZM165.296 231.074H174.926V240.703H165.296V231.074ZM194.185 231.074H203.815V240.703H194.185V231.074ZM203.815 231.074H213.444V240.703H203.815V231.074ZM232.704 231.074H242.333V240.703H232.704V231.074ZM271.222 231.074H280.852V240.703H271.222V231.074ZM300.111 231.074H309.741V240.703H300.111V231.074ZM78.6296 240.703H88.2593V250.333H78.6296V240.703ZM97.8889 240.703H107.519V250.333H97.8889V240.703ZM107.519 240.703H117.148V250.333H107.519V240.703ZM136.407 240.703H146.037V250.333H136.407V240.703ZM146.037 240.703H155.667V250.333H146.037V240.703ZM174.926 240.703H184.556V250.333H174.926V240.703ZM184.556 240.703H194.185V250.333H184.556V240.703ZM194.185 240.703H203.815V250.333H194.185V240.703ZM203.815 240.703H213.444V250.333H203.815V240.703ZM223.074 240.703H232.704V250.333H223.074V240.703ZM232.704 240.703H242.333V250.333H232.704V240.703ZM242.333 240.703H251.963V250.333H242.333V240.703ZM251.963 240.703H261.593V250.333H251.963V240.703ZM261.593 240.703H271.222V250.333H261.593V240.703ZM271.222 240.703H280.852V250.333H271.222V240.703ZM280.852 240.703H290.481V250.333H280.852V240.703ZM155.667 250.333H165.296V259.963H155.667V250.333ZM184.556 250.333H194.185V259.963H184.556V250.333ZM213.444 250.333H223.074V259.963H213.444V250.333ZM223.074 250.333H232.704V259.963H223.074V250.333ZM232.704 250.333H242.333V259.963H232.704V250.333ZM271.222 250.333H280.852V259.963H271.222V250.333ZM280.852 250.333H290.481V259.963H280.852V250.333ZM300.111 250.333H309.741V259.963H300.111V250.333ZM309.741 250.333H319.37V259.963H309.741V250.333ZM78.6296 259.963H88.2593V269.592H78.6296V259.963ZM88.2593 259.963H97.8889V269.592H88.2593V259.963ZM97.8889 259.963H107.519V269.592H97.8889V259.963ZM107.519 259.963H117.148V269.592H107.519V259.963ZM117.148 259.963H126.778V269.592H117.148V259.963ZM126.778 259.963H136.407V269.592H126.778V259.963ZM136.407 259.963H146.037V269.592H136.407V259.963ZM155.667 259.963H165.296V269.592H155.667V259.963ZM174.926 259.963H184.556V269.592H174.926V259.963ZM213.444 259.963H223.074V269.592H213.444V259.963ZM223.074 259.963H232.704V269.592H223.074V259.963ZM232.704 259.963H242.333V269.592H232.704V259.963ZM251.963 259.963H261.593V269.592H251.963V259.963ZM271.222 259.963H280.852V269.592H271.222V259.963ZM280.852 259.963H290.481V269.592H280.852V259.963ZM300.111 259.963H309.741V269.592H300.111V259.963ZM309.741 259.963H319.37V269.592H309.741V259.963ZM78.6296 269.592H88.2593V279.222H78.6296V269.592ZM136.407 269.592H146.037V279.222H136.407V269.592ZM155.667 269.592H165.296V279.222H155.667V269.592ZM165.296 269.592H174.926V279.222H165.296V269.592ZM194.185 269.592H203.815V279.222H194.185V269.592ZM203.815 269.592H213.444V279.222H203.815V269.592ZM232.704 269.592H242.333V279.222H232.704V269.592ZM271.222 269.592H280.852V279.222H271.222V269.592ZM280.852 269.592H290.481V279.222H280.852V269.592ZM78.6296 279.222H88.2593V288.852H78.6296V279.222ZM97.8889 279.222H107.519V288.852H97.8889V279.222ZM107.519 279.222H117.148V288.852H107.519V279.222ZM117.148 279.222H126.778V288.852H117.148V279.222ZM136.407 279.222H146.037V288.852H136.407V279.222ZM155.667 279.222H165.296V288.852H155.667V279.222ZM174.926 279.222H184.556V288.852H174.926V279.222ZM203.815 279.222H213.444V288.852H203.815V279.222ZM232.704 279.222H242.333V288.852H232.704V279.222ZM242.333 279.222H251.963V288.852H242.333V279.222ZM251.963 279.222H261.593V288.852H251.963V279.222ZM261.593 279.222H271.222V288.852H261.593V279.222ZM271.222 279.222H280.852V288.852H271.222V279.222ZM280.852 279.222H290.481V288.852H280.852V279.222ZM78.6296 288.852H88.2593V298.481H78.6296V288.852ZM97.8889 288.852H107.519V298.481H97.8889V288.852ZM107.519 288.852H117.148V298.481H107.519V288.852ZM117.148 288.852H126.778V298.481H117.148V288.852ZM136.407 288.852H146.037V298.481H136.407V288.852ZM165.296 288.852H174.926V298.481H165.296V288.852ZM174.926 288.852H184.556V298.481H174.926V288.852ZM213.444 288.852H223.074V298.481H213.444V288.852ZM261.593 288.852H271.222V298.481H261.593V288.852ZM271.222 288.852H280.852V298.481H271.222V288.852ZM280.852 288.852H290.481V298.481H280.852V288.852ZM290.481 288.852H300.111V298.481H290.481V288.852ZM78.6296 298.481H88.2593V308.111H78.6296V298.481ZM97.8889 298.481H107.519V308.111H97.8889V298.481ZM107.519 298.481H117.148V308.111H107.519V298.481ZM117.148 298.481H126.778V308.111H117.148V298.481ZM136.407 298.481H146.037V308.111H136.407V298.481ZM155.667 298.481H165.296V308.111H155.667V298.481ZM165.296 298.481H174.926V308.111H165.296V298.481ZM174.926 298.481H184.556V308.111H174.926V298.481ZM194.185 298.481H203.815V308.111H194.185V298.481ZM203.815 298.481H213.444V308.111H203.815V298.481ZM213.444 298.481H223.074V308.111H213.444V298.481ZM271.222 298.481H280.852V308.111H271.222V298.481ZM309.741 298.481H319.37V308.111H309.741V298.481ZM78.6296 308.111H88.2593V317.74H78.6296V308.111ZM136.407 308.111H146.037V317.74H136.407V308.111ZM155.667 308.111H165.296V317.74H155.667V308.111ZM174.926 308.111H184.556V317.74H174.926V308.111ZM194.185 308.111H203.815V317.74H194.185V308.111ZM203.815 308.111H213.444V317.74H203.815V308.111ZM223.074 308.111H232.704V317.74H223.074V308.111ZM232.704 308.111H242.333V317.74H232.704V308.111ZM251.963 308.111H261.593V317.74H251.963V308.111ZM271.222 308.111H280.852V317.74H271.222V308.111ZM280.852 308.111H290.481V317.74H280.852V308.111ZM300.111 308.111H309.741V317.74H300.111V308.111ZM78.6296 317.74H88.2593V327.37H78.6296V317.74ZM88.2593 317.74H97.8889V327.37H88.2593V317.74ZM97.8889 317.74H107.519V327.37H97.8889V317.74ZM107.519 317.74H117.148V327.37H107.519V317.74ZM117.148 317.74H126.778V327.37H117.148V317.74ZM126.778 317.74H136.407V327.37H126.778V317.74ZM136.407 317.74H146.037V327.37H136.407V317.74ZM155.667 317.74H165.296V327.37H155.667V317.74ZM165.296 317.74H174.926V327.37H165.296V317.74ZM174.926 317.74H184.556V327.37H174.926V317.74ZM203.815 317.74H213.444V327.37H203.815V317.74ZM223.074 317.74H232.704V327.37H223.074V317.74ZM232.704 317.74H242.333V327.37H232.704V317.74ZM251.963 317.74H261.593V327.37H251.963V317.74ZM261.593 317.74H271.222V327.37H261.593V317.74ZM300.111 317.74H309.741V327.37H300.111V317.74ZM309.741 317.74H319.37V327.37H309.741V317.74Z" fill="black"/>
</g>
</g>
<rect y="16" width="393" height="549" fill="url(#paint0_linear_4084_12593)"/>
</g>
<defs>
<linearGradient id="paint0_linear_4084_12593" x1="196.5" y1="220.093" x2="196.5" y2="565" gradientUnits="userSpaceOnUse">
<stop stop-color="white" stop-opacity="0"/>
<stop offset="1" stop-color="white"/>
</linearGradient>
<clipPath id="clip0_4084_12593">
<rect width="393" height="627.846" fill="white"/>
</clipPath>
<clipPath id="clip1_4084_12593">
<rect width="337.054" height="627.846" fill="white" transform="translate(30)"/>
</clipPath>
<clipPath id="clip2_4084_12593">
<rect width="260" height="260" fill="white" transform="translate(69 77)"/>
</clipPath>
</defs>
</svg>
