<svg width="523" height="600" viewBox="0 0 523 600" fill="none" xmlns="http://www.w3.org/2000/svg">
<g clip-path="url(#clip0_2504_10412)">
<rect width="523" height="600" fill="#D3EDFF"/>
<path d="M27 137.624C27 132.861 30.8611 129 35.624 129H82.1936C86.9565 129 90.8176 132.861 90.8176 137.624V192.818H35.624C30.8611 192.818 27 188.957 27 184.194V137.624Z" fill="#76CBFF"/>
<path d="M221 457.624C221 452.862 224.861 449 229.624 449H276.194C280.957 449 284.818 452.862 284.818 457.624V512.818H229.624C224.861 512.818 221 508.957 221 504.194V457.624Z" fill="#35ADFF"/>
<path d="M221.039 256.636H99.4407C94.6778 256.636 90.8167 252.775 90.8167 248.012V192.818H212.415C217.178 192.818 221.039 196.679 221.039 201.442V256.636Z" fill="#35ADFF"/>
<path d="M373.453 55.3764C373.453 60.1393 369.592 64.0004 364.829 64.0004H190.624C185.861 64.0004 182 60.1393 182 55.3764V0.182823H373.453V55.3764Z" fill="#76CBFF"/>
<path d="M283.992 313.554C283.992 318.317 280.131 322.178 275.368 322.178H221.037V256.635H275.368C280.131 256.635 283.992 260.496 283.992 265.259V313.554Z" fill="#35ADFF"/>
<path d="M436.222 605.012C436.222 609.775 432.361 613.636 427.598 613.636H314.624C309.861 613.636 306 609.775 306 605.012V549.819H436.222V605.012Z" fill="#76CBFF"/>
<path d="M499.179 542.918C499.179 547.681 495.318 551.542 490.555 551.542H436.224V486H490.555C495.318 486 499.179 489.861 499.179 494.624V542.918Z" fill="#76CBFF"/>
<path d="M503.957 56.9185C503.957 61.6814 500.096 65.5425 495.333 65.5425H441.002V7.62939e-05H495.333C500.096 7.62939e-05 503.957 3.86117 503.957 8.62408V56.9185Z" fill="#76CBFF"/>
<path d="M99.9552 429.918C99.9552 434.681 96.0941 438.542 91.3312 438.542H37V390C37 380.611 44.6112 373 54 373H91.3312C96.0941 373 99.9552 376.861 99.9552 381.624V429.918Z" fill="#76CBFF"/>
<path d="M-26 494.918C-26 499.681 -22.1389 503.542 -17.376 503.542H36.9552V438H-17.376C-22.1389 438 -26 441.861 -26 446.624V494.918Z" fill="#76CBFF"/>
<g filter="url(#filter0_d_2504_10412)">
<rect x="40" y="40" width="254" height="264" rx="12" fill="#F5F6FA" shape-rendering="crispEdges"/>
<path d="M60.8849 76V65.8182H64.902C65.6742 65.8182 66.3321 65.9657 66.8757 66.2607C67.4193 66.5523 67.8336 66.9583 68.1186 67.4787C68.407 67.9957 68.5511 68.5923 68.5511 69.2685C68.5511 69.9446 68.4053 70.5412 68.1136 71.0582C67.822 71.5753 67.3994 71.978 66.8459 72.2663C66.2957 72.5547 65.6295 72.6989 64.8473 72.6989H62.2869V70.9737H64.4993C64.9136 70.9737 65.255 70.9025 65.5234 70.7599C65.7952 70.6141 65.9974 70.4136 66.13 70.1584C66.2659 69.8999 66.3338 69.6032 66.3338 69.2685C66.3338 68.9304 66.2659 68.6354 66.13 68.3835C65.9974 68.1283 65.7952 67.9311 65.5234 67.7919C65.2517 67.6494 64.907 67.5781 64.4893 67.5781H63.0376V76H60.8849ZM71.9286 76H69.6218L73.1367 65.8182H75.9108L79.4208 76H77.114L74.5635 68.1449H74.484L71.9286 76ZM71.7844 71.9979H77.2333V73.6783H71.7844V71.9979ZM80.4106 65.8182H82.8218L85.1436 70.2031H85.243L87.5647 65.8182H89.976L86.2622 72.4006V76H84.1244V72.4006L80.4106 65.8182ZM92.5517 65.8182H95.2066L98.0105 72.6591H98.1299L100.934 65.8182H103.589V76H101.501V69.3729H101.416L98.7811 75.9503H97.3593L94.7243 69.348H94.6398V76H92.5517V65.8182ZM106.762 76V65.8182H113.623V67.593H108.915V70.0192H113.27V71.794H108.915V74.2251H113.643V76H106.762ZM125.251 65.8182V76H123.392L118.962 69.5916H118.887V76H116.735V65.8182H118.624L123.019 72.2216H123.108V65.8182H125.251ZM128.042 67.593V65.8182H136.404V67.593H133.287V76H131.159V67.593H128.042ZM149.345 68.7464C149.305 68.3454 149.134 68.0339 148.833 67.8118C148.531 67.5897 148.122 67.4787 147.605 67.4787C147.253 67.4787 146.957 67.5284 146.715 67.6278C146.473 67.724 146.287 67.8582 146.158 68.0305C146.032 68.2029 145.969 68.3984 145.969 68.6172C145.962 68.7995 146 68.9586 146.083 69.0945C146.17 69.2304 146.287 69.348 146.436 69.4474C146.585 69.5436 146.758 69.6281 146.953 69.701C147.149 69.7706 147.358 69.8303 147.58 69.88L148.495 70.0987C148.939 70.1982 149.346 70.3307 149.718 70.4964C150.089 70.6622 150.41 70.866 150.682 71.108C150.954 71.3499 151.164 71.6349 151.313 71.9631C151.466 72.2912 151.544 72.6674 151.547 73.0916C151.544 73.7147 151.385 74.255 151.07 74.7124C150.758 75.1664 150.308 75.5194 149.718 75.7713C149.131 76.0199 148.423 76.1442 147.595 76.1442C146.773 76.1442 146.057 76.0182 145.447 75.7663C144.84 75.5144 144.366 75.1416 144.025 74.6477C143.687 74.1506 143.51 73.5357 143.493 72.8033H145.576C145.599 73.1446 145.697 73.4297 145.87 73.6584C146.045 73.8838 146.279 74.0545 146.571 74.1705C146.866 74.2831 147.199 74.3395 147.57 74.3395C147.934 74.3395 148.251 74.2865 148.519 74.1804C148.791 74.0743 149.002 73.9268 149.151 73.7379C149.3 73.549 149.375 73.3319 149.375 73.0866C149.375 72.858 149.307 72.6657 149.171 72.5099C149.038 72.3542 148.843 72.2216 148.584 72.1122C148.329 72.0028 148.016 71.9034 147.644 71.8139L146.536 71.5355C145.677 71.3267 145 71.0002 144.502 70.5561C144.005 70.112 143.758 69.5137 143.762 68.7614C143.758 68.1449 143.922 67.6063 144.254 67.1456C144.589 66.6849 145.048 66.3253 145.631 66.0668C146.214 65.8082 146.877 65.679 147.62 65.679C148.375 65.679 149.035 65.8082 149.598 66.0668C150.165 66.3253 150.606 66.6849 150.921 67.1456C151.236 67.6063 151.398 68.1399 151.408 68.7464H149.345ZM163.379 69.3828H161.201C161.161 69.1011 161.08 68.8509 160.958 68.6321C160.835 68.41 160.678 68.2211 160.485 68.0653C160.293 67.9096 160.071 67.7902 159.819 67.7074C159.571 67.6245 159.3 67.5831 159.009 67.5831C158.482 67.5831 158.023 67.714 157.632 67.9759C157.241 68.2344 156.937 68.6122 156.722 69.1094C156.506 69.6032 156.399 70.2031 156.399 70.9091C156.399 71.6349 156.506 72.2448 156.722 72.7386C156.941 73.2325 157.245 73.6054 157.637 73.8572C158.028 74.1091 158.48 74.2351 158.994 74.2351C159.282 74.2351 159.549 74.197 159.794 74.1207C160.043 74.0445 160.263 73.9335 160.455 73.7876C160.648 73.6385 160.807 73.4579 160.933 73.2457C161.062 73.0336 161.151 72.7917 161.201 72.5199L163.379 72.5298C163.322 72.9972 163.182 73.4479 162.956 73.8821C162.734 74.313 162.434 74.6991 162.056 75.0405C161.682 75.3786 161.234 75.647 160.714 75.8459C160.197 76.0414 159.612 76.1392 158.959 76.1392C158.051 76.1392 157.239 75.9337 156.523 75.5227C155.81 75.1117 155.247 74.5168 154.833 73.7379C154.422 72.959 154.216 72.0161 154.216 70.9091C154.216 69.7988 154.425 68.8542 154.843 68.0753C155.26 67.2964 155.827 66.7031 156.543 66.2955C157.259 65.8845 158.064 65.679 158.959 65.679C159.549 65.679 160.096 65.7618 160.6 65.9276C161.107 66.0933 161.556 66.3352 161.947 66.6534C162.338 66.9683 162.656 67.3544 162.901 67.8118C163.15 68.2692 163.309 68.7929 163.379 69.3828ZM166.322 76V65.8182H168.475V70.0192H172.845V65.8182H174.993V76H172.845V71.794H168.475V76H166.322ZM178.168 76V65.8182H185.029V67.593H180.32V70.0192H184.676V71.794H180.32V74.2251H185.048V76H178.168ZM191.749 76H188.14V65.8182H191.779C192.803 65.8182 193.685 66.022 194.424 66.4297C195.163 66.834 195.732 67.4157 196.129 68.1747C196.53 68.9337 196.731 69.8419 196.731 70.8991C196.731 71.9598 196.53 72.8712 196.129 73.6335C195.732 74.3958 195.16 74.9808 194.414 75.3885C193.672 75.7962 192.783 76 191.749 76ZM190.293 74.1555H191.66C192.296 74.1555 192.832 74.0429 193.266 73.8175C193.703 73.5888 194.031 73.2358 194.25 72.7585C194.472 72.2779 194.583 71.6581 194.583 70.8991C194.583 70.1468 194.472 69.532 194.25 69.0547C194.031 68.5774 193.705 68.2261 193.271 68.0007C192.837 67.7753 192.301 67.6626 191.665 67.6626H190.293V74.1555ZM206.015 65.8182H208.167V72.4304C208.167 73.1728 207.99 73.8224 207.635 74.3793C207.284 74.9361 206.792 75.3703 206.159 75.6818C205.526 75.9901 204.788 76.1442 203.946 76.1442C203.101 76.1442 202.362 75.9901 201.729 75.6818C201.096 75.3703 200.604 74.9361 200.253 74.3793C199.901 73.8224 199.726 73.1728 199.726 72.4304V65.8182H201.878V72.2464C201.878 72.6342 201.963 72.9789 202.132 73.2805C202.304 73.5821 202.546 73.8191 202.858 73.9915C203.169 74.1638 203.532 74.25 203.946 74.25C204.364 74.25 204.727 74.1638 205.035 73.9915C205.347 73.8191 205.587 73.5821 205.756 73.2805C205.928 72.9789 206.015 72.6342 206.015 72.2464V65.8182ZM211.338 76V65.8182H213.491V74.2251H217.856V76H211.338ZM220.682 76V65.8182H227.543V67.593H222.835V70.0192H227.19V71.794H222.835V74.2251H227.562V76H220.682Z" fill="#A8B0D1"/>
<path d="M72.7159 98.8068L72.1108 101.04H60.8011L61.4148 98.8068H72.7159ZM67.0312 112L61.0653 104.824L61.0568 102.932H64.0057C64.7102 102.932 65.2983 102.815 65.7699 102.582C66.2472 102.344 66.608 102.011 66.8523 101.585C67.1023 101.153 67.2273 100.648 67.2273 100.068C67.2273 99.1989 66.9716 98.5 66.4602 97.9716C65.9489 97.4432 65.1307 97.179 64.0057 97.179H60.8011L61.4659 94.5455H64.0057C65.4375 94.5455 66.6222 94.767 67.5597 95.2102C68.5028 95.6477 69.2074 96.267 69.6733 97.0682C70.1449 97.8693 70.3807 98.8068 70.3807 99.8807C70.3807 100.83 70.2074 101.676 69.8608 102.42C69.5142 103.165 68.9688 103.776 68.2244 104.253C67.4801 104.73 66.5057 105.048 65.3011 105.207L65.1989 105.241L70.5852 111.847V112H67.0312ZM72.733 94.5455L72.1108 96.8125L62.9403 96.7784L63.5625 94.5455H72.733ZM80.6393 112.239C79.503 112.239 78.4859 112.026 77.5882 111.599C76.6905 111.168 75.9774 110.577 75.449 109.827C74.9263 109.077 74.6478 108.219 74.6138 107.253H77.6819C77.7388 107.969 78.0484 108.554 78.6109 109.009C79.1734 109.457 79.8495 109.682 80.6393 109.682C81.2586 109.682 81.8098 109.54 82.2927 109.256C82.7757 108.972 83.1564 108.577 83.4348 108.071C83.7132 107.565 83.8495 106.989 83.8439 106.341C83.8495 105.682 83.7103 105.097 83.4263 104.585C83.1422 104.074 82.753 103.673 82.2586 103.384C81.7643 103.088 81.1961 102.94 80.5541 102.94C80.0314 102.935 79.5172 103.031 79.0115 103.23C78.5058 103.429 78.1052 103.69 77.8098 104.014L74.9547 103.545L75.8666 94.5455H85.9916V97.1875H78.4831L77.9802 101.815H78.0825C78.4064 101.435 78.8638 101.119 79.4547 100.869C80.0456 100.614 80.6933 100.486 81.3978 100.486C82.4547 100.486 83.3978 100.736 84.2274 101.236C85.0569 101.73 85.7103 102.412 86.1876 103.281C86.6649 104.151 86.9035 105.145 86.9035 106.264C86.9035 107.418 86.6365 108.446 86.1024 109.349C85.574 110.247 84.8382 110.955 83.895 111.472C82.9575 111.983 81.8723 112.239 80.6393 112.239ZM92.3489 109.614L92.2382 110.551C92.1586 111.267 92.0166 111.994 91.812 112.733C91.6132 113.477 91.4029 114.162 91.1813 114.787C90.9597 115.412 90.7808 115.903 90.6444 116.261H88.5649C88.6444 115.915 88.7524 115.443 88.8887 114.847C89.0308 114.25 89.1671 113.58 89.2978 112.835C89.4285 112.091 89.5166 111.335 89.562 110.568L89.6217 109.614H92.3489ZM101.063 112.332C99.6594 112.332 98.4549 111.977 97.4492 111.267C96.4492 110.551 95.6793 109.52 95.1395 108.173C94.6055 106.821 94.3384 105.193 94.3384 103.29C94.3441 101.386 94.614 99.767 95.1481 98.4318C95.6878 97.0909 96.4577 96.0682 97.4577 95.3636C98.4634 94.6591 99.6651 94.3068 101.063 94.3068C102.461 94.3068 103.662 94.6591 104.668 95.3636C105.674 96.0682 106.444 97.0909 106.978 98.4318C107.517 99.7727 107.787 101.392 107.787 103.29C107.787 105.199 107.517 106.83 106.978 108.182C106.444 109.528 105.674 110.557 104.668 111.267C103.668 111.977 102.466 112.332 101.063 112.332ZM101.063 109.665C102.154 109.665 103.015 109.128 103.645 108.054C104.282 106.974 104.6 105.386 104.6 103.29C104.6 101.903 104.455 100.739 104.165 99.7955C103.875 98.8523 103.466 98.142 102.938 97.6648C102.409 97.1818 101.784 96.9403 101.063 96.9403C99.9776 96.9403 99.1197 97.4801 98.489 98.5597C97.8583 99.6335 97.5401 101.21 97.5344 103.29C97.5288 104.682 97.668 105.852 97.952 106.801C98.2418 107.75 98.6509 108.466 99.1793 108.949C99.7077 109.426 100.336 109.665 101.063 109.665ZM116.591 112.332C115.187 112.332 113.983 111.977 112.977 111.267C111.977 110.551 111.207 109.52 110.667 108.173C110.133 106.821 109.866 105.193 109.866 103.29C109.872 101.386 110.142 99.767 110.676 98.4318C111.216 97.0909 111.986 96.0682 112.986 95.3636C113.991 94.6591 115.193 94.3068 116.591 94.3068C117.988 94.3068 119.19 94.6591 120.196 95.3636C121.201 96.0682 121.971 97.0909 122.505 98.4318C123.045 99.7727 123.315 101.392 123.315 103.29C123.315 105.199 123.045 106.83 122.505 108.182C121.971 109.528 121.201 110.557 120.196 111.267C119.196 111.977 117.994 112.332 116.591 112.332ZM116.591 109.665C117.682 109.665 118.542 109.128 119.173 108.054C119.809 106.974 120.128 105.386 120.128 103.29C120.128 101.903 119.983 100.739 119.693 99.7955C119.403 98.8523 118.994 98.142 118.466 97.6648C117.937 97.1818 117.312 96.9403 116.591 96.9403C115.505 96.9403 114.647 97.4801 114.017 98.5597C113.386 99.6335 113.068 101.21 113.062 103.29C113.057 104.682 113.196 105.852 113.48 106.801C113.77 107.75 114.179 108.466 114.707 108.949C115.236 109.426 115.863 109.665 116.591 109.665ZM132.118 112.332C130.715 112.332 129.511 111.977 128.505 111.267C127.505 110.551 126.735 109.52 126.195 108.173C125.661 106.821 125.394 105.193 125.394 103.29C125.4 101.386 125.67 99.767 126.204 98.4318C126.743 97.0909 127.513 96.0682 128.513 95.3636C129.519 94.6591 130.721 94.3068 132.118 94.3068C133.516 94.3068 134.718 94.6591 135.724 95.3636C136.729 96.0682 137.499 97.0909 138.033 98.4318C138.573 99.7727 138.843 101.392 138.843 103.29C138.843 105.199 138.573 106.83 138.033 108.182C137.499 109.528 136.729 110.557 135.724 111.267C134.724 111.977 133.522 112.332 132.118 112.332ZM132.118 109.665C133.209 109.665 134.07 109.128 134.701 108.054C135.337 106.974 135.655 105.386 135.655 103.29C135.655 101.903 135.511 100.739 135.221 99.7955C134.931 98.8523 134.522 98.142 133.993 97.6648C133.465 97.1818 132.84 96.9403 132.118 96.9403C131.033 96.9403 130.175 97.4801 129.545 98.5597C128.914 99.6335 128.596 101.21 128.59 103.29C128.584 104.682 128.724 105.852 129.008 106.801C129.297 107.75 129.707 108.466 130.235 108.949C130.763 109.426 131.391 109.665 132.118 109.665Z" fill="#455084"/>
<path d="M68 159V278" stroke="#005DFF"/>
<circle cx="67.5" cy="159.5" r="7.5" fill="#005DFF"/>
<rect x="61.25" y="192.25" width="12.5" height="12.5" rx="6.25" stroke="#F5F6FA" stroke-width="2.5"/>
<circle cx="67.5" cy="198.5" r="5" fill="#F5F6FA" stroke="#005DFF" stroke-width="3"/>
<rect x="61.25" y="231.25" width="12.5" height="12.5" rx="6.25" stroke="#F5F6FA" stroke-width="2.5"/>
<circle cx="67.5" cy="237.5" r="5" fill="#F5F6FA" stroke="#005DFF" stroke-width="3"/>
<rect x="61.25" y="270.25" width="12.5" height="12.5" rx="6.25" stroke="#F5F6FA" stroke-width="2.5"/>
<circle cx="67.5" cy="276.5" r="5" fill="#F5F6FA" stroke="#005DFF" stroke-width="3"/>
<path d="M93.3366 153.818V164H91.9247L86.7493 156.533H86.6548V164H85.1186V153.818H86.5405L91.7209 161.295H91.8153V153.818H93.3366ZM98.7495 164.154C97.9971 164.154 97.3491 163.993 96.8056 163.672C96.2653 163.347 95.8477 162.891 95.5527 162.305C95.2611 161.715 95.1152 161.024 95.1152 160.232C95.1152 159.449 95.2611 158.76 95.5527 158.163C95.8477 157.567 96.2587 157.101 96.7857 156.766C97.316 156.432 97.9358 156.264 98.6451 156.264C99.0759 156.264 99.4935 156.335 99.8979 156.478C100.302 156.621 100.665 156.844 100.987 157.149C101.308 157.454 101.562 157.85 101.747 158.337C101.933 158.821 102.026 159.41 102.026 160.102V160.629H95.9554V159.516H100.569C100.569 159.125 100.49 158.778 100.33 158.477C100.171 158.172 99.9476 157.931 99.6593 157.756C99.3742 157.58 99.0395 157.492 98.655 157.492C98.2374 157.492 97.8728 157.595 97.5613 157.8C97.253 158.003 97.0144 158.268 96.8453 158.596C96.6796 158.921 96.5968 159.274 96.5968 159.655V160.525C96.5968 161.035 96.6863 161.469 96.8652 161.827C97.0475 162.185 97.3011 162.459 97.6259 162.648C97.9507 162.833 98.3302 162.926 98.7644 162.926C99.0461 162.926 99.303 162.886 99.535 162.807C99.767 162.724 99.9675 162.601 100.137 162.439C100.306 162.277 100.435 162.076 100.524 161.837L101.931 162.091C101.819 162.505 101.616 162.868 101.325 163.18C101.036 163.488 100.673 163.728 100.236 163.901C99.8018 164.07 99.3063 164.154 98.7495 164.154ZM104.671 156.364L106.356 159.337L108.056 156.364H109.682L107.301 160.182L109.702 164H108.076L106.356 161.146L104.641 164H103.01L105.387 160.182L103.04 156.364H104.671ZM114.773 156.364V157.557H110.602V156.364H114.773ZM111.72 154.534H113.207V161.758C113.207 162.046 113.25 162.263 113.336 162.409C113.422 162.552 113.533 162.649 113.669 162.702C113.808 162.752 113.959 162.777 114.122 162.777C114.241 162.777 114.345 162.769 114.435 162.752C114.524 162.736 114.594 162.722 114.644 162.712L114.912 163.94C114.826 163.973 114.703 164.007 114.544 164.04C114.385 164.076 114.186 164.096 113.948 164.099C113.557 164.106 113.192 164.036 112.854 163.891C112.516 163.745 112.242 163.519 112.034 163.214C111.825 162.91 111.72 162.527 111.72 162.066V154.534ZM120.242 164V153.818H123.871C124.663 153.818 125.319 153.962 125.84 154.251C126.36 154.539 126.749 154.933 127.008 155.434C127.267 155.931 127.396 156.491 127.396 157.114C127.396 157.741 127.265 158.304 127.003 158.805C126.744 159.302 126.353 159.696 125.83 159.988C125.309 160.276 124.655 160.42 123.866 160.42H121.37V159.118H123.727C124.227 159.118 124.633 159.032 124.945 158.859C125.256 158.684 125.485 158.445 125.631 158.143C125.777 157.842 125.85 157.499 125.85 157.114C125.85 156.73 125.777 156.388 125.631 156.09C125.485 155.792 125.255 155.558 124.94 155.389C124.628 155.22 124.217 155.136 123.707 155.136H121.778V164H120.242ZM131.231 164.169C130.747 164.169 130.31 164.08 129.919 163.901C129.528 163.718 129.218 163.455 128.989 163.11C128.764 162.765 128.651 162.343 128.651 161.842C128.651 161.411 128.734 161.057 128.9 160.778C129.065 160.5 129.289 160.28 129.571 160.117C129.853 159.955 130.167 159.832 130.515 159.749C130.863 159.666 131.218 159.603 131.579 159.56C132.037 159.507 132.408 159.464 132.693 159.431C132.978 159.395 133.185 159.337 133.314 159.257C133.444 159.178 133.508 159.048 133.508 158.869V158.835C133.508 158.4 133.386 158.064 133.14 157.825C132.898 157.587 132.537 157.467 132.057 157.467C131.556 157.467 131.162 157.578 130.873 157.8C130.588 158.019 130.391 158.263 130.282 158.531L128.885 158.213C129.05 157.749 129.292 157.375 129.611 157.089C129.932 156.801 130.302 156.592 130.719 156.463C131.137 156.33 131.576 156.264 132.037 156.264C132.342 156.264 132.665 156.301 133.006 156.374C133.351 156.443 133.672 156.572 133.971 156.761C134.272 156.95 134.519 157.22 134.711 157.572C134.904 157.92 135 158.372 135 158.929V164H133.548V162.956H133.488C133.392 163.148 133.248 163.337 133.056 163.523C132.864 163.708 132.617 163.862 132.315 163.985C132.014 164.108 131.652 164.169 131.231 164.169ZM131.555 162.976C131.965 162.976 132.317 162.895 132.608 162.732C132.903 162.57 133.127 162.358 133.28 162.096C133.435 161.831 133.513 161.547 133.513 161.246V160.261C133.46 160.314 133.358 160.364 133.205 160.411C133.056 160.454 132.885 160.492 132.693 160.525C132.501 160.555 132.314 160.583 132.131 160.609C131.949 160.633 131.796 160.652 131.674 160.669C131.385 160.705 131.122 160.767 130.883 160.853C130.648 160.939 130.459 161.063 130.317 161.226C130.177 161.385 130.108 161.597 130.108 161.862C130.108 162.23 130.244 162.509 130.515 162.697C130.787 162.883 131.134 162.976 131.555 162.976ZM137.646 166.864C137.424 166.864 137.222 166.845 137.039 166.809C136.857 166.776 136.721 166.739 136.632 166.7L136.99 165.482C137.261 165.554 137.503 165.586 137.716 165.576C137.928 165.566 138.115 165.487 138.277 165.337C138.443 165.188 138.589 164.945 138.715 164.607L138.899 164.099L136.105 156.364H137.696L139.63 162.29H139.709L141.643 156.364H143.239L140.092 165.019C139.946 165.417 139.761 165.753 139.535 166.028C139.31 166.307 139.041 166.516 138.73 166.655C138.418 166.794 138.057 166.864 137.646 166.864ZM144.636 164V156.364H146.063V157.607H146.157C146.316 157.186 146.577 156.857 146.938 156.622C147.299 156.384 147.732 156.264 148.235 156.264C148.746 156.264 149.173 156.384 149.518 156.622C149.866 156.861 150.123 157.189 150.289 157.607H150.368C150.551 157.199 150.841 156.874 151.238 156.632C151.636 156.387 152.11 156.264 152.66 156.264C153.353 156.264 153.918 156.481 154.355 156.915C154.796 157.35 155.017 158.004 155.017 158.879V164H153.53V159.018C153.53 158.501 153.389 158.127 153.108 157.895C152.826 157.663 152.489 157.547 152.098 157.547C151.614 157.547 151.238 157.696 150.97 157.994C150.701 158.289 150.567 158.669 150.567 159.133V164H149.086V158.924C149.086 158.51 148.956 158.177 148.698 157.925C148.439 157.673 148.103 157.547 147.689 157.547C147.407 157.547 147.147 157.621 146.908 157.771C146.673 157.916 146.482 158.12 146.336 158.382C146.194 158.644 146.123 158.947 146.123 159.292V164H144.636ZM160.3 164.154C159.548 164.154 158.9 163.993 158.356 163.672C157.816 163.347 157.398 162.891 157.104 162.305C156.812 161.715 156.666 161.024 156.666 160.232C156.666 159.449 156.812 158.76 157.104 158.163C157.398 157.567 157.809 157.101 158.336 156.766C158.867 156.432 159.487 156.264 160.196 156.264C160.627 156.264 161.044 156.335 161.449 156.478C161.853 156.621 162.216 156.844 162.537 157.149C162.859 157.454 163.113 157.85 163.298 158.337C163.484 158.821 163.577 159.41 163.577 160.102V160.629H157.506V159.516H162.12C162.12 159.125 162.04 158.778 161.881 158.477C161.722 158.172 161.498 157.931 161.21 157.756C160.925 157.58 160.59 157.492 160.206 157.492C159.788 157.492 159.424 157.595 159.112 157.8C158.804 158.003 158.565 158.268 158.396 158.596C158.23 158.921 158.148 159.274 158.148 159.655V160.525C158.148 161.035 158.237 161.469 158.416 161.827C158.598 162.185 158.852 162.459 159.177 162.648C159.501 162.833 159.881 162.926 160.315 162.926C160.597 162.926 160.854 162.886 161.086 162.807C161.318 162.724 161.518 162.601 161.687 162.439C161.856 162.277 161.986 162.076 162.075 161.837L163.482 162.091C163.369 162.505 163.167 162.868 162.876 163.18C162.587 163.488 162.224 163.728 161.787 163.901C161.353 164.07 160.857 164.154 160.3 164.154ZM166.712 159.466V164H165.226V156.364H166.653V157.607H166.747C166.923 157.202 167.198 156.877 167.572 156.632C167.95 156.387 168.426 156.264 168.999 156.264C169.52 156.264 169.975 156.374 170.366 156.592C170.758 156.808 171.061 157.129 171.276 157.557C171.492 157.984 171.599 158.513 171.599 159.143V164H170.113V159.322C170.113 158.768 169.969 158.336 169.68 158.024C169.392 157.709 168.996 157.552 168.492 157.552C168.147 157.552 167.841 157.626 167.572 157.776C167.307 157.925 167.097 158.143 166.941 158.432C166.789 158.717 166.712 159.062 166.712 159.466ZM177.158 156.364V157.557H172.987V156.364H177.158ZM174.105 154.534H175.592V161.758C175.592 162.046 175.635 162.263 175.721 162.409C175.807 162.552 175.918 162.649 176.054 162.702C176.193 162.752 176.344 162.777 176.506 162.777C176.626 162.777 176.73 162.769 176.82 162.752C176.909 162.736 176.979 162.722 177.028 162.712L177.297 163.94C177.211 163.973 177.088 164.007 176.929 164.04C176.77 164.076 176.571 164.096 176.332 164.099C175.941 164.106 175.577 164.036 175.239 163.891C174.901 163.745 174.627 163.519 174.418 163.214C174.21 162.91 174.105 162.527 174.105 162.066V154.534ZM183.487 162.737C183.215 162.737 182.981 162.641 182.786 162.449C182.59 162.253 182.492 162.018 182.492 161.743C182.492 161.471 182.59 161.239 182.786 161.047C182.981 160.851 183.215 160.754 183.487 160.754C183.758 160.754 183.992 160.851 184.188 161.047C184.383 161.239 184.481 161.471 184.481 161.743C184.481 161.925 184.434 162.093 184.342 162.245C184.252 162.394 184.133 162.513 183.984 162.603C183.835 162.692 183.669 162.737 183.487 162.737ZM183.487 157.636C183.215 157.636 182.981 157.54 182.786 157.348C182.59 157.152 182.492 156.917 182.492 156.642C182.492 156.37 182.59 156.138 182.786 155.946C182.981 155.75 183.215 155.653 183.487 155.653C183.758 155.653 183.992 155.75 184.188 155.946C184.383 156.138 184.481 156.37 184.481 156.642C184.481 156.824 184.434 156.992 184.342 157.144C184.252 157.293 184.133 157.413 183.984 157.502C183.835 157.592 183.669 157.636 183.487 157.636ZM194.862 164H193.231L196.895 153.818H198.67L202.334 164H200.703L197.825 155.668H197.745L194.862 164ZM195.135 160.013H200.425V161.305H195.135V160.013ZM208.522 160.833V156.364H210.014V164H208.552V162.678H208.472C208.297 163.085 208.015 163.425 207.627 163.697C207.243 163.965 206.764 164.099 206.191 164.099C205.7 164.099 205.266 163.992 204.888 163.776C204.513 163.558 204.218 163.234 204.003 162.807C203.791 162.379 203.685 161.851 203.685 161.221V156.364H205.171V161.042C205.171 161.562 205.316 161.977 205.604 162.285C205.892 162.593 206.267 162.747 206.727 162.747C207.006 162.747 207.283 162.678 207.558 162.538C207.836 162.399 208.066 162.189 208.249 161.907C208.434 161.625 208.526 161.267 208.522 160.833ZM215.213 167.023C214.606 167.023 214.084 166.943 213.647 166.784C213.212 166.625 212.858 166.415 212.583 166.153C212.308 165.891 212.102 165.604 211.966 165.293L213.244 164.766C213.333 164.911 213.453 165.066 213.602 165.228C213.754 165.394 213.96 165.535 214.218 165.651C214.48 165.767 214.817 165.825 215.228 165.825C215.791 165.825 216.257 165.687 216.625 165.412C216.993 165.14 217.176 164.706 217.176 164.109V162.608H217.082C216.993 162.77 216.863 162.951 216.694 163.15C216.529 163.349 216.3 163.521 216.008 163.667C215.717 163.813 215.337 163.886 214.87 163.886C214.266 163.886 213.723 163.745 213.239 163.463C212.758 163.178 212.377 162.759 212.096 162.205C211.817 161.648 211.678 160.964 211.678 160.152C211.678 159.34 211.815 158.644 212.091 158.064C212.369 157.484 212.75 157.04 213.234 156.732C213.718 156.42 214.266 156.264 214.88 156.264C215.354 156.264 215.736 156.344 216.028 156.503C216.32 156.659 216.547 156.841 216.709 157.05C216.875 157.259 217.002 157.442 217.092 157.602H217.201V156.364H218.658V164.169C218.658 164.825 218.506 165.364 218.201 165.785C217.896 166.206 217.483 166.517 216.963 166.719C216.446 166.922 215.862 167.023 215.213 167.023ZM215.198 162.653C215.625 162.653 215.987 162.553 216.282 162.354C216.58 162.152 216.805 161.864 216.958 161.489C217.114 161.112 217.191 160.659 217.191 160.132C217.191 159.618 217.115 159.166 216.963 158.775C216.81 158.384 216.587 158.079 216.292 157.86C215.997 157.638 215.632 157.527 215.198 157.527C214.75 157.527 214.377 157.643 214.079 157.875C213.781 158.104 213.556 158.415 213.403 158.81C213.254 159.204 213.179 159.645 213.179 160.132C213.179 160.633 213.256 161.072 213.408 161.45C213.56 161.827 213.786 162.122 214.084 162.335C214.386 162.547 214.757 162.653 215.198 162.653ZM224.337 164V162.886L227.782 159.317C228.15 158.929 228.453 158.589 228.692 158.298C228.934 158.003 229.115 157.723 229.234 157.457C229.353 157.192 229.413 156.911 229.413 156.612C229.413 156.274 229.333 155.982 229.174 155.737C229.015 155.489 228.798 155.298 228.523 155.165C228.248 155.03 227.938 154.962 227.593 154.962C227.229 154.962 226.91 155.036 226.639 155.185C226.367 155.335 226.158 155.545 226.012 155.817C225.866 156.089 225.794 156.407 225.794 156.771H224.327C224.327 156.152 224.469 155.61 224.754 155.146C225.039 154.682 225.431 154.322 225.928 154.067C226.425 153.808 226.99 153.679 227.623 153.679C228.263 153.679 228.826 153.807 229.313 154.062C229.804 154.314 230.187 154.658 230.462 155.096C230.737 155.53 230.874 156.021 230.874 156.567C230.874 156.945 230.803 157.315 230.661 157.676C230.521 158.037 230.278 158.44 229.93 158.884C229.582 159.325 229.098 159.86 228.478 160.49L226.455 162.608V162.683H231.039V164H224.337ZM232.49 162.011V160.768L236.89 153.818H237.869V155.648H237.248L234.101 160.629V160.709H240.132V162.011H232.49ZM237.318 164V161.634L237.328 161.067V153.818H238.784V164H237.318Z" fill="#0D0E16"/>
<path d="M90.6719 195.493C90.6188 195.022 90.4001 194.658 90.0156 194.399C89.6312 194.137 89.1473 194.006 88.5639 194.006C88.1463 194.006 87.785 194.073 87.4801 194.205C87.1752 194.335 86.9382 194.513 86.7692 194.742C86.6035 194.968 86.5206 195.224 86.5206 195.513C86.5206 195.755 86.5769 195.964 86.6896 196.139C86.8056 196.315 86.9564 196.462 87.142 196.582C87.331 196.698 87.5331 196.795 87.7486 196.875C87.964 196.951 88.1712 197.014 88.37 197.064L89.3643 197.322C89.6892 197.402 90.0223 197.51 90.3636 197.646C90.705 197.781 91.0215 197.96 91.3132 198.183C91.6049 198.405 91.8402 198.68 92.0192 199.008C92.2015 199.336 92.2926 199.729 92.2926 200.186C92.2926 200.763 92.1435 201.275 91.8452 201.722C91.5502 202.17 91.121 202.523 90.5575 202.781C89.9974 203.04 89.3196 203.169 88.5241 203.169C87.7618 203.169 87.1023 203.048 86.5455 202.806C85.9886 202.564 85.5528 202.221 85.2379 201.777C84.9231 201.33 84.7491 200.799 84.7159 200.186H86.2571C86.2869 200.554 86.4063 200.861 86.6151 201.106C86.8272 201.348 87.0973 201.528 87.4254 201.648C87.7569 201.764 88.1198 201.822 88.5142 201.822C88.9484 201.822 89.3345 201.754 89.6726 201.618C90.014 201.479 90.2824 201.286 90.478 201.041C90.6735 200.793 90.7713 200.503 90.7713 200.171C90.7713 199.87 90.6851 199.623 90.5128 199.43C90.3438 199.238 90.1134 199.079 89.8217 198.953C89.5334 198.827 89.2069 198.716 88.8423 198.62L87.6392 198.292C86.8239 198.07 86.1776 197.743 85.7003 197.312C85.2263 196.882 84.9893 196.312 84.9893 195.602C84.9893 195.016 85.1484 194.504 85.4666 194.066C85.7848 193.629 86.2157 193.289 86.7592 193.047C87.3028 192.802 87.916 192.679 88.5987 192.679C89.2881 192.679 89.8963 192.8 90.4233 193.042C90.9536 193.284 91.3712 193.617 91.6761 194.041C91.9811 194.462 92.1402 194.946 92.1534 195.493H90.6719ZM97.3002 203.154C96.5479 203.154 95.8999 202.993 95.3564 202.672C94.8161 202.347 94.3985 201.891 94.1035 201.305C93.8118 200.715 93.666 200.024 93.666 199.232C93.666 198.449 93.8118 197.76 94.1035 197.163C94.3985 196.567 94.8095 196.101 95.3365 195.766C95.8668 195.432 96.4866 195.264 97.1958 195.264C97.6267 195.264 98.0443 195.335 98.4487 195.478C98.853 195.621 99.216 195.844 99.5375 196.149C99.859 196.454 100.113 196.85 100.298 197.337C100.484 197.821 100.577 198.41 100.577 199.102V199.629H94.5062V198.516H99.1199C99.1199 198.125 99.0403 197.778 98.8812 197.477C98.7221 197.172 98.4984 196.931 98.21 196.756C97.925 196.58 97.5903 196.492 97.2058 196.492C96.7882 196.492 96.4236 196.595 96.112 196.8C95.8038 197.003 95.5652 197.268 95.3961 197.596C95.2304 197.921 95.1475 198.274 95.1475 198.655V199.525C95.1475 200.035 95.237 200.469 95.416 200.827C95.5983 201.185 95.8519 201.459 96.1767 201.648C96.5015 201.833 96.881 201.926 97.3152 201.926C97.5969 201.926 97.8538 201.886 98.0858 201.807C98.3178 201.724 98.5183 201.601 98.6873 201.439C98.8564 201.277 98.9856 201.076 99.0751 200.837L100.482 201.091C100.369 201.505 100.167 201.868 99.8755 202.18C99.5872 202.488 99.2243 202.728 98.7868 202.901C98.3526 203.07 97.8571 203.154 97.3002 203.154ZM102.226 205.864V195.364H103.678V196.602H103.802C103.888 196.442 104.012 196.259 104.175 196.05C104.337 195.841 104.563 195.659 104.851 195.503C105.139 195.344 105.52 195.264 105.994 195.264C106.611 195.264 107.161 195.42 107.645 195.732C108.129 196.043 108.508 196.492 108.783 197.079C109.062 197.665 109.201 198.371 109.201 199.197C109.201 200.022 109.063 200.73 108.788 201.32C108.513 201.906 108.135 202.359 107.655 202.677C107.174 202.992 106.626 203.149 106.009 203.149C105.545 203.149 105.166 203.071 104.871 202.915C104.579 202.76 104.35 202.577 104.185 202.369C104.019 202.16 103.891 201.974 103.802 201.812H103.712V205.864H102.226ZM103.683 199.182C103.683 199.719 103.76 200.189 103.916 200.594C104.072 200.998 104.297 201.315 104.592 201.543C104.887 201.769 105.249 201.881 105.676 201.881C106.12 201.881 106.491 201.764 106.79 201.528C107.088 201.29 107.313 200.967 107.466 200.559C107.622 200.151 107.7 199.692 107.7 199.182C107.7 198.678 107.623 198.226 107.471 197.825C107.322 197.424 107.096 197.107 106.795 196.875C106.496 196.643 106.124 196.527 105.676 196.527C105.245 196.527 104.881 196.638 104.582 196.86C104.287 197.082 104.064 197.392 103.911 197.79C103.759 198.187 103.683 198.652 103.683 199.182ZM114.552 203V201.886L117.997 198.317C118.365 197.929 118.668 197.589 118.907 197.298C119.149 197.003 119.329 196.723 119.449 196.457C119.568 196.192 119.628 195.911 119.628 195.612C119.628 195.274 119.548 194.982 119.389 194.737C119.23 194.489 119.013 194.298 118.738 194.165C118.463 194.03 118.153 193.962 117.808 193.962C117.443 193.962 117.125 194.036 116.854 194.185C116.582 194.335 116.373 194.545 116.227 194.817C116.081 195.089 116.008 195.407 116.008 195.771H114.542C114.542 195.152 114.684 194.61 114.969 194.146C115.254 193.682 115.645 193.322 116.143 193.067C116.64 192.808 117.205 192.679 117.838 192.679C118.478 192.679 119.041 192.807 119.528 193.062C120.019 193.314 120.402 193.658 120.677 194.096C120.952 194.53 121.089 195.021 121.089 195.567C121.089 195.945 121.018 196.315 120.876 196.676C120.736 197.037 120.493 197.44 120.145 197.884C119.797 198.325 119.313 198.86 118.693 199.49L116.67 201.608V201.683H121.253V203H114.552ZM122.705 201.011V199.768L127.105 192.818H128.084V194.648H127.463L124.316 199.629V199.709H130.346V201.011H122.705ZM127.532 203V200.634L127.542 200.067V192.818H128.999V203H127.532Z" fill="#0D0E16"/>
<path d="M93.9631 236.909C93.9631 237.996 93.7642 238.931 93.3665 239.713C92.9688 240.492 92.4235 241.092 91.7308 241.513C91.0414 241.93 90.2576 242.139 89.3793 242.139C88.4976 242.139 87.7105 241.93 87.0178 241.513C86.3284 241.092 85.7848 240.49 85.3871 239.708C84.9893 238.926 84.7905 237.993 84.7905 236.909C84.7905 235.822 84.9893 234.889 85.3871 234.11C85.7848 233.328 86.3284 232.728 87.0178 232.31C87.7105 231.889 88.4976 231.679 89.3793 231.679C90.2576 231.679 91.0414 231.889 91.7308 232.31C92.4235 232.728 92.9688 233.328 93.3665 234.11C93.7642 234.889 93.9631 235.822 93.9631 236.909ZM92.4418 236.909C92.4418 236.08 92.3075 235.383 92.0391 234.816C91.7739 234.246 91.4093 233.815 90.9453 233.523C90.4846 233.228 89.9626 233.081 89.3793 233.081C88.7926 233.081 88.2689 233.228 87.8082 233.523C87.3475 233.815 86.983 234.246 86.7145 234.816C86.4493 235.383 86.3168 236.08 86.3168 236.909C86.3168 237.738 86.4493 238.437 86.7145 239.007C86.983 239.574 87.3475 240.005 87.8082 240.3C88.2689 240.591 88.7926 240.737 89.3793 240.737C89.9626 240.737 90.4846 240.591 90.9453 240.3C91.4093 240.005 91.7739 239.574 92.0391 239.007C92.3075 238.437 92.4418 237.738 92.4418 236.909ZM98.9757 242.154C98.2366 242.154 97.6002 241.987 97.0666 241.652C96.5363 241.314 96.1286 240.848 95.8436 240.255C95.5585 239.662 95.416 238.982 95.416 238.217C95.416 237.441 95.5618 236.757 95.8535 236.163C96.1452 235.567 96.5562 235.101 97.0865 234.766C97.6168 234.432 98.2415 234.264 98.9608 234.264C99.5408 234.264 100.058 234.372 100.512 234.587C100.966 234.799 101.332 235.098 101.611 235.482C101.892 235.867 102.06 236.316 102.113 236.83H100.666C100.586 236.472 100.404 236.163 100.119 235.905C99.8374 235.646 99.4596 235.517 98.9856 235.517C98.5713 235.517 98.2084 235.626 97.8968 235.845C97.5886 236.061 97.3483 236.369 97.176 236.77C97.0036 237.168 96.9174 237.638 96.9174 238.182C96.9174 238.739 97.002 239.219 97.171 239.624C97.34 240.028 97.5787 240.341 97.8869 240.563C98.1984 240.785 98.5647 240.896 98.9856 240.896C99.2673 240.896 99.5225 240.845 99.7512 240.742C99.9833 240.636 100.177 240.485 100.333 240.29C100.492 240.094 100.603 239.859 100.666 239.584H102.113C102.06 240.078 101.899 240.518 101.631 240.906C101.362 241.294 101.002 241.599 100.552 241.821C100.104 242.043 99.5789 242.154 98.9757 242.154ZM107.267 234.364V235.557H103.096V234.364H107.267ZM104.214 232.534H105.701V239.758C105.701 240.046 105.744 240.263 105.83 240.409C105.916 240.552 106.027 240.649 106.163 240.702C106.303 240.752 106.453 240.777 106.616 240.777C106.735 240.777 106.839 240.769 106.929 240.752C107.018 240.736 107.088 240.722 107.138 240.712L107.406 241.94C107.32 241.973 107.197 242.007 107.038 242.04C106.879 242.076 106.68 242.096 106.442 242.099C106.051 242.106 105.686 242.036 105.348 241.891C105.01 241.745 104.737 241.519 104.528 241.214C104.319 240.91 104.214 240.527 104.214 240.066V232.534ZM112.597 242V240.886L116.042 237.317C116.41 236.929 116.713 236.589 116.952 236.298C117.194 236.003 117.374 235.723 117.494 235.457C117.613 235.192 117.673 234.911 117.673 234.612C117.673 234.274 117.593 233.982 117.434 233.737C117.275 233.489 117.058 233.298 116.783 233.165C116.508 233.03 116.198 232.962 115.853 232.962C115.488 232.962 115.17 233.036 114.898 233.185C114.627 233.335 114.418 233.545 114.272 233.817C114.126 234.089 114.053 234.407 114.053 234.771H112.587C112.587 234.152 112.729 233.61 113.014 233.146C113.299 232.682 113.69 232.322 114.188 232.067C114.685 231.808 115.25 231.679 115.883 231.679C116.522 231.679 117.086 231.807 117.573 232.062C118.064 232.314 118.446 232.658 118.722 233.096C118.997 233.53 119.134 234.021 119.134 234.567C119.134 234.945 119.063 235.315 118.92 235.676C118.781 236.037 118.538 236.44 118.19 236.884C117.842 237.325 117.358 237.86 116.738 238.49L114.714 240.608V240.683H119.298V242H112.597ZM120.75 240.011V238.768L125.15 231.818H126.129V233.648H125.508L122.361 238.629V238.709H128.391V240.011H120.75ZM125.577 242V239.634L125.587 239.067V231.818H127.044V242H125.577Z" fill="#0D0E16"/>
<path d="M93.3366 270.818V281H91.9247L86.7493 273.533H86.6548V281H85.1186V270.818H86.5405L91.7209 278.295H91.8153V270.818H93.3366ZM98.6749 281.154C97.959 281.154 97.3342 280.99 96.8006 280.662C96.267 280.334 95.8527 279.875 95.5577 279.285C95.2627 278.695 95.1152 278.005 95.1152 277.217C95.1152 276.424 95.2627 275.732 95.5577 275.138C95.8527 274.545 96.267 274.085 96.8006 273.756C97.3342 273.428 97.959 273.264 98.6749 273.264C99.3908 273.264 100.016 273.428 100.549 273.756C101.083 274.085 101.497 274.545 101.792 275.138C102.087 275.732 102.235 276.424 102.235 277.217C102.235 278.005 102.087 278.695 101.792 279.285C101.497 279.875 101.083 280.334 100.549 280.662C100.016 280.99 99.3908 281.154 98.6749 281.154ZM98.6799 279.906C99.1439 279.906 99.5284 279.784 99.8333 279.538C100.138 279.293 100.364 278.967 100.509 278.559C100.659 278.151 100.733 277.702 100.733 277.212C100.733 276.724 100.659 276.277 100.509 275.869C100.364 275.458 100.138 275.129 99.8333 274.88C99.5284 274.631 99.1439 274.507 98.6799 274.507C98.2125 274.507 97.8248 274.631 97.5165 274.88C97.2116 275.129 96.9846 275.458 96.8354 275.869C96.6896 276.277 96.6167 276.724 96.6167 277.212C96.6167 277.702 96.6896 278.151 96.8354 278.559C96.9846 278.967 97.2116 279.293 97.5165 279.538C97.8248 279.784 98.2125 279.906 98.6799 279.906ZM110.167 273.364L107.398 281H105.807L103.032 273.364H104.628L106.562 279.24H106.642L108.571 273.364H110.167ZM115.249 281V279.886L118.694 276.317C119.062 275.929 119.365 275.589 119.604 275.298C119.846 275.003 120.027 274.723 120.146 274.457C120.265 274.192 120.325 273.911 120.325 273.612C120.325 273.274 120.245 272.982 120.086 272.737C119.927 272.489 119.71 272.298 119.435 272.165C119.16 272.03 118.85 271.962 118.505 271.962C118.141 271.962 117.823 272.036 117.551 272.185C117.279 272.335 117.07 272.545 116.924 272.817C116.779 273.089 116.706 273.407 116.706 273.771H115.239C115.239 273.152 115.382 272.61 115.667 272.146C115.952 271.682 116.343 271.322 116.84 271.067C117.337 270.808 117.902 270.679 118.535 270.679C119.175 270.679 119.738 270.807 120.225 271.062C120.716 271.314 121.099 271.658 121.374 272.096C121.649 272.53 121.787 273.021 121.787 273.567C121.787 273.945 121.715 274.315 121.573 274.676C121.434 275.037 121.19 275.44 120.842 275.884C120.494 276.325 120.01 276.86 119.39 277.49L117.367 279.608V279.683H121.951V281H115.249ZM123.402 279.011V277.768L127.802 270.818H128.782V272.648H128.16L125.013 277.629V277.709H131.044V279.011H123.402ZM128.23 281V278.634L128.24 278.067V270.818H129.696V281H128.23Z" fill="#0D0E16"/>
</g>
<g filter="url(#filter1_d_2504_10412)">
<rect x="121" y="197" width="362" height="360" rx="20" fill="white" shape-rendering="crispEdges"/>
<path d="M236.885 241V230.818H239.038V239.225H243.403V241H236.885ZM256.308 235.909C256.308 237.019 256.098 237.964 255.677 238.743C255.259 239.522 254.689 240.117 253.967 240.528C253.248 240.935 252.439 241.139 251.541 241.139C250.636 241.139 249.824 240.934 249.105 240.523C248.385 240.112 247.817 239.517 247.399 238.738C246.982 237.959 246.773 237.016 246.773 235.909C246.773 234.799 246.982 233.854 247.399 233.075C247.817 232.296 248.385 231.703 249.105 231.295C249.824 230.884 250.636 230.679 251.541 230.679C252.439 230.679 253.248 230.884 253.967 231.295C254.689 231.703 255.259 232.296 255.677 233.075C256.098 233.854 256.308 234.799 256.308 235.909ZM254.126 235.909C254.126 235.19 254.018 234.583 253.803 234.089C253.591 233.596 253.291 233.221 252.903 232.966C252.515 232.711 252.061 232.583 251.541 232.583C251.02 232.583 250.566 232.711 250.178 232.966C249.791 233.221 249.489 233.596 249.274 234.089C249.061 234.583 248.955 235.19 248.955 235.909C248.955 236.628 249.061 237.235 249.274 237.729C249.489 238.223 249.791 238.597 250.178 238.852C250.566 239.107 251.02 239.235 251.541 239.235C252.061 239.235 252.515 239.107 252.903 238.852C253.291 238.597 253.591 238.223 253.803 237.729C254.018 237.235 254.126 236.628 254.126 235.909ZM261.604 241H259.297L262.812 230.818H265.586L269.096 241H266.789L264.239 233.145H264.159L261.604 241ZM261.46 236.998H266.908V238.678H261.46V236.998ZM281.358 230.818V241H279.498L275.069 234.592H274.994V241H272.841V230.818H274.731L279.126 237.222H279.215V230.818H281.358ZM293.172 241H290.865L294.38 230.818H297.154L300.664 241H298.357L295.806 233.145H295.727L293.172 241ZM293.027 236.998H298.476V238.678H293.027V236.998ZM304.409 230.818H307.064L309.868 237.659H309.987L312.791 230.818H315.446V241H313.358V234.373H313.274L310.639 240.95H309.217L306.582 234.348H306.497V241H304.409V230.818ZM329.096 235.909C329.096 237.019 328.886 237.964 328.465 238.743C328.047 239.522 327.477 240.117 326.755 240.528C326.035 240.935 325.227 241.139 324.329 241.139C323.424 241.139 322.612 240.934 321.892 240.523C321.173 240.112 320.605 239.517 320.187 238.738C319.77 237.959 319.561 237.016 319.561 235.909C319.561 234.799 319.77 233.854 320.187 233.075C320.605 232.296 321.173 231.703 321.892 231.295C322.612 230.884 323.424 230.679 324.329 230.679C325.227 230.679 326.035 230.884 326.755 231.295C327.477 231.703 328.047 232.296 328.465 233.075C328.886 233.854 329.096 234.799 329.096 235.909ZM326.914 235.909C326.914 235.19 326.806 234.583 326.591 234.089C326.379 233.596 326.079 233.221 325.691 232.966C325.303 232.711 324.849 232.583 324.329 232.583C323.808 232.583 323.354 232.711 322.966 232.966C322.579 233.221 322.277 233.596 322.062 234.089C321.849 234.583 321.743 235.19 321.743 235.909C321.743 236.628 321.849 237.235 322.062 237.729C322.277 238.223 322.579 238.597 322.966 238.852C323.354 239.107 323.808 239.235 324.329 239.235C324.849 239.235 325.303 239.107 325.691 238.852C326.079 238.597 326.379 238.223 326.591 237.729C326.806 237.235 326.914 236.628 326.914 235.909ZM339.5 230.818H341.653V237.43C341.653 238.173 341.475 238.822 341.121 239.379C340.769 239.936 340.277 240.37 339.644 240.682C339.011 240.99 338.274 241.144 337.432 241.144C336.587 241.144 335.848 240.99 335.215 240.682C334.581 240.37 334.089 239.936 333.738 239.379C333.387 238.822 333.211 238.173 333.211 237.43V230.818H335.364V237.246C335.364 237.634 335.448 237.979 335.617 238.281C335.79 238.582 336.032 238.819 336.343 238.991C336.655 239.164 337.018 239.25 337.432 239.25C337.849 239.25 338.212 239.164 338.521 238.991C338.832 238.819 339.072 238.582 339.242 238.281C339.414 237.979 339.5 237.634 339.5 237.246V230.818ZM354.46 230.818V241H352.601L348.171 234.592H348.097V241H345.944V230.818H347.833L352.228 237.222H352.317V230.818H354.46ZM358.371 232.593V230.818H366.733V232.593H363.616V241H361.488V232.593H358.371Z" fill="#A8B0D1"/>
<path d="M224.767 271.108L223.872 274.266H207.112L208.007 271.108H224.767ZM216.611 291L207.457 279.891L207.432 277.398H211.97C213.104 277.398 214.063 277.223 214.847 276.874C215.631 276.524 216.227 276.017 216.636 275.352C217.045 274.679 217.25 273.861 217.25 272.898C217.25 271.466 216.824 270.328 215.972 269.484C215.119 268.641 213.786 268.219 211.97 268.219H207.112L208.045 264.818H211.97C214.084 264.818 215.827 265.155 217.199 265.828C218.571 266.501 219.594 267.435 220.267 268.628C220.94 269.821 221.277 271.197 221.277 272.757C221.277 274.146 221 275.403 220.446 276.528C219.892 277.653 219.01 278.57 217.8 279.277C216.589 279.984 215 280.398 213.031 280.517L212.916 280.543L221.277 290.783V291H216.611ZM224.78 264.818L223.872 268.001L210.474 267.925L211.382 264.818H224.78ZM227.627 291V288.136L236.486 278.957C237.432 277.96 238.212 277.087 238.825 276.337C239.448 275.578 239.912 274.858 240.219 274.176C240.526 273.494 240.679 272.77 240.679 272.003C240.679 271.134 240.475 270.384 240.066 269.753C239.656 269.114 239.098 268.624 238.391 268.283C237.683 267.933 236.887 267.759 236 267.759C235.063 267.759 234.244 267.95 233.546 268.334C232.847 268.717 232.31 269.259 231.935 269.957C231.56 270.656 231.372 271.474 231.372 272.412H227.601C227.601 270.818 227.968 269.425 228.7 268.232C229.433 267.038 230.439 266.114 231.718 265.457C232.996 264.793 234.449 264.46 236.077 264.46C237.722 264.46 239.171 264.788 240.423 265.445C241.685 266.092 242.669 266.979 243.377 268.104C244.084 269.22 244.438 270.482 244.438 271.888C244.438 272.859 244.254 273.81 243.888 274.739C243.53 275.668 242.904 276.703 242.009 277.845C241.114 278.979 239.869 280.355 238.276 281.974L233.073 287.42V287.612H244.86V291H227.627ZM258.1 291.435C256.08 291.426 254.354 290.893 252.922 289.837C251.49 288.78 250.395 287.241 249.637 285.222C248.878 283.202 248.499 280.768 248.499 277.922C248.499 275.084 248.878 272.659 249.637 270.648C250.404 268.636 251.503 267.102 252.935 266.045C254.375 264.989 256.097 264.46 258.1 264.46C260.103 264.46 261.82 264.993 263.252 266.058C264.684 267.115 265.779 268.649 266.537 270.661C267.304 272.663 267.688 275.084 267.688 277.922C267.688 280.777 267.309 283.214 266.55 285.234C265.792 287.246 264.696 288.784 263.265 289.849C261.833 290.906 260.111 291.435 258.1 291.435ZM258.1 288.021C259.873 288.021 261.257 287.156 262.255 285.426C263.26 283.696 263.763 281.195 263.763 277.922C263.763 275.749 263.533 273.912 263.073 272.412C262.621 270.903 261.969 269.761 261.117 268.986C260.273 268.202 259.267 267.81 258.1 267.81C256.336 267.81 254.951 268.679 253.945 270.418C252.939 272.156 252.432 274.658 252.424 277.922C252.424 280.104 252.649 281.949 253.101 283.457C253.561 284.957 254.213 286.095 255.057 286.871C255.901 287.638 256.915 288.021 258.1 288.021ZM275.578 287.42L275.386 288.814C275.258 289.837 275.041 290.902 274.734 292.01C274.436 293.126 274.125 294.162 273.801 295.116C273.486 296.071 273.226 296.83 273.021 297.392H270.311C270.422 296.864 270.575 296.148 270.771 295.244C270.967 294.349 271.159 293.348 271.346 292.24C271.534 291.132 271.675 290.003 271.768 288.852L271.896 287.42H275.578ZM288.371 291.435C286.351 291.426 284.625 290.893 283.193 289.837C281.761 288.78 280.666 287.241 279.908 285.222C279.149 283.202 278.77 280.768 278.77 277.922C278.77 275.084 279.149 272.659 279.908 270.648C280.675 268.636 281.774 267.102 283.206 266.045C284.646 264.989 286.368 264.46 288.371 264.46C290.374 264.46 292.091 264.993 293.523 266.058C294.955 267.115 296.05 268.649 296.808 270.661C297.575 272.663 297.959 275.084 297.959 277.922C297.959 280.777 297.58 283.214 296.821 285.234C296.062 287.246 294.967 288.784 293.535 289.849C292.104 290.906 290.382 291.435 288.371 291.435ZM288.371 288.021C290.143 288.021 291.528 287.156 292.526 285.426C293.531 283.696 294.034 281.195 294.034 277.922C294.034 275.749 293.804 273.912 293.344 272.412C292.892 270.903 292.24 269.761 291.388 268.986C290.544 268.202 289.538 267.81 288.371 267.81C286.607 267.81 285.222 268.679 284.216 270.418C283.21 272.156 282.703 274.658 282.695 277.922C282.695 280.104 282.92 281.949 283.372 283.457C283.832 284.957 284.484 286.095 285.328 286.871C286.172 287.638 287.186 288.021 288.371 288.021ZM310.889 291.435C308.869 291.426 307.143 290.893 305.711 289.837C304.28 288.78 303.184 287.241 302.426 285.222C301.667 283.202 301.288 280.768 301.288 277.922C301.288 275.084 301.667 272.659 302.426 270.648C303.193 268.636 304.292 267.102 305.724 266.045C307.165 264.989 308.886 264.46 310.889 264.46C312.892 264.46 314.609 264.993 316.041 266.058C317.473 267.115 318.568 268.649 319.326 270.661C320.094 272.663 320.477 275.084 320.477 277.922C320.477 280.777 320.098 283.214 319.339 285.234C318.581 287.246 317.486 288.784 316.054 289.849C314.622 290.906 312.9 291.435 310.889 291.435ZM310.889 288.021C312.662 288.021 314.047 287.156 315.044 285.426C316.05 283.696 316.552 281.195 316.552 277.922C316.552 275.749 316.322 273.912 315.862 272.412C315.41 270.903 314.758 269.761 313.906 268.986C313.062 268.202 312.057 267.81 310.889 267.81C309.125 267.81 307.74 268.679 306.734 270.418C305.728 272.156 305.221 274.658 305.213 277.922C305.213 280.104 305.439 281.949 305.89 283.457C306.351 284.957 307.003 286.095 307.846 286.871C308.69 287.638 309.704 288.021 310.889 288.021ZM328.367 287.42L328.175 288.814C328.048 289.837 327.83 290.902 327.523 292.01C327.225 293.126 326.914 294.162 326.59 295.116C326.275 296.071 326.015 296.83 325.81 297.392H323.1C323.211 296.864 323.364 296.148 323.56 295.244C323.756 294.349 323.948 293.348 324.136 292.24C324.323 291.132 324.464 290.003 324.557 288.852L324.685 287.42H328.367ZM341.16 291.435C339.14 291.426 337.414 290.893 335.982 289.837C334.551 288.78 333.455 287.241 332.697 285.222C331.938 283.202 331.559 280.768 331.559 277.922C331.559 275.084 331.938 272.659 332.697 270.648C333.464 268.636 334.563 267.102 335.995 266.045C337.435 264.989 339.157 264.46 341.16 264.46C343.163 264.46 344.88 264.993 346.312 266.058C347.744 267.115 348.839 268.649 349.597 270.661C350.364 272.663 350.748 275.084 350.748 277.922C350.748 280.777 350.369 283.214 349.61 285.234C348.852 287.246 347.757 288.784 346.325 289.849C344.893 290.906 343.171 291.435 341.16 291.435ZM341.16 288.021C342.933 288.021 344.318 287.156 345.315 285.426C346.32 283.696 346.823 281.195 346.823 277.922C346.823 275.749 346.593 273.912 346.133 272.412C345.681 270.903 345.029 269.761 344.177 268.986C343.333 268.202 342.328 267.81 341.16 267.81C339.396 267.81 338.011 268.679 337.005 270.418C335.999 272.156 335.492 274.658 335.484 277.922C335.484 280.104 335.71 281.949 336.161 283.457C336.622 284.957 337.274 286.095 338.117 286.871C338.961 287.638 339.975 288.021 341.16 288.021ZM363.678 291.435C361.658 291.426 359.932 290.893 358.501 289.837C357.069 288.78 355.974 287.241 355.215 285.222C354.457 283.202 354.077 280.768 354.077 277.922C354.077 275.084 354.457 272.659 355.215 270.648C355.982 268.636 357.082 267.102 358.513 266.045C359.954 264.989 361.675 264.46 363.678 264.46C365.681 264.46 367.398 264.993 368.83 266.058C370.262 267.115 371.357 268.649 372.116 270.661C372.883 272.663 373.266 275.084 373.266 277.922C373.266 280.777 372.887 283.214 372.129 285.234C371.37 287.246 370.275 288.784 368.843 289.849C367.411 290.906 365.69 291.435 363.678 291.435ZM363.678 288.021C365.451 288.021 366.836 287.156 367.833 285.426C368.839 283.696 369.342 281.195 369.342 277.922C369.342 275.749 369.111 273.912 368.651 272.412C368.2 270.903 367.548 269.761 366.695 268.986C365.852 268.202 364.846 267.81 363.678 267.81C361.914 267.81 360.529 268.679 359.523 270.418C358.518 272.156 358.011 274.658 358.002 277.922C358.002 280.104 358.228 281.949 358.68 283.457C359.14 284.957 359.792 286.095 360.636 286.871C361.479 287.638 362.494 288.021 363.678 288.021ZM386.196 291.435C384.177 291.426 382.451 290.893 381.019 289.837C379.587 288.78 378.492 287.241 377.733 285.222C376.975 283.202 376.596 280.768 376.596 277.922C376.596 275.084 376.975 272.659 377.733 270.648C378.5 268.636 379.6 267.102 381.032 266.045C382.472 264.989 384.194 264.46 386.196 264.46C388.199 264.46 389.917 264.993 391.348 266.058C392.78 267.115 393.875 268.649 394.634 270.661C395.401 272.663 395.785 275.084 395.785 277.922C395.785 280.777 395.405 283.214 394.647 285.234C393.888 287.246 392.793 288.784 391.361 289.849C389.929 290.906 388.208 291.435 386.196 291.435ZM386.196 288.021C387.969 288.021 389.354 287.156 390.351 285.426C391.357 283.696 391.86 281.195 391.86 277.922C391.86 275.749 391.63 273.912 391.17 272.412C390.718 270.903 390.066 269.761 389.214 268.986C388.37 268.202 387.364 267.81 386.196 267.81C384.432 267.81 383.047 268.679 382.042 270.418C381.036 272.156 380.529 274.658 380.52 277.922C380.52 280.104 380.746 281.949 381.198 283.457C381.658 284.957 382.31 286.095 383.154 286.871C383.998 287.638 385.012 288.021 386.196 288.021Z" fill="#455084"/>
<g clip-path="url(#clip1_2504_10412)">
<path d="M143 340.5L591.999 341.227" stroke="#EAEBF4" stroke-width="6"/>
<path d="M143 340.5H257" stroke="#005DFF" stroke-width="6"/>
<circle cx="251.5" cy="340.5" r="10.5" fill="#005DFF"/>
</g>
<path d="M151.616 398.141V396.818H159.496V398.141H156.32V407H154.788V398.141H151.616ZM162.638 407V396.818H169.021V398.141H164.174V401.243H168.688V402.56H164.174V405.678H169.081V407H162.638ZM180.691 396.818V407H179.279L174.104 399.533H174.01V407H172.473V396.818H173.895L179.076 404.295H179.17V396.818H180.691ZM190.88 396.818H192.421V403.515C192.421 404.228 192.254 404.859 191.919 405.409C191.584 405.956 191.114 406.387 190.507 406.702C189.9 407.013 189.19 407.169 188.374 407.169C187.562 407.169 186.853 407.013 186.246 406.702C185.64 406.387 185.169 405.956 184.834 405.409C184.5 404.859 184.332 404.228 184.332 403.515V396.818H185.869V403.391C185.869 403.851 185.97 404.261 186.172 404.619C186.377 404.977 186.667 405.258 187.042 405.464C187.416 405.666 187.86 405.767 188.374 405.767C188.891 405.767 189.337 405.666 189.712 405.464C190.089 405.258 190.378 404.977 190.577 404.619C190.779 404.261 190.88 403.851 190.88 403.391V396.818ZM196.055 407V396.818H199.684C200.473 396.818 201.127 396.954 201.648 397.226C202.171 397.498 202.562 397.874 202.821 398.354C203.079 398.832 203.209 399.384 203.209 400.01C203.209 400.633 203.078 401.182 202.816 401.656C202.557 402.126 202.166 402.492 201.643 402.754C201.122 403.016 200.468 403.147 199.679 403.147H196.93V401.825H199.54C200.037 401.825 200.441 401.753 200.753 401.611C201.068 401.468 201.298 401.261 201.444 400.989C201.59 400.718 201.662 400.391 201.662 400.01C201.662 399.625 201.588 399.292 201.439 399.011C201.293 398.729 201.063 398.513 200.748 398.364C200.436 398.212 200.027 398.136 199.52 398.136H197.591V407H196.055ZM201.081 402.406L203.596 407H201.846L199.381 402.406H201.081ZM206.478 407V396.818H212.862V398.141H208.014V401.243H212.528V402.56H208.014V405.678H212.921V407H206.478Z" fill="#7986B7"/>
<path d="M157.006 429.364V441H154.545V431.699H154.477L151.812 433.369V431.188L154.693 429.364H157.006ZM159.451 441V439.227L163.593 435.392C163.946 435.051 164.241 434.744 164.48 434.472C164.722 434.199 164.906 433.932 165.031 433.67C165.156 433.405 165.218 433.119 165.218 432.812C165.218 432.472 165.141 432.178 164.985 431.932C164.83 431.682 164.618 431.491 164.349 431.358C164.08 431.222 163.775 431.153 163.434 431.153C163.078 431.153 162.768 431.225 162.502 431.369C162.237 431.513 162.033 431.72 161.889 431.989C161.745 432.258 161.673 432.578 161.673 432.949H159.338C159.338 432.187 159.51 431.527 159.855 430.966C160.199 430.405 160.682 429.972 161.304 429.665C161.925 429.358 162.641 429.205 163.451 429.205C164.285 429.205 165.01 429.352 165.627 429.648C166.249 429.939 166.732 430.345 167.076 430.864C167.421 431.383 167.593 431.977 167.593 432.648C167.593 433.087 167.506 433.521 167.332 433.949C167.162 434.377 166.857 434.852 166.417 435.375C165.978 435.894 165.359 436.517 164.559 437.244L162.86 438.909V438.989H167.747V441H159.451ZM172.661 429.364H175.695L178.899 437.182H179.036L182.24 429.364H185.274V441H182.888V433.426H182.791L179.78 440.943H178.155L175.144 433.398H175.047V441H172.661V429.364ZM190.879 441.17C189.997 441.17 189.233 440.983 188.589 440.608C187.949 440.229 187.455 439.703 187.106 439.028C186.758 438.35 186.584 437.564 186.584 436.67C186.584 435.769 186.758 434.981 187.106 434.307C187.455 433.629 187.949 433.102 188.589 432.727C189.233 432.348 189.997 432.159 190.879 432.159C191.762 432.159 192.523 432.348 193.163 432.727C193.807 433.102 194.303 433.629 194.652 434.307C195 434.981 195.175 435.769 195.175 436.67C195.175 437.564 195 438.35 194.652 439.028C194.303 439.703 193.807 440.229 193.163 440.608C192.523 440.983 191.762 441.17 190.879 441.17ZM190.89 439.295C191.292 439.295 191.627 439.182 191.896 438.955C192.165 438.723 192.368 438.409 192.504 438.011C192.644 437.614 192.714 437.161 192.714 436.653C192.714 436.146 192.644 435.693 192.504 435.295C192.368 434.898 192.165 434.583 191.896 434.352C191.627 434.121 191.292 434.006 190.89 434.006C190.485 434.006 190.144 434.121 189.868 434.352C189.595 434.583 189.389 434.898 189.248 435.295C189.112 435.693 189.044 436.146 189.044 436.653C189.044 437.161 189.112 437.614 189.248 438.011C189.389 438.409 189.595 438.723 189.868 438.955C190.144 439.182 190.485 439.295 190.89 439.295ZM198.849 435.955V441H196.428V432.273H198.735V433.812H198.838C199.031 433.305 199.355 432.903 199.809 432.608C200.264 432.309 200.815 432.159 201.463 432.159C202.069 432.159 202.597 432.292 203.048 432.557C203.498 432.822 203.849 433.201 204.099 433.693C204.349 434.182 204.474 434.765 204.474 435.443V441H202.053V435.875C202.057 435.341 201.921 434.924 201.644 434.625C201.368 434.322 200.987 434.17 200.502 434.17C200.177 434.17 199.889 434.241 199.639 434.381C199.392 434.521 199.199 434.725 199.059 434.994C198.923 435.259 198.853 435.58 198.849 435.955ZM210.704 432.273V434.091H205.448V432.273H210.704ZM206.641 430.182H209.062V438.318C209.062 438.542 209.096 438.716 209.164 438.841C209.232 438.962 209.327 439.047 209.448 439.097C209.573 439.146 209.717 439.17 209.88 439.17C209.993 439.17 210.107 439.161 210.221 439.142C210.334 439.119 210.421 439.102 210.482 439.091L210.863 440.892C210.741 440.93 210.571 440.973 210.351 441.023C210.132 441.076 209.865 441.108 209.55 441.119C208.967 441.142 208.455 441.064 208.016 440.886C207.58 440.708 207.241 440.432 206.999 440.057C206.757 439.682 206.637 439.208 206.641 438.636V430.182ZM214.568 435.955V441H212.148V429.364H214.5V433.812H214.602C214.799 433.297 215.117 432.894 215.557 432.602C215.996 432.307 216.547 432.159 217.21 432.159C217.816 432.159 218.345 432.292 218.796 432.557C219.25 432.818 219.602 433.195 219.852 433.688C220.106 434.176 220.231 434.761 220.227 435.443V441H217.807V435.875C217.811 435.337 217.674 434.919 217.398 434.619C217.125 434.32 216.742 434.17 216.25 434.17C215.921 434.17 215.629 434.241 215.375 434.381C215.125 434.521 214.928 434.725 214.784 434.994C214.644 435.259 214.572 435.58 214.568 435.955ZM229.074 434.761L226.858 434.898C226.82 434.708 226.738 434.538 226.613 434.386C226.488 434.231 226.324 434.108 226.119 434.017C225.918 433.922 225.678 433.875 225.397 433.875C225.022 433.875 224.706 433.955 224.449 434.114C224.191 434.269 224.062 434.477 224.062 434.739C224.062 434.947 224.145 435.123 224.312 435.267C224.479 435.411 224.765 435.527 225.17 435.614L226.75 435.932C227.598 436.106 228.231 436.386 228.647 436.773C229.064 437.159 229.272 437.667 229.272 438.295C229.272 438.867 229.104 439.369 228.767 439.801C228.433 440.233 227.975 440.57 227.392 440.812C226.812 441.051 226.144 441.17 225.386 441.17C224.231 441.17 223.31 440.93 222.625 440.449C221.943 439.964 221.543 439.305 221.426 438.472L223.806 438.347C223.878 438.699 224.053 438.968 224.329 439.153C224.606 439.335 224.96 439.426 225.392 439.426C225.816 439.426 226.157 439.345 226.414 439.182C226.676 439.015 226.808 438.801 226.812 438.54C226.808 438.32 226.716 438.14 226.534 438C226.352 437.856 226.072 437.746 225.693 437.67L224.181 437.369C223.329 437.199 222.695 436.903 222.278 436.483C221.865 436.062 221.659 435.527 221.659 434.875C221.659 434.314 221.81 433.831 222.113 433.426C222.42 433.021 222.85 432.708 223.403 432.489C223.96 432.269 224.611 432.159 225.358 432.159C226.46 432.159 227.327 432.392 227.96 432.858C228.596 433.324 228.967 433.958 229.074 434.761Z" fill="#2D314D"/>
<path d="M259.119 407V396.818H262.748C263.537 396.818 264.191 396.954 264.712 397.226C265.235 397.498 265.626 397.874 265.885 398.354C266.143 398.832 266.273 399.384 266.273 400.01C266.273 400.633 266.142 401.182 265.88 401.656C265.621 402.126 265.23 402.492 264.707 402.754C264.186 403.016 263.532 403.147 262.743 403.147H259.994V401.825H262.604C263.101 401.825 263.505 401.753 263.817 401.611C264.132 401.468 264.362 401.261 264.508 400.989C264.654 400.718 264.727 400.391 264.727 400.01C264.727 399.625 264.652 399.292 264.503 399.011C264.357 398.729 264.127 398.513 263.812 398.364C263.5 398.212 263.091 398.136 262.584 398.136H260.655V407H259.119ZM264.145 402.406L266.661 407H264.911L262.445 402.406H264.145ZM270.402 407H268.771L272.436 396.818H274.21L277.874 407H276.244L273.365 398.668H273.286L270.402 407ZM270.676 403.013H275.965V404.305H270.676V403.013ZM279.04 398.141V396.818H286.919V398.141H283.743V407H282.211V398.141H279.04ZM290.061 407V396.818H296.444V398.141H291.597V401.243H296.111V402.56H291.597V405.678H296.504V407H290.061Z" fill="#7986B7"/>
<path d="M264.006 429.364V441H261.545V431.699H261.477L258.812 433.369V431.188L261.693 429.364H264.006ZM266.451 441V439.227L270.593 435.392C270.946 435.051 271.241 434.744 271.48 434.472C271.722 434.199 271.906 433.932 272.031 433.67C272.156 433.405 272.218 433.119 272.218 432.812C272.218 432.472 272.141 432.178 271.985 431.932C271.83 431.682 271.618 431.491 271.349 431.358C271.08 431.222 270.775 431.153 270.434 431.153C270.078 431.153 269.768 431.225 269.502 431.369C269.237 431.513 269.033 431.72 268.889 431.989C268.745 432.258 268.673 432.578 268.673 432.949H266.338C266.338 432.187 266.51 431.527 266.855 430.966C267.199 430.405 267.682 429.972 268.304 429.665C268.925 429.358 269.641 429.205 270.451 429.205C271.285 429.205 272.01 429.352 272.627 429.648C273.249 429.939 273.732 430.345 274.076 430.864C274.421 431.383 274.593 431.977 274.593 432.648C274.593 433.087 274.506 433.521 274.332 433.949C274.162 434.377 273.857 434.852 273.417 435.375C272.978 435.894 272.359 436.517 271.559 437.244L269.86 438.909V438.989H274.747V441H266.451ZM282.579 438.818V438.205C282.579 437.739 282.677 437.311 282.874 436.92C283.075 436.527 283.365 436.212 283.744 435.977C284.126 435.739 284.592 435.619 285.141 435.619C285.698 435.619 286.166 435.737 286.545 435.972C286.927 436.206 287.215 436.521 287.408 436.915C287.605 437.305 287.704 437.735 287.704 438.205V438.818C287.704 439.284 287.605 439.714 287.408 440.108C287.211 440.498 286.922 440.811 286.539 441.045C286.156 441.284 285.69 441.403 285.141 441.403C284.584 441.403 284.117 441.284 283.738 441.045C283.359 440.811 283.071 440.498 282.874 440.108C282.677 439.714 282.579 439.284 282.579 438.818ZM284.232 438.205V438.818C284.232 439.087 284.297 439.341 284.425 439.58C284.558 439.818 284.797 439.938 285.141 439.938C285.486 439.938 285.721 439.82 285.846 439.585C285.975 439.35 286.039 439.095 286.039 438.818V438.205C286.039 437.928 285.978 437.67 285.857 437.432C285.736 437.193 285.497 437.074 285.141 437.074C284.8 437.074 284.564 437.193 284.431 437.432C284.298 437.67 284.232 437.928 284.232 438.205ZM276.607 432.159V431.545C276.607 431.076 276.708 430.646 276.908 430.256C277.109 429.862 277.399 429.547 277.778 429.312C278.16 429.078 278.622 428.96 279.164 428.96C279.725 428.96 280.194 429.078 280.573 429.312C280.952 429.547 281.24 429.862 281.437 430.256C281.634 430.646 281.732 431.076 281.732 431.545V432.159C281.732 432.629 281.632 433.059 281.431 433.449C281.234 433.839 280.944 434.152 280.562 434.386C280.183 434.617 279.717 434.733 279.164 434.733C278.611 434.733 278.143 434.616 277.761 434.381C277.382 434.142 277.094 433.83 276.897 433.443C276.704 433.053 276.607 432.625 276.607 432.159ZM278.272 431.545V432.159C278.272 432.436 278.336 432.691 278.465 432.926C278.598 433.161 278.831 433.278 279.164 433.278C279.512 433.278 279.749 433.161 279.874 432.926C280.003 432.691 280.067 432.436 280.067 432.159V431.545C280.067 431.269 280.007 431.011 279.886 430.773C279.764 430.534 279.524 430.415 279.164 430.415C278.827 430.415 278.594 430.536 278.465 430.778C278.336 431.021 278.272 431.277 278.272 431.545ZM277.357 441L285.357 429.364H286.846L278.846 441H277.357Z" fill="#2D314D"/>
<path d="M326.616 398.141V396.818H334.496V398.141H331.32V407H329.788V398.141H326.616ZM346.045 401.909C346.045 402.996 345.846 403.931 345.448 404.713C345.05 405.492 344.505 406.092 343.812 406.513C343.123 406.93 342.339 407.139 341.461 407.139C340.579 407.139 339.792 406.93 339.099 406.513C338.41 406.092 337.866 405.49 337.469 404.708C337.071 403.926 336.872 402.993 336.872 401.909C336.872 400.822 337.071 399.889 337.469 399.11C337.866 398.328 338.41 397.728 339.099 397.31C339.792 396.889 340.579 396.679 341.461 396.679C342.339 396.679 343.123 396.889 343.812 397.31C344.505 397.728 345.05 398.328 345.448 399.11C345.846 399.889 346.045 400.822 346.045 401.909ZM344.523 401.909C344.523 401.08 344.389 400.383 344.121 399.816C343.856 399.246 343.491 398.815 343.027 398.523C342.566 398.228 342.044 398.081 341.461 398.081C340.874 398.081 340.351 398.228 339.89 398.523C339.429 398.815 339.065 399.246 338.796 399.816C338.531 400.383 338.398 401.08 338.398 401.909C338.398 402.738 338.531 403.437 338.796 404.007C339.065 404.574 339.429 405.005 339.89 405.3C340.351 405.591 340.874 405.737 341.461 405.737C342.044 405.737 342.566 405.591 343.027 405.3C343.491 405.005 343.856 404.574 344.121 404.007C344.389 403.437 344.523 402.738 344.523 401.909ZM348.42 398.141V396.818H356.3V398.141H353.124V407H351.592V398.141H348.42ZM359.099 407H357.468L361.132 396.818H362.907L366.571 407H364.94L362.062 398.668H361.982L359.099 407ZM359.372 403.013H364.662V404.305H359.372V403.013ZM369.441 407V396.818H370.977V405.678H375.591V407H369.441ZM384.709 407H383.078L386.742 396.818H388.517L392.181 407H390.55L387.672 398.668H387.592L384.709 407ZM384.982 403.013H390.272V404.305H384.982V403.013ZM395.051 396.818H396.916L400.157 404.733H400.277L403.518 396.818H405.382V407H403.921V399.632H403.826L400.823 406.985H399.61L396.608 399.627H396.513V407H395.051V396.818ZM417.86 401.909C417.86 402.996 417.661 403.931 417.264 404.713C416.866 405.492 416.321 406.092 415.628 406.513C414.939 406.93 414.155 407.139 413.277 407.139C412.395 407.139 411.608 406.93 410.915 406.513C410.226 406.092 409.682 405.49 409.284 404.708C408.887 403.926 408.688 402.993 408.688 401.909C408.688 400.822 408.887 399.889 409.284 399.11C409.682 398.328 410.226 397.728 410.915 397.31C411.608 396.889 412.395 396.679 413.277 396.679C414.155 396.679 414.939 396.889 415.628 397.31C416.321 397.728 416.866 398.328 417.264 399.11C417.661 399.889 417.86 400.822 417.86 401.909ZM416.339 401.909C416.339 401.08 416.205 400.383 415.936 399.816C415.671 399.246 415.307 398.815 414.843 398.523C414.382 398.228 413.86 398.081 413.277 398.081C412.69 398.081 412.166 398.228 411.706 398.523C411.245 398.815 410.88 399.246 410.612 399.816C410.347 400.383 410.214 401.08 410.214 401.909C410.214 402.738 410.347 403.437 410.612 404.007C410.88 404.574 411.245 405.005 411.706 405.3C412.166 405.591 412.69 405.737 413.277 405.737C413.86 405.737 414.382 405.591 414.843 405.3C415.307 405.005 415.671 404.574 415.936 404.007C416.205 403.437 416.339 402.738 416.339 401.909ZM427.723 396.818H429.264V403.515C429.264 404.228 429.097 404.859 428.762 405.409C428.428 405.956 427.957 406.387 427.35 406.702C426.744 407.013 426.033 407.169 425.218 407.169C424.406 407.169 423.696 407.013 423.09 406.702C422.483 406.387 422.013 405.956 421.678 405.409C421.343 404.859 421.176 404.228 421.176 403.515V396.818H422.712V403.391C422.712 403.851 422.813 404.261 423.015 404.619C423.221 404.977 423.511 405.258 423.885 405.464C424.26 405.666 424.704 405.767 425.218 405.767C425.735 405.767 426.18 405.666 426.555 405.464C426.933 405.258 427.221 404.977 427.42 404.619C427.622 404.261 427.723 403.851 427.723 403.391V396.818ZM441.116 396.818V407H439.704L434.529 399.533H434.434V407H432.898V396.818H434.32L439.5 404.295H439.595V396.818H441.116ZM444.255 398.141V396.818H452.135V398.141H448.958V407H447.427V398.141H444.255Z" fill="#7986B7"/>
<path d="M334.614 432.25L334.199 433.83H326.58L326.989 432.25H334.614ZM330.653 441L326.767 436.375L326.773 434.955H328.693C329.121 434.955 329.479 434.875 329.767 434.716C330.055 434.557 330.271 434.341 330.415 434.068C330.559 433.795 330.633 433.485 330.636 433.136C330.633 432.614 330.479 432.187 330.176 431.858C329.877 431.525 329.383 431.358 328.693 431.358H326.58L327.045 429.364H328.693C329.659 429.364 330.464 429.509 331.108 429.801C331.756 430.089 332.241 430.5 332.562 431.034C332.888 431.568 333.053 432.205 333.057 432.943C333.053 433.598 332.943 434.17 332.727 434.659C332.515 435.148 332.18 435.555 331.722 435.881C331.267 436.206 330.674 436.449 329.943 436.608L329.852 436.642L333.33 440.898V441H330.653ZM334.625 429.364L334.199 430.966H327.926L328.352 429.364H334.625ZM340.873 429.364V441H338.413V431.699H338.345L335.68 433.369V431.188L338.561 429.364H340.873ZM345.347 439.409L345.285 440.034C345.235 440.534 345.141 441.032 345.001 441.528C344.864 442.028 344.72 442.481 344.569 442.886C344.421 443.292 344.302 443.61 344.211 443.841H342.643C342.699 443.617 342.777 443.305 342.876 442.903C342.974 442.506 343.067 442.059 343.154 441.562C343.241 441.066 343.296 440.561 343.319 440.045L343.347 439.409H345.347ZM347.218 441V439.227L351.36 435.392C351.712 435.051 352.007 434.744 352.246 434.472C352.488 434.199 352.672 433.932 352.797 433.67C352.922 433.405 352.985 433.119 352.985 432.812C352.985 432.472 352.907 432.178 352.752 431.932C352.596 431.682 352.384 431.491 352.115 431.358C351.846 431.222 351.541 431.153 351.201 431.153C350.844 431.153 350.534 431.225 350.269 431.369C350.004 431.513 349.799 431.72 349.655 431.989C349.511 432.258 349.439 432.578 349.439 432.949H347.104C347.104 432.187 347.276 431.527 347.621 430.966C347.966 430.405 348.449 429.972 349.07 429.665C349.691 429.358 350.407 429.205 351.218 429.205C352.051 429.205 352.776 429.352 353.394 429.648C354.015 429.939 354.498 430.345 354.843 430.864C355.187 431.383 355.36 431.977 355.36 432.648C355.36 433.087 355.272 433.521 355.098 433.949C354.928 434.377 354.623 434.852 354.183 435.375C353.744 435.894 353.125 436.517 352.326 437.244L350.627 438.909V438.989H355.513V441H347.218ZM361.538 441.256C360.561 441.252 359.72 441.011 359.015 440.534C358.315 440.057 357.775 439.366 357.396 438.46C357.021 437.555 356.836 436.466 356.839 435.193C356.839 433.924 357.027 432.843 357.402 431.949C357.781 431.055 358.32 430.375 359.021 429.909C359.726 429.439 360.565 429.205 361.538 429.205C362.512 429.205 363.349 429.439 364.05 429.909C364.754 430.379 365.296 431.061 365.675 431.955C366.053 432.845 366.241 433.924 366.237 435.193C366.237 436.47 366.048 437.561 365.669 438.466C365.294 439.371 364.756 440.062 364.055 440.54C363.354 441.017 362.515 441.256 361.538 441.256ZM361.538 439.216C362.205 439.216 362.737 438.881 363.135 438.21C363.532 437.54 363.729 436.534 363.726 435.193C363.726 434.311 363.635 433.576 363.453 432.989C363.275 432.402 363.021 431.96 362.692 431.665C362.366 431.369 361.981 431.222 361.538 431.222C360.875 431.222 360.345 431.553 359.947 432.216C359.55 432.879 359.349 433.871 359.345 435.193C359.345 436.087 359.434 436.833 359.612 437.432C359.794 438.027 360.05 438.473 360.379 438.773C360.709 439.068 361.095 439.216 361.538 439.216ZM369.856 439.409L369.793 440.034C369.744 440.534 369.65 441.032 369.509 441.528C369.373 442.028 369.229 442.481 369.078 442.886C368.93 443.292 368.811 443.61 368.72 443.841H367.151C367.208 443.617 367.286 443.305 367.384 442.903C367.483 442.506 367.576 442.059 367.663 441.562C367.75 441.066 367.805 440.561 367.828 440.045L367.856 439.409H369.856ZM375.82 441.256C374.843 441.252 374.002 441.011 373.297 440.534C372.597 440.057 372.057 439.366 371.678 438.46C371.303 437.555 371.117 436.466 371.121 435.193C371.121 433.924 371.309 432.843 371.684 431.949C372.062 431.055 372.602 430.375 373.303 429.909C374.008 429.439 374.847 429.205 375.82 429.205C376.794 429.205 377.631 429.439 378.331 429.909C379.036 430.379 379.578 431.061 379.956 431.955C380.335 432.845 380.523 433.924 380.519 435.193C380.519 436.47 380.33 437.561 379.951 438.466C379.576 439.371 379.038 440.062 378.337 440.54C377.636 441.017 376.797 441.256 375.82 441.256ZM375.82 439.216C376.487 439.216 377.019 438.881 377.417 438.21C377.814 437.54 378.011 436.534 378.008 435.193C378.008 434.311 377.917 433.576 377.735 432.989C377.557 432.402 377.303 431.96 376.973 431.665C376.648 431.369 376.263 431.222 375.82 431.222C375.157 431.222 374.627 431.553 374.229 432.216C373.831 432.879 373.631 433.871 373.627 435.193C373.627 436.087 373.716 436.833 373.894 437.432C374.076 438.027 374.331 438.473 374.661 438.773C374.991 439.068 375.377 439.216 375.82 439.216ZM386.516 441.256C385.538 441.252 384.697 441.011 383.993 440.534C383.292 440.057 382.752 439.366 382.374 438.46C381.999 437.555 381.813 436.466 381.817 435.193C381.817 433.924 382.004 432.843 382.379 431.949C382.758 431.055 383.298 430.375 383.999 429.909C384.703 429.439 385.542 429.205 386.516 429.205C387.489 429.205 388.326 429.439 389.027 429.909C389.732 430.379 390.273 431.061 390.652 431.955C391.031 432.845 391.218 433.924 391.215 435.193C391.215 436.47 391.025 437.561 390.646 438.466C390.271 439.371 389.733 440.062 389.033 440.54C388.332 441.017 387.493 441.256 386.516 441.256ZM386.516 439.216C387.182 439.216 387.715 438.881 388.112 438.21C388.51 437.54 388.707 436.534 388.703 435.193C388.703 434.311 388.612 433.576 388.43 432.989C388.252 432.402 387.999 431.96 387.669 431.665C387.343 431.369 386.959 431.222 386.516 431.222C385.853 431.222 385.322 431.553 384.925 432.216C384.527 432.879 384.326 433.871 384.322 435.193C384.322 436.087 384.412 436.833 384.59 437.432C384.771 438.027 385.027 438.473 385.357 438.773C385.686 439.068 386.072 439.216 386.516 439.216ZM397.211 441.256C396.234 441.252 395.393 441.011 394.689 440.534C393.988 440.057 393.448 439.366 393.069 438.46C392.694 437.555 392.509 436.466 392.512 435.193C392.512 433.924 392.7 432.843 393.075 431.949C393.454 431.055 393.994 430.375 394.694 429.909C395.399 429.439 396.238 429.205 397.211 429.205C398.185 429.205 399.022 429.439 399.723 429.909C400.427 430.379 400.969 431.061 401.348 431.955C401.726 432.845 401.914 433.924 401.91 435.193C401.91 436.47 401.721 437.561 401.342 438.466C400.967 439.371 400.429 440.062 399.728 440.54C399.028 441.017 398.189 441.256 397.211 441.256ZM397.211 439.216C397.878 439.216 398.41 438.881 398.808 438.21C399.206 437.54 399.403 436.534 399.399 435.193C399.399 434.311 399.308 433.576 399.126 432.989C398.948 432.402 398.694 431.96 398.365 431.665C398.039 431.369 397.654 431.222 397.211 431.222C396.548 431.222 396.018 431.553 395.62 432.216C395.223 432.879 395.022 433.871 395.018 435.193C395.018 436.087 395.107 436.833 395.285 437.432C395.467 438.027 395.723 438.473 396.052 438.773C396.382 439.068 396.768 439.216 397.211 439.216Z" fill="#2D314D"/>
<rect x="147" y="485" width="310" height="52" rx="8" fill="#0037D7"/>
<path d="M260.337 516.5H258.087L262.184 504.864H264.786L268.888 516.5H266.638L263.531 507.25H263.44L260.337 516.5ZM260.411 511.938H266.548V513.631H260.411V511.938ZM270.33 519.773V507.773H272.353V509.216H272.472C272.578 509.004 272.728 508.778 272.921 508.54C273.114 508.297 273.376 508.091 273.705 507.92C274.035 507.746 274.455 507.659 274.967 507.659C275.641 507.659 276.249 507.831 276.79 508.176C277.336 508.517 277.768 509.023 278.086 509.693C278.408 510.36 278.569 511.178 278.569 512.148C278.569 513.106 278.412 513.92 278.097 514.591C277.783 515.261 277.355 515.773 276.813 516.125C276.272 516.477 275.658 516.653 274.972 516.653C274.472 516.653 274.058 516.57 273.728 516.403C273.398 516.237 273.133 516.036 272.933 515.801C272.736 515.562 272.582 515.337 272.472 515.125H272.387V519.773H270.33ZM272.347 512.136C272.347 512.701 272.427 513.195 272.586 513.619C272.749 514.044 272.982 514.375 273.285 514.614C273.592 514.848 273.963 514.966 274.398 514.966C274.853 514.966 275.234 514.845 275.54 514.602C275.847 514.356 276.078 514.021 276.234 513.597C276.393 513.169 276.472 512.682 276.472 512.136C276.472 511.595 276.395 511.114 276.239 510.693C276.084 510.273 275.853 509.943 275.546 509.705C275.239 509.466 274.857 509.347 274.398 509.347C273.959 509.347 273.586 509.462 273.279 509.693C272.972 509.924 272.739 510.248 272.58 510.665C272.425 511.081 272.347 511.572 272.347 512.136ZM280.33 519.773V507.773H282.353V509.216H282.472C282.578 509.004 282.728 508.778 282.921 508.54C283.114 508.297 283.376 508.091 283.705 507.92C284.035 507.746 284.455 507.659 284.967 507.659C285.641 507.659 286.249 507.831 286.79 508.176C287.336 508.517 287.768 509.023 288.086 509.693C288.408 510.36 288.569 511.178 288.569 512.148C288.569 513.106 288.412 513.92 288.097 514.591C287.783 515.261 287.355 515.773 286.813 516.125C286.272 516.477 285.658 516.653 284.972 516.653C284.472 516.653 284.058 516.57 283.728 516.403C283.398 516.237 283.133 516.036 282.933 515.801C282.736 515.562 282.582 515.337 282.472 515.125H282.387V519.773H280.33ZM282.347 512.136C282.347 512.701 282.427 513.195 282.586 513.619C282.749 514.044 282.982 514.375 283.285 514.614C283.592 514.848 283.963 514.966 284.398 514.966C284.853 514.966 285.234 514.845 285.54 514.602C285.847 514.356 286.078 514.021 286.234 513.597C286.393 513.169 286.472 512.682 286.472 512.136C286.472 511.595 286.395 511.114 286.239 510.693C286.084 510.273 285.853 509.943 285.546 509.705C285.239 509.466 284.857 509.347 284.398 509.347C283.959 509.347 283.586 509.462 283.279 509.693C282.972 509.924 282.739 510.248 282.58 510.665C282.425 511.081 282.347 511.572 282.347 512.136ZM292.387 504.864V516.5H290.33V504.864H292.387ZM295.781 519.773C295.5 519.773 295.241 519.75 295.002 519.705C294.767 519.663 294.58 519.614 294.44 519.557L294.917 517.955C295.216 518.042 295.483 518.083 295.718 518.08C295.953 518.076 296.159 518.002 296.337 517.858C296.519 517.718 296.673 517.483 296.798 517.153L296.974 516.682L293.809 507.773H295.991L298.002 514.364H298.093L300.11 507.773H302.298L298.803 517.557C298.64 518.019 298.424 518.415 298.156 518.744C297.887 519.078 297.557 519.331 297.167 519.506C296.781 519.684 296.318 519.773 295.781 519.773ZM317.343 504.864V516.5H315.468L309.985 508.574H309.888V516.5H307.781V504.864H309.667L315.144 512.795H315.246V504.864H317.343ZM323.356 516.67C322.504 516.67 321.765 516.483 321.14 516.108C320.515 515.733 320.03 515.208 319.685 514.534C319.344 513.86 319.174 513.072 319.174 512.17C319.174 511.269 319.344 510.479 319.685 509.801C320.03 509.123 320.515 508.597 321.14 508.222C321.765 507.847 322.504 507.659 323.356 507.659C324.208 507.659 324.947 507.847 325.572 508.222C326.197 508.597 326.68 509.123 327.021 509.801C327.365 510.479 327.538 511.269 327.538 512.17C327.538 513.072 327.365 513.86 327.021 514.534C326.68 515.208 326.197 515.733 325.572 516.108C324.947 516.483 324.208 516.67 323.356 516.67ZM323.367 515.023C323.829 515.023 324.216 514.896 324.526 514.642C324.837 514.384 325.068 514.04 325.219 513.608C325.375 513.176 325.452 512.695 325.452 512.165C325.452 511.631 325.375 511.148 325.219 510.716C325.068 510.28 324.837 509.934 324.526 509.676C324.216 509.419 323.829 509.29 323.367 509.29C322.894 509.29 322.5 509.419 322.185 509.676C321.875 509.934 321.642 510.28 321.487 510.716C321.335 511.148 321.259 511.631 321.259 512.165C321.259 512.695 321.335 513.176 321.487 513.608C321.642 514.04 321.875 514.384 322.185 514.642C322.5 514.896 322.894 515.023 323.367 515.023ZM330.835 516.5L328.369 507.773H330.465L331.999 513.909H332.079L333.647 507.773H335.721L337.289 513.875H337.374L338.886 507.773H340.988L338.516 516.5H336.374L334.738 510.602H334.619L332.982 516.5H330.835ZM344.941 504.864L344.754 513.08H342.924L342.742 504.864H344.941ZM343.839 516.625C343.494 516.625 343.199 516.504 342.952 516.261C342.71 516.019 342.589 515.723 342.589 515.375C342.589 515.034 342.71 514.742 342.952 514.5C343.199 514.258 343.494 514.136 343.839 514.136C344.176 514.136 344.468 514.258 344.714 514.5C344.964 514.742 345.089 515.034 345.089 515.375C345.089 515.606 345.03 515.816 344.913 516.006C344.799 516.195 344.647 516.347 344.458 516.46C344.272 516.57 344.066 516.625 343.839 516.625Z" fill="#F5F6FA"/>
</g>
</g>
<defs>
<filter id="filter0_d_2504_10412" x="24.2326" y="24.2326" width="289.039" height="299.039" filterUnits="userSpaceOnUse" color-interpolation-filters="sRGB">
<feFlood flood-opacity="0" result="BackgroundImageFix"/>
<feColorMatrix in="SourceAlpha" type="matrix" values="0 0 0 0 0 0 0 0 0 0 0 0 0 0 0 0 0 0 127 0" result="hardAlpha"/>
<feOffset dx="1.75194" dy="1.75194"/>
<feGaussianBlur stdDeviation="8.75968"/>
<feComposite in2="hardAlpha" operator="out"/>
<feColorMatrix type="matrix" values="0 0 0 0 0.541176 0 0 0 0 0.541176 0 0 0 0 0.541176 0 0 0 0.15 0"/>
<feBlend mode="normal" in2="BackgroundImageFix" result="effect1_dropShadow_2504_10412"/>
<feBlend mode="normal" in="SourceGraphic" in2="effect1_dropShadow_2504_10412" result="shape"/>
</filter>
<filter id="filter1_d_2504_10412" x="105.233" y="181.233" width="397.039" height="395.039" filterUnits="userSpaceOnUse" color-interpolation-filters="sRGB">
<feFlood flood-opacity="0" result="BackgroundImageFix"/>
<feColorMatrix in="SourceAlpha" type="matrix" values="0 0 0 0 0 0 0 0 0 0 0 0 0 0 0 0 0 0 127 0" result="hardAlpha"/>
<feOffset dx="1.75194" dy="1.75194"/>
<feGaussianBlur stdDeviation="8.75968"/>
<feComposite in2="hardAlpha" operator="out"/>
<feColorMatrix type="matrix" values="0 0 0 0 0.541176 0 0 0 0 0.541176 0 0 0 0 0.541176 0 0 0 0.15 0"/>
<feBlend mode="normal" in2="BackgroundImageFix" result="effect1_dropShadow_2504_10412"/>
<feBlend mode="normal" in="SourceGraphic" in2="effect1_dropShadow_2504_10412" result="shape"/>
</filter>
<clipPath id="clip0_2504_10412">
<rect width="523" height="600" fill="white"/>
</clipPath>
<clipPath id="clip1_2504_10412">
<rect width="322" height="21" fill="white" transform="translate(141 330)"/>
</clipPath>
</defs>
</svg>
