<svg width="24" height="24" viewBox="0 0 24 24" fill="none" xmlns="http://www.w3.org/2000/svg">
<path d="M12.2276 16.1326L9.32027 19.04L9.3202 19.04L9.32013 19.0401C8.11786 20.2425 6.16149 20.2425 4.95908 19.0401C4.37659 18.4576 4.05587 17.6832 4.05587 16.8595C4.05587 16.0359 4.37659 15.2616 4.95888 14.6791L4.95908 14.6789L7.86643 11.7715C8.2678 11.3701 8.2678 10.7192 7.86636 10.3178C7.46498 9.91644 6.81409 9.91644 6.41265 10.3178L3.50531 13.2252L3.50469 13.2259C2.53439 14.1966 2 15.487 2 16.8595C2 18.2324 2.53459 19.523 3.50538 20.4938C4.50741 21.4958 5.82351 21.9968 7.13968 21.9968C8.45584 21.9968 9.77201 21.4958 10.7739 20.4938L10.774 20.4937L13.6813 17.5863C14.0827 17.1849 14.0827 16.534 13.6812 16.1326C13.2799 15.7312 12.6291 15.7312 12.2276 16.1326ZM21.0017 8.13722C21.0017 6.76438 20.467 5.4737 19.4962 4.50292C17.4922 2.49899 14.2315 2.49906 12.2277 4.50292L12.2274 4.50326L9.32013 7.41047C8.91869 7.81184 8.91869 8.4628 9.32013 8.86417C9.41548 8.95978 9.52878 9.0356 9.65352 9.08728C9.77827 9.13896 9.91199 9.16547 10.047 9.16529C10.31 9.16529 10.5732 9.06489 10.7738 8.86417L13.6811 5.95697L13.6815 5.95662C14.8837 4.75435 16.8401 4.75428 18.0425 5.95662C18.6249 6.53912 18.9458 7.31357 18.9458 8.13722C18.9458 8.9608 18.6251 9.73511 18.0427 10.3176L18.0425 10.3178L15.1352 13.2252C14.7338 13.6266 14.7338 14.2775 15.1352 14.6789C15.2306 14.7745 15.3439 14.8503 15.4686 14.902C15.5933 14.9537 15.727 14.9802 15.862 14.98C16.1251 14.98 16.3882 14.8796 16.5889 14.6789L19.4963 11.7715L19.4969 11.7708C20.4672 10.8002 21.0017 9.50972 21.0017 8.13722Z" fill="#005DFF"/>
<path d="M7.86798 16.1326C7.96332 16.2282 8.07661 16.304 8.20134 16.3557C8.32607 16.4073 8.45978 16.4339 8.59479 16.4337C8.85788 16.4337 9.12096 16.3333 9.32168 16.1326L15.1365 10.3178C15.5379 9.91638 15.5379 9.26549 15.1365 8.86405C14.7351 8.46268 14.0842 8.46268 13.6828 8.86405L7.86798 14.6788C7.46653 15.0803 7.46653 15.7312 7.86798 16.1326Z" fill="#005DFF"/>
</svg>
