<svg width="48" height="48" viewBox="0 0 48 48" fill="none" xmlns="http://www.w3.org/2000/svg">
<g clip-path="url(#clip0_2615_61914)">
<rect opacity="0.3" width="48" height="48" fill="#39416B"/>
<g clip-path="url(#clip1_2615_61914)">
<path d="M12.8908 19.5475C12.8584 19.5474 12.826 19.5457 12.7938 19.5424C12.6775 19.5296 12.5648 19.4941 12.4623 19.4379C12.3597 19.3816 12.2692 19.3057 12.196 19.2144C12.1228 19.1232 12.0683 19.0184 12.0355 18.9061C12.0028 18.7938 11.9926 18.6762 12.0053 18.5599C12.0625 18.033 12.1314 17.5286 12.2167 17.0153V17.0069C12.6288 14.6842 14.6898 12.6231 17.0125 12.2125H17.0214C17.5342 12.1253 18.0395 12.0564 18.5659 12.0006C18.8008 11.9752 19.0361 12.0441 19.2201 12.1922C19.4042 12.3403 19.5218 12.5554 19.5473 12.7903C19.5727 13.0251 19.5038 13.2604 19.3557 13.4445C19.2076 13.6285 18.9925 13.7462 18.7577 13.7716C18.2761 13.8237 17.796 13.8893 17.3181 13.9685C16.5531 14.1035 15.7863 14.5244 15.1581 15.1525C14.53 15.7806 14.1095 16.5475 13.9731 17.3125C13.8939 17.7892 13.8283 18.2603 13.7763 18.7506C13.7531 18.9694 13.6498 19.1718 13.4864 19.3189C13.3229 19.466 13.1107 19.5475 12.8908 19.5475ZM35.1067 19.555C34.8873 19.5548 34.6757 19.4736 34.5125 19.327C34.3492 19.1803 34.2459 18.9786 34.2222 18.7605C34.1692 18.2692 34.105 17.7981 34.0258 17.3214C33.8908 16.556 33.4689 15.7891 32.8403 15.161C32.2117 14.5328 31.4453 14.11 30.6803 13.976C30.2025 13.8964 29.7224 13.8307 29.2408 13.7791C29.0059 13.7537 28.7908 13.636 28.6427 13.452C28.4947 13.2679 28.4258 13.0326 28.4512 12.7978C28.4766 12.5629 28.5943 12.3478 28.7783 12.1997C28.9623 12.0516 29.1977 11.9827 29.4325 12.0081C29.9589 12.0649 30.4638 12.1342 30.977 12.2196H30.9859C33.3091 12.6316 35.3702 14.6927 35.7803 17.0163V17.0252C35.8656 17.5375 35.935 18.0428 35.9917 18.5721C36.0162 18.8061 35.947 19.0404 35.7992 19.2236C35.6515 19.4068 35.4372 19.5241 35.2033 19.5499C35.1712 19.5534 35.139 19.5551 35.1067 19.555ZM29.3355 36.0072C29.1077 36.0067 28.8888 35.919 28.7238 35.7621C28.5587 35.6052 28.46 35.391 28.448 35.1635C28.436 34.9361 28.5116 34.7127 28.6592 34.5393C28.8068 34.3659 29.0153 34.2556 29.2417 34.2311C29.7334 34.1777 30.2045 34.1135 30.6808 34.0342C31.4463 33.8978 32.2131 33.4774 32.8413 32.8488C33.4694 32.2202 33.8908 31.4538 34.0258 30.6888C34.105 30.2116 34.1692 29.741 34.2222 29.2497C34.2476 29.0149 34.3653 28.7997 34.5493 28.6517C34.7334 28.5036 34.9687 28.4347 35.2035 28.4601C35.4384 28.4855 35.6535 28.6032 35.8016 28.7872C35.9496 28.9713 36.0186 29.2066 35.9931 29.4414C35.9364 29.9683 35.867 30.4727 35.7817 30.986V30.9949C35.3716 33.3175 33.3105 35.3786 30.9873 35.7888H30.9789C30.4654 35.8739 29.9496 35.9444 29.432 36.0002C29.4 36.0041 29.3678 36.0065 29.3355 36.0072ZM18.663 36.0006C18.6305 36.0006 18.5982 35.9987 18.5659 35.995C18.0386 35.9378 17.5347 35.8689 17.0214 35.7836H17.0125C14.6898 35.3697 12.6288 33.3086 12.2181 30.985V30.9761C12.1314 30.4647 12.0625 29.9599 12.0053 29.4325C11.9799 29.1977 12.0488 28.9624 12.1969 28.7783C12.345 28.5943 12.5601 28.4766 12.7949 28.4512C13.0298 28.4258 13.2651 28.4947 13.4491 28.6428C13.6332 28.7908 13.7508 29.006 13.7763 29.2408C13.8297 29.7325 13.8939 30.2031 13.9731 30.6803C14.1095 31.4453 14.5314 32.2122 15.1581 32.8403C15.7848 33.4685 16.5531 33.8913 17.3181 34.0253C17.7953 34.1046 18.2659 34.1692 18.7577 34.2222C18.985 34.2456 19.1946 34.3555 19.3432 34.5291C19.4917 34.7028 19.5679 34.9269 19.5558 35.1551C19.5438 35.3833 19.4445 35.5981 19.2785 35.7552C19.1125 35.9122 18.8924 35.9994 18.6639 35.9988L18.663 36.0006ZM24.1905 31.0272C23.0978 31.0544 20.9514 30.8866 20.2497 30.7178C19.7716 30.6171 19.322 30.3386 18.9841 29.9514C18.6496 29.5737 18.4393 29.1022 18.3817 28.601V28.586C18.3452 28.2245 18.334 27.861 18.348 27.498C18.348 27.498 18.3213 27.1778 18.3817 26.5966V26.5821C18.4329 26.1049 18.6463 25.6597 18.9864 25.3211C19.3281 24.9789 19.7761 24.7631 20.2567 24.7094C20.9598 24.6349 23.1025 24.5941 24.1909 24.5941C25.2794 24.5941 27.0269 24.6349 27.7305 24.7094C28.2111 24.7631 28.6591 24.9788 29.0008 25.3211C29.341 25.6599 29.5544 26.1052 29.6055 26.5825V26.5971C29.6402 26.896 29.6579 27.1966 29.6584 27.4975C29.6601 27.8616 29.6426 28.2256 29.6059 28.5878V28.6024C29.5482 29.104 29.3376 29.5758 29.0027 29.9538C28.6638 30.341 28.2142 30.6194 27.737 30.7202C27.0339 30.8781 25.2831 31.0347 24.1905 31.0272Z" fill="#F5F6FA"/>
<path d="M23.9285 23.7759C25.8078 23.7759 27.3312 22.2525 27.3312 20.3733C27.3312 18.494 25.8078 16.9706 23.9285 16.9706C22.0493 16.9706 20.5259 18.494 20.5259 20.3733C20.5259 22.2525 22.0493 23.7759 23.9285 23.7759Z" fill="#F5F6FA"/>
</g>
</g>
<defs>
<clipPath id="clip0_2615_61914">
<rect width="48" height="48" fill="white"/>
</clipPath>
<clipPath id="clip1_2615_61914">
<rect width="24" height="24" fill="white" transform="translate(12 12)"/>
</clipPath>
</defs>
</svg>
