<svg width="48" height="48" viewBox="0 0 48 48" fill="none" xmlns="http://www.w3.org/2000/svg">
<g clip-path="url(#clip0_2615_61927)">
<rect opacity="0.3" width="48" height="48" fill="#39416B"/>
<g clip-path="url(#clip1_2615_61927)">
<path d="M21.6592 31.21H21.6592C19.5349 31.2111 17.4708 30.5041 15.7932 29.2009L15.7319 29.2798L15.7932 29.2009C11.6263 25.9639 10.8725 19.9618 14.1096 15.7948C17.3466 11.6279 23.3486 10.8741 27.5155 14.1112C31.6824 17.3482 32.4362 23.3503 29.1992 27.5172L29.1451 27.5869L29.2075 27.6492L35.591 34.0328C35.5912 34.033 35.5914 34.0332 35.5917 34.0334C36.0029 34.4599 36.0027 35.1356 35.591 35.5619C35.1689 35.999 34.4727 36.0113 34.0354 35.5896C34.0352 35.5894 34.035 35.5892 34.0348 35.589L27.6513 29.2054L27.5888 29.143L27.5191 29.1973C25.8443 30.5017 23.7821 31.21 21.6592 31.21ZM16.4211 16.4937L16.4208 16.4939C13.5693 19.3664 13.5862 24.0065 16.4585 26.8581C19.3309 29.7305 23.988 29.7304 26.8603 26.858C29.7327 23.9856 29.7326 19.3286 26.8602 16.4562C23.9878 13.5839 19.3308 13.5839 16.4584 16.4563L16.4211 16.4937Z" fill="#F5F6FA" stroke="#1A1D30" stroke-width="0.2"/>
</g>
</g>
<defs>
<clipPath id="clip0_2615_61927">
<rect width="48" height="48" fill="white"/>
</clipPath>
<clipPath id="clip1_2615_61927">
<rect width="24" height="24" fill="white" transform="translate(12 12)"/>
</clipPath>
</defs>
</svg>
