<svg xmlns="http://www.w3.org/2000/svg" viewBox="0 0 1080 1080" xmlns:v="https://vecta.io/nano"><defs><clipPath id="A"><path d="M277.42,415.97c0-20.95,16.99-37.94,37.94-37.94s37.93,16.99,37.93,37.94-16.98,37.94-37.93,37.94-37.94-16.99-37.94-37.94" fill="none"/></clipPath><clipPath id="B"><path d="M277.42,415.97c0-20.95,16.99-37.94,37.94-37.94s37.93,16.99,37.93,37.94-16.98,37.94-37.93,37.94-37.94-16.99-37.94-37.94" fill="none"/></clipPath></defs><path d="M268.66 464.97v6.52c16.68-.48 25.26 4.45 25.77 14.78v166.6c.34 17.97-23.11 19.91-26.81 9.87-.72-5.85 3.46-7.83 5.11-14.11 3.36-12.88-1.94-29.27-19.58-26.26-30.85 7.57-18.89 53.48 25.02 54.35 35.48.08 59.8-18.03 60.54-50.87V486.27c2.49-9.97 10.48-14.9 23.98-14.78l.59-6.52h-94.62m213.72 41.43v5.02c6.08.29 11.03 3.1 14.85 8.44l28.55 50.87v39.32c-.58 5.9-6.26 9.34-17.03 10.3v3.7h46.16v-3.7c-9.28-1.18-14.49-4.61-15.62-10.3v-39.32l27.57-52.24c4.83-4.87 9.47-7.23 13.96-7.07v-5.02h-27.87v5.02c7.19.3 9.92 2.27 8.21 5.93l-23.08 44.32-24.89-43.64c-2.08-3.42.46-5.63 6.4-6.61v-5.02h-37.21m-17.27 105.02L421.82 506.4c-1.86-5.18-5.54-4.63-7.61 0l-42.97 105.12c-3.24 4.85-6.95 8.8-11.67 8.76v3.81h28.33v-3.81c-7.08.19-10.42-3.83-9.05-8.73l9.02-25.23h51.37l10.01 24.83c1.25 4.22.03 9.85-9.42 9.13v3.81h35.41v-3.81c-4.72-.34-7.79-4.32-10.12-8.86zm-74.26-29.82l23.48-56.37 22.61 56.37h-46.09zm314.99-75.2v5.25c10.82.46 14.52 3.69 14.47 10.48v82.44c-.51 9.78-5.54 14.65-15.07 14.61v4.86h77.81l1.19-23.97h-3.58c-1.21 7.47-3.59 13.23-7.16 17.26h-29.95c-4.84-1.45-7.85-4.41-9.05-8.9v-43.68h26.96c5.37.14 8.19 4.35 8.45 12.64h5.44v-30.14h-5.44c-.66 6.92-2.68 10.76-6.06 11.54H734.5v-46h31.74c7.21.18 11.23 5.21 12.08 15.09h4.78l-1.15-21.48h-76.12m105.71 0v5.25c10.82.46 14.52 3.69 14.47 10.48v82.44c-.51 9.78-5.54 14.65-15.07 14.61v4.86h77.81l1.19-23.97h-3.58c-1.2 7.47-3.59 13.23-7.16 17.26h-29.95c-4.84-1.45-7.85-4.41-9.05-8.9v-43.68h26.96c5.37.14 8.19 4.35 8.45 12.64h5.44v-30.14h-5.44c-.66 6.92-2.68 10.76-6.06 11.54H840.2v-46h31.74c7.21.18 11.23 5.21 12.08 15.09h4.78l-1.14-21.48h-76.12" fill="#1d4692"/><g clip-path="url(#A)"><g fill="#ea4f00"><path d="M364.91 403.03c0-32.82-26.63-59.44-59.44-59.44s-59.44 26.63-59.44 59.44 26.63 59.44 59.44 59.44 59.44-26.63 59.44-59.44m-24.73.06c0 19.16-15.55 34.71-34.71 34.71s-34.71-15.55-34.71-34.71 15.55-34.71 34.71-34.71 34.71 15.55 34.71 34.71"/><path d="M345.16 403.03c0-21.91-17.78-39.69-39.69-39.69s-39.7 17.78-39.7 39.69 17.78 39.69 39.7 39.69 39.69-17.78 39.69-39.69m-3.52.06c0 19.97-16.2 36.17-36.17 36.17s-36.17-16.2-36.17-36.17 16.2-36.17 36.17-36.17 36.17 16.2 36.17 36.17"/></g><path d="M341.64 403.03c0-19.97-16.21-36.17-36.17-36.17s-36.18 16.2-36.18 36.17 16.21 36.17 36.18 36.17 36.17-16.2 36.17-36.17m-3.52.06h0c0 18.02-14.63 32.65-32.65 32.65s-32.65-14.63-32.65-32.65 14.63-32.65 32.65-32.65 32.65 14.63 32.65 32.65" fill="#ea5400"/><path d="M338.12 403.12c0-18.02-14.63-32.65-32.65-32.65s-32.65 14.63-32.65 32.65 14.63 32.65 32.65 32.65 32.65-14.63 32.65-32.65m-3.53-.03c0 16.08-13.05 29.12-29.12 29.12s-29.12-13.05-29.12-29.12 13.05-29.12 29.12-29.12 29.12 13.05 29.12 29.12" fill="#eb5a00"/><path d="M334.6 403.12c0-16.08-13.05-29.12-29.12-29.12s-29.12 13.05-29.12 29.12 13.05 29.12 29.12 29.12 29.12-13.05 29.12-29.12m-3.53-.03h0c0 14.13-11.47 25.6-25.6 25.6s-25.6-11.47-25.6-25.6 11.47-25.6 25.6-25.6 25.6 11.47 25.6 25.6" fill="#eb5f00"/><g fill="#ec6400"><path d="M331.07,403.12c0-14.13-11.47-25.6-25.6-25.6s-25.6,11.47-25.6,25.6,11.47,25.6,25.6,25.6,25.6-11.47,25.6-25.6M327.55,403.09h0c0,12.19-9.89,22.08-22.07,22.08s-22.08-9.89-22.08-22.08,9.89-22.08,22.08-22.08,22.07,9.89,22.07,22.08"/><path d="M334.47 403.12c0-16.01-12.99-29-29-29s-29 12.99-29 29 12.99 29 29 29 29-12.99 29-29m-3.87-.03c0 13.87-11.26 25.13-25.13 25.13s-25.13-11.26-25.13-25.13 11.26-25.13 25.13-25.13 25.13 11.26 25.13 25.13"/></g><path d="M330.6 403.03c0-13.87-11.26-25.13-25.13-25.13s-25.13 11.26-25.13 25.13 11.26 25.13 25.13 25.13 25.13-11.26 25.13-25.13m-3.86.06h0c0 11.74-9.52 21.27-21.27 21.27s-21.27-9.53-21.27-21.27 9.53-21.27 21.27-21.27 21.27 9.52 21.27 21.27" fill="#ee770a"/></g><path d="M326.74,403.03c0-11.74-9.53-21.27-21.27-21.27s-21.27,9.53-21.27,21.27,9.53,21.27,21.27,21.27,21.27-9.53,21.27-21.27M322.87,403.09h0c0,9.6-7.79,17.4-17.39,17.4s-17.4-7.8-17.4-17.4,7.79-17.4,17.4-17.4,17.39,7.79,17.39,17.4" fill="#f08b27"/><path d="M322.87,403.03c0-9.61-7.79-17.4-17.4-17.4s-17.39,7.79-17.39,17.4,7.79,17.4,17.39,17.4,17.4-7.79,17.4-17.4M319,403.09c0,7.47-6.06,13.53-13.53,13.53s-13.53-6.06-13.53-13.53,6.06-13.54,13.53-13.54,13.53,6.07,13.53,13.54" fill="#f39f3d"/><path d="M319,403.03c0-7.47-6.06-13.53-13.53-13.53s-13.54,6.06-13.54,13.53,6.06,13.53,13.54,13.53,13.53-6.06,13.53-13.53M315.13,403.09c0,5.34-4.33,9.67-9.67,9.67s-9.67-4.33-9.67-9.67,4.33-9.67,9.67-9.67,9.67,4.33,9.67,9.67" fill="#f7b250"/><path d="M315.14,403.03c0-5.34-4.33-9.67-9.67-9.67s-9.67,4.33-9.67,9.67,4.33,9.67,9.67,9.67,9.67-4.33,9.67-9.67M311.27,403.09c0,3.2-2.59,5.8-5.8,5.8s-5.79-2.6-5.79-5.8,2.59-5.8,5.79-5.8,5.8,2.6,5.8,5.8" fill="#f9c463"/><path d="M311.27,403.03c0-3.2-2.6-5.8-5.8-5.8s-5.8,2.6-5.8,5.8,2.6,5.8,5.8,5.8,5.8-2.6,5.8-5.8M307.41,403.09h0c0,1.06-.86,1.93-1.93,1.93s-1.94-.86-1.94-1.93.86-1.94,1.94-1.94,1.93.86,1.93,1.94" fill="#fdd679"/><path d="M307.31,403.03c0-1.06-.86-1.94-1.94-1.94s-1.93.87-1.93,1.94.86,1.94,1.93,1.94,1.94-.87,1.94-1.94" fill="#ffe88f"/><g clip-path="url(#B)"><path d="M338.98 432.72l1.41.84 1.12.84.28 1.68-1.12.28-1.4.85.28-2.25-.56-2.24h0zm-41.77-4.77l.28-2.52-.85-1.4-.55-1.12-1.12.56v1.96l.28 2.25 1.96.28h0zm-4.76-11.2l.84 1.96.28 1.4.85 1.96.84-1.4v-2.25l-.28-1.4-2.52-.28zm10.65.55l.28 1.97.56 2.24 1.4 1.12h1.68l.28-1.41.56-1.39-1.4-.28-1.12-1.4-2.24-.85zm-25.52-12.05l2.53-.56 1.12-1.96-.28-1.68h3.08v3.65l-.85 1.96v1.12l.57 2.52h1.95l.57-.84 1.12-.85h1.4l.28-1.39 1.96-1.97 1.96-1.12h4.21l1.12.28 1.12 1.12h1.41l1.12-.55v-1.4l.56-1.41.28-1.12 1.12-.84 1.68-1.41 1.68-1.11 1.68-.57 1.12-.84 1.12-1.12.28-1.4c1.12-.56 1.96.28 1.96.28.84-1.12.56-1.96.56-1.96l-1.41-1.4-1.68-1.41-.85-1.96v-1.68l-.84-1.96 2.25-.28h1.68c1.12.55 1.68 1.4 1.68 1.4 1.12-.28 1.41-1.4 1.41-1.4h1.68l1.41-.85.55-1.12 1.4-1.12h4.48a11.04 11.04 0 0 0 1.97 1.96l1.39.56c1.13.28 1.69 1.4 1.69 1.4.84.56 1.96.56 1.96.56l1.68-.28 1.12-.28h2.52l1.68 1.4-.84 1.96v2.52l.28 1.68 1.96 1.4 1.4.56 1.68 1.68v1.12l1.12 2.23 1.41 1.69-1.41 1.4 1.12 1.68.28 1.96-1.12.85-.28 2.52 1.41 2.25s1.96 5.61-1.68 8.13c0 0-3.92 2.52-1.96 5.32 0 0 3.36 2.81 1.68 5.05 0 0-2.52 1.4-5.61-.28 0 0-3.08-1.41-4.21-3.65 0 0-1.12-3.92-4.2-1.4 0 0-5.05 4.77-5.61 7.01l-.28 4.2-1.12 1.12-1.68-1.12-1.12-1.68-.28-1.96v-1.68l-.28-2.25-1.39-2.25-1.96-1.12-1.97-.85-1.39-1.12-2.25-.28-1.13.28-.55 1.96-1.12 1.68-.55 1.68-2.52.85-3.09.56h-2.24l-1.96.55v1.97l1.12.55h1.12l1.68-.55c.56 1.12.56 2.52.56 2.52l-.85 1.41-1.12 1.12-.84 1.4-1.97.56h-1.68l-1.12 1.68.28 1.97c.84 1.68 1.68 2.23 1.68 2.23v1.69l-1.12.55s.28 1.12-.84 1.12-4.21-.84-4.21-.84-4.2-.28-5.05-3.08c-.84-2.8-3.36-5.88-3.64-7.01-.28-1.12-.56-3.08-.56-3.08v-2.52l-.55-2.24-1.41-3.37-.55-1.4-1.97-1.41-.84-2.52v-1.68l1.12-1.68h1.97l.28-1.4-.55-1.68-1.12-.56-1.12-1.96-.28-2.8.84-3.65" fill="#1d4692"/></g><path d="M354.69,380.84c30.88-20.98,58.32-37.55,67.96-31.74,11.99,15.46-57.78,90.93-94.21,131.44-34.96,38.87-112.92,109.64-121.7,107.38-5.25-1.19,6.25-25.58,26.01-52.98-19.85,23.85-43.91,56.32-37.25,63.24,7.9,7.39,79.97-53.22,137.58-114.82,68.86-73.93,110.86-131.61,101.56-144.57-8.65-7.97-51.09,18.28-79.95,42.05" fill="#f18e00"/><path d="M682.63 537.28c0-19.88-11.98-31.22-35.5-31.22h-47.96l1.15.35v5.25c9.44.02 14.16 2.15 14.16 6.38v94.59c-2.36 4.02-9.44 6.44-14.16 7.26v4.2h44.85v-4.2c-9.44-.9-14.48-3.32-16.32-7.26l.43-37.58c33.49 1.22 52.66-12.4 53.34-37.76zm-53.97-25.86c25.97-.68 37.22 4.79 37.22 25.36.25 23.16-11.25 34.65-37.22 34.47v-59.82z" fill="#1d4692"/><path d="M321.77,698.88c169.52-44.88,368.71-51.79,568.15,0-78.33-36.85-178.39-53.31-274.85-54.06-79.21-.36-191.64,11.37-293.31,54.06" fill="#f18e00"/><path d="M464.79 692.56l3.86.97c.86 0 1.46-.17 1.81-.5.37-.34.68-.81.94-1.44h1.32l.46 12.62h-1.37c-1.23-2.91-2.5-5.07-3.81-6.5-2.37-2.5-5.44-3.76-9.23-3.76s-7.23 1.47-10.16 4.39c-2.91 2.92-4.36 7.71-4.36 14.41 0 5.53 1.45 9.84 4.36 12.95 2.91 3.1 6.5 4.65 10.78 4.65.72 0 1.57-.06 2.54-.21.97-.14 1.91-.35 2.79-.65 1.42-.46 2.31-.86 2.66-1.19.34-.36.53-.86.53-1.53v-9.57c0-2.3-.34-3.74-1-4.3-.64-.57-2.07-.92-4.28-1.05v-1.12h15.29v1.12c-1.48.1-2.46.34-2.96.73-.82.63-1.23 1.92-1.23 3.86v11.8c0 .7-1.73 1.64-5.18 2.81-3.44 1.17-6.74 1.75-9.92 1.75-5.86 0-10.8-1.7-14.82-5.12-4.43-3.77-6.65-8.82-6.65-15.17 0-5.58 1.77-10.36 5.31-14.35 3.88-4.39 9.03-6.59 15.46-6.59a24.54 24.54 0 0 1 6.85.97m70.08 17.56c3.18-1.31 4.77-3.77 4.77-7.38s-1.43-5.85-4.28-7.11c-1.52-.68-3.55-1.03-6.06-1.03-1.7 0-2.75.14-3.14.38-.37.24-.55.81-.55 1.7v14.79c4.31-.15 7.39-.61 9.25-1.35h0zm-20.5 20.79c2.3-.22 3.74-.66 4.3-1.35.57-.68.85-2.28.85-4.77v-25.98c0-2.11-.32-3.48-.97-4.13-.63-.66-2.03-1.08-4.19-1.26v-1.12h16.6c3.46 0 6.34.45 8.64 1.32 4.37 1.66 6.56 4.72 6.56 9.17 0 2.98-.97 5.28-2.93 6.88-1.93 1.6-4.56 2.66-7.9 3.16l12.36 15.2c.76.94 1.52 1.62 2.28 2.05s1.74.7 2.93.82v1.08h-9.67l-14.28-18.45-3.34.15v11.8c0 2.23.33 3.64.99 4.25.68.59 2.15.97 4.42 1.17v1.08h-16.66v-1.08m86.27-4.74c2.48 3.01 5.53 4.5 9.14 4.5s6.55-1.46 9.05-4.39c2.52-2.95 3.78-7.65 3.78-14.11s-1.27-11.27-3.81-14.18-5.54-4.36-9.02-4.36-6.64 1.52-9.14 4.54c-2.48 3.01-3.72 7.67-3.72 14s1.25 10.97 3.72 13.99h0zm-4.49-29.4c3.69-3.53 8.23-5.3 13.62-5.3s9.96 1.77 13.65 5.33c3.99 3.85 6 8.97 6 15.38s-2.07 11.67-6.21 15.52c-3.72 3.43-8.19 5.16-13.45 5.16-5.62 0-10.28-1.9-14-5.71-3.77-3.88-5.65-8.87-5.65-14.96 0-6.41 2.01-11.54 6.03-15.41m87.97-4.46v1.12c-2.31.15-3.81.54-4.49 1.17-.68.61-1.02 2.01-1.02 4.22v19.18c0 3.14.43 5.59 1.29 7.35 1.6 3.2 4.64 4.8 9.1 4.8 4.9 0 8.19-1.64 9.87-4.92.94-1.83 1.41-4.66 1.41-8.49v-15.61c0-3.26-.39-5.3-1.17-6.12-.78-.84-2.26-1.37-4.45-1.58v-1.12h13.88v1.12c-2.32.25-3.85.82-4.57 1.69-.7.86-1.06 2.86-1.06 6.01v15.61c0 4.14-.64 7.37-1.9 9.7-2.34 4.27-6.79 6.41-13.36 6.41s-10.89-2.1-13.23-6.32c-1.27-2.27-1.9-5.26-1.9-8.97V698.8c0-2.19-.34-3.58-1.03-4.19-.66-.63-2.12-1.03-4.39-1.2v-1.12h17.02m81.31 3.34c-1.7-.74-3.85-1.11-6.44-1.11-1.23 0-1.99.12-2.28.38-.27.23-.41.77-.41 1.61v15.64l2.12.17.96.03c2.75 0 4.92-.39 6.5-1.17 2.88-1.43 4.31-4.09 4.31-7.99 0-3.67-1.59-6.19-4.75-7.56zm-20.24 35.26c2.28-.22 3.71-.66 4.28-1.35.56-.71.84-2.3.84-4.77v-25.98c0-2.08-.32-3.46-.97-4.13-.62-.66-2.01-1.08-4.16-1.26v-1.12h15.81c5.08 0 8.96.99 11.65 2.96s4.05 4.57 4.05 7.79c0 4.08-1.5 7.04-4.48 8.88-2.99 1.83-6.73 2.75-11.22 2.75-.65 0-1.47 0-2.49-.03l-2.23-.06v10.89c0 2.26.35 3.69 1.03 4.27.7.59 2.25.97 4.65 1.15v1.08h-16.78v-1.08" fill="#1d4692"/></svg>