<svg xmlns="http://www.w3.org/2000/svg" viewBox="0 0 1080 1080" xmlns:v="https://vecta.io/nano"><path d="M38.11 636.23c48.72.58 88.74-3.11 119.28-55.37 7.08-12.11 14.05-25.38 19.5-36.19-.34.82-.63 1.67-.84 2.53-6.34 28.25 46.47 30.35 45.65 37.08-.74 5.95-32.2 3.94-52.94-3.02-.1-.03-.18-.09-.28-.11-3.98-1.34-5.65-3.68-5.65-3.68l.16 1.61h-.03s.05.1.05.25l.81 7.54 1.82 19.16s109.99 14.55 112.23-21.24c1.69-27.05-51.31-30.63-50.69-36.56.56-5.57 26.36-6.11 42.03-3.69h.1c6.98 1.14 7.98 4.93 7.98 4.93l1.16-2.63.03.03c.03-.15 9.59-21.69 10.39-23.57l-7.48 75.84v.03c-.67 4.64-4.34 7.14-4.34 7.14l7.41.04 34.12.2 31.82-42.77-3.54 35.79c-.66 4.6-4.33 7.09-4.33 7.09l3.63.03v.02l37.93.2 61.67-82.87-25.89-.14-3.26-.02s1.46 2.19-.62 5.22l-27.88 37.48 3.53-35.81c.7-4.58 4.32-7.04 4.32-7.04l-11.79-.07v.03l-29.8-.16-31.75 42.7 3.52-35.59s.03-.05.03-.09c.66-4.66 4.33-7.14 4.33-7.14l-3.65-.03v-.02l-37.93-.21v.02c-1.96-.1-96.99-5.05-111.34 20.23l10.15-20.67-68.98-.39c.76.22 4.54 2.33 3.24 5.91h0c-3.68 12.24-12.58 40.6-22.5 61.58-12.93 27.51-41.85 37.45-61.71 44.37" fill="#17479a"/><path d="M272.31 466.25l-33.67 22.67c72.54 2.5 121.95-20.36 121.95-20.36-52.71 25.27-108.19 27.28-131.52 26.81L189 522.36s124.84-2.41 204.72-78.64c0 0-49.31 36.13-121.42 22.53" fill="#d41921"/><g fill="#17479a"><path d="M701.26 565.04V523.8c5.4 0 10.39-.14 15.35.15.7.03 1.81 2.08 1.83 3.2l.09 34.25V609h-14.05c-5.11-18.58-13.93-35.46-26.12-50.55a53.44 53.44 0 0 0-9.37-9.11v59.68h-17.13v-85.14c5.84.21 11.45-1.31 16.8 3.52 11.44 10.35 21.54 21.7 29.73 34.76l1.95 3.13c.3-.09.62-.17.93-.25m-99.9 44.04h-18.02l-1.66-17.66h-32.9L547.01 609H528.8c.6-5.64 1.02-11.2 1.83-16.7 2.86-19.71 8.16-38.66 17.93-56.18.05-.11.11-.22.17-.34 6.94-12.09 9.07-13.25 22.9-11.92 1.15.12 2.47 1.07 3.25 2.01 6.8 8.34 11.44 17.89 15.27 27.87 6.46 16.86 9.83 34.37 11.22 52.33.06.85 0 1.73 0 3.02m-21.89-32.33c-2.77-13.46-6.88-26.07-14.26-38.13-7.27 12.3-11.62 24.71-14.05 38.13h28.31zm-98.98 7.13v25.12h-17.38v-85.23l29.67.05c3.36.05 6.78.41 10.06 1.11 15.74 3.38 23.22 13.44 22.86 30.47-.33 15.22-8.75 25.04-23.97 27.61-3.69.63-7.47.68-11.21.83-3.13.14-6.25.03-10.03.03m.04-14.37c5.31 0 10.08.28 14.79-.07 6.34-.47 10.64-3.72 11.62-9.4.7-4.08.64-8.5-.09-12.59-.97-5.38-5-8.33-10.34-8.86-4.48-.46-9-.41-13.51-.28-.84.03-2.34 1.49-2.35 2.29l-.11 28.92m375.86-26.44c-7.53-3.74-15.22-5.67-23.42-5.23-5.69.31-8.89 2.37-10.03 6.32-1.25 4.42.47 8.29 5.24 10.33 3.65 1.56 7.65 2.34 11.4 3.67 4.35 1.56 8.81 2.96 12.88 5.09 16.56 8.66 14.67 31.47 2.16 40.47-8.63 6.21-18.4 7.65-28.62 6.68-4.71-.43-9.43-1.36-13.95-2.73-8.15-2.46-10.03-6.45-7.38-14.58.56-1.73 1.46-3.35 2.32-5.24 8.55 5.04 17.26 7.83 26.83 7.27 1.86-.12 3.75-.4 5.54-.89 3.44-.93 5.66-3.22 6.31-6.74.67-3.64-.31-7.05-3.58-8.83-3.69-1.99-7.77-3.29-11.72-4.77-4.44-1.66-9.12-2.78-13.37-4.85-8.53-4.14-12.96-11.13-12.8-20.79.16-10.03 4.37-17.72 13.51-22.13 10.31-4.99 21.16-4.24 32.03-2.17.13.02.24.1.36.12 10.62 1.15 12.85 8.16 6.29 19.01"/><path d="M773 538.74v70.22h-17.4v-70.02h-26.23v-14.96h69.83v14.76H773zm-156.98-14.95l15.23-.03c2.6-.03 2.27 1.78 2.27 3.38l.02 33.82v47.98h-17.52v-85.16zm419.6 16.55c-5.8-14.06-13.29-23.51-13.29-23.51l-50.29-73.11-50.92 72.67s-7.57 9.37-13.5 23.39c-4.36 8.71-6.82 18.45-6.87 28.73h0c-.16 37.26 31.38 67.6 70.45 67.77s70.88-29.89 71.04-67.14c.05-10.29-2.33-20.04-6.62-28.79"/></g><path d="M971.25 624.11c-31.94-.14-57.82-25.05-57.68-55.53.03-8.24 1.93-16.17 5.64-23.56l.17-.34.15-.35c5.13-12.13 11.7-20.43 11.76-20.52l.27-.32 31.45-44.87s6.29-10.64 8.94-10.62c2.51 0 7.59 8.86 7.59 8.86l32.32 46.99.27.33c.04.06 6.56 8.44 11.58 20.62l.15.35.16.34a52.83 52.83 0 0 1 5.43 23.61c-.14 30.47-26.24 55.16-58.18 55.02" fill="#82298c"/><path d="M1018.11 568.47c-.1 24.45-21.07 44.19-46.81 44.07-25.74-.11-46.52-20.03-46.41-44.48s21.14-61.9 46.88-61.79c25.74.12 46.44 37.75 46.33 62.2" fill="#d41921"/><path d="M1005.27 568.42c-.08 17.72-15.26 32.02-33.92 31.93-18.65-.08-33.71-14.51-33.64-32.23.08-17.72 15.28-38.15 33.94-38.07s33.7 20.64 33.62 38.36" fill="#e85e2d"/><path d="M994.47 568.37c-.05 12.05-10.38 21.77-23.06 21.72-12.68-.06-22.92-9.87-22.87-21.92s10.38-21.77 23.06-21.72c12.68.06 22.92 9.86 22.87 21.92" fill="#f7ac40"/><path d="M984.42 568.32c-.03 6.78-5.84 12.25-12.98 12.22s-12.9-5.56-12.87-12.34 5.84-12.25 12.98-12.22 12.9 5.55 12.87 12.34" fill="#fe0"/></svg>