<svg width="25" height="25" viewBox="0 0 25 25" fill="none" xmlns="http://www.w3.org/2000/svg">
<g clip-path="url(#clip0_37_827)">
<path d="M22.7234 0.719727H2.27187C1.29219 0.719727 0.5 1.49316 0.5 2.44941V22.9854C0.5 23.9416 1.29219 24.7197 2.27187 24.7197H22.7234C23.7031 24.7197 24.5 23.9416 24.5 22.99V2.44941C24.5 1.49316 23.7031 0.719727 22.7234 0.719727ZM7.62031 21.1713H4.05781V9.71504H7.62031V21.1713ZM5.83906 8.1541C4.69531 8.1541 3.77188 7.23066 3.77188 6.0916C3.77188 4.95254 4.69531 4.0291 5.83906 4.0291C6.97813 4.0291 7.90156 4.95254 7.90156 6.0916C7.90156 7.22598 6.97813 8.1541 5.83906 8.1541ZM20.9516 21.1713H17.3937V15.6025C17.3937 14.276 17.3703 12.565 15.5422 12.565C13.6906 12.565 13.4094 14.0135 13.4094 15.5088V21.1713H9.85625V9.71504H13.2687V11.2807H13.3156C13.7891 10.3807 14.9516 9.4291 16.6813 9.4291C20.2859 9.4291 20.9516 11.801 20.9516 14.8854V21.1713V21.1713Z" fill="#C4C4C4"/>
</g>
<defs>
<clipPath id="clip0_37_827">
<rect width="24" height="24" fill="white" transform="translate(0.5 0.719727)"/>
</clipPath>
</defs>
</svg>
