<svg width="201" height="40" viewBox="0 0 201 40" fill="none" xmlns="http://www.w3.org/2000/svg">
<path d="M6.55669 9.65601H0.789017V30.0618H6.55669V9.65601Z" fill="#F5F6FA"/>
<path d="M28.6324 30.0623H22.8232V18.2098C22.8232 15.8475 21.4954 14.5034 19.2133 14.5034C17.0556 14.5034 15.8522 16.4177 15.6033 16.825V30.0623H9.8356V9.65646H15.3128V11.7744C16.1842 10.7154 18.0099 9.20842 20.9975 9.20842C23.0307 9.16769 24.9809 9.90084 26.3917 11.2449C27.8855 12.6705 28.6739 14.6255 28.6739 16.9472V30.0623H28.6324Z" fill="#F5F6FA"/>
<path d="M3.69297 7.24998C1.65976 7.24998 0 5.62076 0 3.62498C0 1.58847 1.61827 0 3.69297 0C5.72618 0 7.38595 1.62921 7.38595 3.62498C7.38595 5.62076 5.72618 7.24998 3.69297 7.24998Z" fill="#F5F6FA"/>
<path d="M40.5796 30.4267C34.6045 30.4267 31.4094 26.8831 31.2849 26.7202L31.0775 26.5166L34.2725 22.4843L34.563 22.7694C34.6045 22.8101 37.1771 25.4576 40.3306 25.4576C41.9074 25.4576 43.7746 25.091 43.7746 24.032C43.7746 23.0545 43.1522 22.8509 40.0817 22.1992C34.8949 21.0587 32.3638 18.9408 32.3638 15.6416C32.3638 12.5054 35.5173 9.12478 41.368 9.12478C45.9738 9.12478 49.0029 11.5279 49.1274 11.6093L49.3763 11.813L46.4303 16.0489L46.1398 15.8453C46.0983 15.8453 43.8991 14.2161 41.368 14.2161C39.5422 14.2161 38.09 14.8677 38.09 15.7231C38.09 16.5784 39.1688 16.8635 42.5713 17.5559C46.1813 18.3298 49.6668 19.4702 49.6668 24.032C49.6668 27.657 45.7249 30.4267 40.5796 30.4267Z" fill="#F5F6FA"/>
<path d="M62.7779 30.5917C58.6284 30.5917 55.5994 27.4962 55.5994 23.2195V14.7884H51.616V9.65635H55.5994V3.83193H61.4085V9.65635H67.4252V14.8698H61.4085V22.4456C61.4085 24.2785 62.1554 25.2153 63.6492 25.2153C64.6451 25.2153 65.558 24.6043 65.5995 24.5636L65.9729 24.3192L68.0891 29.0032L67.8401 29.1661C67.7571 29.2476 65.8069 30.5917 62.7779 30.5917Z" fill="#F5F6FA"/>
<path d="M77.308 30.5065C75.3163 30.5065 73.4491 29.8548 72.0798 28.6736C70.5445 27.3702 69.7561 25.6188 69.7561 23.5416C69.7561 19.6722 73.3661 16.6582 77.9719 16.6582C80.586 16.6582 82.3288 17.3506 83.1587 17.7986V17.3506C83.1587 16.2916 82.3288 14.2958 79.2167 14.2958C76.3951 14.2958 73.3661 15.7214 73.3661 15.7214L73.0341 15.8843L71.1254 11.1189L71.4159 10.9967C71.5818 10.9152 75.2748 9.16384 79.5072 9.16384C85.3579 9.16384 88.9678 12.1371 88.9678 16.9026V30.0992H83.5736V28.1848C82.5778 29.0402 80.5445 30.5065 77.308 30.5065ZM78.8848 21.0163C77.64 21.0163 75.5238 21.5458 75.5238 23.4601C75.5238 25.3744 77.5985 25.6596 78.8018 25.6596C81.3329 25.6596 82.8267 23.9489 83.1172 23.5416V21.8309C82.6193 21.668 81.0425 21.0163 78.8848 21.0163Z" fill="#F5F6FA"/>
<path d="M110.87 30.0623H105.103V18.2098C105.103 15.8475 103.775 14.5034 101.493 14.5034C99.3349 14.5034 98.1316 16.4177 97.8826 16.825V30.0623H92.1149V9.65646H97.5921V11.7744C98.4635 10.7154 100.289 9.20842 103.277 9.20842C105.352 9.16769 107.26 9.90084 108.671 11.2449C110.165 12.6705 110.912 14.6255 110.912 16.9472V30.0623H110.87Z" fill="#F5F6FA"/>
<path d="M124.315 30.5917C120.166 30.5917 117.137 27.4962 117.137 23.2195V14.7884H113.154V9.65635H117.137V3.83193H122.905V9.65635H128.921V14.8698H122.905V22.4456C122.905 24.2785 123.652 25.2153 125.145 25.2153C126.141 25.2153 127.054 24.5636 127.096 24.5636L127.469 24.3192L129.585 29.0032L129.336 29.1661C129.295 29.2476 127.345 30.5917 124.315 30.5917Z" fill="#F5F6FA"/>
<path d="M137.928 39.6323H132.161V9.65485H137.555V11.5692C138.468 10.6324 140.294 9.20681 143.24 9.20681C148.924 9.20681 153.364 13.8908 153.364 19.9188C153.364 22.8922 152.285 25.6211 150.335 27.6169C148.426 29.5719 145.937 30.6309 143.281 30.6309C140.584 30.6309 138.883 29.4497 138.011 28.6351V39.6323H137.928ZM137.928 22.6885C138.177 23.0958 139.505 25.1323 142.327 25.1323C145.397 25.1323 147.431 22.9736 147.431 19.7967C147.431 16.6197 145.356 14.461 142.327 14.461C139.505 14.461 138.177 16.4975 137.928 16.9048V22.6885Z" fill="#F5F6FA"/>
<path d="M163.025 30.5065C161.033 30.5065 159.166 29.8548 157.796 28.6736C156.261 27.3702 155.473 25.6188 155.473 23.5416C155.473 19.6722 159.083 16.6582 163.689 16.6582C166.303 16.6582 168.046 17.3506 168.875 17.7986V17.3506C168.875 16.2916 168.046 14.2958 164.933 14.2958C162.112 14.2958 159.083 15.7214 159.083 15.7214L158.751 15.8843L156.842 11.1189L157.133 10.9967C157.299 10.9152 160.992 9.16384 165.224 9.16384C171.075 9.16384 174.685 12.1371 174.685 16.9026V30.0992H169.29V28.1848C168.295 29.0402 166.261 30.5065 163.025 30.5065ZM164.602 21.0163C163.357 21.0163 161.241 21.5458 161.241 23.4601C161.241 25.3744 163.315 25.6596 164.519 25.6596C167.05 25.6596 168.543 23.9489 168.834 23.5416V21.8309C168.336 21.668 166.759 21.0163 164.602 21.0163Z" fill="#F5F6FA"/>
<path d="M182.826 40C179.714 40 177.307 37.882 177.182 37.8006L176.975 37.5969L179.755 33.1573L180.087 33.4832C180.087 33.4832 181.332 34.7051 182.535 34.7051C184.112 34.7051 184.693 34.3385 185.606 32.0576L186.353 30.184L176.394 9.65601H182.826L189.299 23.4635L194.403 9.65601H200.668L190.71 34.1756C189.133 38.045 186.477 40 182.826 40Z" fill="#F5F6FA"/>
</svg>
