<svg xmlns="http://www.w3.org/2000/svg" viewBox="0 0 1080 1080" fill="#1b4776" fill-rule="evenodd" xmlns:v="https://vecta.io/nano"><path d="M518.77 494.62c40.28 0 72.94 32.66 72.94 72.94s-32.66 72.94-72.94 72.94-72.94-32.66-72.94-72.94c0-40.29 32.66-72.94 72.94-72.94zm0 26.74c-25.52 0-46.2 20.69-46.2 46.21s20.68 46.2 46.2 46.2 46.21-20.68 46.21-46.2-20.68-46.21-46.21-46.21zm186.02-.23c7.33-.18 13.12-6.27 12.94-13.6a13.28 13.28 0 0 0-12.94-12.94H586.06a13.27 13.27 0 1 0 0 26.54h22.04v105.52c.18 7.33 6.27 13.12 13.6 12.94a13.28 13.28 0 0 0 12.94-12.94V521.13h19.06v105.52c0 7.33 5.94 13.28 13.28 13.28s13.28-5.94 13.28-13.28h0V521.13h24.54 0zm108.1 5.46c-6.48-3.47-13.75-5.23-21.63-5.23-25.52 0-46.21 20.69-46.21 46.21s18.76 44.21 42.58 46.06l77.96-111.04c2.95-6.71 10.77-9.76 17.48-6.82 4.82 2.12 7.94 6.88 7.94 12.15v118.73a13.27 13.27 0 0 1-26.54 0v-77.12l-.08 1.07-57 81.75c-4.17 6.12-11.95 8.07-16.12 8.16-36.69 0-66.96-27.11-72.1-62.37v48.51a13.27 13.27 0 0 1-26.54 0v-81.47c.18-7.33 6.27-13.12 13.6-12.94a13.28 13.28 0 0 1 12.94 12.94v11.81c5.14-35.26 35.41-62.37 72.1-62.37 12.89 0 25.15 3.58 35.66 9.44a13.27 13.27 0 0 1-14.04 22.52h0zm107.93-23.54h4.87c2.12 0 4.48.8 4.48 3.51 0 3.08-2.92 3.36-5.6 3.36h-3.75v1.32h4.59l5.31 8.15h1.68l-5.28-8.11c2.52-.4 4.55-1.8 4.55-4.68 0-3.19-1.76-4.87-5.75-4.87h-6.63v17.66h1.52v-16.33h0zm3.91-7.43a14.92 14.92 0 0 1 14.94 14.94c0 8.27-6.68 14.94-14.94 14.94s-14.94-6.67-14.94-14.94 6.68-14.94 14.94-14.94l.04 1.32c-7.71 0-13.46 5.91-13.46 13.63s5.83 13.62 13.46 13.62 13.38-6.11 13.38-13.66-5.71-13.59-13.38-13.59l-.04-1.32zM459.58 618.29l-41.91-51.77 40.42-49.93c4.51-5.77 3.49-14.12-2.28-18.63a13.28 13.28 0 0 0-18.35 1.93l-36.87 45.54-36.06-44.54c-2.41-3.87-6.65-6.22-11.21-6.23a13.27 13.27 0 0 0-13.27 13.27v49.77c0 10.48-8.5 18.97-18.98 18.97a18.97 18.97 0 0 1-18.97-18.97v-49.77a13.28 13.28 0 0 0-13.28-13.27 13.27 13.27 0 0 0-13.27 13.27v49.77c0 25.14 20.39 45.52 45.53 45.52s45.51-20.38 45.51-45.52v-12.09l16.93 20.91-41.91 51.77c-4.61 5.7-3.73 14.05 1.97 18.66 5.69 4.61 14.04 3.74 18.66-1.95l38.36-47.38L438.96 635c4.61 5.69 12.96 6.57 18.66 1.96s6.57-12.96 1.96-18.66h0zm-138.51-5.25h-54.58V507.92a13.27 13.27 0 1 0-26.54 0v118.73a13.27 13.27 0 0 0 13.27 13.27c1 0 1.97-.14 2.91-.35h64.94c7.33-.13 13.17-6.17 13.04-13.5-.13-7.15-5.89-12.91-13.04-13.04h0z"/></svg>