<svg xmlns="http://www.w3.org/2000/svg" viewBox="0 0 1080 1080" xmlns:v="https://vecta.io/nano"><path d="M136.9 594.33h37.64l23.68-64.9s5.5-22.18 42.63-22.18c34.15 0 31.42 12.46 31.42 14.46s-2.26 12.96-28.93 12.96-38.64-4.49-38.64-4.49l5.74 27.43s25.76 3.5 37.39 3.5c10.23 0 61.83-5.75 61.83-41.9 0-22.94-30.93-37.63-68.07-37.63-43.38 0-68.09 16.61-79.01 43.88l-25.69 68.88h0zm181.24-64.27l-23.94 64.27h35.16l23.92-64.27h-35.14zm160.54 30.53c0 25.82-43.16 37.16-68.07 37.16-12.22 0-59.32-6.74-59.32-34.4s46.9-36.64 65.81-36.64c21.17 0 61.58 8.07 61.58 33.89h0zm-63.83-13.71c-8.48 0-26.17 4.74-26.17 15.7s15.69 14.72 24.92 14.72 27.68-4.5 27.68-15.46-16.71-14.96-26.44-14.96h0zm61.58 47.45h34.4l13.96-37.23c.95-3.09 5.74-10.72 20.7-10.72 17.35 0 15.23 10.56 14.2 13.22l-12.71 34.73h33.91l13.21-35.72s10.97-31.41-41.38-31.41-61.32 27.42-61.32 27.42l-14.97 39.72h0zm193.7-50.19c20.18 0 20.95 6.22 20.95 6.22s3.74 4.24-18.95 4.24-31.65-5.48-31.65-5.48 11.71-4.98 29.66-4.98h0zm-3.49-16.95c-23.95 0-64.81 9.98-64.81 38.13 0 23.94 44.59 32.66 58.07 32.66 35.41 0 51.13-5.47 51.13-5.47l7.23-19.95s-20.44 7.47-49.61 7.47c-44.39 0-41.14-18.7-41.14-18.7s12.23 9.98 41.9 9.98S725 565.08 725 553.1s-25.29-25.92-58.35-25.92h0zm185.22 67.14h34.16l12.45-34.73s2.5-9.73 11.47-9.73h26.68l6.48-19.81h-48.11s-19.44 1.13-27.92 22.56c-8.47 21.43-15.21 41.7-15.21 41.7h0zm2.38-40.75c0 11.96-25.92 18.2-55.59 18.2s-41.89-9.98-41.89-9.98-3.24 18.7 41.13 18.7c29.17 0 49.62-7.47 49.62-7.47l-7.24 19.95s-15.72 5.47-51.13 5.47c-13.48 0-58.06-8.72-58.06-32.66 0-28.15 40.85-38.13 64.8-38.13 33.06 0 58.35 13.96 58.35 25.93h0zm-84.51-4s8.96 5.48 31.65 5.48 18.95-4.24 18.95-4.24-.77-6.22-20.95-6.22c-17.95 0-29.65 4.98-29.65 4.98h0z" fill="#900d35" fill-rule="evenodd"/></svg>