<svg xmlns="http://www.w3.org/2000/svg" viewBox="0 0 1080 1080" xmlns:v="https://vecta.io/nano"><path d="M214.14 569.21l1.66.83 1.84.73 1.92.6 2.03.42 2.15.36 2.32.32 2.23.16 2.38.12 2.46.11 2.57-.11h2.5l2.66-.05 5.34-.23 5.5-.31 2.75-.12 2.75-.17 2.77-.06 2.78-.04h2.77l2.69.04 2.71.1 2.7.25 2.66.31 2.6.31 2.57.52 2.45.64 2.47.69 2.35.81 2.31.98 2.18 1.17 2.6 1.57 2.23 1.63 2.16 1.84 1.98 1.83 1.62 1.92 1.57 2.09 1.32 2.09 1.15 2.18.94 2.16.77 2.21.64 2.21.38 2.28.28 2.3.06 2.19-.13 2.16-.21 2.19-.38 2.08-.6 2.05-.7 1.92-.87 1.89-.98 1.77-1.07 1.66-1.28 1.52-1.47 1.44-1.53 1.28-1.6 1.1-1.84.91-1.83.8-2.03.58-2.16.32-2.18.15-2.37-.06-.79-.04h-1.6l-.76.04-.75.11-.7.19-.64.1-.64.21-.64.18-.6.31-.53.3-.6.26-.49.34-.45.35-.49.36-.43.33-.38.49-.38.45-.35.49-.35.51-.32.56-.23.54-.22.64-.22.61-.21.56-.15.69-.12.7-.15.76-.03.77v1.57l.03.81.09 2.38-.18 2.19-.35 2.2-.6 1.96-.73 1.87-.94 1.82-1.16 1.66-1.2 1.53-1.46 1.48-1.5 1.22-1.69 1.16-1.78 1-1.88.84-1.92.76-1.99.47-2.09.42-2.13.29-2.19.07-2.23-.07-2.25-.22-2.25-.49-2.22-.56-2.25-.7-2.12-1.01-2.12-1.17-2.16-1.28-2.01-1.54-1.98-1.79-1.86-1.88-1.79-2.1-1.63-2.39-1.56-2.57-1.18-2.16-.98-2.32-.83-2.37-.64-2.48-.64-2.5-.44-2.5-.35-2.66-.3-2.66-.24-2.72-.04-2.67v-8.3l.04-2.81.13-2.73.12-2.78.3-5.45.26-5.39.06-2.68v-7.5l-.12-2.46-.19-2.25-.27-2.29-.35-2.16-.5-2.07-.53-1.96-.75-1.82-.78-1.73h-.04zm0 0l-.87 1.73-.68 1.82-.59 1.96-.51 2.12-.32 2.11-.3 2.29-.17 2.27-.09 2.46-.06 2.43v2.57l.06 2.51v2.68l.24 5.39.32 5.45.13 2.78.13 2.73.03 2.81.1 2.77v2.76l-.1 2.77-.09 2.67-.21 2.72-.32 2.66-.32 2.66-.47 2.5-.58 2.5-.69 2.51-.79 2.37-1.04 2.32-1.17 2.16-1.48 2.57-1.62 2.39-1.79 2.1-1.92 1.88-1.92 1.79-2.05 1.54-2.1 1.28-2.13 1.17-2.15 1.01-2.28.7-2.19.56-2.23.49-2.28.22-2.19.07-2.19-.07-2.18-.29-2.05-.42-2.02-.47-1.92-.76-1.92-.84-1.75-1-1.66-1.16-1.55-1.22-1.37-1.48-1.28-1.53-1.07-1.66-.97-1.82-.78-1.87-.53-1.96-.42-2.2-.09-2.19.06-2.38v-3.16l-.17-.72-.15-.7-.15-.69-.18-.56-.24-.61-.27-.64-.24-.54-.29-.56-.32-.51-.35-.49-.41-.45-.33-.49-.49-.33-.45-.36-.47-.35-.51-.34-.56-.26-.55-.3-.64-.31-.64-.18-.6-.21-.64-.1-.74-.19-.7-.11-.78-.04h-1.56l-.83.04-2.32.06-2.22-.15-2.18-.32-2.02-.58-1.85-.8-1.78-.91-1.66-1.1-1.54-1.28-1.41-1.44-1.21-1.52-1.15-1.66-.98-1.77-.89-1.89-.74-1.92-.56-2.05-.38-2.08-.19-2.19-.12-2.16.12-2.19.19-2.3.38-2.28.64-2.21.76-2.21.98-2.16 1.14-2.18 1.32-2.09 1.55-2.09 1.69-1.92 1.98-1.83 2.12-1.84 2.28-1.63 2.57-1.57 2.22-1.17 2.3-.98 2.34-.81 2.45-.69 2.47-.64 2.57-.52 2.57-.31 2.68-.31 2.7-.35 2.67-.1 2.73-.04h2.73l2.75.04 2.81.06 2.8.16 2.7.12 5.44.31 5.37.23 2.62.05h2.57l2.5.11 2.44-.11 2.39-.12 2.3-.16 2.25-.32 2.14-.36 2.06-.42 1.92-.6 1.84-.73 1.75-.83.04.04zm0 0l1.66-.81 1.84-.71 1.92-.64 2.03-.4 2.15-.44 2.32-.21 2.23-.22 2.38-.1 2.46-.05h2.57l2.5.05 2.66.08 5.34.24 5.5.26 2.75.16 2.77.12 2.77.1 2.78.04h2.77l2.69-.04 2.71-.13 2.7-.24 2.66-.23 2.6-.4 2.57-.48 2.45-.58 2.47-.76 2.35-.78 2.31-.98 2.18-1.21 2.6-1.5 2.23-1.69 2.16-1.77 1.98-1.92 1.62-1.92 1.57-2.1 1.32-2.08 1.15-2.15.94-2.19.77-2.23.64-2.25.38-2.24.28-2.23.06-2.25-.13-2.16-.21-2.22-.38-2-.6-2.05-.7-1.92-.87-1.92-.98-1.77-1.07-1.66-1.28-1.55-1.47-1.35-1.53-1.28-1.6-1.1-1.84-.99-1.83-.78-2.03-.56-2.16-.31-2.18-.21-2.38.03-.79.1-.81.07-.79-.07-.76-.1-.75-.06-.7-.19-.64-.17-.64-.15-.64-.19-.6-.28-.53-.26-.6-.32-.49-.26-.45-.39-.49-.44-.43-.33-.38-.48-.38-.46-.35-.47-.35-.49-.32-.64-.23-.55-.22-.6-.22-.6-.21-.6-.15-.69-.12-.74-.15-.71-.03-.76v-1.58l.03-.8.09-2.32-.18-2.32-.35-2.07-.6-2.09-.73-1.92-.94-1.76-1.16-1.62-1.2-1.54-1.46-1.4-1.5-1.23-1.69-1.24-1.78-.98-1.88-.85-1.92-.73-1.99-.54-2.09-.4-2.13-.24-2.19-.12-2.23.12-2.25.21-2.25.44-2.22.64-2.25.8-2.12.92-2.12 1.13-2.16 1.38-2.01 1.53-1.98 1.71-1.86 1.87-1.79 2.19-1.63 2.28-1.56 2.57-1.18 2.21-.98 2.29-.83 2.39-.64 2.53-.64 2.48-.44 2.57-.35 2.6-.3 2.61-.24 2.7-.04 2.76v8.26l.04 2.79.13 2.77.12 2.8.3 5.45.26 5.39.06 2.64v7.55l-.12 2.43-.19 2.31-.27 2.29-.35 2.12-.5 2.08-.53 1.92-.75 1.84-.78 1.73h-.04zm0 0l-.87-1.73-.68-1.84-.59-1.92-.51-2.08-.32-2.12-.3-2.29-.17-2.32-.09-2.43-.06-2.44v-2.55l.06-2.57v-2.64l.24-5.39.32-5.45.13-2.8.13-2.77.03-2.79.1-2.75v-2.82l-.1-2.69-.09-2.76-.21-2.7-.32-2.61-.32-2.6-.47-2.57-.58-2.48-.74-2.53-.79-2.39-1.04-2.29-1.17-2.21-1.48-2.57-1.62-2.28-1.79-2.19-1.92-1.87-1.92-1.71-2.05-1.53-2.1-1.38-2.13-1.13-2.15-.92-2.28-.8-2.19-.64-2.23-.44-2.28-.21-2.19-.12-2.19.12-2.18.24-2.05.4-2.02.54-1.92.73-1.92.85-1.75.98-1.66 1.24-1.55 1.23-1.37 1.4-1.28 1.54-1.07 1.62-.97 1.76-.78 1.92-.53 2.09-.42 2.07-.09 2.32.06 2.32v3.14l-.15.71-.15.74-.15.69-.18.6-.24.6-.27.6-.24.55-.29.64-.32.49-.35.47-.41.46-.33.48-.49.33-.45.42-.47.39-.51.26-.56.32-.55.26-.64.28-.64.19-.6.15-.64.17-.74.19-.7.06-.78.1-.77.07-.79-.07-.83-.1-2.32-.04-2.22.21-2.18.31-2.02.56-1.85.78-1.78.99-1.66 1.1-1.54 1.28-1.41 1.35-1.21 1.55-1.15 1.66-.98 1.77-.89 1.92-.74 1.92-.56 2.05-.38 2-.19 2.22-.12 2.18.12 2.25.19 2.23.38 2.24.64 2.25.76 2.23.98 2.19 1.14 2.15 1.32 2.08 1.55 2.1 1.69 1.92 1.98 1.92 2.12 1.77 2.28 1.69 2.57 1.5 2.22 1.21 2.3.98 2.34.78 2.45.76 2.47.58 2.57.48 2.57.4 2.68.23 2.72.24 2.67.13 2.73.04h2.73l2.75-.04 2.81-.1 2.8-.12 2.7-.16 5.44-.26 5.37-.24 2.62-.08 2.57-.05h2.5l2.44.05 2.39.1 2.3.22 2.25.21 2.14.44 2.06.4 1.92.64 1.84.71 1.75.81.06.04zm206.43-82.96h64.17v21.69h-36.45v22.27h34.01v24.13h-34.01v24.68h36.47V602h-64.17V486.26h-.01zm-86.99 0h42.07l1.68.07 1.69.13 1.66.16 1.58.21 1.6.3 1.45.35 1.5.47 1.43.38 1.41.47 1.28.64 1.39.64 1.21.64 1.2.74 1.22.76 1.12.85 1.06.87.98.9.98 1.04.85 1.09.89 1.14.71 1.21.7 1.32.68 1.33.56 1.51.5 1.41.46 1.55.37 1.64.37 1.71.21 1.77.23 1.83.12 1.92v1.32l-.06 1.39-.06 1.32-.13 1.19-.13 1.28-.13 1.22-.15 1.17-.21 1.15-.21 1.12-.24 1.15-.3 1.01-.31 1.1-.32.98-.37 1.01-.38.92-.41.9-.41 1.01-.51.81-.5.85-.51.78-.64.81-.64.77-.69.74-.64.73-.71.64-.81.64-.83.58-.82.64-.91.49-.92.6-.98.47-1 .48 1.6.46 1.48.52 1.35.56 1.32.64 1.23.71 1.08.77 1.03.82.99.85.4.56.36.43.47.44.35.55.26.54.32.53.28.55.22.54.23.6.22.64.1.56.13.64.13.69.1.64v1.35l1.2 28.23.06 1.5.06 1.42.12 1.28.15 1.12.19 1.06.31.85.26.78.4.64.41.56.36.38.41.42.41.28.41.3.42.15.44.18h.38v3.65h-25.73l-1.16-.12-1.09-.12-.94-.19-.74-.21-.68-.33-.3-.15-.32-.14-.21-.21-.2-.22-.18-.22-.13-.25-.21-.28-.15-.32-.28-.81-.24-.93-.19-1.09-.06-1.24-.13-1.37v-27.14l-.12-1.28-.18-1.17-.3-1.12-.26-1.03-.46-.95-.21-.39-.19-.44-.24-.33-.33-.38-.25-.37-.34-.26-.34-.29-.4-.3-.44-.28-.43-.13-.49-.28-.56-.21-.47-.11-.59-.14-.67-.15-.59-.07-1.37-.19-1.5-.07h-6.42v45.26h-27.8V486.16zm162.05 0h27.69v92.76h32.83v22.98h-60.53V486.25h.02zm72 0h27.83v115.74h-27.83V486.25zm94.29 106.03l-.15.64-.17.6-.21.64-.29.54-.34.64-.35.53-.47.58-.47.51-.58.64-.53.49-.68.58-.69.53-.76.51-.8.44-.91.54-.89.43-.98.51-.98.42-.98.41-1.06.43-.98.31-.97.36-1.07.22-1.07.25-1 .28-1.03.17-1.16.15-1.1.17-1.06.07-1.12.1-1.09.06h-3.14l-1.17-.09-1.24-.13-1.15-.23-1.24-.27-1.11-.33-1.14-.34-1.22-.41-1.08-.46-1.19-.53-1.09-.54-1.15-.68-1.03-.68-1.11-.69-1.07-.74-1.08-.89-.97-.89-.56-.48-.5-.45-.46-.53-.46-.52-.87-1.13-.88-1.25-.7-1.28-.67-1.4-.64-1.45-.56-1.47-.47-1.68-.44-1.75-.35-1.8-.3-1.85-.24-1.92-.15-2.09-.06-2.06-.04-2.28v-56.47l.04-1.92.06-1.89.16-1.8.24-1.75.32-1.71.38-1.67.42-1.61.55-1.48.53-1.46.64-1.47.76-1.39.8-1.33.81-1.28.91-1.19.98-1.16 1.06-1.12.54-.57.56-.47.58-.55.64-.47.6-.51.64-.4.75-.47.64-.44 1.5-.7 1.51-.77 1.65-.64 1.72-.64 1.76-.56 1.93-.39 1.93-.44 2.03-.29 2.13-.2 2.25-.24 2.29-.06h4.46l2.1.06 1.97.15 1.93.29 1.89.29 1.82.33 1.73.47 1.7.47 1.68.55 1.57.6 1.58.69 1.43.7 1.35.84 1.44.89 1.23.9 1.28.99 1.12 1.05 1.17 1.21 1.05 1.13.89 1.28.85 1.28.85 1.39.71 1.44.6 1.52.64 1.56.44 1.68.41 1.69.38 1.8.28 1.79.19 1.92.08 1.92.06 2.07v10.04h-28.23v-14.81l-.06-.85-.07-.81-.28-.73-.19-.6-.41-.64-.44-.55-.54-.47-.64-.42-.64-.35-.64-.37-.73-.3-.68-.14-.78-.15-.7-.21-.73-.04-.74-.04h-.89l-.85.18-.85.13-.79.21-.84.27-.81.32-.69.42-.78.39-.71.44-.68.58-.56.53-.53.64-.4.64-.28.76-.21.77-.19.71v64.66l.19 1.03.07.48.13.56.12.46.17.46.22.43.18.46.3.37.22.42.23.44.33.37.35.32.33.32.71.64.78.49.69.45.81.44.84.28.79.32.85.19.85.13h2.03l.81-.16.71-.23.79-.29.74-.29.71-.39.64-.47.64-.45.64-.58.64-.64.47-.68.5-.69.27-.71.38-.83.19-.81.08-.85.09-.96v-14.94h-9.47v-20.67h36.47v62.24h-18.5l-1.2-9.71h.05zm55.51-106.03h31.69l25.77 115.74h-28.23l-3.64-22.98h-20.78l-3.63 22.98h-27.66l26.46-115.74h.02zm66.56 0h42.08l1.79.07 1.68.13 1.69.16 1.57.21 1.6.3 1.41.35 1.59.47 1.33.38 1.48.47 1.28.64 1.33.64 1.28.64 1.16.74 1.15.76 1.15.85 1.03.87 1 .9.94 1.04.95 1.09.77 1.14.78 1.21.7 1.32.64 1.33.55 1.51.54 1.41.49 1.55.41 1.64.21 1.71.32 1.77.21 1.83.14 1.92-.06 1.32v1.33l-.09 1.32-.06 1.24-.15 1.28-.11 1.22-.21 1.17-.17 1.15-.3 1.12-.15 1.15-.27 1.01-.3 1.1-.38.98-.35 1.01-.35.92-.37.9-.47 1.01-.47.81-.53.85-.51.78-.64.81-.69.77-.7.74-.69.73-.64.64-.8.64-.84.58-.88.64-.82.49-.91.6-1.01.47-.94.48 1.56.46 1.45.52 1.38.56 1.28.64 1.18.71 1.16.77.98.82.98.85.49.56.38.43.35.44.35.55.35.54.26.53.3.55.24.54.28.6.1.64.21.56.19.64.08.69v.64l.1.64v.71l1.21 28.23v1.5l.1 1.42.12 1.28.11 1.12.3 1.06.27.85.26.78.35.64.44.56.41.38.41.42.4.28.4.3.41.15.38.18h.51v3.65h-25.9l-1.13-.12-1.09-.12-.87-.21-.85-.21-.71-.33-.26-.15-.28-.14-.23-.21-.19-.22-.19-.22-.28-.25-.08-.28-.21-.32-.21-.81-.21-.9-.21-1.09-.09-1.24-.08-1.37v-25.73l-.06-1.4-.12-1.28-.18-1.17-.24-1.12-.3-1.03-.4-.95-.2-.39-.28-.44-.26-.33-.21-.38-.32-.37-.26-.26-.39-.29-.41-.3-.35-.28-.53-.13-.44-.28-.53-.21-.56-.11-.56-.14-.56-.15-.7-.07-1.32-.19-1.57-.07h-6.33v45.26h-27.93V486.17H784zm87.05 0h64.17v21.69h-36.47v22.27h34.09v24.13h-34.09v24.68h36.47V602h-64.17V486.26zm-156.18-16.97l.94 1.92 1.03 1.58 1.03 1.32 1.09 1.09 1.16.8 1.2.64 1.12.46 1.22.26 1.2.15h1.24l1.28-.15 1.24-.3 1.28-.32 1.23-.45 1.28-.45 1.24-.54 2.47-1.12 2.4-1.1 1.18-.47 1.12-.45 1.13-.37 1.03-.3 1-.12 1-.07.92.15.87.22.78.48.77.6.73.83.64 1.06.42-.32.56-.39.51-.35.35-.26-.94-1.87-1-1.64-1.06-1.28-1.07-1.08-1.15-.87-1.15-.64-1.22-.49-1.2-.31-1.23-.04h-1.21l-1.28.15-1.28.21-1.24.4-1.28.46-1.24.46-1.28.46-2.46 1.17-2.37 1.1-1.18.46-1.12.42-1.12.37-1.09.33-1 .14h-.94l-.92-.06-.87-.31-.81-.4-.79-.64-.59-.9-.75-.99-.44.28-.49.41-.52.38-.37.26.03.02zm103.38 66.97h1.03l.48-.06.47-.1.5-.14.49-.13.43-.21.41-.19 1-.46.81-.49.89-.68.85-.82.42-.47.41-.42.32-.53.35-.42.31-.58.25-.64.28-.64.26-.68.12-.64.22-.71.1-.78.14-.76.12-.81.04-.9.06-.9v-4.22l-.21-1.18-.24-1.24-.28-1.06-.26-.96-.34-1.05-.38-.82-.35-.9-.32-.71-.41-.71-.41-.64-.41-.64-.5-.47-.44-.46-.47-.3-.53-.33-.6-.26-1.12-.37-1.28-.38-1.28-.24-1.28-.25-1.38-.15-1.49-.16-1.5-.05-1.62-.06v30.8h6.35zm-78.8 21.78l-7.1-51.3-7.7 51.3h14.8zm-371.63-21.77h1l.49-.06.49-.1.41-.14.53-.13.44-.21.5-.19.89-.46.85-.49.86-.68.91-.82.38-.47.37-.42.3-.53.37-.42.31-.58.29-.64.27-.64.19-.68.2-.64.21-.71.12-.78.13-.76.07-.81.12-.9v-5.13l-.22-1.18-.21-1.24-.35-1.06-.19-.94-.3-1.05-.4-.82-.3-.9-.38-.71-.38-.71-.44-.64-.44-.64-.38-.47-.53-.46-.56-.32-.44-.33-.55-.26-1.19-.37-1.18-.38-1.24-.24-1.35-.25-1.48-.15-1.42-.16-1.57-.05-1.59-.06v30.8h6.42zm390.45 82.46v37.22h-6.95v-3.68l-.43.6-.4.49-.45.56-.44.44-.44.38-.47.42-.47.33-.46.26-.53.26-.53.31-.58.16-.52.17-.6.08-.64.18h-2.5l-.6-.18-.59-.08-.51-.17-.64-.09-.5-.22-.49-.27-.5-.25-.57-.31-.38-.36-.51-.35-.44-.4-.44-.42-.44-.46-.35-.46-.44-.46-.28-.59-.38-.52-.3-.64-.31-.57-.24-.64-.17-.57-.21-.64-.21-.64-.21-.69-.15-.68-.08-.77-.1-.74-.06-.8v-.76l-.1-.81.1-.8v-.77l.06-.81.1-.81.08-.64.15-.77.21-.69.21-.57.21-.77.18-.64.24-.56.31-.61.3-.53.38-.64.28-.52.44-.55.35-.45.44-.52.44-.39.44-.46.4-.34.48-.34.51-.26.56-.32.47-.29.47-.17.64-.17.56-.17.55-.04.58-.07.58-.08h1.24l.68.09.59.06.56.09.64.19.51.18.56.26.53.24.53.32.47.29.47.33.44.4.44.46.42.39.32.51.38.54v-13.21h7.08zM739.07 642v1.07l.09.94.13.84.15.83.27.84.24.69.33.64.38.54.35.55.47.45.53.35.59.31.54.28.58.14.7.13h1.43l.64-.13.56-.14.64-.28.56-.31.46-.35.45-.45.38-.46.38-.64.3-.64.29-.69.21-.84.12-.83.17-.84.04-.94.06-1.07-.06-.92-.04-.85-.17-.9-.12-.81-.29-.69-.21-.64-.35-.6-.42-.64-.38-.49-.51-.49-.46-.26-.6-.3-.53-.24-.64-.15-.64-.13-.73-.06-.71.06-.64.13-.6.15-.53.24-.53.31-.44.34-.49.47-.44.47-.35.56-.35.64-.24.7-.24.69-.17.83-.13.76-.09.85v.92l.04.06zm-38.71 13.93v-27.52h7.23v3.28l.41-.39.35-.51.48-.4.41-.39.47-.4.47-.33.53-.23.48-.28.52-.26.6-.23.59-.1.54-.18.51-.09.64-.13h2.32l1.06.13.98.17.89.28.77.32.8.41.68.43.6.6.49.6.47.78.41.78.32.85.24.9.1.95.13 1.09.1 1.22v18.67h-7.38v-17.32l-.06-.64-.08-.6-.1-.52-.12-.55-.19-.44-.2-.35-.27-.39-.22-.31-.34-.25-.35-.17-.41-.23-.37-.08-.48-.13-.49-.06h-1.22l-.49.06-.64.13-.55.17-.48.22-.44.3-.42.21-.44.42-.35.45-.29.44-.22.51-.29.5-.06.51-.22.58v17.58h-7.39zm-15.74-30.47v-6.74h7.34v6.75h-7.34zm0 30.47v-27.52h7.34v27.52h-7.34zm-33.45-37.21h7.17v13.18l.3-.54.41-.51.37-.45.41-.4.48-.41.37-.32.5-.37.56-.24.51-.32.5-.17.56-.24.57-.17.6-.04.58-.07.64-.08h1.24l.58.08.6.07.64.04.47.17.6.17.47.17.5.29.51.32.56.26.45.34.49.34.38.46.44.39.42.52.41.45.35.55.38.52.32.64.32.53.24.61.22.56.29.64.22.77.19.57.21.69.06.77.12.64.09.81.04.81.06.77v1.62l-.06.76-.04.8-.09.74-.12.77-.06.68-.21.69-.19.64-.22.64-.29.6-.22.64-.24.57-.32.64-.32.52-.38.59-.35.46-.41.46-.42.46-.44.42-.38.4-.49.35-.45.36-.56.31-.51.25-.5.27-.56.22-.55.09-.57.17-.56.08-.64.18h-2.46l-.64-.18-.56-.08-.53-.17-.54-.16-.56-.31-.5-.26-.47-.26-.44-.33-.43-.42-.46-.36-.49-.44-.39-.56-.35-.49-.38-.6v3.67h-7.06v-37.22h-.03zM670.35 642v-1.77l-.18-.76-.12-.83-.22-.69-.34-.7-.27-.64-.43-.58-.41-.47-.44-.47-.57-.34-.46-.31-.56-.24-.6-.15-.64-.13-.64-.06-.74.06-.64.13-.64.15-.56.24-.58.3-.48.26-.43.49-.46.49-.31.64-.3.6-.38.64-.19.69-.15.81-.17.9v3.77l.17.84.11.83.23.84.25.69.33.64.38.64.41.46.38.45.56.35.47.31.64.28.58.14.72.13h1.42l.64-.13.59-.14.64-.28.55-.31.49-.35.44-.45.41-.55.38-.54.37-.64.24-.69.22-.84.17-.83.12-.84v-2.05zm-46.2 14.18h-1.18l-.59.06-.71.08h-1.13l-.34.07h-.28l-1-.07-.91-.08-.86-.13-.82-.17-.64-.21-.56-.33-.54-.3-.44-.37-.38-.42-.32-.55-.19-.64-.26-.64-.13-.85-.19-.93v-17.1h-3.66v-5.18h3.66v-7.49h7.22v7.49h4.25v5.18h-4.25v15.75l.11.35.13.39.21.21.28.14.43.13.59.08h2.5v5.53h0zm-27.36-3.7l-.35.64-.47.46-.37.46-.4.46-.47.37-.49.38-.54.33-.49.3-.6.26-.59.28-.64.15-.64.18-.64.1-.71.1H587l-.94-.1-.84-.17-.82-.22-.7-.32-.68-.46-.64-.43-.55-.53-.53-.64-.42-.67-.38-.72-.28-.78-.22-.82-.19-.92-.08-1v-1.92l.08-.81.19-.82.22-.84.28-.68.38-.64.42-.64.53-.49.55-.54.75-.45.71-.45.89-.32.85-.3 1.08-.3 1.16-.29 1.08-.17.68-.15.69-.11.77-.09.87-.12 1.13-.13.91-.24.8-.3.68-.29.26-.13.21-.24.18-.23.21-.16.08-.22.13-.22v-.23l.08-.32-.08-.3v-.49l-.04-.28-.12-.3-.15-.33-.24-.22-.18-.23-.33-.21-.17-.12-.32-.22-.4-.1-.44-.13-.41-.04h-.49l-.56-.1h-1.1l-.49.1h-.44l-.41.13-.42.15-.49.13-.34.15-.28.26-.28.24-.28.22-.16.28-.15.29-.19.35v.35l-.06.41-.12.35v.39h-6.82v-.49l.04-1.01.21-.98.06-.46.12-.46.15-.43.21-.42.2-.38.21-.42.29-.36.2-.29.3-.45.35-.24.24-.42.43-.31.38-.29.4-.28.41-.24.41-.19.92-.46 1.06-.32.97-.3 1.12-.15 1.28-.09 1.2-.06 1.4.06 1.34.09 1.22.11 1.13.23 1.08.25.98.43.84.38.84.44.68.53.64.61.3.29.3.4.12.29.27.36.19.38.17.29.09.49.08.39.19.78.04.94v16.49l.1.71.13.6.15.47.17.42.32.28.24.29.41.24v1.22h-7.58l-.24-.3-.12-.43-.18-.42-.11-.37-.08-.42v-.99l-.1-.54h-.01zm-.12-10.11l-.94.46-1 .37-1.07.3-1.12.26-1.01.24-.79.16-.44.08-.11.1-.99.22-.73.44-.37.1-.24.18-.26.24-.17.15-.19.24-.13.29-.12.24-.15.24-.12.32v.31l-.1.35v.69l.1.38.09.3.1.32.12.31.22.26.19.24.17.27.26.22.29.19.31.11.35.13.27.14.35.03.41.07h1.16l.64-.1.64-.14.64-.21.56-.23.53-.29.49-.34.4-.42.41-.44.38-.43.24-.56.24-.51.24-.64.15-.6.06-.69v-3.38h.04zm-48.3 13.56v-37.22h7.29v12.77l.35-.45.44-.42.38-.34.42-.46.46-.32.44-.3.47-.3.56-.13.51-.34.56-.19.45-.13.59-.12.56-.09.64-.13h2.43l.59.04.58.13.47.13.6.15.46.13.5.22.53.25.4.23.44.23.44.32.32.3.35.31.38.42.3.32.44.55.34.56.17.56.28.7.08.81.13.89.06 1.24v19.66h-7.27v-15.59l-.07-1.13v-.96l-.13-.84-.08-.76-.22-.64-.19-.55-.28-.35-.21-.29-.27-.32-.38-.17-.41-.16-.4-.15-.55-.13-.47-.06h-1.28l-.64.06-.53.13-.53.17-.54.22-.44.3-.44.21-.42.42-.3.45-.35.44-.25.51-.19.5-.16.51-.17.58v17.63h-7.28zm-6.25.23H541l-.64.06-.64.08h-1.11l-.38.07h-.27l-1.03-.07-.94-.08-.81-.13-.74-.17-.64-.21-.64-.33-.54-.3-.42-.37-.38-.42-.28-.55-.28-.64-.21-.64-.24-.85v-.93l-.06-1.05-.08-1.09v-14.95h-3.63v-5.18h3.63v-7.49h7.26v7.49h4.25v5.18h-4.25v15.21l.06.54.12.35.1.39.27.21.19.14.52.13.56.08h2.44v5.53h-.06zm-64.57-9.15h7.36l.06.47.06.49.14.47.12.37.21.35.27.44.29.28.33.26.44.23.45.23.41.21.51.08.52.13.6.08.68.08h.68l1-.08.87-.08.41-.13.36-.08.34-.21.3-.16.28-.14.24-.28.19-.2.19-.22.13-.26.15-.3.06-.3v-.56l-.06-.2-.15-.26-.09-.24-.15-.16-.21-.19-.19-.18-.27-.2-.64-.31-.73-.28-.98-.25-.98-.32-.84-.17-.73-.17-.69-.15-.56-.07-1.28-.44-1.2-.31-1.06-.35-.98-.45-.85-.39-.77-.42-.68-.48-.64-.44-.44-.56-.42-.52-.33-.55-.29-.6-.31-.71-.13-.6-.08-.83v-1.78l.15-.99.1-.45.09-.42.21-.4.21-.42.13-.46.24-.39.29-.35.24-.39.3-.4.29-.29.35-.34.33-.32.84-.56.84-.51.91-.46 1.03-.32 1.03-.3 1.22-.15 1.12-.09 1.28-.06 1.33.06 1.21.09 1.2.15 1.16.3 1.03.32 1 .46.41.26.47.25.4.22.4.35.38.32.35.34.32.29.32.4.27.39.3.35.19.39.28.46.15.42.22.51.13.41.11.52.18 1.03.09 1.06h-7.06l-.06-.41-.09-.44-.09-.35-.15-.38-.2-.3-.24-.3-.28-.24-.27-.28-.3-.28-.4-.16-.33-.19-.44-.08-.43-.13-.53-.1-.53-.04h-.47l-1.01.04-.82.1-.33.13-.41.08-.29.08-.22.21-.25.19-.24.13-.11.23-.15.22-.12.21-.09.31-.06.27v.28l.06.23v.21l.09.19.19.22.17.26.24.13.35.17.24.21.82.35.91.34 1.03.38 1.39.26.56.12.53.16h.43l.44.17 1.32.31 1.19.35 1.12.37 1.01.38.81.38.78.45.68.45.56.41.47.49.38.54.38.56.26.64.24.64.16.71.11.76v1.34l-.06.58-.05.53-.1.53-.12.51-.18.55-.09.44-.24.48-.18.4-.29.42-.24.37-.35.42-.25.4-.37.31-.38.32-.41.35-.35.26-.56.25-.4.28-.51.3-.53.17-.47.21-.58.23-.6.15-1.28.22-1.32.2-1.41.18h-2.95l-1.23-.18-1.28-.2-1.19-.22-.55-.21-.51-.17-.47-.29-.51-.16-.44-.27-.41-.24-.51-.35-.4-.29-.35-.33-.35-.34-.4-.36-.32-.32-.26-.42-.29-.39-.19-.4-.17-.46-.24-.45-.15-.51-.12-.44-.09-.51-.05-.51-.13-.55-.09-.49v-.85.03zm-12.79.64h7.3l-.31 1.02-.4.99-.41.98-.53.86-.64.8-.68.78-.68.64-.83.71-.92.51-.89.58-.94.38-.97.38-1.03.22-1.16.2-1.16.18h-2.66l-.64-.18-.64-.08-.68-.17-.64-.09-.64-.22-.53-.27-.64-.25-.6-.26-.44-.42-.64-.35-.44-.4-.54-.42-.44-.46-.48-.46-.38-.46-.35-.54-.41-.56-.29-.64-.33-.51-.28-.64-.29-.69-.24-.64-.15-.69-.21-.73-.13-.69-.12-.78-.06-.8-.09-.73-.06-.88-.05-.87.05-.84.06-.81.09-.74.06-.83.12-.64.13-.76.13-.71.23-.64.24-.64.29-.58.22-.64.31-.64.39-.6.32-.51.38-.49.43-.54.44-.46.47-.44.47-.44.53-.32.47-.39.56-.28.5-.28.64-.34.56-.21.58-.17.68-.17.64-.16.64-.08.67-.09.71-.06h1.51l.81.06.72.09.71.08.68.07.64.26.68.15.64.21.64.34.53.22.56.29.54.33.49.4.48.4.46.45.47.48.4.45.44.54.35.57.29.54.28.64.34.6.24.6.18.73.22.64.22.71.1.76.19.77.06.82v.83l.1.83v2.1l-.1.38v.33h-18.24v.87l.15.64.11.8.19.59.2.56.24.57.25.45.42.44.38.39.35.28.55.31.38.28.55.14.56.16.64.06.64.06.92-.06.8-.13.38-.15.4-.07.31-.16.34-.21.28-.22.28-.19.27-.3.21-.23.27-.3.22-.32.15-.37.22-.33-.03-.06zm-10.65-8.34h10.74l-.1-.68-.05-.64-.09-.56-.22-.53-.23-.46-.15-.54-.35-.39-.27-.49-.35-.26-.47-.3-.45-.24-.44-.21-.55-.16-.53-.13-.64-.12h-1.16l-.49.12-.64.13-.48.16-.44.21-.41.24-.35.31-.38.25-.32.49-.35.39-.19.54-.22.46-.22.53-.11.56-.15.64v.68h.04zm-14.49-10.91v27.53h-7.16v-3.27l-.42.54-.41.43-.47.42-.44.4-.44.32-.41.35-.56.24-.51.33-.52.21-.56.23-.6.15-.49.16-.68.06-.53.12-.64.06h-.64l-1.12-.06-.95-.12-1-.1-.86-.26-.82-.42-.76-.35-.65-.47-.56-.56-.59-.59-.41-.73-.38-.76-.3-.85-.24-.99-.24-.92-.08-1.15V628.4h7.3v17.39l.04.71.13.53.06.64.19.49.15.35.21.35.17.43.3.26.25.22.36.2.46.28.41.07.44.07.49.13h.59l.6-.06.64-.08.5-.07.59-.23.46-.21.47-.26.41-.31.42-.38.38-.38.28-.45.27-.49.19-.53.15-.54.15-.53.06-.64v-16.99h7.37zm-40.16 27.53v-37.22h7.33v37.22h-7.33zM384 652.47l-.37.64-.34.46-.53.46-.35.46-.46.37-.49.38-.51.33-.58.3-.56.26-.59.28-.71.15-.59.18-.6.1-.76.1h-2.39l-.89-.1-.82-.17-.8-.22-.77-.32-.64-.46-.64-.43-.56-.53-.54-.64-.38-.67-.37-.72-.31-.78-.27-.82-.18-.92-.09-1v-1.92l.09-.81.18-.82.27-.84.26-.68.42-.64.38-.64.54-.49.56-.54.73-.45.71-.45.89-.32.92-.3.98-.3 1.14-.29 1.16-.17.64-.15.73-.11.74-.09.91-.12 1.09-.13.91-.24.82-.3.64-.29.3-.13.27-.24.19-.23.13-.16.13-.22.08-.22.06-.23.05-.32-.05-.3-.06-.49-.04-.28-.13-.3-.12-.33-.21-.22-.21-.23-.3-.21-.21-.12-.3-.22-.38-.1-.45-.13-.38-.04h-.55l-.56-.1h-1.04l-.56.1h-.56l-.4.13-.4.15-.35.13-.33.15-.37.26-.22.24-.26.22-.21.28-.15.29-.11.35-.12.35v.41l-.05.35v.39h-6.89v-.49l.06-1.01.21-.98.07-.46.08-.46.15-.43.2-.42.22-.38.24-.42.25-.36.22-.29.32-.45.32-.24.27-.42.41-.31.38-.29.44-.28.38-.24.42-.19.88-.46 1.06-.32 1.01-.3 1.15-.15 1.16-.09 1.28-.06 1.39.06 1.32.09 1.24.11 1.08.23 1.1.25.97.43.92.38.79.44.72.53.58.61.32.29.27.4.21.29.15.36.27.38.13.29.15.49.08.39.12.78.07.94v16.49l.1.71.12.6.12.47.26.42.21.28.32.29.41.24v1.22h-7.6l-.22-.3-.19-.43v-.42l-.15-.37-.15-.42v-.99l-.06-.54h-.06zm-.1-10.11l-.92.46-1.02.37-1.12.3-1.08.26-1.07.24-.78.16-.39.09-.19.1-.9.22-.68.44-.35.1-.29.18-.24.24-.22.15-.17.24-.21.29-.09.24-.08.24-.13.32v.31l-.06.35v.69l.06.38.1.3.06.32.16.31.21.26.17.24.22.27.24.22.32.19.22.11.35.13.34.14.38.03.38.07h1.12l.64-.1.64-.14.57-.21.6-.23.51-.29.49-.34.44-.42.35-.44.45-.43.25-.56.19-.51.22-.64.15-.6.06-.69.04-.71v-2.67h.02zm-38.02 13.57l-12.78-37.22h8.51l7.85 27.87 8.06-27.87h8.34l-12.63 37.22h-7.35z" fill="#1e7240" fill-rule="evenodd"/></svg>