<svg xmlns="http://www.w3.org/2000/svg" viewBox="0 0 1080 1080" fill-rule="evenodd" xmlns:v="https://vecta.io/nano"><path d="M246.1 422.26c2.1 2.41 5.31 2.05 7.96 3.04 10.49 3.93 19.49 9.71 26.97 18.26 5.17 5.91 9 12.53 11.66 19.61 2.37 6.29 3.62 13.14 4.04 19.97.22 3.55.17 7.14 0 10.7-.12 2.49.75 3.32 3.25 3.28l24.62-.11c3.21-.07 4.48.84 4.37 4.23-.22 6.65-.23 13.33 0 19.98.12 3.46-1.08 4.47-4.49 4.46l-152.72-.06q-5.58 0-5.59 5.73v57.45c0 4.59.03 4.62 4.55 4.62h95.63c4.41 0 5.23.72 5.27 5.06.02 1.96-.84 3.47-3.14 3.5l-2.14.01c-35.09 0-70.18-.04-105.26.06-3.17 0-4.27-.71-4.26-4.11l.08-77.07c0-4.49.04-4.52 4.65-4.52l153.43-.03c1.68 0 4.03.91 4.89-1.04 1.05-2.38.63-5.13.16-7.7-.17-.92-1.11-1.16-1.99-1.19-.95-.03-1.9-.03-2.85-.03H151.41q-5.2 0-5.21 5.04v96.34q0 4.96 4.92 4.97h125.96c4.71 0 4.71-.01 4.72-4.81v-20.34c0-4.5-.29-4.81-4.9-4.81h-94.92c-.95 0-1.9-.04-2.85 0-2.14.1-2.97-.93-2.97-3.02v-40.32c0-2.48 1.1-3.79 3.64-3.77h2.14 142.02c5.37 0 5.42.08 4.98 5.25-.09 1.06-.03 2.14-.03 3.21l-.02 113.47-3.92.11c-61.13 0-122.27-.02-183.4.08-3.21 0-4.16-.74-4.02-4.01.3-7.24.16-14.5.2-21.75h158.07c5.06 0 5.24-.17 5.24-5.19v-57.8c0-5.12-.39-5.52-5.45-5.52-31.99 0-63.99-.04-95.98.06-3.34.01-4.33-1.1-4.27-4.34.06-3.62 1.86-4.33 4.98-4.33l104.55.04c4.74 0 4.75.01 4.75 4.79v75.65q0 5.21-5.39 5.21H152.6l-3.21.01c-1.33 0-2.3.61-2.87 1.76-2.16 4.35.14 8.22 4.88 8.22h162.35q6.6 0 6.6-6.5v-91.7q0-7.43-7.46-7.43c-39.37 0-78.74 0-118.11-.02-2.13 0-4.25.14-6.39-.25-1.76-.32-3.35.43-3.19 2.56.57 7.36.12 14.73.24 22.09.08 4.87.02 4.88 5.03 4.88h95.63c4.39 0 4.97.58 4.98 4.92v37.11c0 4.72-1.1 5.78-5.94 5.78H137.77l-.12-25.33v-95.63c0-1.31.07-2.61.12-3.92l28.86.04c2.97.04 4.15-1.01 3.88-3.94-.15-1.65-.07-3.32-.02-4.99.3-10.47 1.28-20.59 6.05-30.41 4.49-9.25 10.93-16.58 18.43-23.02 5.04-4.33 11.16-7.21 17.62-9.41 2.59-.88 5.89-.52 7.87-3.09h25.67zm-12.45 74.82h49.9c1.96 0 3.85.17 3.97-2.72.59-14.43-1.35-28.15-9.9-40.41-10.62-15.21-25.44-22.48-43.56-23.14-10.3-.38-20.01 2.57-28.92 7.89-9.43 5.64-16.47 13.56-20.9 23.47-4.19 9.37-5.46 19.47-5.23 29.74.11 4.65.52 5.16 5.09 5.16h49.54zm175.09 47.81l37.45-.06c3.13-.03 4.12 1.02 4.1 4.12-.04 10.22.06 10.22-10.08 10.22-21.28 0-42.56.1-63.84-.09-4.05-.04-6.15 1.88-7.7 5.04-1.27 2.59 1.83 6.49 5.62 7.11 1.04.17 2.13.08 3.2.08l50.29.07c3.7.04 7.56-.02 11 1.94 6.97 3.99 11.2 9.49 11.52 17.97.51 13.41-11.1 21.44-21.4 21.42-23.42-.04-46.84 0-70.26-.02-4.12 0-4.8-.64-4.75-4.77.13-11.18-1.6-9.43 9.29-9.48h64.2c3.07 0 5.44-1.02 7.34-3.44 1.55-1.98 1.32-3.99.34-6.01-.97-2-2.63-2.76-4.93-2.75-17.83.07-35.67.2-53.5-.04-8.61-.11-15.95-3.39-20.27-11.33-5.63-10.35-1.24-22.61 8.64-27.93 3.43-1.85 6.89-2.09 10.58-2.07l33.17.02zm146.94.01l35.32-.05c3.05-.03 4.44.86 4.14 4.06-.19 2-.12 4.04-.02 6.06.17 3.36-1.6 4.26-4.64 4.24l-44.59-.03c-7.13 0-14.28.27-21.4-.09-5.29-.27-10.19 4.27-10.07 10 .14 6.3 0 12.6.04 18.91.03 5.99 4.53 10.43 10.6 10.43h45.31c7.27-.02 12.49-7.18 10.35-14.11-.67-2.15-2.4-2.31-4.29-2.3l-41.03.01c-.83 0-1.67-.02-2.5 0-1.96.04-2.78-.95-2.75-2.86v-8.56c-.04-2.21 1.12-2.86 3.13-2.86h58.15c2.08 0 3.67.82 3.61 3.01-.18 7.58.98 15.24-.58 22.74-2.51 12.06-10.97 18.53-22.77 19.03-15.79.68-31.63.46-47.44.06-9.91-.25-17.76-4.87-22.01-14.16-1.16-2.54-2.23-5.33-2.13-8.44.23-7.01.31-14.04.02-21.04-.47-11.21 7.49-20.26 17.43-23.72 1.08-.38 2.34-.31 3.52-.32l34.6-.02zm213.53-.01h38.53c4.66 0 8.77 2.93 9.88 7.02 1.04 3.86-1.25 8.98-5.09 11.22l-38.85 22.58-17.54 10.05c-.74.42-1.7 1-1.49 1.81.38 1.42 1.79.82 2.75.82l54.94.03c5.43 0 5.42 0 5.44 5.52.04 10.47.3 8.71-8.82 8.73l-72.06.02c-4.82 0-8.88-2.77-10.63-6.36-2.17-4.44.43-9.9 4.29-12.23 10.48-6.32 21.16-12.32 31.74-18.48l22.44-13.33c1.22-.76 4.14-.26 3.55-2.61-.64-2.58-2.83-.42-4.22-.43l-54.58-.11c-3.19 0-4.15-1.39-3.87-4.7.16-1.89.2-3.81.04-5.7-.25-2.99 1.01-3.92 3.93-3.9l39.6.05zm-156.97 33.52v-29.6c0-4.13.56-4.43 4.17-2.56l30.13 15.55 34.33 17.89c3.41 1.77 7.04 3.09 10.31 5.18 2.59 1.66 2.39-.54 2.39-2.07l.01-32.45c0-5.46 0-5.5 5.5-5.45 10.13.1 8.73-1.36 8.76 8.59l.02 52.06c0 7.59.12 7.43-6.72 3.82l-42.4-21.96-27.59-14.48c-3.11-1.64-3.93-1.2-3.94 2.41l-.01 32.45c0 4.32-.59 4.84-5 4.9-11.89.17-9.89-.37-9.96-9.69l-.01-24.61zm264.77 16.71c.34-4.11-.39-9.09.34-14.08.26-1.77-1.2-3.17-2.78-4.18l-32.58-20.85-14.12-8.82c-.59-.36-1.49-.43-1.31-1.38.17-.88 1-.9 1.71-.9l22.83.04c2.09.03 3.67 1.61 5.33 2.68l25.2 16.46c1.85 1.21 3.83 1.24 5.67.05l28.51-18.45c.98-.64 1.94-.8 3.02-.8l21.05.01c.89 0 2.13-.39 2.5.78.45 1.4-1.06 1.28-1.76 1.73l-34.09 21.82-12.21 7.85c-1.73 1.06-2.38 2.31-2.36 4.33l.04 26.04c0 4.7-.49 5.22-5.04 5.22-10.97 0-9.95 1.04-9.95-9.93v-7.64zm-408.95-16.65l-.04-30.28c-.02-2.4.59-3.51 3.19-3.33 2.72.19 5.46.09 8.19.03 2.14-.05 2.96.94 2.96 3.02v61.64c0 2.28-.91 3.25-3.19 3.17l-7.48-.01c-2.71.04-3.71-1.21-3.68-3.95l.04-30.28z"/></svg>