<svg xmlns="http://www.w3.org/2000/svg" viewBox="0 0 1080 1080" xmlns:v="https://vecta.io/nano"><g fill="#272727" fill-rule="evenodd"><path d="M180.27 480.99H93.86v25.92h29.25v85.74h29.24v-85.74h27.92v-25.92z"/><path d="M262.02 506.91h-27.25v45.86c0 15.29-8.64 19.28-14.62 19.28-8.64 0-13.3-3.98-13.3-15.28v-49.85h-26.59v51.17c0 22.6 6.65 36.56 30.57 36.56 9.3 0 19.94-5.31 24.59-13.96h.66v11.96H262v-85.74h0zm51.84 18.61c11.97 0 15.95 12.62 15.95 23.26 0 11.3-3.99 24.59-15.95 24.59s-15.95-9.96-15.95-24.59c0-17.95 8.64-23.26 15.95-23.26h0zm-41.87 91.73h26.59v-33.9c5.98 7.31 13.3 11.3 23.93 11.3 23.26 0 34.56-20.61 34.56-43.2 0-23.93-11.3-47.2-36.55-47.2-9.97 0-17.95 4.66-22.6 12.63h-.67v-9.97h-25.26v110.33h0zm132.94-91.73c11.97 0 15.95 12.62 15.95 23.26 0 11.3-3.99 24.59-15.95 24.59-12.63 0-16.62-9.96-16.62-24.59 0-17.95 9.3-23.26 16.62-23.26zm-42.54 91.73h27.25v-33.9c5.32 7.31 13.3 11.3 23.26 11.3 23.26 0 34.56-20.61 34.56-43.2 0-23.93-10.64-47.2-36.56-47.2-9.3 0-17.28 4.66-22.6 12.63v-9.97h-25.92v110.33h0zm116.98-76.44c1.33-10.63 7.98-17.28 17.28-17.28s15.95 7.97 15.95 17.28h-33.23zm60.48 15.95c1.33-29.25-13.96-52.51-43.2-52.51-23.93 0-43.87 19.28-43.87 45.2 0 28.58 17.95 45.19 44.53 45.19 18.61 0 35.89-8.64 41.21-27.92h-25.26c-2.66 5.98-9.31 9.31-15.29 9.31-11.3 0-17.95-7.98-18.61-19.28h60.48zm5.99 35.89h26.59v-41.2c0-10.64 6.65-19.95 19.94-19.95h7.98v-25.26q-2-.67-3.99-.67c-11.3 0-20.61 5.32-24.59 16.62V506.9h-25.92v85.74zm190.09-85.74h-27.92l-13.3 55.17-11.97-55.17h-25.92l-11.3 55.17h-.66l-13.3-55.17h-27.25l25.25 85.74h27.25l12.63-57.16h.66l12.63 57.16h27.25l25.93-85.74h0zm21.93 61.15c0-7.31 5.32-9.97 11.3-11.3s12.63-2 16.61-4.66c.67 17.95-3.98 25.27-16.61 25.27-5.98 0-11.3-2.66-11.3-9.31zm2-34.57c1.33-7.31 5.98-10.63 13.3-10.63 5.31 0 12.63 2 12.63 8.64 0 5.32-2 6.64-6.65 7.98-18.61 3.99-47.86 1.33-47.86 29.25 0 17.94 11.96 25.92 27.92 25.92 9.97 0 19.94-2.65 27.25-10.63v8.63h25.26v-59.81c0-23.93-18.61-28.58-38.55-28.58-9.31 0-18.61 2-25.92 5.99-7.31 4.65-11.96 11.97-12.63 23.26h25.25zm143.57 7.32c1.99-10.63 7.98-17.28 17.94-17.28 8.64 0 15.29 7.97 15.95 17.28h-33.9zm60.48 15.95c1.33-29.25-13.3-52.51-42.54-52.51-24.59 0-44.53 19.28-44.53 45.2 0 28.58 17.94 45.19 45.19 45.19 17.94 0 35.9-8.64 40.54-27.92h-25.26c-2.66 5.98-8.64 9.31-15.29 9.31-11.3 0-17.94-7.98-18.61-19.28h60.49zm-142.24 35.89h26.59v-40.54c0-10.63 6.65-20.6 19.94-20.6h8.64v-25.26q-2.66-.67-4.66-.67c-11.3 0-20.6 5.32-24.59 16.62v-15.29h-25.92v85.74h0zm139.58-96.37h3.33v-9.97h3.98l5.98 9.97h3.99l-6.65-10.64c3.32 0 5.98-1.99 5.98-5.98s-2.66-6.65-7.98-6.65h-8.64v23.26h0 0zm3.33-19.95h4.65c2.66 0 4.65 0 4.65 3.32s-2.65 3.32-5.31 3.32h-3.98v-6.64h0 0z"/></g><path d="M947.29 484.31c0-11.96 9.97-21.93 21.93-21.93 12.63 0 22.6 9.97 22.6 21.93a22.42 22.42 0 0 1-22.23 22.6h-.37c-11.96 0-21.93-9.97-21.93-22.6zm21.94 19.94c10.64 0 19.28-9.3 19.28-19.94s-8.63-19.28-19.28-19.28-19.28 8.64-19.28 19.28 8.64 19.94 19.28 19.94z" fill-rule="evenodd"/></svg>