<svg width="25" height="25" viewBox="0 0 25 25" fill="none" xmlns="http://www.w3.org/2000/svg">
<g clip-path="url(#clip0_37_828)">
<path d="M24.2609 7.91953C24.2609 7.91953 24.0266 6.26484 23.3047 5.53828C22.3906 4.58203 21.3688 4.57734 20.9 4.52109C17.5438 4.27734 12.5047 4.27734 12.5047 4.27734H12.4953C12.4953 4.27734 7.45625 4.27734 4.1 4.52109C3.63125 4.57734 2.60938 4.58203 1.69531 5.53828C0.973438 6.26484 0.74375 7.91953 0.74375 7.91953C0.74375 7.91953 0.5 9.86484 0.5 11.8055V13.6242C0.5 15.5648 0.739062 17.5102 0.739062 17.5102C0.739062 17.5102 0.973437 19.1648 1.69062 19.8914C2.60469 20.8477 3.80469 20.8148 4.33906 20.918C6.26094 21.1008 12.5 21.157 12.5 21.157C12.5 21.157 17.5438 21.1477 20.9 20.9086C21.3688 20.8523 22.3906 20.8477 23.3047 19.8914C24.0266 19.1648 24.2609 17.5102 24.2609 17.5102C24.2609 17.5102 24.5 15.5695 24.5 13.6242V11.8055C24.5 9.86484 24.2609 7.91953 24.2609 7.91953ZM10.0203 15.832V9.08672L16.5031 12.4711L10.0203 15.832Z" fill="#C4C4C4"/>
</g>
<defs>
<clipPath id="clip0_37_828">
<rect width="24" height="24" fill="white" transform="translate(0.5 0.719727)"/>
</clipPath>
</defs>
</svg>
