<svg xmlns="http://www.w3.org/2000/svg" viewBox="0 0 1080 1080" xmlns:v="https://vecta.io/nano"><path d="M190.66,448.2l727.13.61c10.78,2.56,15.07,8.41,16.32,19.28,5.71,49.49-3.89,110.3-.65,160.99-2.65,11.93-14.37,15.5-25.34,15.75l-717.46-.68c-10.94-4.14-14.69-8.32-15.81-19.79-4.96-50.84,3.98-109.86.24-161.62,1.37-7.29,9.01-12.24,15.58-14.55Z" fill="#21fe8f"/><path d="M270.26,475.72c104.56-15.19,117.9,127.89,28.71,140.93-104.13,15.23-116.54-128.17-28.71-140.93Z"/><path d="M748.56,571.68c-9.55,8.53-11.62,34.31-14.36,36.29l-58.74.82c-5.34-1.83-6.47-28.35-16.28-37.11-5.77-5.15-20.38-5.78-22.61-8.9-1.93-2.71-2.14-27.6-.85-31.3,1.84-5.3,11.47-4.52,17.12-7.54,18.66-9.95,16.65-36.62,20.71-39.54,5.89-4.23,48.29.38,58.74-.82,6.08,2.08,4.2,30.53,22.63,40.36,5.65,3.02,15.28,2.23,17.12,7.54,1.29,3.7,1.08,28.6-.85,31.3-2.23,3.12-16.85,3.75-22.61,8.9Z" fill="#000100"/><path d="M490.14 483.22l-1.43 32.8-56.12 60.28h57.55v32.85H388.75l1.42-32.8 56.12-63.02h-46.58v-30.11h90.43zm368.55 0c20.51 3.42 39.16 26.73 38.7 47.47-.9 41.02-42.09 49.67-75.71 45.59l.03 32.88h-30.16V483.22c20.4 2.39 47.68-3.24 67.14 0z"/><path d="M599.74,485.96l-3.03,5.18c-10.16-1.7-19.19-.69-27.11,3.03-3.61,4.44-6.11,2.69-9.72-.48-32.27,28.66-31.24,88.21,6.98,107.25,9.43.04,19.15.24,29.15.62l3.73,4.86c-2.85,4.53-10.4,2.74-15.03,2.79-11.86.12-57.34,2.03-64.45-1.4-16.24-7.84-20.75-60.55-19.14-76.64.96-9.54,10.74-42.53,19.14-46.58,7.07-3.41,52.64-1.55,64.45-1.4,4.64.06,12.18-1.75,15.03,2.79Z" fill="#000100"/><path d="M599.74,485.96c8.59,2.69,18.75,43.43,19.29,53.25.69,12.45-6.83,63.31-19.29,67.2-5.12,1.6-31.28,2.26-32.88-5.48l-.89-7.58c20.1-26.56,22.34-64.19,2.64-91.58l.99-7.61c.37-2.04-.6-7.7-.02-8.22,1.13-1,28.11-.63,30.16,0Z"/><path d="M267.82,500c2.38,1.52,2.61,22.84,14.2,28.33,3.42,1.62,10.15,1.04,10.68,1.55.88.84.88,23.54,0,24.39-1.73,1.67-11.29-2.69-19.58,11.9-7.95,13.99.94,18.4-24.14,15.61-6.57-11.42,15.66-36.58,15.66-39.69s-23.31-30.18-15.67-42.44c4.72.89,15.76-1.61,18.84.36Z" fill="#21fc8e"/><path d="M303.68,499.77c1.02.99,1.42,20.29,9.09,26.46,4.96,3.99,14.86,2.93,15.57,3.64.86.86.86,23.55,0,24.41-.71.71-10.6-.34-15.57,3.64-12.06,9.67.08,30.94-28.15,23.82,3.93-11.1,4.15-20.73,15.87-26.68,2.4-1.22,7.85-.02,8.66-.79.88-.84.88-23.54,0-24.39-.52-.5-8.03.47-13.8-4-6.68-5.18-7.51-14.76-10.22-22.23.86-5,17.23-5.16,18.56-3.88Z" fill="#20fb8d"/><path d="M706.58,499.64c1.13,1.18,7.03,22.86,12.51,29.97,6.22,8.07,13.55,9,18.68,13.6,2.43,2.18,2.33,2.09,1.71,5.67-22.21,4.09-25.09,25.91-32.78,42.56-1.25,2.71-1.6,6.42-5.54,6.75-.09-13.73-9.04-33.27-19.07-42.55-5.95-5.51-15.29-4.7-13.82-12.14,13.52-3.21,19.69-13.58,26.12-24.58,1.84-3.14,6.97-24.74,12.2-19.28Z" fill="#21fd8f"/><path d="M821.69,546.2c1.14-7-2.74-27.97,2.58-31.67,6-4.17,35.48-2.17,39.9,7.01,12.64,26.23-26.12,26.71-42.48,24.67Z" fill="#20f98d"/><path d="M569.6,494.17c26.02,30.87,23.19,76.93-2.74,106.77-1.2,1.38-6.14,5.2-8.22,4.29-3.97-1.74-16.91-19.98-19.27-24.75-16.91-34.19-6.9-69.91,20.63-94.44,2.04,3.42,7.68,5.86,9.59,8.12Z" fill="#21fe8f"/></svg>