<!-- AePS (Aadhaar-Enabled Payment System) Icon -->
<!-- TODO: Replace with official NPCI AePS logo from https://www.npci.org.in/what-we-do/aeps/product-overview -->
<svg xmlns="http://www.w3.org/2000/svg" viewBox="0 0 64 64" fill="none">
  <!-- Background circle -->
  <circle cx="32" cy="32" r="30" stroke="#1F5AA6" stroke-width="2" fill="#EBF2FA"/>
  <!-- Fingerprint arcs (stylized Aadhaar biometric symbol) -->
  <path d="M32 16c-8.84 0-16 7.16-16 16" stroke="#1F5AA6" stroke-width="2.5" stroke-linecap="round"/>
  <path d="M32 20c-6.63 0-12 5.37-12 12" stroke="#2FA4A9" stroke-width="2.5" stroke-linecap="round"/>
  <path d="M32 24c-4.42 0-8 3.58-8 8s3.58 8 8 8" stroke="#1F5AA6" stroke-width="2.5" stroke-linecap="round"/>
  <path d="M32 28c-2.21 0-4 1.79-4 4s1.79 4 4 4" stroke="#2FA4A9" stroke-width="2.5" stroke-linecap="round"/>
  <circle cx="32" cy="32" r="1.5" fill="#1F5AA6"/>
  <!-- Rupee symbol (path-based) -->
  <path d="M40 42h6M40 46h6M42 42v8M44 42c1.5 0 2.5 1 2.5 2s-1 2-2.5 2h-2" stroke="#F7931E" stroke-width="1.8" stroke-linecap="round" stroke-linejoin="round"/>
</svg>
